<?xml version="1.0" encoding="utf-8" standalone="no"?>
<!DOCTYPE svg PUBLIC "-//W3C//DTD SVG 1.1//EN"
  "http://www.w3.org/Graphics/SVG/1.1/DTD/svg11.dtd">
<!-- Created with matplotlib (http://matplotlib.org/) -->
<svg height="576pt" version="1.1" viewBox="0 0 640 576" width="640pt" xmlns="http://www.w3.org/2000/svg" xmlns:xlink="http://www.w3.org/1999/xlink">
 <defs>
  <style type="text/css">
*{stroke-linecap:butt;stroke-linejoin:round;stroke-miterlimit:100000;}
  </style>
 </defs>
 <g id="figure_1">
  <g id="patch_1">
   <path d="M 0 576 
L 640.8 576 
L 640.8 0 
L 0 0 
z
" style="fill:#ffffff;"/>
  </g>
  <g id="axes_1">
   <g id="patch_2">
    <path d="M 80.1 518.4 
L 576.72 518.4 
L 576.72 57.6 
L 80.1 57.6 
z
" style="fill:#ffffff;"/>
   </g>
   <g id="line2d_1">
    <path clip-path="url(#p4ca58a351a)" d="M -1 518.4 
L 64.9255 518.335907 
L 67.6845 518.177977 
L 103.5515 518.327131 
L 104.931 515.837159 
L 106.3105 327.869127 
L 107.69 232.267655 
L 109.0695 193.740313 
L 110.449 174.043002 
L 111.8285 164.546398 
L 113.208 162.382065 
L 114.5875 164.625466 
L 115.967 169.382935 
L 117.3465 175.640734 
L 121.485 196.20447 
L 122.8645 202.319363 
L 124.244 207.574131 
L 125.6235 211.928115 
L 127.003 215.373003 
L 128.3825 218.065931 
L 132.521 225.156044 
L 133.9005 228.091045 
L 135.28 231.636615 
L 136.6595 235.753183 
L 138.039 240.406267 
L 140.798 250.887891 
L 150.4545 290.248842 
L 153.2135 300.254368 
L 157.352 314.196477 
L 160.111 322.941897 
L 162.87 331.109522 
L 167.0085 342.454931 
L 171.147 352.929482 
L 173.906 359.412239 
L 176.665 365.495751 
L 179.424 371.171311 
L 182.183 376.38181 
L 184.942 381.04994 
L 187.701 385.04197 
L 189.0805 386.724655 
L 190.46 388.181889 
L 191.8395 389.411575 
L 193.219 390.419641 
L 194.5985 391.228868 
L 195.978 391.868765 
L 198.737 392.797584 
L 204.255 394.352981 
L 207.014 395.396355 
L 209.773 396.735971 
L 212.532 398.361373 
L 216.6705 401.198334 
L 223.568 406.386086 
L 230.4655 411.508083 
L 235.9835 415.349665 
L 241.5015 418.942177 
L 248.399 423.178687 
L 255.2965 427.127627 
L 260.8145 429.978601 
L 264.953 431.892631 
L 270.471 434.16363 
L 278.748 437.260207 
L 295.302 443.163573 
L 306.338 446.868015 
L 314.615 449.444306 
L 324.2715 452.198549 
L 333.928 454.743335 
L 344.964 457.413355 
L 357.3795 460.1354 
L 369.795 462.630448 
L 382.2105 464.895514 
L 397.385 467.43293 
L 412.5595 469.772675 
L 429.1135 472.067807 
L 445.6675 474.126849 
L 463.601 476.153137 
L 470.4985 476.882335 
L 470.4985 476.882335 
" style="fill:none;stroke:#008000;stroke-linecap:square;stroke-width:2.0;"/>
   </g>
   <g id="line2d_2">
    <path clip-path="url(#p4ca58a351a)" d="M -1 518.4 
L 64.9255 518.335909 
L 67.6845 518.177999 
L 104.931 518.330796 
L 106.3105 501.891674 
L 107.69 314.538301 
L 109.0695 239.266566 
L 110.449 206.15406 
L 111.8285 188.961198 
L 113.208 180.758736 
L 114.5875 178.823978 
L 115.967 180.708374 
L 117.3465 184.999815 
L 118.726 190.684944 
L 122.8645 209.484306 
L 124.244 214.958308 
L 125.6235 219.657721 
L 127.003 223.490006 
L 128.3825 226.519253 
L 129.762 228.924846 
L 133.9005 235.102051 
L 135.28 237.668903 
L 136.6595 240.744132 
L 138.039 244.345576 
L 139.4185 248.422493 
L 142.1775 257.724607 
L 144.9365 268.04955 
L 150.4545 289.05576 
L 154.593 303.584021 
L 157.352 312.655076 
L 161.4905 325.380465 
L 164.2495 333.200236 
L 167.0085 340.454488 
L 171.147 350.548347 
L 175.2855 359.887897 
L 179.424 368.546584 
L 182.183 373.920055 
L 184.942 378.903712 
L 187.701 383.454586 
L 190.46 387.471592 
L 191.8395 389.228226 
L 193.219 390.790395 
L 194.5985 392.144615 
L 195.978 393.286049 
L 197.3575 394.219807 
L 198.737 394.961913 
L 200.1165 395.538675 
L 202.8755 396.337069 
L 209.773 397.942006 
L 212.532 398.939664 
L 215.291 400.232936 
L 218.05 401.78614 
L 222.1885 404.465727 
L 230.4655 410.303381 
L 237.363 415.042929 
L 244.2605 419.482729 
L 251.158 423.640509 
L 258.0555 427.517319 
L 263.5735 430.371007 
L 269.0915 432.950018 
L 274.6095 435.245712 
L 281.507 437.806578 
L 292.543 441.581791 
L 307.7175 446.536957 
L 317.374 449.474223 
L 327.0305 452.199276 
L 336.687 454.719103 
L 347.723 457.358855 
L 358.759 459.7757 
L 371.1745 462.264733 
L 384.9695 464.792012 
L 400.144 467.341938 
L 405.662 468.212708 
L 405.662 468.212708 
" style="fill:none;stroke:#00402a;stroke-dasharray:12.000000,3.000000;stroke-dashoffset:0.0;stroke-width:2.0;"/>
   </g>
   <g id="line2d_3">
    <path clip-path="url(#p4ca58a351a)" d="M -1 518.4 
L 64.9255 518.33591 
L 67.6845 518.17797 
L 102.172 518.324094 
L 103.5515 452.953256 
L 104.931 228.020971 
L 106.3105 147.623817 
L 107.69 110.458927 
L 109.0695 94.517003 
L 110.449 91.440382 
L 111.8285 95.317818 
L 113.208 103.394776 
L 115.967 124.594079 
L 118.726 145.611614 
L 120.1055 154.194639 
L 121.485 160.84134 
L 122.8645 165.629181 
L 124.244 168.600123 
L 125.6235 170.356987 
L 127.003 171.636529 
L 128.3825 173.28862 
L 129.762 175.863428 
L 131.1415 179.636114 
L 132.521 184.743452 
L 133.9005 190.986252 
L 136.6595 205.92697 
L 144.9365 254.101557 
L 147.6955 268.42584 
L 150.4545 281.55246 
L 153.2135 293.495972 
L 155.9725 304.613599 
L 158.7315 315.017083 
L 161.4905 324.740142 
L 165.629 338.442767 
L 168.388 346.894473 
L 171.147 354.46824 
L 172.5265 357.793875 
L 173.906 360.656609 
L 175.2855 363.002877 
L 176.665 364.763139 
L 178.0445 366.061374 
L 179.424 366.967357 
L 180.8035 367.661049 
L 182.183 368.200365 
L 184.942 368.952499 
L 187.701 369.603221 
L 189.0805 370.042308 
L 190.46 370.605762 
L 191.8395 371.29199 
L 193.219 372.160867 
L 194.5985 373.242122 
L 195.978 374.497352 
L 198.737 377.434938 
L 202.8755 382.415435 
L 208.3935 389.200159 
L 212.532 393.89609 
L 216.6705 398.210402 
L 220.809 402.165635 
L 227.7065 408.342023 
L 233.2245 413.088872 
L 238.7425 417.500142 
L 241.5015 419.357629 
L 244.2605 421.015737 
L 248.399 423.138348 
L 253.917 425.720314 
L 259.435 428.305421 
L 266.3325 431.694551 
L 275.989 436.429368 
L 281.507 438.846284 
L 289.784 442.344891 
L 296.6815 444.997779 
L 307.7175 448.908775 
L 313.2355 450.522358 
L 322.892 453.266001 
L 329.7895 455.128216 
L 336.687 456.827734 
L 349.1025 459.704552 
L 358.759 461.778613 
L 372.554 464.466392 
L 380.831 465.965167 
L 404.2825 469.794807 
L 426.3545 472.815021 
L 469.119 477.87051 
L 476.0165 478.634063 
L 476.0165 478.634063 
" style="fill:none;stroke:#000055;stroke-dasharray:10.000000,6.000000,3.000000,2.000000,3.000000,6.000000;stroke-dashoffset:0.0;stroke-width:2.0;"/>
   </g>
   <g id="line2d_4">
    <path clip-path="url(#p4ca58a351a)" d="M -1 518.4 
L 102.172 518.346904 
L 103.5515 517.555586 
L 104.931 513.140255 
L 106.3105 510.899414 
L 107.69 509.487143 
L 109.0695 508.635439 
L 110.449 508.162955 
L 111.8285 507.924591 
L 114.5875 507.805067 
L 118.726 507.955475 
L 124.244 508.381692 
L 125.6235 508.31888 
L 127.003 507.674024 
L 128.3825 505.53933 
L 129.762 501.07949 
L 132.521 489.481918 
L 133.9005 485.314176 
L 135.28 482.518567 
L 136.6595 480.629731 
L 138.039 479.302075 
L 139.4185 478.392806 
L 140.798 477.825015 
L 142.1775 477.516161 
L 143.557 477.379991 
L 146.316 477.40916 
L 150.4545 477.748221 
L 154.593 478.19467 
L 157.352 478.358016 
L 158.7315 478.349311 
L 160.111 478.187913 
L 161.4905 477.74421 
L 162.87 476.85845 
L 164.2495 475.399453 
L 165.629 473.247368 
L 167.0085 470.22336 
L 168.388 465.745 
L 169.7675 458.4085 
L 171.147 445.933743 
L 172.5265 427.511532 
L 173.906 406.216271 
L 175.2855 386.740305 
L 176.665 371.625729 
L 178.0445 361.042674 
L 179.424 353.79809 
L 180.8035 348.956483 
L 182.183 345.921248 
L 183.5625 344.121505 
L 184.942 343.186408 
L 186.3215 342.835943 
L 187.701 342.860103 
L 189.0805 343.107219 
L 191.8395 344.019396 
L 194.5985 345.359415 
L 197.3575 347.079102 
L 198.737 348.106763 
L 201.496 350.572447 
L 204.255 353.459282 
L 207.014 356.678208 
L 211.1525 361.967453 
L 220.809 374.531551 
L 226.327 381.284948 
L 231.845 387.678232 
L 235.9835 392.179059 
L 241.5015 397.79461 
L 245.64 401.682793 
L 249.7785 405.278649 
L 253.917 408.621837 
L 258.0555 411.696962 
L 263.5735 415.450743 
L 269.0915 418.928959 
L 274.6095 422.166867 
L 281.507 425.919256 
L 287.025 428.664418 
L 293.9225 431.84616 
L 300.82 434.779209 
L 307.7175 437.448625 
L 315.9945 440.405726 
L 324.2715 443.110545 
L 335.3075 446.430287 
L 346.3435 449.570097 
L 357.3795 452.412048 
L 368.4155 455.030414 
L 380.831 457.735847 
L 394.626 460.527738 
L 405.662 462.570199 
L 419.457 464.920421 
L 434.6315 467.334367 
L 451.1855 469.71119 
L 469.119 472.058442 
L 487.0525 474.17973 
L 507.745 476.412869 
L 527.058 478.294091 
L 553.2685 480.608198 
L 560.166 481.173071 
L 560.166 481.173071 
" style="fill:none;stroke:#004080;stroke-dasharray:6.000000,3.000000;stroke-dashoffset:0.0;stroke-width:2.0;"/>
   </g>
   <g id="line2d_5">
    <path clip-path="url(#p4ca58a351a)" d="M -1 518.4 
L 103.5515 518.336354 
L 104.931 515.631819 
L 106.3105 512.456743 
L 107.69 510.734612 
L 109.0695 509.596247 
L 110.449 508.893613 
L 111.8285 508.486177 
L 113.208 508.266132 
L 115.967 508.117477 
L 120.1055 508.168839 
L 125.6235 508.489157 
L 128.3825 508.62219 
L 129.762 508.44631 
L 131.1415 507.68068 
L 132.521 505.762655 
L 133.9005 502.32312 
L 136.6595 493.364532 
L 138.039 489.589572 
L 139.4185 486.885659 
L 140.798 485.058722 
L 142.1775 483.900621 
L 143.557 483.209392 
L 144.9365 482.818334 
L 146.316 482.62333 
L 149.075 482.598494 
L 157.352 483.079066 
L 161.4905 483.270551 
L 162.87 483.231288 
L 164.2495 483.023708 
L 165.629 482.547132 
L 167.0085 481.699719 
L 168.388 480.400884 
L 169.7675 478.602816 
L 171.147 476.233551 
L 172.5265 472.955274 
L 173.906 467.511676 
L 175.2855 457.61241 
L 176.665 440.816614 
L 179.424 398.430863 
L 180.8035 382.582957 
L 182.183 371.602413 
L 183.5625 364.157166 
L 184.942 359.156261 
L 186.3215 355.960355 
L 187.701 354.006058 
L 189.0805 352.843848 
L 190.46 352.179304 
L 191.8395 351.8391 
L 193.219 351.724511 
L 194.5985 351.785635 
L 195.978 351.999133 
L 197.3575 352.356038 
L 198.737 352.851797 
L 200.1165 353.483555 
L 201.496 354.252713 
L 204.255 356.177699 
L 207.014 358.529266 
L 209.773 361.193693 
L 213.9115 365.572135 
L 222.1885 374.847401 
L 230.4655 383.987131 
L 235.9835 389.828816 
L 241.5015 395.319758 
L 245.64 399.165082 
L 249.7785 402.769362 
L 253.917 406.140005 
L 258.0555 409.287841 
L 263.5735 413.173379 
L 269.0915 416.758195 
L 274.6095 420.086558 
L 280.1275 423.184354 
L 287.025 426.760083 
L 293.9225 430.035421 
L 300.82 433.037546 
L 307.7175 435.80526 
L 315.9945 438.870405 
L 324.2715 441.689262 
L 333.928 444.714481 
L 343.5845 447.501137 
L 354.6205 450.441052 
L 365.6565 453.156382 
L 378.072 455.978378 
L 390.4875 458.579268 
L 404.2825 461.233539 
L 419.457 463.907437 
L 436.011 466.592751 
L 452.565 469.03513 
L 470.4985 471.438606 
L 488.432 473.60987 
L 509.1245 475.8813 
L 531.1965 478.062296 
L 554.648 480.148358 
L 560.166 480.609224 
L 560.166 480.609224 
" style="fill:none;stroke:#0080aa;stroke-dasharray:3.000000,2.000000,12.000000,2.000000;stroke-dashoffset:0.0;stroke-width:2.0;"/>
   </g>
   <g id="line2d_6">
    <path clip-path="url(#p4ca58a351a)" d="M -1 518.4 
L 100.7925 518.346477 
L 102.172 517.151797 
L 103.5515 511.724542 
L 104.931 508.895158 
L 106.3105 507.228746 
L 107.69 506.370853 
L 109.0695 506.006076 
L 110.449 505.915036 
L 113.208 506.094103 
L 121.485 506.995163 
L 122.8645 507.161742 
L 124.244 507.187039 
L 125.6235 506.379278 
L 127.003 503.27759 
L 128.3825 496.982412 
L 129.762 489.173484 
L 131.1415 482.682664 
L 132.521 478.32605 
L 133.9005 475.750479 
L 135.28 474.290731 
L 136.6595 473.382858 
L 138.039 472.73137 
L 139.4185 472.28775 
L 140.798 472.118397 
L 142.1775 472.20401 
L 143.557 472.460777 
L 147.6955 473.694645 
L 150.4545 474.641475 
L 151.834 475.00843 
L 153.2135 475.111248 
L 154.593 474.723097 
L 155.9725 473.52075 
L 157.352 471.248046 
L 158.7315 467.816775 
L 160.111 463.227368 
L 161.4905 457.123808 
L 162.87 447.022455 
L 164.2495 426.995095 
L 165.629 392.29861 
L 167.0085 354.229649 
L 168.388 324.74482 
L 169.7675 305.8991 
L 171.147 294.995509 
L 172.5265 289.186992 
L 173.906 286.449746 
L 175.2855 285.30973 
L 176.665 285.870563 
L 178.0445 287.224062 
L 179.424 288.935879 
L 182.183 293.475094 
L 184.942 297.648323 
L 187.701 302.553754 
L 190.46 307.900981 
L 193.219 314.000543 
L 200.1165 329.974527 
L 205.6345 342.014061 
L 211.1525 353.337135 
L 215.291 361.165395 
L 219.4295 368.469012 
L 223.568 375.284212 
L 226.327 379.469974 
L 230.4655 385.278614 
L 233.2245 388.848278 
L 235.9835 392.134656 
L 238.7425 395.111988 
L 244.2605 400.720335 
L 248.399 404.704285 
L 252.5375 408.27381 
L 258.0555 412.727842 
L 260.8145 414.752631 
L 266.3325 418.443161 
L 270.471 421.031432 
L 274.6095 423.331733 
L 284.266 428.367474 
L 289.784 430.968338 
L 295.302 433.435705 
L 300.82 435.710325 
L 311.856 440.223102 
L 315.9945 441.696335 
L 327.0305 445.358738 
L 344.964 450.618472 
L 361.518 455.005273 
L 368.4155 456.610125 
L 384.9695 460.324914 
L 401.5235 463.507622 
L 415.3185 465.867026 
L 430.493 468.282444 
L 441.529 469.970948 
L 455.324 471.786913 
L 469.119 473.496378 
L 477.396 474.476747 
L 513.263 478.29874 
L 558.7865 482.379892 
L 560.166 482.491123 
L 560.166 482.491123 
" style="fill:none;stroke:#81c0d5;stroke-dasharray:4.000000,2.000000;stroke-dashoffset:0.0;stroke-width:2.0;"/>
   </g>
   <g id="patch_3">
    <path d="M 80.1 57.6 
L 576.72 57.6 
" style="fill:none;stroke:#000000;stroke-linecap:square;stroke-linejoin:miter;"/>
   </g>
   <g id="patch_4">
    <path d="M 576.72 518.4 
L 576.72 57.6 
" style="fill:none;stroke:#000000;stroke-linecap:square;stroke-linejoin:miter;"/>
   </g>
   <g id="patch_5">
    <path d="M 80.1 518.4 
L 576.72 518.4 
" style="fill:none;stroke:#000000;stroke-linecap:square;stroke-linejoin:miter;"/>
   </g>
   <g id="patch_6">
    <path d="M 80.1 518.4 
L 80.1 57.6 
" style="fill:none;stroke:#000000;stroke-linecap:square;stroke-linejoin:miter;"/>
   </g>
   <g id="matplotlib.axis_1">
    <g id="xtick_1">
     <g id="line2d_7">
      <defs>
       <path d="M 0 0 
L 0 -3 
" id="m25b7d604d4" style="stroke:#000000;"/>
      </defs>
      <g>
       <use style="stroke:#000000;" x="129.762" xlink:href="#m25b7d604d4" y="518.4"/>
      </g>
     </g>
     <g id="line2d_8">
      <defs>
       <path d="M 0 0 
L 0 3 
" id="m86d3648ce1" style="stroke:#000000;"/>
      </defs>
      <g>
       <use style="stroke:#000000;" x="129.762" xlink:href="#m86d3648ce1" y="57.6"/>
      </g>
     </g>
     <g id="text_1">
      <!-- 45 -->
      <defs>
       <path d="M 37.796875 64.3125 
L 12.890625 25.390625 
L 37.796875 25.390625 
z
M 35.203125 72.90625 
L 47.609375 72.90625 
L 47.609375 25.390625 
L 58.015625 25.390625 
L 58.015625 17.1875 
L 47.609375 17.1875 
L 47.609375 0 
L 37.796875 0 
L 37.796875 17.1875 
L 4.890625 17.1875 
L 4.890625 26.703125 
z
" id="BitstreamVeraSans-Roman-34"/>
       <path d="M 10.796875 72.90625 
L 49.515625 72.90625 
L 49.515625 64.59375 
L 19.828125 64.59375 
L 19.828125 46.734375 
Q 21.96875 47.46875 24.109375 47.828125 
Q 26.265625 48.1875 28.421875 48.1875 
Q 40.625 48.1875 47.75 41.5 
Q 54.890625 34.8125 54.890625 23.390625 
Q 54.890625 11.625 47.5625 5.09375 
Q 40.234375 -1.421875 26.90625 -1.421875 
Q 22.3125 -1.421875 17.546875 -0.640625 
Q 12.796875 0.140625 7.71875 1.703125 
L 7.71875 11.625 
Q 12.109375 9.234375 16.796875 8.0625 
Q 21.484375 6.890625 26.703125 6.890625 
Q 35.15625 6.890625 40.078125 11.328125 
Q 45.015625 15.765625 45.015625 23.390625 
Q 45.015625 31 40.078125 35.4375 
Q 35.15625 39.890625 26.703125 39.890625 
Q 22.75 39.890625 18.8125 39.015625 
Q 14.890625 38.140625 10.796875 36.28125 
z
" id="BitstreamVeraSans-Roman-35"/>
      </defs>
      <g transform="translate(118.94575 535.31734375)scale(0.17 -0.17)">
       <use xlink:href="#BitstreamVeraSans-Roman-34"/>
       <use x="63.623046875" xlink:href="#BitstreamVeraSans-Roman-35"/>
      </g>
     </g>
    </g>
    <g id="xtick_2">
     <g id="line2d_9">
      <g>
       <use style="stroke:#000000;" x="212.532" xlink:href="#m25b7d604d4" y="518.4"/>
      </g>
     </g>
     <g id="line2d_10">
      <g>
       <use style="stroke:#000000;" x="212.532" xlink:href="#m86d3648ce1" y="57.6"/>
      </g>
     </g>
     <g id="text_2">
      <!-- 50 -->
      <defs>
       <path d="M 31.78125 66.40625 
Q 24.171875 66.40625 20.328125 58.90625 
Q 16.5 51.421875 16.5 36.375 
Q 16.5 21.390625 20.328125 13.890625 
Q 24.171875 6.390625 31.78125 6.390625 
Q 39.453125 6.390625 43.28125 13.890625 
Q 47.125 21.390625 47.125 36.375 
Q 47.125 51.421875 43.28125 58.90625 
Q 39.453125 66.40625 31.78125 66.40625 
M 31.78125 74.21875 
Q 44.046875 74.21875 50.515625 64.515625 
Q 56.984375 54.828125 56.984375 36.375 
Q 56.984375 17.96875 50.515625 8.265625 
Q 44.046875 -1.421875 31.78125 -1.421875 
Q 19.53125 -1.421875 13.0625 8.265625 
Q 6.59375 17.96875 6.59375 36.375 
Q 6.59375 54.828125 13.0625 64.515625 
Q 19.53125 74.21875 31.78125 74.21875 
" id="BitstreamVeraSans-Roman-30"/>
      </defs>
      <g transform="translate(201.71575 535.31734375)scale(0.17 -0.17)">
       <use xlink:href="#BitstreamVeraSans-Roman-35"/>
       <use x="63.623046875" xlink:href="#BitstreamVeraSans-Roman-30"/>
      </g>
     </g>
    </g>
    <g id="xtick_3">
     <g id="line2d_11">
      <g>
       <use style="stroke:#000000;" x="295.302" xlink:href="#m25b7d604d4" y="518.4"/>
      </g>
     </g>
     <g id="line2d_12">
      <g>
       <use style="stroke:#000000;" x="295.302" xlink:href="#m86d3648ce1" y="57.6"/>
      </g>
     </g>
     <g id="text_3">
      <!-- 55 -->
      <g transform="translate(284.48575 535.31734375)scale(0.17 -0.17)">
       <use xlink:href="#BitstreamVeraSans-Roman-35"/>
       <use x="63.623046875" xlink:href="#BitstreamVeraSans-Roman-35"/>
      </g>
     </g>
    </g>
    <g id="xtick_4">
     <g id="line2d_13">
      <g>
       <use style="stroke:#000000;" x="378.072" xlink:href="#m25b7d604d4" y="518.4"/>
      </g>
     </g>
     <g id="line2d_14">
      <g>
       <use style="stroke:#000000;" x="378.072" xlink:href="#m86d3648ce1" y="57.6"/>
      </g>
     </g>
     <g id="text_4">
      <!-- 60 -->
      <defs>
       <path d="M 33.015625 40.375 
Q 26.375 40.375 22.484375 35.828125 
Q 18.609375 31.296875 18.609375 23.390625 
Q 18.609375 15.53125 22.484375 10.953125 
Q 26.375 6.390625 33.015625 6.390625 
Q 39.65625 6.390625 43.53125 10.953125 
Q 47.40625 15.53125 47.40625 23.390625 
Q 47.40625 31.296875 43.53125 35.828125 
Q 39.65625 40.375 33.015625 40.375 
M 52.59375 71.296875 
L 52.59375 62.3125 
Q 48.875 64.0625 45.09375 64.984375 
Q 41.3125 65.921875 37.59375 65.921875 
Q 27.828125 65.921875 22.671875 59.328125 
Q 17.53125 52.734375 16.796875 39.40625 
Q 19.671875 43.65625 24.015625 45.921875 
Q 28.375 48.1875 33.59375 48.1875 
Q 44.578125 48.1875 50.953125 41.515625 
Q 57.328125 34.859375 57.328125 23.390625 
Q 57.328125 12.15625 50.6875 5.359375 
Q 44.046875 -1.421875 33.015625 -1.421875 
Q 20.359375 -1.421875 13.671875 8.265625 
Q 6.984375 17.96875 6.984375 36.375 
Q 6.984375 53.65625 15.1875 63.9375 
Q 23.390625 74.21875 37.203125 74.21875 
Q 40.921875 74.21875 44.703125 73.484375 
Q 48.484375 72.75 52.59375 71.296875 
" id="BitstreamVeraSans-Roman-36"/>
      </defs>
      <g transform="translate(367.25575 535.31734375)scale(0.17 -0.17)">
       <use xlink:href="#BitstreamVeraSans-Roman-36"/>
       <use x="63.623046875" xlink:href="#BitstreamVeraSans-Roman-30"/>
      </g>
     </g>
    </g>
    <g id="xtick_5">
     <g id="line2d_15">
      <g>
       <use style="stroke:#000000;" x="460.842" xlink:href="#m25b7d604d4" y="518.4"/>
      </g>
     </g>
     <g id="line2d_16">
      <g>
       <use style="stroke:#000000;" x="460.842" xlink:href="#m86d3648ce1" y="57.6"/>
      </g>
     </g>
     <g id="text_5">
      <!-- 65 -->
      <g transform="translate(450.02575 535.31734375)scale(0.17 -0.17)">
       <use xlink:href="#BitstreamVeraSans-Roman-36"/>
       <use x="63.623046875" xlink:href="#BitstreamVeraSans-Roman-35"/>
      </g>
     </g>
    </g>
    <g id="xtick_6">
     <g id="line2d_17">
      <g>
       <use style="stroke:#000000;" x="543.612" xlink:href="#m25b7d604d4" y="518.4"/>
      </g>
     </g>
     <g id="line2d_18">
      <g>
       <use style="stroke:#000000;" x="543.612" xlink:href="#m86d3648ce1" y="57.6"/>
      </g>
     </g>
     <g id="text_6">
      <!-- 70 -->
      <defs>
       <path d="M 8.203125 72.90625 
L 55.078125 72.90625 
L 55.078125 68.703125 
L 28.609375 0 
L 18.3125 0 
L 43.21875 64.59375 
L 8.203125 64.59375 
z
" id="BitstreamVeraSans-Roman-37"/>
      </defs>
      <g transform="translate(532.79575 535.31734375)scale(0.17 -0.17)">
       <use xlink:href="#BitstreamVeraSans-Roman-37"/>
       <use x="63.623046875" xlink:href="#BitstreamVeraSans-Roman-30"/>
      </g>
     </g>
    </g>
    <g id="xtick_7">
     <g id="line2d_19">
      <g>
       <use style="stroke:#000000;" x="96.654" xlink:href="#m25b7d604d4" y="518.4"/>
      </g>
     </g>
     <g id="line2d_20">
      <g>
       <use style="stroke:#000000;" x="96.654" xlink:href="#m86d3648ce1" y="57.6"/>
      </g>
     </g>
    </g>
    <g id="xtick_8">
     <g id="line2d_21">
      <g>
       <use style="stroke:#000000;" x="113.208" xlink:href="#m25b7d604d4" y="518.4"/>
      </g>
     </g>
     <g id="line2d_22">
      <g>
       <use style="stroke:#000000;" x="113.208" xlink:href="#m86d3648ce1" y="57.6"/>
      </g>
     </g>
    </g>
    <g id="xtick_9">
     <g id="line2d_23">
      <g>
       <use style="stroke:#000000;" x="146.316" xlink:href="#m25b7d604d4" y="518.4"/>
      </g>
     </g>
     <g id="line2d_24">
      <g>
       <use style="stroke:#000000;" x="146.316" xlink:href="#m86d3648ce1" y="57.6"/>
      </g>
     </g>
    </g>
    <g id="xtick_10">
     <g id="line2d_25">
      <g>
       <use style="stroke:#000000;" x="162.87" xlink:href="#m25b7d604d4" y="518.4"/>
      </g>
     </g>
     <g id="line2d_26">
      <g>
       <use style="stroke:#000000;" x="162.87" xlink:href="#m86d3648ce1" y="57.6"/>
      </g>
     </g>
    </g>
    <g id="xtick_11">
     <g id="line2d_27">
      <g>
       <use style="stroke:#000000;" x="179.424" xlink:href="#m25b7d604d4" y="518.4"/>
      </g>
     </g>
     <g id="line2d_28">
      <g>
       <use style="stroke:#000000;" x="179.424" xlink:href="#m86d3648ce1" y="57.6"/>
      </g>
     </g>
    </g>
    <g id="xtick_12">
     <g id="line2d_29">
      <g>
       <use style="stroke:#000000;" x="195.978" xlink:href="#m25b7d604d4" y="518.4"/>
      </g>
     </g>
     <g id="line2d_30">
      <g>
       <use style="stroke:#000000;" x="195.978" xlink:href="#m86d3648ce1" y="57.6"/>
      </g>
     </g>
    </g>
    <g id="xtick_13">
     <g id="line2d_31">
      <g>
       <use style="stroke:#000000;" x="229.086" xlink:href="#m25b7d604d4" y="518.4"/>
      </g>
     </g>
     <g id="line2d_32">
      <g>
       <use style="stroke:#000000;" x="229.086" xlink:href="#m86d3648ce1" y="57.6"/>
      </g>
     </g>
    </g>
    <g id="xtick_14">
     <g id="line2d_33">
      <g>
       <use style="stroke:#000000;" x="245.64" xlink:href="#m25b7d604d4" y="518.4"/>
      </g>
     </g>
     <g id="line2d_34">
      <g>
       <use style="stroke:#000000;" x="245.64" xlink:href="#m86d3648ce1" y="57.6"/>
      </g>
     </g>
    </g>
    <g id="xtick_15">
     <g id="line2d_35">
      <g>
       <use style="stroke:#000000;" x="262.194" xlink:href="#m25b7d604d4" y="518.4"/>
      </g>
     </g>
     <g id="line2d_36">
      <g>
       <use style="stroke:#000000;" x="262.194" xlink:href="#m86d3648ce1" y="57.6"/>
      </g>
     </g>
    </g>
    <g id="xtick_16">
     <g id="line2d_37">
      <g>
       <use style="stroke:#000000;" x="278.748" xlink:href="#m25b7d604d4" y="518.4"/>
      </g>
     </g>
     <g id="line2d_38">
      <g>
       <use style="stroke:#000000;" x="278.748" xlink:href="#m86d3648ce1" y="57.6"/>
      </g>
     </g>
    </g>
    <g id="xtick_17">
     <g id="line2d_39">
      <g>
       <use style="stroke:#000000;" x="311.856" xlink:href="#m25b7d604d4" y="518.4"/>
      </g>
     </g>
     <g id="line2d_40">
      <g>
       <use style="stroke:#000000;" x="311.856" xlink:href="#m86d3648ce1" y="57.6"/>
      </g>
     </g>
    </g>
    <g id="xtick_18">
     <g id="line2d_41">
      <g>
       <use style="stroke:#000000;" x="328.41" xlink:href="#m25b7d604d4" y="518.4"/>
      </g>
     </g>
     <g id="line2d_42">
      <g>
       <use style="stroke:#000000;" x="328.41" xlink:href="#m86d3648ce1" y="57.6"/>
      </g>
     </g>
    </g>
    <g id="xtick_19">
     <g id="line2d_43">
      <g>
       <use style="stroke:#000000;" x="344.964" xlink:href="#m25b7d604d4" y="518.4"/>
      </g>
     </g>
     <g id="line2d_44">
      <g>
       <use style="stroke:#000000;" x="344.964" xlink:href="#m86d3648ce1" y="57.6"/>
      </g>
     </g>
    </g>
    <g id="xtick_20">
     <g id="line2d_45">
      <g>
       <use style="stroke:#000000;" x="361.518" xlink:href="#m25b7d604d4" y="518.4"/>
      </g>
     </g>
     <g id="line2d_46">
      <g>
       <use style="stroke:#000000;" x="361.518" xlink:href="#m86d3648ce1" y="57.6"/>
      </g>
     </g>
    </g>
    <g id="xtick_21">
     <g id="line2d_47">
      <g>
       <use style="stroke:#000000;" x="394.626" xlink:href="#m25b7d604d4" y="518.4"/>
      </g>
     </g>
     <g id="line2d_48">
      <g>
       <use style="stroke:#000000;" x="394.626" xlink:href="#m86d3648ce1" y="57.6"/>
      </g>
     </g>
    </g>
    <g id="xtick_22">
     <g id="line2d_49">
      <g>
       <use style="stroke:#000000;" x="411.18" xlink:href="#m25b7d604d4" y="518.4"/>
      </g>
     </g>
     <g id="line2d_50">
      <g>
       <use style="stroke:#000000;" x="411.18" xlink:href="#m86d3648ce1" y="57.6"/>
      </g>
     </g>
    </g>
    <g id="xtick_23">
     <g id="line2d_51">
      <g>
       <use style="stroke:#000000;" x="427.734" xlink:href="#m25b7d604d4" y="518.4"/>
      </g>
     </g>
     <g id="line2d_52">
      <g>
       <use style="stroke:#000000;" x="427.734" xlink:href="#m86d3648ce1" y="57.6"/>
      </g>
     </g>
    </g>
    <g id="xtick_24">
     <g id="line2d_53">
      <g>
       <use style="stroke:#000000;" x="444.288" xlink:href="#m25b7d604d4" y="518.4"/>
      </g>
     </g>
     <g id="line2d_54">
      <g>
       <use style="stroke:#000000;" x="444.288" xlink:href="#m86d3648ce1" y="57.6"/>
      </g>
     </g>
    </g>
    <g id="xtick_25">
     <g id="line2d_55">
      <g>
       <use style="stroke:#000000;" x="477.396" xlink:href="#m25b7d604d4" y="518.4"/>
      </g>
     </g>
     <g id="line2d_56">
      <g>
       <use style="stroke:#000000;" x="477.396" xlink:href="#m86d3648ce1" y="57.6"/>
      </g>
     </g>
    </g>
    <g id="xtick_26">
     <g id="line2d_57">
      <g>
       <use style="stroke:#000000;" x="493.95" xlink:href="#m25b7d604d4" y="518.4"/>
      </g>
     </g>
     <g id="line2d_58">
      <g>
       <use style="stroke:#000000;" x="493.95" xlink:href="#m86d3648ce1" y="57.6"/>
      </g>
     </g>
    </g>
    <g id="xtick_27">
     <g id="line2d_59">
      <g>
       <use style="stroke:#000000;" x="510.504" xlink:href="#m25b7d604d4" y="518.4"/>
      </g>
     </g>
     <g id="line2d_60">
      <g>
       <use style="stroke:#000000;" x="510.504" xlink:href="#m86d3648ce1" y="57.6"/>
      </g>
     </g>
    </g>
    <g id="xtick_28">
     <g id="line2d_61">
      <g>
       <use style="stroke:#000000;" x="527.058" xlink:href="#m25b7d604d4" y="518.4"/>
      </g>
     </g>
     <g id="line2d_62">
      <g>
       <use style="stroke:#000000;" x="527.058" xlink:href="#m86d3648ce1" y="57.6"/>
      </g>
     </g>
    </g>
    <g id="xtick_29">
     <g id="line2d_63">
      <g>
       <use style="stroke:#000000;" x="560.166" xlink:href="#m25b7d604d4" y="518.4"/>
      </g>
     </g>
     <g id="line2d_64">
      <g>
       <use style="stroke:#000000;" x="560.166" xlink:href="#m86d3648ce1" y="57.6"/>
      </g>
     </g>
    </g>
    <g id="xtick_30">
     <g id="line2d_65">
      <g>
       <use style="stroke:#000000;" x="576.72" xlink:href="#m25b7d604d4" y="518.4"/>
      </g>
     </g>
     <g id="line2d_66">
      <g>
       <use style="stroke:#000000;" x="576.72" xlink:href="#m86d3648ce1" y="57.6"/>
      </g>
     </g>
    </g>
    <g id="text_7">
     <!-- simulation time (hours) -->
     <defs>
      <path id="BitstreamVeraSans-Roman-20"/>
      <path d="M 54.890625 33.015625 
L 54.890625 0 
L 45.90625 0 
L 45.90625 32.71875 
Q 45.90625 40.484375 42.875 44.328125 
Q 39.84375 48.1875 33.796875 48.1875 
Q 26.515625 48.1875 22.3125 43.546875 
Q 18.109375 38.921875 18.109375 30.90625 
L 18.109375 0 
L 9.078125 0 
L 9.078125 54.6875 
L 18.109375 54.6875 
L 18.109375 46.1875 
Q 21.34375 51.125 25.703125 53.5625 
Q 30.078125 56 35.796875 56 
Q 45.21875 56 50.046875 50.171875 
Q 54.890625 44.34375 54.890625 33.015625 
" id="BitstreamVeraSans-Roman-6e"/>
      <path d="M 52 44.1875 
Q 55.375 50.25 60.0625 53.125 
Q 64.75 56 71.09375 56 
Q 79.640625 56 84.28125 50.015625 
Q 88.921875 44.046875 88.921875 33.015625 
L 88.921875 0 
L 79.890625 0 
L 79.890625 32.71875 
Q 79.890625 40.578125 77.09375 44.375 
Q 74.3125 48.1875 68.609375 48.1875 
Q 61.625 48.1875 57.5625 43.546875 
Q 53.515625 38.921875 53.515625 30.90625 
L 53.515625 0 
L 44.484375 0 
L 44.484375 32.71875 
Q 44.484375 40.625 41.703125 44.40625 
Q 38.921875 48.1875 33.109375 48.1875 
Q 26.21875 48.1875 22.15625 43.53125 
Q 18.109375 38.875 18.109375 30.90625 
L 18.109375 0 
L 9.078125 0 
L 9.078125 54.6875 
L 18.109375 54.6875 
L 18.109375 46.1875 
Q 21.1875 51.21875 25.484375 53.609375 
Q 29.78125 56 35.6875 56 
Q 41.65625 56 45.828125 52.96875 
Q 50 49.953125 52 44.1875 
" id="BitstreamVeraSans-Roman-6d"/>
      <path d="M 30.609375 48.390625 
Q 23.390625 48.390625 19.1875 42.75 
Q 14.984375 37.109375 14.984375 27.296875 
Q 14.984375 17.484375 19.15625 11.84375 
Q 23.34375 6.203125 30.609375 6.203125 
Q 37.796875 6.203125 41.984375 11.859375 
Q 46.1875 17.53125 46.1875 27.296875 
Q 46.1875 37.015625 41.984375 42.703125 
Q 37.796875 48.390625 30.609375 48.390625 
M 30.609375 56 
Q 42.328125 56 49.015625 48.375 
Q 55.71875 40.765625 55.71875 27.296875 
Q 55.71875 13.875 49.015625 6.21875 
Q 42.328125 -1.421875 30.609375 -1.421875 
Q 18.84375 -1.421875 12.171875 6.21875 
Q 5.515625 13.875 5.515625 27.296875 
Q 5.515625 40.765625 12.171875 48.375 
Q 18.84375 56 30.609375 56 
" id="BitstreamVeraSans-Roman-6f"/>
      <path d="M 9.421875 75.984375 
L 18.40625 75.984375 
L 18.40625 0 
L 9.421875 0 
z
" id="BitstreamVeraSans-Roman-6c"/>
      <path d="M 8.015625 75.875 
L 15.828125 75.875 
Q 23.140625 64.359375 26.78125 53.3125 
Q 30.421875 42.28125 30.421875 31.390625 
Q 30.421875 20.453125 26.78125 9.375 
Q 23.140625 -1.703125 15.828125 -13.1875 
L 8.015625 -13.1875 
Q 14.5 -2 17.703125 9.0625 
Q 20.90625 20.125 20.90625 31.390625 
Q 20.90625 42.671875 17.703125 53.65625 
Q 14.5 64.65625 8.015625 75.875 
" id="BitstreamVeraSans-Roman-29"/>
      <path d="M 9.421875 54.6875 
L 18.40625 54.6875 
L 18.40625 0 
L 9.421875 0 
z
M 9.421875 75.984375 
L 18.40625 75.984375 
L 18.40625 64.59375 
L 9.421875 64.59375 
z
" id="BitstreamVeraSans-Roman-69"/>
      <path d="M 54.890625 33.015625 
L 54.890625 0 
L 45.90625 0 
L 45.90625 32.71875 
Q 45.90625 40.484375 42.875 44.328125 
Q 39.84375 48.1875 33.796875 48.1875 
Q 26.515625 48.1875 22.3125 43.546875 
Q 18.109375 38.921875 18.109375 30.90625 
L 18.109375 0 
L 9.078125 0 
L 9.078125 75.984375 
L 18.109375 75.984375 
L 18.109375 46.1875 
Q 21.34375 51.125 25.703125 53.5625 
Q 30.078125 56 35.796875 56 
Q 45.21875 56 50.046875 50.171875 
Q 54.890625 44.34375 54.890625 33.015625 
" id="BitstreamVeraSans-Roman-68"/>
      <path d="M 41.109375 46.296875 
Q 39.59375 47.171875 37.8125 47.578125 
Q 36.03125 48 33.890625 48 
Q 26.265625 48 22.1875 43.046875 
Q 18.109375 38.09375 18.109375 28.8125 
L 18.109375 0 
L 9.078125 0 
L 9.078125 54.6875 
L 18.109375 54.6875 
L 18.109375 46.1875 
Q 20.953125 51.171875 25.484375 53.578125 
Q 30.03125 56 36.53125 56 
Q 37.453125 56 38.578125 55.875 
Q 39.703125 55.765625 41.0625 55.515625 
z
" id="BitstreamVeraSans-Roman-72"/>
      <path d="M 31 75.875 
Q 24.46875 64.65625 21.28125 53.65625 
Q 18.109375 42.671875 18.109375 31.390625 
Q 18.109375 20.125 21.3125 9.0625 
Q 24.515625 -2 31 -13.1875 
L 23.1875 -13.1875 
Q 15.875 -1.703125 12.234375 9.375 
Q 8.59375 20.453125 8.59375 31.390625 
Q 8.59375 42.28125 12.203125 53.3125 
Q 15.828125 64.359375 23.1875 75.875 
z
" id="BitstreamVeraSans-Roman-28"/>
      <path d="M 56.203125 29.59375 
L 56.203125 25.203125 
L 14.890625 25.203125 
Q 15.484375 15.921875 20.484375 11.0625 
Q 25.484375 6.203125 34.421875 6.203125 
Q 39.59375 6.203125 44.453125 7.46875 
Q 49.3125 8.734375 54.109375 11.28125 
L 54.109375 2.78125 
Q 49.265625 0.734375 44.1875 -0.34375 
Q 39.109375 -1.421875 33.890625 -1.421875 
Q 20.796875 -1.421875 13.15625 6.1875 
Q 5.515625 13.8125 5.515625 26.8125 
Q 5.515625 40.234375 12.765625 48.109375 
Q 20.015625 56 32.328125 56 
Q 43.359375 56 49.78125 48.890625 
Q 56.203125 41.796875 56.203125 29.59375 
M 47.21875 32.234375 
Q 47.125 39.59375 43.09375 43.984375 
Q 39.0625 48.390625 32.421875 48.390625 
Q 24.90625 48.390625 20.390625 44.140625 
Q 15.875 39.890625 15.1875 32.171875 
z
" id="BitstreamVeraSans-Roman-65"/>
      <path d="M 18.3125 70.21875 
L 18.3125 54.6875 
L 36.8125 54.6875 
L 36.8125 47.703125 
L 18.3125 47.703125 
L 18.3125 18.015625 
Q 18.3125 11.328125 20.140625 9.421875 
Q 21.96875 7.515625 27.59375 7.515625 
L 36.8125 7.515625 
L 36.8125 0 
L 27.59375 0 
Q 17.1875 0 13.234375 3.875 
Q 9.28125 7.765625 9.28125 18.015625 
L 9.28125 47.703125 
L 2.6875 47.703125 
L 2.6875 54.6875 
L 9.28125 54.6875 
L 9.28125 70.21875 
z
" id="BitstreamVeraSans-Roman-74"/>
      <path d="M 8.5 21.578125 
L 8.5 54.6875 
L 17.484375 54.6875 
L 17.484375 21.921875 
Q 17.484375 14.15625 20.5 10.265625 
Q 23.53125 6.390625 29.59375 6.390625 
Q 36.859375 6.390625 41.078125 11.03125 
Q 45.3125 15.671875 45.3125 23.6875 
L 45.3125 54.6875 
L 54.296875 54.6875 
L 54.296875 0 
L 45.3125 0 
L 45.3125 8.40625 
Q 42.046875 3.421875 37.71875 1 
Q 33.40625 -1.421875 27.6875 -1.421875 
Q 18.265625 -1.421875 13.375 4.4375 
Q 8.5 10.296875 8.5 21.578125 
" id="BitstreamVeraSans-Roman-75"/>
      <path d="M 34.28125 27.484375 
Q 23.390625 27.484375 19.1875 25 
Q 14.984375 22.515625 14.984375 16.5 
Q 14.984375 11.71875 18.140625 8.90625 
Q 21.296875 6.109375 26.703125 6.109375 
Q 34.1875 6.109375 38.703125 11.40625 
Q 43.21875 16.703125 43.21875 25.484375 
L 43.21875 27.484375 
z
M 52.203125 31.203125 
L 52.203125 0 
L 43.21875 0 
L 43.21875 8.296875 
Q 40.140625 3.328125 35.546875 0.953125 
Q 30.953125 -1.421875 24.3125 -1.421875 
Q 15.921875 -1.421875 10.953125 3.296875 
Q 6 8.015625 6 15.921875 
Q 6 25.140625 12.171875 29.828125 
Q 18.359375 34.515625 30.609375 34.515625 
L 43.21875 34.515625 
L 43.21875 35.40625 
Q 43.21875 41.609375 39.140625 45 
Q 35.0625 48.390625 27.6875 48.390625 
Q 23 48.390625 18.546875 47.265625 
Q 14.109375 46.140625 10.015625 43.890625 
L 10.015625 52.203125 
Q 14.9375 54.109375 19.578125 55.046875 
Q 24.21875 56 28.609375 56 
Q 40.484375 56 46.34375 49.84375 
Q 52.203125 43.703125 52.203125 31.203125 
" id="BitstreamVeraSans-Roman-61"/>
      <path d="M 44.28125 53.078125 
L 44.28125 44.578125 
Q 40.484375 46.53125 36.375 47.5 
Q 32.28125 48.484375 27.875 48.484375 
Q 21.1875 48.484375 17.84375 46.4375 
Q 14.5 44.390625 14.5 40.28125 
Q 14.5 37.15625 16.890625 35.375 
Q 19.28125 33.59375 26.515625 31.984375 
L 29.59375 31.296875 
Q 39.15625 29.25 43.1875 25.515625 
Q 47.21875 21.78125 47.21875 15.09375 
Q 47.21875 7.46875 41.1875 3.015625 
Q 35.15625 -1.421875 24.609375 -1.421875 
Q 20.21875 -1.421875 15.453125 -0.5625 
Q 10.6875 0.296875 5.421875 2 
L 5.421875 11.28125 
Q 10.40625 8.6875 15.234375 7.390625 
Q 20.0625 6.109375 24.8125 6.109375 
Q 31.15625 6.109375 34.5625 8.28125 
Q 37.984375 10.453125 37.984375 14.40625 
Q 37.984375 18.0625 35.515625 20.015625 
Q 33.0625 21.96875 24.703125 23.78125 
L 21.578125 24.515625 
Q 13.234375 26.265625 9.515625 29.90625 
Q 5.8125 33.546875 5.8125 39.890625 
Q 5.8125 47.609375 11.28125 51.796875 
Q 16.75 56 26.8125 56 
Q 31.78125 56 36.171875 55.265625 
Q 40.578125 54.546875 44.28125 53.078125 
" id="BitstreamVeraSans-Roman-73"/>
     </defs>
     <g transform="translate(209.07796875 559.353625)scale(0.204 -0.204)">
      <use xlink:href="#BitstreamVeraSans-Roman-73"/>
      <use x="52.099609375" xlink:href="#BitstreamVeraSans-Roman-69"/>
      <use x="79.8828125" xlink:href="#BitstreamVeraSans-Roman-6d"/>
      <use x="177.294921875" xlink:href="#BitstreamVeraSans-Roman-75"/>
      <use x="240.673828125" xlink:href="#BitstreamVeraSans-Roman-6c"/>
      <use x="268.45703125" xlink:href="#BitstreamVeraSans-Roman-61"/>
      <use x="329.736328125" xlink:href="#BitstreamVeraSans-Roman-74"/>
      <use x="368.9453125" xlink:href="#BitstreamVeraSans-Roman-69"/>
      <use x="396.728515625" xlink:href="#BitstreamVeraSans-Roman-6f"/>
      <use x="457.91015625" xlink:href="#BitstreamVeraSans-Roman-6e"/>
      <use x="521.2890625" xlink:href="#BitstreamVeraSans-Roman-20"/>
      <use x="553.076171875" xlink:href="#BitstreamVeraSans-Roman-74"/>
      <use x="592.28515625" xlink:href="#BitstreamVeraSans-Roman-69"/>
      <use x="620.068359375" xlink:href="#BitstreamVeraSans-Roman-6d"/>
      <use x="717.48046875" xlink:href="#BitstreamVeraSans-Roman-65"/>
      <use x="779.00390625" xlink:href="#BitstreamVeraSans-Roman-20"/>
      <use x="810.791015625" xlink:href="#BitstreamVeraSans-Roman-28"/>
      <use x="849.8046875" xlink:href="#BitstreamVeraSans-Roman-68"/>
      <use x="913.18359375" xlink:href="#BitstreamVeraSans-Roman-6f"/>
      <use x="974.365234375" xlink:href="#BitstreamVeraSans-Roman-75"/>
      <use x="1037.74414062" xlink:href="#BitstreamVeraSans-Roman-72"/>
      <use x="1078.85742188" xlink:href="#BitstreamVeraSans-Roman-73"/>
      <use x="1130.95703125" xlink:href="#BitstreamVeraSans-Roman-29"/>
     </g>
    </g>
   </g>
   <g id="matplotlib.axis_2">
    <g id="ytick_1">
     <g id="line2d_67">
      <defs>
       <path d="M 0 0 
L 3 0 
" id="m9dd3b0f70b" style="stroke:#000000;"/>
      </defs>
      <g>
       <use style="stroke:#000000;" x="80.1" xlink:href="#m9dd3b0f70b" y="518.4"/>
      </g>
     </g>
     <g id="line2d_68">
      <defs>
       <path d="M 0 0 
L -3 0 
" id="m651bc660c3" style="stroke:#000000;"/>
      </defs>
      <g>
       <use style="stroke:#000000;" x="576.72" xlink:href="#m651bc660c3" y="518.4"/>
      </g>
     </g>
     <g id="text_8">
      <!-- 0 -->
      <g transform="translate(65.28375 523.0909375)scale(0.17 -0.17)">
       <use xlink:href="#BitstreamVeraSans-Roman-30"/>
      </g>
     </g>
    </g>
    <g id="ytick_2">
     <g id="line2d_69">
      <g>
       <use style="stroke:#000000;" x="80.1" xlink:href="#m9dd3b0f70b" y="441.6"/>
      </g>
     </g>
     <g id="line2d_70">
      <g>
       <use style="stroke:#000000;" x="576.72" xlink:href="#m651bc660c3" y="441.6"/>
      </g>
     </g>
     <g id="text_9">
      <!-- 50 -->
      <g transform="translate(54.4675 446.2909375)scale(0.17 -0.17)">
       <use xlink:href="#BitstreamVeraSans-Roman-35"/>
       <use x="63.623046875" xlink:href="#BitstreamVeraSans-Roman-30"/>
      </g>
     </g>
    </g>
    <g id="ytick_3">
     <g id="line2d_71">
      <g>
       <use style="stroke:#000000;" x="80.1" xlink:href="#m9dd3b0f70b" y="364.8"/>
      </g>
     </g>
     <g id="line2d_72">
      <g>
       <use style="stroke:#000000;" x="576.72" xlink:href="#m651bc660c3" y="364.8"/>
      </g>
     </g>
     <g id="text_10">
      <!-- 100 -->
      <defs>
       <path d="M 12.40625 8.296875 
L 28.515625 8.296875 
L 28.515625 63.921875 
L 10.984375 60.40625 
L 10.984375 69.390625 
L 28.421875 72.90625 
L 38.28125 72.90625 
L 38.28125 8.296875 
L 54.390625 8.296875 
L 54.390625 0 
L 12.40625 0 
z
" id="BitstreamVeraSans-Roman-31"/>
      </defs>
      <g transform="translate(43.65125 369.4909375)scale(0.17 -0.17)">
       <use xlink:href="#BitstreamVeraSans-Roman-31"/>
       <use x="63.623046875" xlink:href="#BitstreamVeraSans-Roman-30"/>
       <use x="127.24609375" xlink:href="#BitstreamVeraSans-Roman-30"/>
      </g>
     </g>
    </g>
    <g id="ytick_4">
     <g id="line2d_73">
      <g>
       <use style="stroke:#000000;" x="80.1" xlink:href="#m9dd3b0f70b" y="288.0"/>
      </g>
     </g>
     <g id="line2d_74">
      <g>
       <use style="stroke:#000000;" x="576.72" xlink:href="#m651bc660c3" y="288.0"/>
      </g>
     </g>
     <g id="text_11">
      <!-- 150 -->
      <g transform="translate(43.65125 292.6909375)scale(0.17 -0.17)">
       <use xlink:href="#BitstreamVeraSans-Roman-31"/>
       <use x="63.623046875" xlink:href="#BitstreamVeraSans-Roman-35"/>
       <use x="127.24609375" xlink:href="#BitstreamVeraSans-Roman-30"/>
      </g>
     </g>
    </g>
    <g id="ytick_5">
     <g id="line2d_75">
      <g>
       <use style="stroke:#000000;" x="80.1" xlink:href="#m9dd3b0f70b" y="211.2"/>
      </g>
     </g>
     <g id="line2d_76">
      <g>
       <use style="stroke:#000000;" x="576.72" xlink:href="#m651bc660c3" y="211.2"/>
      </g>
     </g>
     <g id="text_12">
      <!-- 200 -->
      <defs>
       <path d="M 19.1875 8.296875 
L 53.609375 8.296875 
L 53.609375 0 
L 7.328125 0 
L 7.328125 8.296875 
Q 12.9375 14.109375 22.625 23.890625 
Q 32.328125 33.6875 34.8125 36.53125 
Q 39.546875 41.84375 41.421875 45.53125 
Q 43.3125 49.21875 43.3125 52.78125 
Q 43.3125 58.59375 39.234375 62.25 
Q 35.15625 65.921875 28.609375 65.921875 
Q 23.96875 65.921875 18.8125 64.3125 
Q 13.671875 62.703125 7.8125 59.421875 
L 7.8125 69.390625 
Q 13.765625 71.78125 18.9375 73 
Q 24.125 74.21875 28.421875 74.21875 
Q 39.75 74.21875 46.484375 68.546875 
Q 53.21875 62.890625 53.21875 53.421875 
Q 53.21875 48.921875 51.53125 44.890625 
Q 49.859375 40.875 45.40625 35.40625 
Q 44.1875 33.984375 37.640625 27.21875 
Q 31.109375 20.453125 19.1875 8.296875 
" id="BitstreamVeraSans-Roman-32"/>
      </defs>
      <g transform="translate(43.65125 215.8909375)scale(0.17 -0.17)">
       <use xlink:href="#BitstreamVeraSans-Roman-32"/>
       <use x="63.623046875" xlink:href="#BitstreamVeraSans-Roman-30"/>
       <use x="127.24609375" xlink:href="#BitstreamVeraSans-Roman-30"/>
      </g>
     </g>
    </g>
    <g id="ytick_6">
     <g id="line2d_77">
      <g>
       <use style="stroke:#000000;" x="80.1" xlink:href="#m9dd3b0f70b" y="134.4"/>
      </g>
     </g>
     <g id="line2d_78">
      <g>
       <use style="stroke:#000000;" x="576.72" xlink:href="#m651bc660c3" y="134.4"/>
      </g>
     </g>
     <g id="text_13">
      <!-- 250 -->
      <g transform="translate(43.65125 139.0909375)scale(0.17 -0.17)">
       <use xlink:href="#BitstreamVeraSans-Roman-32"/>
       <use x="63.623046875" xlink:href="#BitstreamVeraSans-Roman-35"/>
       <use x="127.24609375" xlink:href="#BitstreamVeraSans-Roman-30"/>
      </g>
     </g>
    </g>
    <g id="ytick_7">
     <g id="line2d_79">
      <g>
       <use style="stroke:#000000;" x="80.1" xlink:href="#m9dd3b0f70b" y="57.6"/>
      </g>
     </g>
     <g id="line2d_80">
      <g>
       <use style="stroke:#000000;" x="576.72" xlink:href="#m651bc660c3" y="57.6"/>
      </g>
     </g>
     <g id="text_14">
      <!-- 300 -->
      <defs>
       <path d="M 40.578125 39.3125 
Q 47.65625 37.796875 51.625 33 
Q 55.609375 28.21875 55.609375 21.1875 
Q 55.609375 10.40625 48.1875 4.484375 
Q 40.765625 -1.421875 27.09375 -1.421875 
Q 22.515625 -1.421875 17.65625 -0.515625 
Q 12.796875 0.390625 7.625 2.203125 
L 7.625 11.71875 
Q 11.71875 9.328125 16.59375 8.109375 
Q 21.484375 6.890625 26.8125 6.890625 
Q 36.078125 6.890625 40.9375 10.546875 
Q 45.796875 14.203125 45.796875 21.1875 
Q 45.796875 27.640625 41.28125 31.265625 
Q 36.765625 34.90625 28.71875 34.90625 
L 20.21875 34.90625 
L 20.21875 43.015625 
L 29.109375 43.015625 
Q 36.375 43.015625 40.234375 45.921875 
Q 44.09375 48.828125 44.09375 54.296875 
Q 44.09375 59.90625 40.109375 62.90625 
Q 36.140625 65.921875 28.71875 65.921875 
Q 24.65625 65.921875 20.015625 65.03125 
Q 15.375 64.15625 9.8125 62.3125 
L 9.8125 71.09375 
Q 15.4375 72.65625 20.34375 73.4375 
Q 25.25 74.21875 29.59375 74.21875 
Q 40.828125 74.21875 47.359375 69.109375 
Q 53.90625 64.015625 53.90625 55.328125 
Q 53.90625 49.265625 50.4375 45.09375 
Q 46.96875 40.921875 40.578125 39.3125 
" id="BitstreamVeraSans-Roman-33"/>
      </defs>
      <g transform="translate(43.65125 62.2909375)scale(0.17 -0.17)">
       <use xlink:href="#BitstreamVeraSans-Roman-33"/>
       <use x="63.623046875" xlink:href="#BitstreamVeraSans-Roman-30"/>
       <use x="127.24609375" xlink:href="#BitstreamVeraSans-Roman-30"/>
      </g>
     </g>
    </g>
    <g id="ytick_8">
     <g id="line2d_81">
      <g>
       <use style="stroke:#000000;" x="80.1" xlink:href="#m9dd3b0f70b" y="503.04"/>
      </g>
     </g>
     <g id="line2d_82">
      <g>
       <use style="stroke:#000000;" x="576.72" xlink:href="#m651bc660c3" y="503.04"/>
      </g>
     </g>
    </g>
    <g id="ytick_9">
     <g id="line2d_83">
      <g>
       <use style="stroke:#000000;" x="80.1" xlink:href="#m9dd3b0f70b" y="487.68"/>
      </g>
     </g>
     <g id="line2d_84">
      <g>
       <use style="stroke:#000000;" x="576.72" xlink:href="#m651bc660c3" y="487.68"/>
      </g>
     </g>
    </g>
    <g id="ytick_10">
     <g id="line2d_85">
      <g>
       <use style="stroke:#000000;" x="80.1" xlink:href="#m9dd3b0f70b" y="472.32"/>
      </g>
     </g>
     <g id="line2d_86">
      <g>
       <use style="stroke:#000000;" x="576.72" xlink:href="#m651bc660c3" y="472.32"/>
      </g>
     </g>
    </g>
    <g id="ytick_11">
     <g id="line2d_87">
      <g>
       <use style="stroke:#000000;" x="80.1" xlink:href="#m9dd3b0f70b" y="456.96"/>
      </g>
     </g>
     <g id="line2d_88">
      <g>
       <use style="stroke:#000000;" x="576.72" xlink:href="#m651bc660c3" y="456.96"/>
      </g>
     </g>
    </g>
    <g id="ytick_12">
     <g id="line2d_89">
      <g>
       <use style="stroke:#000000;" x="80.1" xlink:href="#m9dd3b0f70b" y="426.24"/>
      </g>
     </g>
     <g id="line2d_90">
      <g>
       <use style="stroke:#000000;" x="576.72" xlink:href="#m651bc660c3" y="426.24"/>
      </g>
     </g>
    </g>
    <g id="ytick_13">
     <g id="line2d_91">
      <g>
       <use style="stroke:#000000;" x="80.1" xlink:href="#m9dd3b0f70b" y="410.88"/>
      </g>
     </g>
     <g id="line2d_92">
      <g>
       <use style="stroke:#000000;" x="576.72" xlink:href="#m651bc660c3" y="410.88"/>
      </g>
     </g>
    </g>
    <g id="ytick_14">
     <g id="line2d_93">
      <g>
       <use style="stroke:#000000;" x="80.1" xlink:href="#m9dd3b0f70b" y="395.52"/>
      </g>
     </g>
     <g id="line2d_94">
      <g>
       <use style="stroke:#000000;" x="576.72" xlink:href="#m651bc660c3" y="395.52"/>
      </g>
     </g>
    </g>
    <g id="ytick_15">
     <g id="line2d_95">
      <g>
       <use style="stroke:#000000;" x="80.1" xlink:href="#m9dd3b0f70b" y="380.16"/>
      </g>
     </g>
     <g id="line2d_96">
      <g>
       <use style="stroke:#000000;" x="576.72" xlink:href="#m651bc660c3" y="380.16"/>
      </g>
     </g>
    </g>
    <g id="ytick_16">
     <g id="line2d_97">
      <g>
       <use style="stroke:#000000;" x="80.1" xlink:href="#m9dd3b0f70b" y="349.44"/>
      </g>
     </g>
     <g id="line2d_98">
      <g>
       <use style="stroke:#000000;" x="576.72" xlink:href="#m651bc660c3" y="349.44"/>
      </g>
     </g>
    </g>
    <g id="ytick_17">
     <g id="line2d_99">
      <g>
       <use style="stroke:#000000;" x="80.1" xlink:href="#m9dd3b0f70b" y="334.08"/>
      </g>
     </g>
     <g id="line2d_100">
      <g>
       <use style="stroke:#000000;" x="576.72" xlink:href="#m651bc660c3" y="334.08"/>
      </g>
     </g>
    </g>
    <g id="ytick_18">
     <g id="line2d_101">
      <g>
       <use style="stroke:#000000;" x="80.1" xlink:href="#m9dd3b0f70b" y="318.72"/>
      </g>
     </g>
     <g id="line2d_102">
      <g>
       <use style="stroke:#000000;" x="576.72" xlink:href="#m651bc660c3" y="318.72"/>
      </g>
     </g>
    </g>
    <g id="ytick_19">
     <g id="line2d_103">
      <g>
       <use style="stroke:#000000;" x="80.1" xlink:href="#m9dd3b0f70b" y="303.36"/>
      </g>
     </g>
     <g id="line2d_104">
      <g>
       <use style="stroke:#000000;" x="576.72" xlink:href="#m651bc660c3" y="303.36"/>
      </g>
     </g>
    </g>
    <g id="ytick_20">
     <g id="line2d_105">
      <g>
       <use style="stroke:#000000;" x="80.1" xlink:href="#m9dd3b0f70b" y="272.64"/>
      </g>
     </g>
     <g id="line2d_106">
      <g>
       <use style="stroke:#000000;" x="576.72" xlink:href="#m651bc660c3" y="272.64"/>
      </g>
     </g>
    </g>
    <g id="ytick_21">
     <g id="line2d_107">
      <g>
       <use style="stroke:#000000;" x="80.1" xlink:href="#m9dd3b0f70b" y="257.28"/>
      </g>
     </g>
     <g id="line2d_108">
      <g>
       <use style="stroke:#000000;" x="576.72" xlink:href="#m651bc660c3" y="257.28"/>
      </g>
     </g>
    </g>
    <g id="ytick_22">
     <g id="line2d_109">
      <g>
       <use style="stroke:#000000;" x="80.1" xlink:href="#m9dd3b0f70b" y="241.92"/>
      </g>
     </g>
     <g id="line2d_110">
      <g>
       <use style="stroke:#000000;" x="576.72" xlink:href="#m651bc660c3" y="241.92"/>
      </g>
     </g>
    </g>
    <g id="ytick_23">
     <g id="line2d_111">
      <g>
       <use style="stroke:#000000;" x="80.1" xlink:href="#m9dd3b0f70b" y="226.56"/>
      </g>
     </g>
     <g id="line2d_112">
      <g>
       <use style="stroke:#000000;" x="576.72" xlink:href="#m651bc660c3" y="226.56"/>
      </g>
     </g>
    </g>
    <g id="ytick_24">
     <g id="line2d_113">
      <g>
       <use style="stroke:#000000;" x="80.1" xlink:href="#m9dd3b0f70b" y="195.84"/>
      </g>
     </g>
     <g id="line2d_114">
      <g>
       <use style="stroke:#000000;" x="576.72" xlink:href="#m651bc660c3" y="195.84"/>
      </g>
     </g>
    </g>
    <g id="ytick_25">
     <g id="line2d_115">
      <g>
       <use style="stroke:#000000;" x="80.1" xlink:href="#m9dd3b0f70b" y="180.48"/>
      </g>
     </g>
     <g id="line2d_116">
      <g>
       <use style="stroke:#000000;" x="576.72" xlink:href="#m651bc660c3" y="180.48"/>
      </g>
     </g>
    </g>
    <g id="ytick_26">
     <g id="line2d_117">
      <g>
       <use style="stroke:#000000;" x="80.1" xlink:href="#m9dd3b0f70b" y="165.12"/>
      </g>
     </g>
     <g id="line2d_118">
      <g>
       <use style="stroke:#000000;" x="576.72" xlink:href="#m651bc660c3" y="165.12"/>
      </g>
     </g>
    </g>
    <g id="ytick_27">
     <g id="line2d_119">
      <g>
       <use style="stroke:#000000;" x="80.1" xlink:href="#m9dd3b0f70b" y="149.76"/>
      </g>
     </g>
     <g id="line2d_120">
      <g>
       <use style="stroke:#000000;" x="576.72" xlink:href="#m651bc660c3" y="149.76"/>
      </g>
     </g>
    </g>
    <g id="ytick_28">
     <g id="line2d_121">
      <g>
       <use style="stroke:#000000;" x="80.1" xlink:href="#m9dd3b0f70b" y="119.04"/>
      </g>
     </g>
     <g id="line2d_122">
      <g>
       <use style="stroke:#000000;" x="576.72" xlink:href="#m651bc660c3" y="119.04"/>
      </g>
     </g>
    </g>
    <g id="ytick_29">
     <g id="line2d_123">
      <g>
       <use style="stroke:#000000;" x="80.1" xlink:href="#m9dd3b0f70b" y="103.68"/>
      </g>
     </g>
     <g id="line2d_124">
      <g>
       <use style="stroke:#000000;" x="576.72" xlink:href="#m651bc660c3" y="103.68"/>
      </g>
     </g>
    </g>
    <g id="ytick_30">
     <g id="line2d_125">
      <g>
       <use style="stroke:#000000;" x="80.1" xlink:href="#m9dd3b0f70b" y="88.32"/>
      </g>
     </g>
     <g id="line2d_126">
      <g>
       <use style="stroke:#000000;" x="576.72" xlink:href="#m651bc660c3" y="88.32"/>
      </g>
     </g>
    </g>
    <g id="ytick_31">
     <g id="line2d_127">
      <g>
       <use style="stroke:#000000;" x="80.1" xlink:href="#m9dd3b0f70b" y="72.96"/>
      </g>
     </g>
     <g id="line2d_128">
      <g>
       <use style="stroke:#000000;" x="576.72" xlink:href="#m651bc660c3" y="72.96"/>
      </g>
     </g>
    </g>
    <g id="text_15">
     <!-- water discharge ($m^3s^{-1}$) -->
     <defs>
      <path d="M 9.515625 7.71875 
Q 11.859375 4.296875 15.8125 2.640625 
Q 19.78125 0.984375 24.3125 0.984375 
Q 30.125 0.984375 32.5625 5.9375 
Q 35.015625 10.890625 35.015625 17.1875 
Q 35.015625 20.015625 34.5 22.84375 
Q 33.984375 25.6875 32.765625 28.125 
Q 31.546875 30.5625 29.421875 32.03125 
Q 27.296875 33.5 24.21875 33.5 
L 17.578125 33.5 
Q 16.703125 33.5 16.703125 34.421875 
L 16.703125 35.296875 
Q 16.703125 36.078125 17.578125 36.078125 
L 23.09375 36.53125 
Q 26.609375 36.53125 28.921875 39.15625 
Q 31.25 41.796875 32.328125 45.578125 
Q 33.40625 49.359375 33.40625 52.78125 
Q 33.40625 57.5625 31.15625 60.640625 
Q 28.90625 63.71875 24.3125 63.71875 
Q 20.515625 63.71875 17.046875 62.28125 
Q 13.578125 60.84375 11.53125 57.90625 
Q 11.71875 57.953125 11.859375 57.984375 
Q 12.015625 58.015625 12.203125 58.015625 
Q 14.453125 58.015625 15.96875 56.453125 
Q 17.484375 54.890625 17.484375 52.6875 
Q 17.484375 50.53125 15.96875 48.96875 
Q 14.453125 47.40625 12.203125 47.40625 
Q 10.015625 47.40625 8.453125 48.96875 
Q 6.890625 50.53125 6.890625 52.6875 
Q 6.890625 56.984375 9.46875 60.15625 
Q 12.0625 63.328125 16.140625 64.96875 
Q 20.21875 66.609375 24.3125 66.609375 
Q 27.34375 66.609375 30.703125 65.703125 
Q 34.078125 64.796875 36.8125 63.109375 
Q 39.546875 61.421875 41.28125 58.78125 
Q 43.015625 56.15625 43.015625 52.78125 
Q 43.015625 48.578125 41.140625 45.015625 
Q 39.265625 41.453125 35.984375 38.859375 
Q 32.71875 36.28125 28.8125 35.015625 
Q 33.15625 34.1875 37.0625 31.734375 
Q 40.96875 29.296875 43.328125 25.484375 
Q 45.703125 21.6875 45.703125 17.28125 
Q 45.703125 11.765625 42.671875 7.296875 
Q 39.65625 2.828125 34.71875 0.3125 
Q 29.78125 -2.203125 24.3125 -2.203125 
Q 19.625 -2.203125 14.90625 -0.40625 
Q 10.203125 1.375 7.203125 4.9375 
Q 4.203125 8.5 4.203125 13.484375 
Q 4.203125 15.96875 5.859375 17.625 
Q 7.515625 19.28125 10.015625 19.28125 
Q 11.625 19.28125 12.96875 18.53125 
Q 14.3125 17.78125 15.0625 16.40625 
Q 15.828125 15.046875 15.828125 13.484375 
Q 15.828125 11.03125 14.109375 9.375 
Q 12.40625 7.71875 10.015625 7.71875 
z
" id="Cmr10-33"/>
      <path d="M 9.28125 0 
L 9.28125 3.515625 
Q 21.78125 3.515625 21.78125 6.6875 
L 21.78125 59.1875 
Q 16.609375 56.6875 8.6875 56.6875 
L 8.6875 60.203125 
Q 20.953125 60.203125 27.203125 66.609375 
L 28.609375 66.609375 
Q 28.953125 66.609375 29.265625 66.328125 
Q 29.59375 66.0625 29.59375 65.71875 
L 29.59375 6.6875 
Q 29.59375 3.515625 42.09375 3.515625 
L 42.09375 0 
z
" id="Cmr10-31"/>
      <path d="M 10.203125 23 
Q 9.375 23 8.828125 23.625 
Q 8.296875 24.265625 8.296875 25 
Q 8.296875 25.734375 8.828125 26.359375 
Q 9.375 27 10.203125 27 
L 67.578125 27 
Q 68.359375 27 68.875 26.359375 
Q 69.390625 25.734375 69.390625 25 
Q 69.390625 24.265625 68.875 23.625 
Q 68.359375 23 67.578125 23 
z
" id="Cmsy10-a1"/>
      <path d="M 7.71875 1.703125 
Q 7.71875 2.296875 7.8125 2.59375 
L 15.28125 32.421875 
Q 16.015625 35.203125 16.015625 37.3125 
Q 16.015625 41.609375 13.09375 41.609375 
Q 9.96875 41.609375 8.453125 37.859375 
Q 6.9375 34.125 5.515625 28.421875 
Q 5.515625 28.125 5.21875 27.953125 
Q 4.9375 27.78125 4.6875 27.78125 
L 3.515625 27.78125 
Q 3.171875 27.78125 2.921875 28.140625 
Q 2.6875 28.515625 2.6875 28.8125 
Q 3.765625 33.15625 4.765625 36.171875 
Q 5.765625 39.203125 7.890625 41.6875 
Q 10.015625 44.1875 13.1875 44.1875 
Q 16.9375 44.1875 19.8125 41.8125 
Q 22.703125 39.453125 22.703125 35.796875 
Q 25.6875 39.703125 29.6875 41.9375 
Q 33.6875 44.1875 38.1875 44.1875 
Q 42.921875 44.1875 46.359375 41.765625 
Q 49.8125 39.359375 49.8125 34.90625 
Q 52.875 39.265625 57 41.71875 
Q 61.140625 44.1875 66.015625 44.1875 
Q 71.1875 44.1875 74.328125 41.375 
Q 77.484375 38.578125 77.484375 33.40625 
Q 77.484375 29.296875 75.65625 23.484375 
Q 73.828125 17.671875 71.09375 10.5 
Q 69.671875 7.03125 69.671875 4.5 
Q 69.671875 1.515625 72.015625 1.515625 
Q 75.921875 1.515625 78.515625 5.703125 
Q 81.109375 9.90625 82.171875 14.703125 
Q 82.46875 15.28125 83.015625 15.28125 
L 84.1875 15.28125 
Q 84.578125 15.28125 84.84375 15.015625 
Q 85.109375 14.75 85.109375 14.40625 
Q 85.109375 14.3125 85.015625 14.109375 
Q 83.640625 8.453125 80.25 3.65625 
Q 76.859375 -1.125 71.78125 -1.125 
Q 68.265625 -1.125 65.765625 1.296875 
Q 63.28125 3.71875 63.28125 7.171875 
Q 63.28125 8.9375 64.109375 11.078125 
Q 66.9375 18.609375 68.8125 24.515625 
Q 70.703125 30.421875 70.703125 34.90625 
Q 70.703125 37.703125 69.578125 39.65625 
Q 68.453125 41.609375 65.828125 41.609375 
Q 60.359375 41.609375 56.34375 38.25 
Q 52.34375 34.90625 49.421875 29.390625 
Q 49.21875 28.421875 49.125 27.875 
L 42.671875 2.203125 
Q 42.328125 0.828125 41.125 -0.140625 
Q 39.9375 -1.125 38.484375 -1.125 
Q 37.3125 -1.125 36.40625 -0.34375 
Q 35.5 0.4375 35.5 1.703125 
Q 35.5 2.296875 35.59375 2.59375 
L 42 28.078125 
Q 43.015625 32.171875 43.015625 34.90625 
Q 43.015625 37.703125 41.859375 39.65625 
Q 40.71875 41.609375 37.984375 41.609375 
Q 34.328125 41.609375 31.25 39.984375 
Q 28.171875 38.375 25.875 35.71875 
Q 23.578125 33.0625 21.6875 29.390625 
L 14.890625 2.203125 
Q 14.546875 0.828125 13.34375 -0.140625 
Q 12.15625 -1.125 10.6875 -1.125 
Q 9.46875 -1.125 8.59375 -0.34375 
Q 7.71875 0.4375 7.71875 1.703125 
" id="Cmmi10-6d"/>
      <path d="M 8.6875 6.109375 
Q 11.375 1.515625 19.484375 1.515625 
Q 23 1.515625 26.171875 2.703125 
Q 29.34375 3.90625 31.421875 6.296875 
Q 33.5 8.6875 33.5 12.109375 
Q 33.5 14.703125 31.640625 16.359375 
Q 29.78125 18.015625 27.09375 18.609375 
L 21.6875 19.671875 
Q 17.96875 20.609375 15.578125 23.140625 
Q 13.1875 25.6875 13.1875 29.296875 
Q 13.1875 33.734375 15.59375 37.15625 
Q 18.015625 40.578125 21.96875 42.375 
Q 25.921875 44.1875 30.171875 44.1875 
Q 34.71875 44.1875 38.296875 42.015625 
Q 41.890625 39.84375 41.890625 35.59375 
Q 41.890625 33.296875 40.59375 31.53125 
Q 39.3125 29.78125 37.015625 29.78125 
Q 35.6875 29.78125 34.734375 30.640625 
Q 33.796875 31.5 33.796875 32.8125 
Q 33.796875 33.984375 34.453125 35.078125 
Q 35.109375 36.1875 36.203125 36.84375 
Q 37.3125 37.5 38.484375 37.5 
Q 37.59375 39.65625 35.171875 40.625 
Q 32.765625 41.609375 29.984375 41.609375 
Q 27.4375 41.609375 24.890625 40.578125 
Q 22.359375 39.546875 20.8125 37.5625 
Q 19.28125 35.59375 19.28125 32.90625 
Q 19.28125 31.109375 20.546875 29.734375 
Q 21.828125 28.375 23.6875 27.78125 
L 29.5 26.609375 
Q 32.28125 26.03125 34.59375 24.53125 
Q 36.921875 23.046875 38.25 20.765625 
Q 39.59375 18.5 39.59375 15.578125 
Q 39.59375 11.859375 37.515625 8.25 
Q 35.453125 4.640625 32.421875 2.484375 
Q 27.09375 -1.125 19.390625 -1.125 
Q 14.0625 -1.125 9.609375 1.3125 
Q 5.171875 3.765625 5.171875 8.59375 
Q 5.171875 11.328125 6.75 13.34375 
Q 8.34375 15.375 11.078125 15.375 
Q 12.703125 15.375 13.796875 14.390625 
Q 14.890625 13.421875 14.890625 11.8125 
Q 14.890625 9.515625 13.171875 7.8125 
Q 11.46875 6.109375 9.1875 6.109375 
z
" id="Cmmi10-73"/>
      <path d="M 45.40625 46.390625 
L 45.40625 75.984375 
L 54.390625 75.984375 
L 54.390625 0 
L 45.40625 0 
L 45.40625 8.203125 
Q 42.578125 3.328125 38.25 0.953125 
Q 33.9375 -1.421875 27.875 -1.421875 
Q 17.96875 -1.421875 11.734375 6.484375 
Q 5.515625 14.40625 5.515625 27.296875 
Q 5.515625 40.1875 11.734375 48.09375 
Q 17.96875 56 27.875 56 
Q 33.9375 56 38.25 53.625 
Q 42.578125 51.265625 45.40625 46.390625 
M 14.796875 27.296875 
Q 14.796875 17.390625 18.875 11.75 
Q 22.953125 6.109375 30.078125 6.109375 
Q 37.203125 6.109375 41.296875 11.75 
Q 45.40625 17.390625 45.40625 27.296875 
Q 45.40625 37.203125 41.296875 42.84375 
Q 37.203125 48.484375 30.078125 48.484375 
Q 22.953125 48.484375 18.875 42.84375 
Q 14.796875 37.203125 14.796875 27.296875 
" id="BitstreamVeraSans-Roman-64"/>
      <path d="M 4.203125 54.6875 
L 13.1875 54.6875 
L 24.421875 12.015625 
L 35.59375 54.6875 
L 46.1875 54.6875 
L 57.421875 12.015625 
L 68.609375 54.6875 
L 77.59375 54.6875 
L 63.28125 0 
L 52.6875 0 
L 40.921875 44.828125 
L 29.109375 0 
L 18.5 0 
z
" id="BitstreamVeraSans-Roman-77"/>
      <path d="M 45.40625 27.984375 
Q 45.40625 37.75 41.375 43.109375 
Q 37.359375 48.484375 30.078125 48.484375 
Q 22.859375 48.484375 18.828125 43.109375 
Q 14.796875 37.75 14.796875 27.984375 
Q 14.796875 18.265625 18.828125 12.890625 
Q 22.859375 7.515625 30.078125 7.515625 
Q 37.359375 7.515625 41.375 12.890625 
Q 45.40625 18.265625 45.40625 27.984375 
M 54.390625 6.78125 
Q 54.390625 -7.171875 48.1875 -13.984375 
Q 42 -20.796875 29.203125 -20.796875 
Q 24.46875 -20.796875 20.265625 -20.09375 
Q 16.0625 -19.390625 12.109375 -17.921875 
L 12.109375 -9.1875 
Q 16.0625 -11.328125 19.921875 -12.34375 
Q 23.78125 -13.375 27.78125 -13.375 
Q 36.625 -13.375 41.015625 -8.765625 
Q 45.40625 -4.15625 45.40625 5.171875 
L 45.40625 9.625 
Q 42.625 4.78125 38.28125 2.390625 
Q 33.9375 0 27.875 0 
Q 17.828125 0 11.671875 7.65625 
Q 5.515625 15.328125 5.515625 27.984375 
Q 5.515625 40.671875 11.671875 48.328125 
Q 17.828125 56 27.875 56 
Q 33.9375 56 38.28125 53.609375 
Q 42.625 51.21875 45.40625 46.390625 
L 45.40625 54.6875 
L 54.390625 54.6875 
z
" id="BitstreamVeraSans-Roman-67"/>
      <path d="M 48.78125 52.59375 
L 48.78125 44.1875 
Q 44.96875 46.296875 41.140625 47.34375 
Q 37.3125 48.390625 33.40625 48.390625 
Q 24.65625 48.390625 19.8125 42.84375 
Q 14.984375 37.3125 14.984375 27.296875 
Q 14.984375 17.28125 19.8125 11.734375 
Q 24.65625 6.203125 33.40625 6.203125 
Q 37.3125 6.203125 41.140625 7.25 
Q 44.96875 8.296875 48.78125 10.40625 
L 48.78125 2.09375 
Q 45.015625 0.34375 40.984375 -0.53125 
Q 36.96875 -1.421875 32.421875 -1.421875 
Q 20.0625 -1.421875 12.78125 6.34375 
Q 5.515625 14.109375 5.515625 27.296875 
Q 5.515625 40.671875 12.859375 48.328125 
Q 20.21875 56 33.015625 56 
Q 37.15625 56 41.109375 55.140625 
Q 45.0625 54.296875 48.78125 52.59375 
" id="BitstreamVeraSans-Roman-63"/>
     </defs>
     <g transform="translate(34.36725 410.4)rotate(-90.0)scale(0.204 -0.204)">
      <use transform="translate(0.0 0.109375)" xlink:href="#BitstreamVeraSans-Roman-77"/>
      <use transform="translate(81.787109375 0.109375)" xlink:href="#BitstreamVeraSans-Roman-61"/>
      <use transform="translate(143.06640625 0.109375)" xlink:href="#BitstreamVeraSans-Roman-74"/>
      <use transform="translate(182.275390625 0.109375)" xlink:href="#BitstreamVeraSans-Roman-65"/>
      <use transform="translate(243.798828125 0.109375)" xlink:href="#BitstreamVeraSans-Roman-72"/>
      <use transform="translate(284.912109375 0.109375)" xlink:href="#BitstreamVeraSans-Roman-20"/>
      <use transform="translate(316.69921875 0.109375)" xlink:href="#BitstreamVeraSans-Roman-64"/>
      <use transform="translate(380.17578125 0.109375)" xlink:href="#BitstreamVeraSans-Roman-69"/>
      <use transform="translate(407.958984375 0.109375)" xlink:href="#BitstreamVeraSans-Roman-73"/>
      <use transform="translate(460.05859375 0.109375)" xlink:href="#BitstreamVeraSans-Roman-63"/>
      <use transform="translate(515.0390625 0.109375)" xlink:href="#BitstreamVeraSans-Roman-68"/>
      <use transform="translate(578.41796875 0.109375)" xlink:href="#BitstreamVeraSans-Roman-61"/>
      <use transform="translate(639.697265625 0.109375)" xlink:href="#BitstreamVeraSans-Roman-72"/>
      <use transform="translate(680.810546875 0.109375)" xlink:href="#BitstreamVeraSans-Roman-67"/>
      <use transform="translate(744.287109375 0.109375)" xlink:href="#BitstreamVeraSans-Roman-65"/>
      <use transform="translate(805.810546875 0.109375)" xlink:href="#BitstreamVeraSans-Roman-20"/>
      <use transform="translate(837.59765625 0.109375)" xlink:href="#BitstreamVeraSans-Roman-28"/>
      <use transform="translate(876.611328125 0.109375)" xlink:href="#Cmmi10-6d"/>
      <use transform="translate(970.707578125 38.3734375)scale(0.7)" xlink:href="#Cmr10-33"/>
      <use transform="translate(1012.08492187 0.109375)" xlink:href="#Cmmi10-73"/>
      <use transform="translate(1065.16554688 38.3734375)scale(0.7)" xlink:href="#Cmsy10-a1"/>
      <use transform="translate(1119.54542969 38.3734375)scale(0.7)" xlink:href="#Cmr10-31"/>
      <use transform="translate(1160.92277344 0.109375)" xlink:href="#BitstreamVeraSans-Roman-29"/>
     </g>
    </g>
   </g>
   <g id="legend_1">
    <g id="patch_7">
     <path d="M 357.254375 223.797813 
L 568.22 223.797813 
L 568.22 66.1 
L 357.254375 66.1 
z
" style="fill:#ffffff;stroke:#000000;stroke-linejoin:miter;"/>
    </g>
    <g id="line2d_129">
     <path d="M 369.154375 79.867344 
L 392.954375 79.867344 
" style="fill:none;stroke:#008000;stroke-linecap:square;stroke-width:2.0;"/>
    </g>
    <g id="line2d_130"/>
    <g id="text_16">
     <!-- GRID_DLIM -->
     <defs>
      <path d="M 9.8125 72.90625 
L 24.515625 72.90625 
L 43.109375 23.296875 
L 61.8125 72.90625 
L 76.515625 72.90625 
L 76.515625 0 
L 66.890625 0 
L 66.890625 64.015625 
L 48.09375 14.015625 
L 38.1875 14.015625 
L 19.390625 64.015625 
L 19.390625 0 
L 9.8125 0 
z
" id="BitstreamVeraSans-Roman-4d"/>
      <path d="M 9.8125 72.90625 
L 19.671875 72.90625 
L 19.671875 8.296875 
L 55.171875 8.296875 
L 55.171875 0 
L 9.8125 0 
z
" id="BitstreamVeraSans-Roman-4c"/>
      <path d="M 50.984375 -16.609375 
L 50.984375 -23.578125 
L -0.984375 -23.578125 
L -0.984375 -16.609375 
z
" id="BitstreamVeraSans-Roman-5f"/>
      <path d="M 59.515625 10.40625 
L 59.515625 29.984375 
L 43.40625 29.984375 
L 43.40625 38.09375 
L 69.28125 38.09375 
L 69.28125 6.78125 
Q 63.578125 2.734375 56.6875 0.65625 
Q 49.8125 -1.421875 42 -1.421875 
Q 24.90625 -1.421875 15.25 8.5625 
Q 5.609375 18.5625 5.609375 36.375 
Q 5.609375 54.25 15.25 64.234375 
Q 24.90625 74.21875 42 74.21875 
Q 49.125 74.21875 55.546875 72.453125 
Q 61.96875 70.703125 67.390625 67.28125 
L 67.390625 56.78125 
Q 61.921875 61.421875 55.765625 63.765625 
Q 49.609375 66.109375 42.828125 66.109375 
Q 29.4375 66.109375 22.71875 58.640625 
Q 16.015625 51.171875 16.015625 36.375 
Q 16.015625 21.625 22.71875 14.15625 
Q 29.4375 6.6875 42.828125 6.6875 
Q 48.046875 6.6875 52.140625 7.59375 
Q 56.25 8.5 59.515625 10.40625 
" id="BitstreamVeraSans-Roman-47"/>
      <path d="M 44.390625 34.1875 
Q 47.5625 33.109375 50.5625 29.59375 
Q 53.5625 26.078125 56.59375 19.921875 
L 66.609375 0 
L 56 0 
L 46.6875 18.703125 
Q 43.0625 26.03125 39.671875 28.421875 
Q 36.28125 30.8125 30.421875 30.8125 
L 19.671875 30.8125 
L 19.671875 0 
L 9.8125 0 
L 9.8125 72.90625 
L 32.078125 72.90625 
Q 44.578125 72.90625 50.734375 67.671875 
Q 56.890625 62.453125 56.890625 51.90625 
Q 56.890625 45.015625 53.6875 40.46875 
Q 50.484375 35.9375 44.390625 34.1875 
M 19.671875 64.796875 
L 19.671875 38.921875 
L 32.078125 38.921875 
Q 39.203125 38.921875 42.84375 42.21875 
Q 46.484375 45.515625 46.484375 51.90625 
Q 46.484375 58.296875 42.84375 61.546875 
Q 39.203125 64.796875 32.078125 64.796875 
z
" id="BitstreamVeraSans-Roman-52"/>
      <path d="M 19.671875 64.796875 
L 19.671875 8.109375 
L 31.59375 8.109375 
Q 46.6875 8.109375 53.6875 14.9375 
Q 60.6875 21.78125 60.6875 36.53125 
Q 60.6875 51.171875 53.6875 57.984375 
Q 46.6875 64.796875 31.59375 64.796875 
z
M 9.8125 72.90625 
L 30.078125 72.90625 
Q 51.265625 72.90625 61.171875 64.09375 
Q 71.09375 55.28125 71.09375 36.53125 
Q 71.09375 17.671875 61.125 8.828125 
Q 51.171875 0 30.078125 0 
L 9.8125 0 
z
" id="BitstreamVeraSans-Roman-44"/>
      <path d="M 9.8125 72.90625 
L 19.671875 72.90625 
L 19.671875 0 
L 9.8125 0 
z
" id="BitstreamVeraSans-Roman-49"/>
     </defs>
     <g transform="translate(411.654375 85.81734375)scale(0.17 -0.17)">
      <use xlink:href="#BitstreamVeraSans-Roman-47"/>
      <use x="77.490234375" xlink:href="#BitstreamVeraSans-Roman-52"/>
      <use x="146.97265625" xlink:href="#BitstreamVeraSans-Roman-49"/>
      <use x="176.46484375" xlink:href="#BitstreamVeraSans-Roman-44"/>
      <use x="253.466796875" xlink:href="#BitstreamVeraSans-Roman-5f"/>
      <use x="303.466796875" xlink:href="#BitstreamVeraSans-Roman-44"/>
      <use x="380.46875" xlink:href="#BitstreamVeraSans-Roman-4c"/>
      <use x="436.181640625" xlink:href="#BitstreamVeraSans-Roman-49"/>
      <use x="465.673828125" xlink:href="#BitstreamVeraSans-Roman-4d"/>
     </g>
    </g>
    <g id="line2d_131">
     <path d="M 369.154375 105.300313 
L 392.954375 105.300313 
" style="fill:none;stroke:#00402a;stroke-dasharray:12.000000,3.000000;stroke-dashoffset:0.0;stroke-width:2.0;"/>
    </g>
    <g id="line2d_132"/>
    <g id="text_17">
     <!-- GRID_HYDRO -->
     <defs>
      <path d="M -0.203125 72.90625 
L 10.40625 72.90625 
L 30.609375 42.921875 
L 50.6875 72.90625 
L 61.28125 72.90625 
L 35.5 34.71875 
L 35.5 0 
L 25.59375 0 
L 25.59375 34.71875 
z
" id="BitstreamVeraSans-Roman-59"/>
      <path d="M 39.40625 66.21875 
Q 28.65625 66.21875 22.328125 58.203125 
Q 16.015625 50.203125 16.015625 36.375 
Q 16.015625 22.609375 22.328125 14.59375 
Q 28.65625 6.59375 39.40625 6.59375 
Q 50.140625 6.59375 56.421875 14.59375 
Q 62.703125 22.609375 62.703125 36.375 
Q 62.703125 50.203125 56.421875 58.203125 
Q 50.140625 66.21875 39.40625 66.21875 
M 39.40625 74.21875 
Q 54.734375 74.21875 63.90625 63.9375 
Q 73.09375 53.65625 73.09375 36.375 
Q 73.09375 19.140625 63.90625 8.859375 
Q 54.734375 -1.421875 39.40625 -1.421875 
Q 24.03125 -1.421875 14.8125 8.828125 
Q 5.609375 19.09375 5.609375 36.375 
Q 5.609375 53.65625 14.8125 63.9375 
Q 24.03125 74.21875 39.40625 74.21875 
" id="BitstreamVeraSans-Roman-4f"/>
      <path d="M 9.8125 72.90625 
L 19.671875 72.90625 
L 19.671875 43.015625 
L 55.515625 43.015625 
L 55.515625 72.90625 
L 65.375 72.90625 
L 65.375 0 
L 55.515625 0 
L 55.515625 34.71875 
L 19.671875 34.71875 
L 19.671875 0 
L 9.8125 0 
z
" id="BitstreamVeraSans-Roman-48"/>
     </defs>
     <g transform="translate(411.654375 111.2503125)scale(0.17 -0.17)">
      <use xlink:href="#BitstreamVeraSans-Roman-47"/>
      <use x="77.490234375" xlink:href="#BitstreamVeraSans-Roman-52"/>
      <use x="146.97265625" xlink:href="#BitstreamVeraSans-Roman-49"/>
      <use x="176.46484375" xlink:href="#BitstreamVeraSans-Roman-44"/>
      <use x="253.466796875" xlink:href="#BitstreamVeraSans-Roman-5f"/>
      <use x="303.466796875" xlink:href="#BitstreamVeraSans-Roman-48"/>
      <use x="378.662109375" xlink:href="#BitstreamVeraSans-Roman-59"/>
      <use x="439.74609375" xlink:href="#BitstreamVeraSans-Roman-44"/>
      <use x="516.748046875" xlink:href="#BitstreamVeraSans-Roman-52"/>
      <use x="586.23046875" xlink:href="#BitstreamVeraSans-Roman-4f"/>
     </g>
    </g>
    <g id="line2d_133">
     <path d="M 369.154375 130.733281 
L 392.954375 130.733281 
" style="fill:none;stroke:#000055;stroke-dasharray:10.000000,6.000000,3.000000,2.000000,3.000000,6.000000;stroke-dashoffset:0.0;stroke-width:2.0;"/>
    </g>
    <g id="line2d_134"/>
    <g id="text_18">
     <!-- GRID_TLIM -->
     <defs>
      <path d="M -0.296875 72.90625 
L 61.375 72.90625 
L 61.375 64.59375 
L 35.5 64.59375 
L 35.5 0 
L 25.59375 0 
L 25.59375 64.59375 
L -0.296875 64.59375 
z
" id="BitstreamVeraSans-Roman-54"/>
     </defs>
     <g transform="translate(411.654375 136.68328125)scale(0.17 -0.17)">
      <use xlink:href="#BitstreamVeraSans-Roman-47"/>
      <use x="77.490234375" xlink:href="#BitstreamVeraSans-Roman-52"/>
      <use x="146.97265625" xlink:href="#BitstreamVeraSans-Roman-49"/>
      <use x="176.46484375" xlink:href="#BitstreamVeraSans-Roman-44"/>
      <use x="253.466796875" xlink:href="#BitstreamVeraSans-Roman-5f"/>
      <use x="303.466796875" xlink:href="#BitstreamVeraSans-Roman-54"/>
      <use x="364.55078125" xlink:href="#BitstreamVeraSans-Roman-4c"/>
      <use x="420.263671875" xlink:href="#BitstreamVeraSans-Roman-49"/>
      <use x="449.755859375" xlink:href="#BitstreamVeraSans-Roman-4d"/>
     </g>
    </g>
    <g id="line2d_135">
     <path d="M 369.154375 156.16625 
L 392.954375 156.16625 
" style="fill:none;stroke:#004080;stroke-dasharray:6.000000,3.000000;stroke-dashoffset:0.0;stroke-width:2.0;"/>
    </g>
    <g id="line2d_136"/>
    <g id="text_19">
     <!-- UNIFORM_DLIM -->
     <defs>
      <path d="M 9.8125 72.90625 
L 51.703125 72.90625 
L 51.703125 64.59375 
L 19.671875 64.59375 
L 19.671875 43.109375 
L 48.578125 43.109375 
L 48.578125 34.8125 
L 19.671875 34.8125 
L 19.671875 0 
L 9.8125 0 
z
" id="BitstreamVeraSans-Roman-46"/>
      <path d="M 9.8125 72.90625 
L 23.09375 72.90625 
L 55.421875 11.921875 
L 55.421875 72.90625 
L 64.984375 72.90625 
L 64.984375 0 
L 51.703125 0 
L 19.390625 60.984375 
L 19.390625 0 
L 9.8125 0 
z
" id="BitstreamVeraSans-Roman-4e"/>
      <path d="M 8.6875 72.90625 
L 18.609375 72.90625 
L 18.609375 28.609375 
Q 18.609375 16.890625 22.84375 11.734375 
Q 27.09375 6.59375 36.625 6.59375 
Q 46.09375 6.59375 50.34375 11.734375 
Q 54.59375 16.890625 54.59375 28.609375 
L 54.59375 72.90625 
L 64.5 72.90625 
L 64.5 27.390625 
Q 64.5 13.140625 57.4375 5.859375 
Q 50.390625 -1.421875 36.625 -1.421875 
Q 22.796875 -1.421875 15.734375 5.859375 
Q 8.6875 13.140625 8.6875 27.390625 
z
" id="BitstreamVeraSans-Roman-55"/>
     </defs>
     <g transform="translate(411.654375 162.11625)scale(0.17 -0.17)">
      <use xlink:href="#BitstreamVeraSans-Roman-55"/>
      <use x="73.193359375" xlink:href="#BitstreamVeraSans-Roman-4e"/>
      <use x="147.998046875" xlink:href="#BitstreamVeraSans-Roman-49"/>
      <use x="177.490234375" xlink:href="#BitstreamVeraSans-Roman-46"/>
      <use x="235.009765625" xlink:href="#BitstreamVeraSans-Roman-4f"/>
      <use x="313.720703125" xlink:href="#BitstreamVeraSans-Roman-52"/>
      <use x="383.203125" xlink:href="#BitstreamVeraSans-Roman-4d"/>
      <use x="469.482421875" xlink:href="#BitstreamVeraSans-Roman-5f"/>
      <use x="519.482421875" xlink:href="#BitstreamVeraSans-Roman-44"/>
      <use x="596.484375" xlink:href="#BitstreamVeraSans-Roman-4c"/>
      <use x="652.197265625" xlink:href="#BitstreamVeraSans-Roman-49"/>
      <use x="681.689453125" xlink:href="#BitstreamVeraSans-Roman-4d"/>
     </g>
    </g>
    <g id="line2d_137">
     <path d="M 369.154375 181.599219 
L 392.954375 181.599219 
" style="fill:none;stroke:#0080aa;stroke-dasharray:3.000000,2.000000,12.000000,2.000000;stroke-dashoffset:0.0;stroke-width:2.0;"/>
    </g>
    <g id="line2d_138"/>
    <g id="text_20">
     <!-- UNIFORM_HYDRO -->
     <g transform="translate(411.654375 187.54921875)scale(0.17 -0.17)">
      <use xlink:href="#BitstreamVeraSans-Roman-55"/>
      <use x="73.193359375" xlink:href="#BitstreamVeraSans-Roman-4e"/>
      <use x="147.998046875" xlink:href="#BitstreamVeraSans-Roman-49"/>
      <use x="177.490234375" xlink:href="#BitstreamVeraSans-Roman-46"/>
      <use x="235.009765625" xlink:href="#BitstreamVeraSans-Roman-4f"/>
      <use x="313.720703125" xlink:href="#BitstreamVeraSans-Roman-52"/>
      <use x="383.203125" xlink:href="#BitstreamVeraSans-Roman-4d"/>
      <use x="469.482421875" xlink:href="#BitstreamVeraSans-Roman-5f"/>
      <use x="519.482421875" xlink:href="#BitstreamVeraSans-Roman-48"/>
      <use x="594.677734375" xlink:href="#BitstreamVeraSans-Roman-59"/>
      <use x="655.76171875" xlink:href="#BitstreamVeraSans-Roman-44"/>
      <use x="732.763671875" xlink:href="#BitstreamVeraSans-Roman-52"/>
      <use x="802.24609375" xlink:href="#BitstreamVeraSans-Roman-4f"/>
     </g>
    </g>
    <g id="line2d_139">
     <path d="M 369.154375 207.032188 
L 392.954375 207.032188 
" style="fill:none;stroke:#81c0d5;stroke-dasharray:4.000000,2.000000;stroke-dashoffset:0.0;stroke-width:2.0;"/>
    </g>
    <g id="line2d_140"/>
    <g id="text_21">
     <!-- UNIFORM_TLIM -->
     <g transform="translate(411.654375 212.9821875)scale(0.17 -0.17)">
      <use xlink:href="#BitstreamVeraSans-Roman-55"/>
      <use x="73.193359375" xlink:href="#BitstreamVeraSans-Roman-4e"/>
      <use x="147.998046875" xlink:href="#BitstreamVeraSans-Roman-49"/>
      <use x="177.490234375" xlink:href="#BitstreamVeraSans-Roman-46"/>
      <use x="235.009765625" xlink:href="#BitstreamVeraSans-Roman-4f"/>
      <use x="313.720703125" xlink:href="#BitstreamVeraSans-Roman-52"/>
      <use x="383.203125" xlink:href="#BitstreamVeraSans-Roman-4d"/>
      <use x="469.482421875" xlink:href="#BitstreamVeraSans-Roman-5f"/>
      <use x="519.482421875" xlink:href="#BitstreamVeraSans-Roman-54"/>
      <use x="580.56640625" xlink:href="#BitstreamVeraSans-Roman-4c"/>
      <use x="636.279296875" xlink:href="#BitstreamVeraSans-Roman-49"/>
      <use x="665.771484375" xlink:href="#BitstreamVeraSans-Roman-4d"/>
     </g>
    </g>
   </g>
  </g>
 </g>
 <defs>
  <clipPath id="p4ca58a351a">
   <rect height="460.8" width="496.62" x="80.1" y="57.6"/>
  </clipPath>
 </defs>
</svg>
