<?xml version="1.0" encoding="utf-8" standalone="no"?>
<!DOCTYPE svg PUBLIC "-//W3C//DTD SVG 1.1//EN"
  "http://www.w3.org/Graphics/SVG/1.1/DTD/svg11.dtd">
<!-- Created with matplotlib (http://matplotlib.org/) -->
<svg height="576pt" version="1.1" viewBox="0 0 576 576" width="576pt" xmlns="http://www.w3.org/2000/svg" xmlns:xlink="http://www.w3.org/1999/xlink">
 <defs>
  <style type="text/css">
*{stroke-linecap:butt;stroke-linejoin:round;stroke-miterlimit:100000;}
  </style>
 </defs>
 <g id="figure_1">
  <g id="patch_1">
   <path d="M 0 576 
L 576 576 
L 576 0 
L 0 0 
z
" style="fill:#ffffff;"/>
  </g>
  <g id="axes_1">
   <g id="patch_2">
    <path d="M 72 518.4 
L 518.4 518.4 
L 518.4 57.6 
L 72 57.6 
z
" style="fill:#ffffff;"/>
   </g>
   <g id="line2d_1">
    <path clip-path="url(#pa9a6f4bdd5)" d="M -1 518.4 
L 93.08 518.4 
L 94.32 515.504881 
L 95.56 391.821727 
L 96.8 412.17802 
L 98.04 427.844225 
L 100.52 444.849972 
L 101.76 451.577849 
L 103 460.06853 
L 105.48 472.665561 
L 106.72 478.164943 
L 107.96 482.855766 
L 109.2 486.211351 
L 111.68 491.998084 
L 114.16 496.252271 
L 115.4 497.711679 
L 116.64 498.638073 
L 117.88 500.588127 
L 120.36 502.294769 
L 124.08 505.442679 
L 129.04 507.915206 
L 135.24 510.012753 
L 143.92 512.238433 
L 147.64 512.901068 
L 150.12 513.438871 
L 155.08 514.067446 
L 158.8 514.391236 
L 163.76 514.866628 
L 176.16 515.501888 
L 250.56 517.047176 
L 297.68 517.467005 
L 384.48 517.822603 
L 422.92 517.907685 
L 422.92 517.907685 
" style="fill:none;stroke:#0d0887;stroke-linecap:square;stroke-width:2.0;"/>
   </g>
   <g id="line2d_2">
    <path clip-path="url(#pa9a6f4bdd5)" d="M -1 518.4 
L 91.84 518.4 
L 93.08 407.413333 
L 94.32 139.680797 
L 95.56 97.539481 
L 96.8 79.412938 
L 98.04 87.419301 
L 100.52 116.064422 
L 101.76 135.418603 
L 103 149.630156 
L 104.24 170.082473 
L 107.96 213.023417 
L 109.2 225.00074 
L 110.44 232.876713 
L 112.92 246.995083 
L 114.16 254.413241 
L 115.4 256.696644 
L 116.64 261.703443 
L 117.88 267.375248 
L 119.12 276.87417 
L 120.36 284.51535 
L 121.6 294.744122 
L 122.84 308.180636 
L 124.08 316.524355 
L 125.32 326.797784 
L 126.56 335.559751 
L 130.28 365.5688 
L 131.52 370.806497 
L 132.76 379.153253 
L 134 386.251396 
L 135.24 392.22353 
L 136.48 396.13183 
L 138.96 408.960385 
L 140.2 412.304144 
L 141.44 417.511549 
L 142.68 421.966147 
L 145.16 429.860637 
L 146.4 434.559529 
L 148.88 442.095403 
L 150.12 444.585739 
L 151.36 446.418727 
L 152.6 449.878392 
L 153.84 452.731286 
L 155.08 455.006272 
L 156.32 457.548459 
L 157.56 458.036695 
L 158.8 460.048456 
L 160.04 459.60991 
L 161.28 460.437755 
L 162.52 462.006949 
L 163.76 463.174427 
L 165 463.776662 
L 166.24 463.212452 
L 167.48 463.509505 
L 168.72 463.947016 
L 169.96 463.989551 
L 171.2 464.870793 
L 173.68 466.173797 
L 176.16 468.393716 
L 177.4 468.658712 
L 181.12 471.282509 
L 182.36 472.928941 
L 183.6 473.436482 
L 184.84 473.349945 
L 186.08 475.704225 
L 187.32 476.087676 
L 188.56 476.879889 
L 189.8 478.350049 
L 191.04 479.08599 
L 192.28 479.305151 
L 193.52 480.554679 
L 194.76 481.432995 
L 196 482.79963 
L 197.24 482.980247 
L 198.48 482.774902 
L 200.96 484.749315 
L 202.2 485.998662 
L 203.44 486.134444 
L 204.68 486.597012 
L 205.92 488.24419 
L 207.16 488.444848 
L 208.4 489.277161 
L 209.64 490.68272 
L 210.88 490.882789 
L 212.12 490.806119 
L 213.36 491.259153 
L 214.6 492.388364 
L 215.84 492.523245 
L 217.08 493.551191 
L 218.32 494.106468 
L 219.56 494.263671 
L 220.8 494.300621 
L 223.28 495.263546 
L 224.52 495.937504 
L 225.76 495.825783 
L 227 496.116835 
L 228.24 496.200498 
L 230.72 496.893907 
L 233.2 497.74274 
L 234.44 497.833359 
L 236.92 498.743116 
L 239.4 499.31281 
L 240.64 499.776533 
L 244.36 500.452163 
L 245.6 500.958571 
L 248.08 501.369536 
L 249.32 501.247212 
L 250.56 501.685705 
L 254.28 502.577462 
L 255.52 502.76418 
L 256.76 502.823417 
L 258 503.006519 
L 259.24 503.434989 
L 261.72 503.69564 
L 264.2 504.179214 
L 265.44 504.65568 
L 266.68 504.995513 
L 269.16 504.999295 
L 270.4 505.259613 
L 271.64 505.399159 
L 272.88 505.382103 
L 274.12 505.535263 
L 275.36 506.053908 
L 276.6 506.316243 
L 277.84 506.178872 
L 279.08 506.17101 
L 281.56 506.692345 
L 282.8 506.871121 
L 285.28 507.414921 
L 286.52 507.573192 
L 287.76 507.255724 
L 289 507.245609 
L 292.72 507.973899 
L 293.96 508.075922 
L 295.2 508.338798 
L 296.44 508.483733 
L 298.92 508.333749 
L 302.64 508.65226 
L 303.88 508.688704 
L 307.6 509.256525 
L 312.56 509.425706 
L 313.8 509.6769 
L 321.24 510.301522 
L 322.48 510.346638 
L 326.2 510.769167 
L 327.44 510.687286 
L 333.64 510.870293 
L 337.36 511.308366 
L 348.52 512.005022 
L 351 511.881358 
L 352.24 512.019683 
L 355.96 512.103384 
L 359.68 512.503701 
L 365.88 512.711766 
L 367.12 512.778826 
L 368.36 512.680403 
L 370.84 512.861112 
L 374.56 512.907561 
L 377.04 513.135945 
L 378.28 513.107304 
L 380.76 513.255654 
L 382 513.184958 
L 388.2 513.595892 
L 390.68 513.706869 
L 391.92 513.640901 
L 396.88 513.88479 
L 401.84 514.024283 
L 405.56 514.224292 
L 410.52 514.266217 
L 415.48 514.390668 
L 417.96 514.27733 
L 422.92 514.360296 
L 426.64 514.505983 
L 427.88 514.568206 
L 427.88 514.568206 
" style="fill:none;stroke:#7e03a8;stroke-dasharray:12.000000,3.000000;stroke-dashoffset:0.0;stroke-width:2.0;"/>
   </g>
   <g id="line2d_3">
    <path clip-path="url(#pa9a6f4bdd5)" d="M -1 518.4 
L 91.84 518.4 
L 93.08 518.076738 
L 94.32 516.947248 
L 95.56 516.552891 
L 96.8 515.803925 
L 98.04 515.626876 
L 99.28 515.676264 
L 100.52 516.08176 
L 101.76 516.788704 
L 106.72 517.706475 
L 107.96 517.762248 
L 109.2 517.671153 
L 110.44 517.954796 
L 112.92 517.699102 
L 114.16 517.806266 
L 115.4 516.994022 
L 116.64 515.602588 
L 117.88 513.640268 
L 119.12 513.037224 
L 120.36 512.980694 
L 121.6 513.735914 
L 122.84 514.914257 
L 125.32 515.362466 
L 126.56 515.281408 
L 130.28 516.116547 
L 134 516.259006 
L 138.96 516.237627 
L 140.2 516.435268 
L 143.92 516.570208 
L 147.64 516.421116 
L 150.12 515.751397 
L 151.36 515.19182 
L 152.6 514.322576 
L 153.84 511.719872 
L 155.08 508.220136 
L 157.56 494.758826 
L 158.8 491.581664 
L 160.04 489.966025 
L 161.28 490.187533 
L 162.52 491.14405 
L 163.76 491.562511 
L 165 493.095411 
L 167.48 494.953951 
L 168.72 496.671008 
L 169.96 497.821692 
L 171.2 498.241251 
L 172.44 498.936422 
L 173.68 500.498907 
L 174.92 501.40493 
L 176.16 501.827904 
L 177.4 502.910342 
L 178.64 503.572063 
L 179.88 504.436653 
L 181.12 505.059806 
L 182.36 505.985189 
L 183.6 506.646993 
L 186.08 507.303165 
L 187.32 508.507753 
L 188.56 509.247121 
L 192.28 509.809028 
L 193.52 510.414593 
L 194.76 510.638658 
L 196 511.415859 
L 197.24 512.052944 
L 198.48 511.996153 
L 199.72 512.093239 
L 202.2 512.845774 
L 204.68 513.20818 
L 205.92 513.563924 
L 209.64 514.044025 
L 212.12 514.490968 
L 213.36 514.632192 
L 214.6 514.522677 
L 217.08 514.856885 
L 220.8 515.435542 
L 223.28 515.659988 
L 240.64 516.413532 
L 249.32 516.618789 
L 269.16 516.981994 
L 296.44 517.272386 
L 346.04 517.593119 
L 384.48 517.746771 
L 503.52 517.99736 
L 503.52 517.99736 
" style="fill:none;stroke:#cc4778;stroke-dasharray:10.000000,6.000000,3.000000,2.000000,3.000000,6.000000;stroke-dashoffset:0.0;stroke-width:2.0;"/>
   </g>
   <g id="line2d_4">
    <path clip-path="url(#pa9a6f4bdd5)" d="M -1 518.4 
L 90.6 518.4 
L 91.84 517.608481 
L 93.08 513.088686 
L 94.32 509.166385 
L 95.56 507.820453 
L 96.8 508.169843 
L 98.04 508.655708 
L 101.76 510.606395 
L 103 510.63258 
L 104.24 511.044743 
L 106.72 511.594663 
L 107.96 511.582827 
L 109.2 512.167309 
L 110.44 512.456594 
L 112.92 512.049284 
L 114.16 509.964824 
L 115.4 504.772517 
L 116.64 497.592828 
L 117.88 491.967528 
L 119.12 488.900618 
L 120.36 486.791847 
L 121.6 487.353458 
L 122.84 488.2832 
L 124.08 488.628507 
L 125.32 488.261393 
L 126.56 490.222021 
L 127.8 491.156711 
L 129.04 491.465194 
L 130.28 490.979371 
L 131.52 493.253562 
L 132.76 494.454994 
L 134 494.717891 
L 135.24 495.252581 
L 136.48 495.293544 
L 137.72 496.324974 
L 138.96 494.628939 
L 140.2 495.870755 
L 141.44 494.966488 
L 142.68 491.545481 
L 143.92 489.078507 
L 145.16 484.010027 
L 146.4 476.541143 
L 147.64 460.9562 
L 148.88 430.360872 
L 150.12 393.546579 
L 151.36 362.634056 
L 152.6 342.947804 
L 153.84 333.643012 
L 155.08 330.191084 
L 156.32 330.491981 
L 157.56 335.198423 
L 158.8 337.625035 
L 160.04 342.334412 
L 161.28 348.406511 
L 162.52 351.274293 
L 163.76 352.361586 
L 165 358.41455 
L 166.24 362.561569 
L 168.72 371.416323 
L 169.96 373.429191 
L 172.44 385.393264 
L 173.68 388.342603 
L 174.92 391.684673 
L 176.16 398.557182 
L 177.4 401.509108 
L 178.64 406.690375 
L 179.88 408.485967 
L 181.12 411.623002 
L 182.36 416.048098 
L 183.6 419.985997 
L 184.84 421.492107 
L 186.08 426.117452 
L 187.32 428.210679 
L 188.56 430.682687 
L 189.8 433.677829 
L 191.04 437.808252 
L 192.28 439.443687 
L 193.52 442.154874 
L 194.76 444.43219 
L 197.24 448.605565 
L 198.48 452.18484 
L 199.72 452.658724 
L 200.96 455.199339 
L 202.2 456.031759 
L 203.44 457.349706 
L 207.16 463.616187 
L 208.4 463.840411 
L 209.64 464.97352 
L 212.12 468.79478 
L 213.36 469.025282 
L 215.84 470.891538 
L 217.08 472.535962 
L 218.32 473.092808 
L 219.56 475.248378 
L 220.8 475.90991 
L 222.04 476.388237 
L 224.52 478.145032 
L 225.76 478.810635 
L 227 479.053038 
L 228.24 479.828759 
L 229.48 480.456936 
L 231.96 482.611958 
L 233.2 482.399162 
L 234.44 484.055703 
L 235.68 484.764439 
L 236.92 485.341277 
L 238.16 485.581416 
L 239.4 485.695954 
L 241.88 487.299679 
L 244.36 488.971993 
L 245.6 489.352462 
L 246.84 489.152287 
L 248.08 489.731051 
L 249.32 490.524382 
L 250.56 489.998153 
L 251.8 489.898028 
L 253.04 490.739222 
L 254.28 491.434738 
L 255.52 492.458755 
L 258 492.275221 
L 259.24 493.018711 
L 260.48 492.985985 
L 262.96 493.365987 
L 264.2 494.333007 
L 265.44 494.945011 
L 266.68 494.603088 
L 267.92 494.92692 
L 270.4 496.914568 
L 271.64 497.010661 
L 272.88 496.87624 
L 276.6 498.181732 
L 277.84 498.320014 
L 279.08 498.755586 
L 281.56 499.109579 
L 282.8 498.934038 
L 284.04 498.938436 
L 285.28 499.227253 
L 286.52 499.93434 
L 287.76 500.353808 
L 289 500.613797 
L 290.24 501.036232 
L 291.48 501.040667 
L 293.96 501.726009 
L 296.44 501.176987 
L 298.92 502.735209 
L 300.16 503.059523 
L 302.64 503.131925 
L 305.12 504.113557 
L 306.36 504.388298 
L 307.6 504.236681 
L 308.84 504.577891 
L 310.08 504.229953 
L 311.32 504.415612 
L 312.56 504.856257 
L 316.28 505.426473 
L 317.52 505.303887 
L 318.76 505.562461 
L 320 505.965424 
L 321.24 505.944456 
L 322.48 505.735297 
L 323.72 505.836391 
L 324.96 506.230654 
L 328.68 506.881283 
L 331.16 506.989516 
L 332.4 506.991859 
L 333.64 507.366856 
L 336.12 507.833915 
L 337.36 507.686731 
L 338.6 507.901342 
L 341.08 507.721744 
L 342.32 508.114351 
L 344.8 508.336269 
L 347.28 508.78567 
L 348.52 508.69736 
L 349.76 508.776103 
L 351 508.975002 
L 354.72 508.888752 
L 357.2 509.328561 
L 358.44 509.568502 
L 359.68 509.566129 
L 363.4 509.857152 
L 367.12 510.156036 
L 368.36 510.355677 
L 369.6 510.174008 
L 370.84 510.169417 
L 372.08 510.016443 
L 377.04 510.778795 
L 379.52 510.792015 
L 384.48 511.188769 
L 393.16 511.459893 
L 400.6 511.876323 
L 408.04 512.071721 
L 415.48 512.566162 
L 417.96 512.475162 
L 419.2 512.624406 
L 420.44 512.574457 
L 424.16 512.918479 
L 429.12 513.025367 
L 431.6 512.885767 
L 435.32 513.166754 
L 436.56 513.051014 
L 442.76 513.164681 
L 444 513.096129 
L 447.72 513.449764 
L 451.44 513.369402 
L 461.36 513.759807 
L 470.04 514.022329 
L 472.52 514.026207 
L 475 514.012432 
L 477.48 514.085752 
L 481.2 514.302795 
L 503.52 514.779714 
L 503.52 514.779714 
" style="fill:none;stroke:#f89540;stroke-dasharray:6.000000,3.000000;stroke-dashoffset:0.0;stroke-width:2.0;"/>
   </g>
   <g id="patch_3">
    <path d="M 72 57.6 
L 518.4 57.6 
" style="fill:none;stroke:#000000;stroke-linecap:square;stroke-linejoin:miter;"/>
   </g>
   <g id="patch_4">
    <path d="M 518.4 518.4 
L 518.4 57.6 
" style="fill:none;stroke:#000000;stroke-linecap:square;stroke-linejoin:miter;"/>
   </g>
   <g id="patch_5">
    <path d="M 72 518.4 
L 518.4 518.4 
" style="fill:none;stroke:#000000;stroke-linecap:square;stroke-linejoin:miter;"/>
   </g>
   <g id="patch_6">
    <path d="M 72 518.4 
L 72 57.6 
" style="fill:none;stroke:#000000;stroke-linecap:square;stroke-linejoin:miter;"/>
   </g>
   <g id="matplotlib.axis_1">
    <g id="xtick_1">
     <g id="line2d_5">
      <defs>
       <path d="M 0 0 
L 0 -3 
" id="mb293f32a5b" style="stroke:#000000;"/>
      </defs>
      <g>
       <use style="stroke:#000000;" x="116.64" xlink:href="#mb293f32a5b" y="518.4"/>
      </g>
     </g>
     <g id="line2d_6">
      <defs>
       <path d="M 0 0 
L 0 3 
" id="maa559ab025" style="stroke:#000000;"/>
      </defs>
      <g>
       <use style="stroke:#000000;" x="116.64" xlink:href="#maa559ab025" y="57.6"/>
      </g>
     </g>
     <g id="text_1">
      <!-- 45 -->
      <defs>
       <path d="M 37.796875 64.3125 
L 12.890625 25.390625 
L 37.796875 25.390625 
z
M 35.203125 72.90625 
L 47.609375 72.90625 
L 47.609375 25.390625 
L 58.015625 25.390625 
L 58.015625 17.1875 
L 47.609375 17.1875 
L 47.609375 0 
L 37.796875 0 
L 37.796875 17.1875 
L 4.890625 17.1875 
L 4.890625 26.703125 
z
" id="BitstreamVeraSans-Roman-34"/>
       <path d="M 10.796875 72.90625 
L 49.515625 72.90625 
L 49.515625 64.59375 
L 19.828125 64.59375 
L 19.828125 46.734375 
Q 21.96875 47.46875 24.109375 47.828125 
Q 26.265625 48.1875 28.421875 48.1875 
Q 40.625 48.1875 47.75 41.5 
Q 54.890625 34.8125 54.890625 23.390625 
Q 54.890625 11.625 47.5625 5.09375 
Q 40.234375 -1.421875 26.90625 -1.421875 
Q 22.3125 -1.421875 17.546875 -0.640625 
Q 12.796875 0.140625 7.71875 1.703125 
L 7.71875 11.625 
Q 12.109375 9.234375 16.796875 8.0625 
Q 21.484375 6.890625 26.703125 6.890625 
Q 35.15625 6.890625 40.078125 11.328125 
Q 45.015625 15.765625 45.015625 23.390625 
Q 45.015625 31 40.078125 35.4375 
Q 35.15625 39.890625 26.703125 39.890625 
Q 22.75 39.890625 18.8125 39.015625 
Q 14.890625 38.140625 10.796875 36.28125 
z
" id="BitstreamVeraSans-Roman-35"/>
      </defs>
      <g transform="translate(105.82375 535.31734375)scale(0.17 -0.17)">
       <use xlink:href="#BitstreamVeraSans-Roman-34"/>
       <use x="63.623046875" xlink:href="#BitstreamVeraSans-Roman-35"/>
      </g>
     </g>
    </g>
    <g id="xtick_2">
     <g id="line2d_7">
      <g>
       <use style="stroke:#000000;" x="191.04" xlink:href="#mb293f32a5b" y="518.4"/>
      </g>
     </g>
     <g id="line2d_8">
      <g>
       <use style="stroke:#000000;" x="191.04" xlink:href="#maa559ab025" y="57.6"/>
      </g>
     </g>
     <g id="text_2">
      <!-- 50 -->
      <defs>
       <path d="M 31.78125 66.40625 
Q 24.171875 66.40625 20.328125 58.90625 
Q 16.5 51.421875 16.5 36.375 
Q 16.5 21.390625 20.328125 13.890625 
Q 24.171875 6.390625 31.78125 6.390625 
Q 39.453125 6.390625 43.28125 13.890625 
Q 47.125 21.390625 47.125 36.375 
Q 47.125 51.421875 43.28125 58.90625 
Q 39.453125 66.40625 31.78125 66.40625 
M 31.78125 74.21875 
Q 44.046875 74.21875 50.515625 64.515625 
Q 56.984375 54.828125 56.984375 36.375 
Q 56.984375 17.96875 50.515625 8.265625 
Q 44.046875 -1.421875 31.78125 -1.421875 
Q 19.53125 -1.421875 13.0625 8.265625 
Q 6.59375 17.96875 6.59375 36.375 
Q 6.59375 54.828125 13.0625 64.515625 
Q 19.53125 74.21875 31.78125 74.21875 
" id="BitstreamVeraSans-Roman-30"/>
      </defs>
      <g transform="translate(180.22375 535.31734375)scale(0.17 -0.17)">
       <use xlink:href="#BitstreamVeraSans-Roman-35"/>
       <use x="63.623046875" xlink:href="#BitstreamVeraSans-Roman-30"/>
      </g>
     </g>
    </g>
    <g id="xtick_3">
     <g id="line2d_9">
      <g>
       <use style="stroke:#000000;" x="265.44" xlink:href="#mb293f32a5b" y="518.4"/>
      </g>
     </g>
     <g id="line2d_10">
      <g>
       <use style="stroke:#000000;" x="265.44" xlink:href="#maa559ab025" y="57.6"/>
      </g>
     </g>
     <g id="text_3">
      <!-- 55 -->
      <g transform="translate(254.62375 535.31734375)scale(0.17 -0.17)">
       <use xlink:href="#BitstreamVeraSans-Roman-35"/>
       <use x="63.623046875" xlink:href="#BitstreamVeraSans-Roman-35"/>
      </g>
     </g>
    </g>
    <g id="xtick_4">
     <g id="line2d_11">
      <g>
       <use style="stroke:#000000;" x="339.84" xlink:href="#mb293f32a5b" y="518.4"/>
      </g>
     </g>
     <g id="line2d_12">
      <g>
       <use style="stroke:#000000;" x="339.84" xlink:href="#maa559ab025" y="57.6"/>
      </g>
     </g>
     <g id="text_4">
      <!-- 60 -->
      <defs>
       <path d="M 33.015625 40.375 
Q 26.375 40.375 22.484375 35.828125 
Q 18.609375 31.296875 18.609375 23.390625 
Q 18.609375 15.53125 22.484375 10.953125 
Q 26.375 6.390625 33.015625 6.390625 
Q 39.65625 6.390625 43.53125 10.953125 
Q 47.40625 15.53125 47.40625 23.390625 
Q 47.40625 31.296875 43.53125 35.828125 
Q 39.65625 40.375 33.015625 40.375 
M 52.59375 71.296875 
L 52.59375 62.3125 
Q 48.875 64.0625 45.09375 64.984375 
Q 41.3125 65.921875 37.59375 65.921875 
Q 27.828125 65.921875 22.671875 59.328125 
Q 17.53125 52.734375 16.796875 39.40625 
Q 19.671875 43.65625 24.015625 45.921875 
Q 28.375 48.1875 33.59375 48.1875 
Q 44.578125 48.1875 50.953125 41.515625 
Q 57.328125 34.859375 57.328125 23.390625 
Q 57.328125 12.15625 50.6875 5.359375 
Q 44.046875 -1.421875 33.015625 -1.421875 
Q 20.359375 -1.421875 13.671875 8.265625 
Q 6.984375 17.96875 6.984375 36.375 
Q 6.984375 53.65625 15.1875 63.9375 
Q 23.390625 74.21875 37.203125 74.21875 
Q 40.921875 74.21875 44.703125 73.484375 
Q 48.484375 72.75 52.59375 71.296875 
" id="BitstreamVeraSans-Roman-36"/>
      </defs>
      <g transform="translate(329.02375 535.31734375)scale(0.17 -0.17)">
       <use xlink:href="#BitstreamVeraSans-Roman-36"/>
       <use x="63.623046875" xlink:href="#BitstreamVeraSans-Roman-30"/>
      </g>
     </g>
    </g>
    <g id="xtick_5">
     <g id="line2d_13">
      <g>
       <use style="stroke:#000000;" x="414.24" xlink:href="#mb293f32a5b" y="518.4"/>
      </g>
     </g>
     <g id="line2d_14">
      <g>
       <use style="stroke:#000000;" x="414.24" xlink:href="#maa559ab025" y="57.6"/>
      </g>
     </g>
     <g id="text_5">
      <!-- 65 -->
      <g transform="translate(403.42375 535.31734375)scale(0.17 -0.17)">
       <use xlink:href="#BitstreamVeraSans-Roman-36"/>
       <use x="63.623046875" xlink:href="#BitstreamVeraSans-Roman-35"/>
      </g>
     </g>
    </g>
    <g id="xtick_6">
     <g id="line2d_15">
      <g>
       <use style="stroke:#000000;" x="488.64" xlink:href="#mb293f32a5b" y="518.4"/>
      </g>
     </g>
     <g id="line2d_16">
      <g>
       <use style="stroke:#000000;" x="488.64" xlink:href="#maa559ab025" y="57.6"/>
      </g>
     </g>
     <g id="text_6">
      <!-- 70 -->
      <defs>
       <path d="M 8.203125 72.90625 
L 55.078125 72.90625 
L 55.078125 68.703125 
L 28.609375 0 
L 18.3125 0 
L 43.21875 64.59375 
L 8.203125 64.59375 
z
" id="BitstreamVeraSans-Roman-37"/>
      </defs>
      <g transform="translate(477.82375 535.31734375)scale(0.17 -0.17)">
       <use xlink:href="#BitstreamVeraSans-Roman-37"/>
       <use x="63.623046875" xlink:href="#BitstreamVeraSans-Roman-30"/>
      </g>
     </g>
    </g>
    <g id="xtick_7">
     <g id="line2d_17">
      <g>
       <use style="stroke:#000000;" x="86.88" xlink:href="#mb293f32a5b" y="518.4"/>
      </g>
     </g>
     <g id="line2d_18">
      <g>
       <use style="stroke:#000000;" x="86.88" xlink:href="#maa559ab025" y="57.6"/>
      </g>
     </g>
    </g>
    <g id="xtick_8">
     <g id="line2d_19">
      <g>
       <use style="stroke:#000000;" x="101.76" xlink:href="#mb293f32a5b" y="518.4"/>
      </g>
     </g>
     <g id="line2d_20">
      <g>
       <use style="stroke:#000000;" x="101.76" xlink:href="#maa559ab025" y="57.6"/>
      </g>
     </g>
    </g>
    <g id="xtick_9">
     <g id="line2d_21">
      <g>
       <use style="stroke:#000000;" x="131.52" xlink:href="#mb293f32a5b" y="518.4"/>
      </g>
     </g>
     <g id="line2d_22">
      <g>
       <use style="stroke:#000000;" x="131.52" xlink:href="#maa559ab025" y="57.6"/>
      </g>
     </g>
    </g>
    <g id="xtick_10">
     <g id="line2d_23">
      <g>
       <use style="stroke:#000000;" x="146.4" xlink:href="#mb293f32a5b" y="518.4"/>
      </g>
     </g>
     <g id="line2d_24">
      <g>
       <use style="stroke:#000000;" x="146.4" xlink:href="#maa559ab025" y="57.6"/>
      </g>
     </g>
    </g>
    <g id="xtick_11">
     <g id="line2d_25">
      <g>
       <use style="stroke:#000000;" x="161.28" xlink:href="#mb293f32a5b" y="518.4"/>
      </g>
     </g>
     <g id="line2d_26">
      <g>
       <use style="stroke:#000000;" x="161.28" xlink:href="#maa559ab025" y="57.6"/>
      </g>
     </g>
    </g>
    <g id="xtick_12">
     <g id="line2d_27">
      <g>
       <use style="stroke:#000000;" x="176.16" xlink:href="#mb293f32a5b" y="518.4"/>
      </g>
     </g>
     <g id="line2d_28">
      <g>
       <use style="stroke:#000000;" x="176.16" xlink:href="#maa559ab025" y="57.6"/>
      </g>
     </g>
    </g>
    <g id="xtick_13">
     <g id="line2d_29">
      <g>
       <use style="stroke:#000000;" x="205.92" xlink:href="#mb293f32a5b" y="518.4"/>
      </g>
     </g>
     <g id="line2d_30">
      <g>
       <use style="stroke:#000000;" x="205.92" xlink:href="#maa559ab025" y="57.6"/>
      </g>
     </g>
    </g>
    <g id="xtick_14">
     <g id="line2d_31">
      <g>
       <use style="stroke:#000000;" x="220.8" xlink:href="#mb293f32a5b" y="518.4"/>
      </g>
     </g>
     <g id="line2d_32">
      <g>
       <use style="stroke:#000000;" x="220.8" xlink:href="#maa559ab025" y="57.6"/>
      </g>
     </g>
    </g>
    <g id="xtick_15">
     <g id="line2d_33">
      <g>
       <use style="stroke:#000000;" x="235.68" xlink:href="#mb293f32a5b" y="518.4"/>
      </g>
     </g>
     <g id="line2d_34">
      <g>
       <use style="stroke:#000000;" x="235.68" xlink:href="#maa559ab025" y="57.6"/>
      </g>
     </g>
    </g>
    <g id="xtick_16">
     <g id="line2d_35">
      <g>
       <use style="stroke:#000000;" x="250.56" xlink:href="#mb293f32a5b" y="518.4"/>
      </g>
     </g>
     <g id="line2d_36">
      <g>
       <use style="stroke:#000000;" x="250.56" xlink:href="#maa559ab025" y="57.6"/>
      </g>
     </g>
    </g>
    <g id="xtick_17">
     <g id="line2d_37">
      <g>
       <use style="stroke:#000000;" x="280.32" xlink:href="#mb293f32a5b" y="518.4"/>
      </g>
     </g>
     <g id="line2d_38">
      <g>
       <use style="stroke:#000000;" x="280.32" xlink:href="#maa559ab025" y="57.6"/>
      </g>
     </g>
    </g>
    <g id="xtick_18">
     <g id="line2d_39">
      <g>
       <use style="stroke:#000000;" x="295.2" xlink:href="#mb293f32a5b" y="518.4"/>
      </g>
     </g>
     <g id="line2d_40">
      <g>
       <use style="stroke:#000000;" x="295.2" xlink:href="#maa559ab025" y="57.6"/>
      </g>
     </g>
    </g>
    <g id="xtick_19">
     <g id="line2d_41">
      <g>
       <use style="stroke:#000000;" x="310.08" xlink:href="#mb293f32a5b" y="518.4"/>
      </g>
     </g>
     <g id="line2d_42">
      <g>
       <use style="stroke:#000000;" x="310.08" xlink:href="#maa559ab025" y="57.6"/>
      </g>
     </g>
    </g>
    <g id="xtick_20">
     <g id="line2d_43">
      <g>
       <use style="stroke:#000000;" x="324.96" xlink:href="#mb293f32a5b" y="518.4"/>
      </g>
     </g>
     <g id="line2d_44">
      <g>
       <use style="stroke:#000000;" x="324.96" xlink:href="#maa559ab025" y="57.6"/>
      </g>
     </g>
    </g>
    <g id="xtick_21">
     <g id="line2d_45">
      <g>
       <use style="stroke:#000000;" x="354.72" xlink:href="#mb293f32a5b" y="518.4"/>
      </g>
     </g>
     <g id="line2d_46">
      <g>
       <use style="stroke:#000000;" x="354.72" xlink:href="#maa559ab025" y="57.6"/>
      </g>
     </g>
    </g>
    <g id="xtick_22">
     <g id="line2d_47">
      <g>
       <use style="stroke:#000000;" x="369.6" xlink:href="#mb293f32a5b" y="518.4"/>
      </g>
     </g>
     <g id="line2d_48">
      <g>
       <use style="stroke:#000000;" x="369.6" xlink:href="#maa559ab025" y="57.6"/>
      </g>
     </g>
    </g>
    <g id="xtick_23">
     <g id="line2d_49">
      <g>
       <use style="stroke:#000000;" x="384.48" xlink:href="#mb293f32a5b" y="518.4"/>
      </g>
     </g>
     <g id="line2d_50">
      <g>
       <use style="stroke:#000000;" x="384.48" xlink:href="#maa559ab025" y="57.6"/>
      </g>
     </g>
    </g>
    <g id="xtick_24">
     <g id="line2d_51">
      <g>
       <use style="stroke:#000000;" x="399.36" xlink:href="#mb293f32a5b" y="518.4"/>
      </g>
     </g>
     <g id="line2d_52">
      <g>
       <use style="stroke:#000000;" x="399.36" xlink:href="#maa559ab025" y="57.6"/>
      </g>
     </g>
    </g>
    <g id="xtick_25">
     <g id="line2d_53">
      <g>
       <use style="stroke:#000000;" x="429.12" xlink:href="#mb293f32a5b" y="518.4"/>
      </g>
     </g>
     <g id="line2d_54">
      <g>
       <use style="stroke:#000000;" x="429.12" xlink:href="#maa559ab025" y="57.6"/>
      </g>
     </g>
    </g>
    <g id="xtick_26">
     <g id="line2d_55">
      <g>
       <use style="stroke:#000000;" x="444.0" xlink:href="#mb293f32a5b" y="518.4"/>
      </g>
     </g>
     <g id="line2d_56">
      <g>
       <use style="stroke:#000000;" x="444.0" xlink:href="#maa559ab025" y="57.6"/>
      </g>
     </g>
    </g>
    <g id="xtick_27">
     <g id="line2d_57">
      <g>
       <use style="stroke:#000000;" x="458.88" xlink:href="#mb293f32a5b" y="518.4"/>
      </g>
     </g>
     <g id="line2d_58">
      <g>
       <use style="stroke:#000000;" x="458.88" xlink:href="#maa559ab025" y="57.6"/>
      </g>
     </g>
    </g>
    <g id="xtick_28">
     <g id="line2d_59">
      <g>
       <use style="stroke:#000000;" x="473.76" xlink:href="#mb293f32a5b" y="518.4"/>
      </g>
     </g>
     <g id="line2d_60">
      <g>
       <use style="stroke:#000000;" x="473.76" xlink:href="#maa559ab025" y="57.6"/>
      </g>
     </g>
    </g>
    <g id="xtick_29">
     <g id="line2d_61">
      <g>
       <use style="stroke:#000000;" x="503.52" xlink:href="#mb293f32a5b" y="518.4"/>
      </g>
     </g>
     <g id="line2d_62">
      <g>
       <use style="stroke:#000000;" x="503.52" xlink:href="#maa559ab025" y="57.6"/>
      </g>
     </g>
    </g>
    <g id="xtick_30">
     <g id="line2d_63">
      <g>
       <use style="stroke:#000000;" x="518.4" xlink:href="#mb293f32a5b" y="518.4"/>
      </g>
     </g>
     <g id="line2d_64">
      <g>
       <use style="stroke:#000000;" x="518.4" xlink:href="#maa559ab025" y="57.6"/>
      </g>
     </g>
    </g>
    <g id="text_7">
     <!-- simulation time (hours) -->
     <defs>
      <path id="BitstreamVeraSans-Roman-20"/>
      <path d="M 54.890625 33.015625 
L 54.890625 0 
L 45.90625 0 
L 45.90625 32.71875 
Q 45.90625 40.484375 42.875 44.328125 
Q 39.84375 48.1875 33.796875 48.1875 
Q 26.515625 48.1875 22.3125 43.546875 
Q 18.109375 38.921875 18.109375 30.90625 
L 18.109375 0 
L 9.078125 0 
L 9.078125 54.6875 
L 18.109375 54.6875 
L 18.109375 46.1875 
Q 21.34375 51.125 25.703125 53.5625 
Q 30.078125 56 35.796875 56 
Q 45.21875 56 50.046875 50.171875 
Q 54.890625 44.34375 54.890625 33.015625 
" id="BitstreamVeraSans-Roman-6e"/>
      <path d="M 52 44.1875 
Q 55.375 50.25 60.0625 53.125 
Q 64.75 56 71.09375 56 
Q 79.640625 56 84.28125 50.015625 
Q 88.921875 44.046875 88.921875 33.015625 
L 88.921875 0 
L 79.890625 0 
L 79.890625 32.71875 
Q 79.890625 40.578125 77.09375 44.375 
Q 74.3125 48.1875 68.609375 48.1875 
Q 61.625 48.1875 57.5625 43.546875 
Q 53.515625 38.921875 53.515625 30.90625 
L 53.515625 0 
L 44.484375 0 
L 44.484375 32.71875 
Q 44.484375 40.625 41.703125 44.40625 
Q 38.921875 48.1875 33.109375 48.1875 
Q 26.21875 48.1875 22.15625 43.53125 
Q 18.109375 38.875 18.109375 30.90625 
L 18.109375 0 
L 9.078125 0 
L 9.078125 54.6875 
L 18.109375 54.6875 
L 18.109375 46.1875 
Q 21.1875 51.21875 25.484375 53.609375 
Q 29.78125 56 35.6875 56 
Q 41.65625 56 45.828125 52.96875 
Q 50 49.953125 52 44.1875 
" id="BitstreamVeraSans-Roman-6d"/>
      <path d="M 30.609375 48.390625 
Q 23.390625 48.390625 19.1875 42.75 
Q 14.984375 37.109375 14.984375 27.296875 
Q 14.984375 17.484375 19.15625 11.84375 
Q 23.34375 6.203125 30.609375 6.203125 
Q 37.796875 6.203125 41.984375 11.859375 
Q 46.1875 17.53125 46.1875 27.296875 
Q 46.1875 37.015625 41.984375 42.703125 
Q 37.796875 48.390625 30.609375 48.390625 
M 30.609375 56 
Q 42.328125 56 49.015625 48.375 
Q 55.71875 40.765625 55.71875 27.296875 
Q 55.71875 13.875 49.015625 6.21875 
Q 42.328125 -1.421875 30.609375 -1.421875 
Q 18.84375 -1.421875 12.171875 6.21875 
Q 5.515625 13.875 5.515625 27.296875 
Q 5.515625 40.765625 12.171875 48.375 
Q 18.84375 56 30.609375 56 
" id="BitstreamVeraSans-Roman-6f"/>
      <path d="M 9.421875 75.984375 
L 18.40625 75.984375 
L 18.40625 0 
L 9.421875 0 
z
" id="BitstreamVeraSans-Roman-6c"/>
      <path d="M 8.015625 75.875 
L 15.828125 75.875 
Q 23.140625 64.359375 26.78125 53.3125 
Q 30.421875 42.28125 30.421875 31.390625 
Q 30.421875 20.453125 26.78125 9.375 
Q 23.140625 -1.703125 15.828125 -13.1875 
L 8.015625 -13.1875 
Q 14.5 -2 17.703125 9.0625 
Q 20.90625 20.125 20.90625 31.390625 
Q 20.90625 42.671875 17.703125 53.65625 
Q 14.5 64.65625 8.015625 75.875 
" id="BitstreamVeraSans-Roman-29"/>
      <path d="M 9.421875 54.6875 
L 18.40625 54.6875 
L 18.40625 0 
L 9.421875 0 
z
M 9.421875 75.984375 
L 18.40625 75.984375 
L 18.40625 64.59375 
L 9.421875 64.59375 
z
" id="BitstreamVeraSans-Roman-69"/>
      <path d="M 54.890625 33.015625 
L 54.890625 0 
L 45.90625 0 
L 45.90625 32.71875 
Q 45.90625 40.484375 42.875 44.328125 
Q 39.84375 48.1875 33.796875 48.1875 
Q 26.515625 48.1875 22.3125 43.546875 
Q 18.109375 38.921875 18.109375 30.90625 
L 18.109375 0 
L 9.078125 0 
L 9.078125 75.984375 
L 18.109375 75.984375 
L 18.109375 46.1875 
Q 21.34375 51.125 25.703125 53.5625 
Q 30.078125 56 35.796875 56 
Q 45.21875 56 50.046875 50.171875 
Q 54.890625 44.34375 54.890625 33.015625 
" id="BitstreamVeraSans-Roman-68"/>
      <path d="M 41.109375 46.296875 
Q 39.59375 47.171875 37.8125 47.578125 
Q 36.03125 48 33.890625 48 
Q 26.265625 48 22.1875 43.046875 
Q 18.109375 38.09375 18.109375 28.8125 
L 18.109375 0 
L 9.078125 0 
L 9.078125 54.6875 
L 18.109375 54.6875 
L 18.109375 46.1875 
Q 20.953125 51.171875 25.484375 53.578125 
Q 30.03125 56 36.53125 56 
Q 37.453125 56 38.578125 55.875 
Q 39.703125 55.765625 41.0625 55.515625 
z
" id="BitstreamVeraSans-Roman-72"/>
      <path d="M 31 75.875 
Q 24.46875 64.65625 21.28125 53.65625 
Q 18.109375 42.671875 18.109375 31.390625 
Q 18.109375 20.125 21.3125 9.0625 
Q 24.515625 -2 31 -13.1875 
L 23.1875 -13.1875 
Q 15.875 -1.703125 12.234375 9.375 
Q 8.59375 20.453125 8.59375 31.390625 
Q 8.59375 42.28125 12.203125 53.3125 
Q 15.828125 64.359375 23.1875 75.875 
z
" id="BitstreamVeraSans-Roman-28"/>
      <path d="M 56.203125 29.59375 
L 56.203125 25.203125 
L 14.890625 25.203125 
Q 15.484375 15.921875 20.484375 11.0625 
Q 25.484375 6.203125 34.421875 6.203125 
Q 39.59375 6.203125 44.453125 7.46875 
Q 49.3125 8.734375 54.109375 11.28125 
L 54.109375 2.78125 
Q 49.265625 0.734375 44.1875 -0.34375 
Q 39.109375 -1.421875 33.890625 -1.421875 
Q 20.796875 -1.421875 13.15625 6.1875 
Q 5.515625 13.8125 5.515625 26.8125 
Q 5.515625 40.234375 12.765625 48.109375 
Q 20.015625 56 32.328125 56 
Q 43.359375 56 49.78125 48.890625 
Q 56.203125 41.796875 56.203125 29.59375 
M 47.21875 32.234375 
Q 47.125 39.59375 43.09375 43.984375 
Q 39.0625 48.390625 32.421875 48.390625 
Q 24.90625 48.390625 20.390625 44.140625 
Q 15.875 39.890625 15.1875 32.171875 
z
" id="BitstreamVeraSans-Roman-65"/>
      <path d="M 18.3125 70.21875 
L 18.3125 54.6875 
L 36.8125 54.6875 
L 36.8125 47.703125 
L 18.3125 47.703125 
L 18.3125 18.015625 
Q 18.3125 11.328125 20.140625 9.421875 
Q 21.96875 7.515625 27.59375 7.515625 
L 36.8125 7.515625 
L 36.8125 0 
L 27.59375 0 
Q 17.1875 0 13.234375 3.875 
Q 9.28125 7.765625 9.28125 18.015625 
L 9.28125 47.703125 
L 2.6875 47.703125 
L 2.6875 54.6875 
L 9.28125 54.6875 
L 9.28125 70.21875 
z
" id="BitstreamVeraSans-Roman-74"/>
      <path d="M 8.5 21.578125 
L 8.5 54.6875 
L 17.484375 54.6875 
L 17.484375 21.921875 
Q 17.484375 14.15625 20.5 10.265625 
Q 23.53125 6.390625 29.59375 6.390625 
Q 36.859375 6.390625 41.078125 11.03125 
Q 45.3125 15.671875 45.3125 23.6875 
L 45.3125 54.6875 
L 54.296875 54.6875 
L 54.296875 0 
L 45.3125 0 
L 45.3125 8.40625 
Q 42.046875 3.421875 37.71875 1 
Q 33.40625 -1.421875 27.6875 -1.421875 
Q 18.265625 -1.421875 13.375 4.4375 
Q 8.5 10.296875 8.5 21.578125 
" id="BitstreamVeraSans-Roman-75"/>
      <path d="M 34.28125 27.484375 
Q 23.390625 27.484375 19.1875 25 
Q 14.984375 22.515625 14.984375 16.5 
Q 14.984375 11.71875 18.140625 8.90625 
Q 21.296875 6.109375 26.703125 6.109375 
Q 34.1875 6.109375 38.703125 11.40625 
Q 43.21875 16.703125 43.21875 25.484375 
L 43.21875 27.484375 
z
M 52.203125 31.203125 
L 52.203125 0 
L 43.21875 0 
L 43.21875 8.296875 
Q 40.140625 3.328125 35.546875 0.953125 
Q 30.953125 -1.421875 24.3125 -1.421875 
Q 15.921875 -1.421875 10.953125 3.296875 
Q 6 8.015625 6 15.921875 
Q 6 25.140625 12.171875 29.828125 
Q 18.359375 34.515625 30.609375 34.515625 
L 43.21875 34.515625 
L 43.21875 35.40625 
Q 43.21875 41.609375 39.140625 45 
Q 35.0625 48.390625 27.6875 48.390625 
Q 23 48.390625 18.546875 47.265625 
Q 14.109375 46.140625 10.015625 43.890625 
L 10.015625 52.203125 
Q 14.9375 54.109375 19.578125 55.046875 
Q 24.21875 56 28.609375 56 
Q 40.484375 56 46.34375 49.84375 
Q 52.203125 43.703125 52.203125 31.203125 
" id="BitstreamVeraSans-Roman-61"/>
      <path d="M 44.28125 53.078125 
L 44.28125 44.578125 
Q 40.484375 46.53125 36.375 47.5 
Q 32.28125 48.484375 27.875 48.484375 
Q 21.1875 48.484375 17.84375 46.4375 
Q 14.5 44.390625 14.5 40.28125 
Q 14.5 37.15625 16.890625 35.375 
Q 19.28125 33.59375 26.515625 31.984375 
L 29.59375 31.296875 
Q 39.15625 29.25 43.1875 25.515625 
Q 47.21875 21.78125 47.21875 15.09375 
Q 47.21875 7.46875 41.1875 3.015625 
Q 35.15625 -1.421875 24.609375 -1.421875 
Q 20.21875 -1.421875 15.453125 -0.5625 
Q 10.6875 0.296875 5.421875 2 
L 5.421875 11.28125 
Q 10.40625 8.6875 15.234375 7.390625 
Q 20.0625 6.109375 24.8125 6.109375 
Q 31.15625 6.109375 34.5625 8.28125 
Q 37.984375 10.453125 37.984375 14.40625 
Q 37.984375 18.0625 35.515625 20.015625 
Q 33.0625 21.96875 24.703125 23.78125 
L 21.578125 24.515625 
Q 13.234375 26.265625 9.515625 29.90625 
Q 5.8125 33.546875 5.8125 39.890625 
Q 5.8125 47.609375 11.28125 51.796875 
Q 16.75 56 26.8125 56 
Q 31.78125 56 36.171875 55.265625 
Q 40.578125 54.546875 44.28125 53.078125 
" id="BitstreamVeraSans-Roman-73"/>
     </defs>
     <g transform="translate(175.86796875 559.353625)scale(0.204 -0.204)">
      <use xlink:href="#BitstreamVeraSans-Roman-73"/>
      <use x="52.099609375" xlink:href="#BitstreamVeraSans-Roman-69"/>
      <use x="79.8828125" xlink:href="#BitstreamVeraSans-Roman-6d"/>
      <use x="177.294921875" xlink:href="#BitstreamVeraSans-Roman-75"/>
      <use x="240.673828125" xlink:href="#BitstreamVeraSans-Roman-6c"/>
      <use x="268.45703125" xlink:href="#BitstreamVeraSans-Roman-61"/>
      <use x="329.736328125" xlink:href="#BitstreamVeraSans-Roman-74"/>
      <use x="368.9453125" xlink:href="#BitstreamVeraSans-Roman-69"/>
      <use x="396.728515625" xlink:href="#BitstreamVeraSans-Roman-6f"/>
      <use x="457.91015625" xlink:href="#BitstreamVeraSans-Roman-6e"/>
      <use x="521.2890625" xlink:href="#BitstreamVeraSans-Roman-20"/>
      <use x="553.076171875" xlink:href="#BitstreamVeraSans-Roman-74"/>
      <use x="592.28515625" xlink:href="#BitstreamVeraSans-Roman-69"/>
      <use x="620.068359375" xlink:href="#BitstreamVeraSans-Roman-6d"/>
      <use x="717.48046875" xlink:href="#BitstreamVeraSans-Roman-65"/>
      <use x="779.00390625" xlink:href="#BitstreamVeraSans-Roman-20"/>
      <use x="810.791015625" xlink:href="#BitstreamVeraSans-Roman-28"/>
      <use x="849.8046875" xlink:href="#BitstreamVeraSans-Roman-68"/>
      <use x="913.18359375" xlink:href="#BitstreamVeraSans-Roman-6f"/>
      <use x="974.365234375" xlink:href="#BitstreamVeraSans-Roman-75"/>
      <use x="1037.74414062" xlink:href="#BitstreamVeraSans-Roman-72"/>
      <use x="1078.85742188" xlink:href="#BitstreamVeraSans-Roman-73"/>
      <use x="1130.95703125" xlink:href="#BitstreamVeraSans-Roman-29"/>
     </g>
    </g>
   </g>
   <g id="matplotlib.axis_2">
    <g id="ytick_1">
     <g id="line2d_65">
      <defs>
       <path d="M 0 0 
L 3 0 
" id="m53b0fc342a" style="stroke:#000000;"/>
      </defs>
      <g>
       <use style="stroke:#000000;" x="72.0" xlink:href="#m53b0fc342a" y="518.4"/>
      </g>
     </g>
     <g id="line2d_66">
      <defs>
       <path d="M 0 0 
L -3 0 
" id="me7b1683851" style="stroke:#000000;"/>
      </defs>
      <g>
       <use style="stroke:#000000;" x="518.4" xlink:href="#me7b1683851" y="518.4"/>
      </g>
     </g>
     <g id="text_8">
      <!-- 0 -->
      <g transform="translate(57.18375 523.0909375)scale(0.17 -0.17)">
       <use xlink:href="#BitstreamVeraSans-Roman-30"/>
      </g>
     </g>
    </g>
    <g id="ytick_2">
     <g id="line2d_67">
      <g>
       <use style="stroke:#000000;" x="72.0" xlink:href="#m53b0fc342a" y="452.571428571"/>
      </g>
     </g>
     <g id="line2d_68">
      <g>
       <use style="stroke:#000000;" x="518.4" xlink:href="#me7b1683851" y="452.571428571"/>
      </g>
     </g>
     <g id="text_9">
      <!-- 100 -->
      <defs>
       <path d="M 12.40625 8.296875 
L 28.515625 8.296875 
L 28.515625 63.921875 
L 10.984375 60.40625 
L 10.984375 69.390625 
L 28.421875 72.90625 
L 38.28125 72.90625 
L 38.28125 8.296875 
L 54.390625 8.296875 
L 54.390625 0 
L 12.40625 0 
z
" id="BitstreamVeraSans-Roman-31"/>
      </defs>
      <g transform="translate(35.55125 457.262366071)scale(0.17 -0.17)">
       <use xlink:href="#BitstreamVeraSans-Roman-31"/>
       <use x="63.623046875" xlink:href="#BitstreamVeraSans-Roman-30"/>
       <use x="127.24609375" xlink:href="#BitstreamVeraSans-Roman-30"/>
      </g>
     </g>
    </g>
    <g id="ytick_3">
     <g id="line2d_69">
      <g>
       <use style="stroke:#000000;" x="72.0" xlink:href="#m53b0fc342a" y="386.742857143"/>
      </g>
     </g>
     <g id="line2d_70">
      <g>
       <use style="stroke:#000000;" x="518.4" xlink:href="#me7b1683851" y="386.742857143"/>
      </g>
     </g>
     <g id="text_10">
      <!-- 200 -->
      <defs>
       <path d="M 19.1875 8.296875 
L 53.609375 8.296875 
L 53.609375 0 
L 7.328125 0 
L 7.328125 8.296875 
Q 12.9375 14.109375 22.625 23.890625 
Q 32.328125 33.6875 34.8125 36.53125 
Q 39.546875 41.84375 41.421875 45.53125 
Q 43.3125 49.21875 43.3125 52.78125 
Q 43.3125 58.59375 39.234375 62.25 
Q 35.15625 65.921875 28.609375 65.921875 
Q 23.96875 65.921875 18.8125 64.3125 
Q 13.671875 62.703125 7.8125 59.421875 
L 7.8125 69.390625 
Q 13.765625 71.78125 18.9375 73 
Q 24.125 74.21875 28.421875 74.21875 
Q 39.75 74.21875 46.484375 68.546875 
Q 53.21875 62.890625 53.21875 53.421875 
Q 53.21875 48.921875 51.53125 44.890625 
Q 49.859375 40.875 45.40625 35.40625 
Q 44.1875 33.984375 37.640625 27.21875 
Q 31.109375 20.453125 19.1875 8.296875 
" id="BitstreamVeraSans-Roman-32"/>
      </defs>
      <g transform="translate(35.55125 391.433794643)scale(0.17 -0.17)">
       <use xlink:href="#BitstreamVeraSans-Roman-32"/>
       <use x="63.623046875" xlink:href="#BitstreamVeraSans-Roman-30"/>
       <use x="127.24609375" xlink:href="#BitstreamVeraSans-Roman-30"/>
      </g>
     </g>
    </g>
    <g id="ytick_4">
     <g id="line2d_71">
      <g>
       <use style="stroke:#000000;" x="72.0" xlink:href="#m53b0fc342a" y="320.914285714"/>
      </g>
     </g>
     <g id="line2d_72">
      <g>
       <use style="stroke:#000000;" x="518.4" xlink:href="#me7b1683851" y="320.914285714"/>
      </g>
     </g>
     <g id="text_11">
      <!-- 300 -->
      <defs>
       <path d="M 40.578125 39.3125 
Q 47.65625 37.796875 51.625 33 
Q 55.609375 28.21875 55.609375 21.1875 
Q 55.609375 10.40625 48.1875 4.484375 
Q 40.765625 -1.421875 27.09375 -1.421875 
Q 22.515625 -1.421875 17.65625 -0.515625 
Q 12.796875 0.390625 7.625 2.203125 
L 7.625 11.71875 
Q 11.71875 9.328125 16.59375 8.109375 
Q 21.484375 6.890625 26.8125 6.890625 
Q 36.078125 6.890625 40.9375 10.546875 
Q 45.796875 14.203125 45.796875 21.1875 
Q 45.796875 27.640625 41.28125 31.265625 
Q 36.765625 34.90625 28.71875 34.90625 
L 20.21875 34.90625 
L 20.21875 43.015625 
L 29.109375 43.015625 
Q 36.375 43.015625 40.234375 45.921875 
Q 44.09375 48.828125 44.09375 54.296875 
Q 44.09375 59.90625 40.109375 62.90625 
Q 36.140625 65.921875 28.71875 65.921875 
Q 24.65625 65.921875 20.015625 65.03125 
Q 15.375 64.15625 9.8125 62.3125 
L 9.8125 71.09375 
Q 15.4375 72.65625 20.34375 73.4375 
Q 25.25 74.21875 29.59375 74.21875 
Q 40.828125 74.21875 47.359375 69.109375 
Q 53.90625 64.015625 53.90625 55.328125 
Q 53.90625 49.265625 50.4375 45.09375 
Q 46.96875 40.921875 40.578125 39.3125 
" id="BitstreamVeraSans-Roman-33"/>
      </defs>
      <g transform="translate(35.55125 325.605223214)scale(0.17 -0.17)">
       <use xlink:href="#BitstreamVeraSans-Roman-33"/>
       <use x="63.623046875" xlink:href="#BitstreamVeraSans-Roman-30"/>
       <use x="127.24609375" xlink:href="#BitstreamVeraSans-Roman-30"/>
      </g>
     </g>
    </g>
    <g id="ytick_5">
     <g id="line2d_73">
      <g>
       <use style="stroke:#000000;" x="72.0" xlink:href="#m53b0fc342a" y="255.085714286"/>
      </g>
     </g>
     <g id="line2d_74">
      <g>
       <use style="stroke:#000000;" x="518.4" xlink:href="#me7b1683851" y="255.085714286"/>
      </g>
     </g>
     <g id="text_12">
      <!-- 400 -->
      <g transform="translate(35.55125 259.776651786)scale(0.17 -0.17)">
       <use xlink:href="#BitstreamVeraSans-Roman-34"/>
       <use x="63.623046875" xlink:href="#BitstreamVeraSans-Roman-30"/>
       <use x="127.24609375" xlink:href="#BitstreamVeraSans-Roman-30"/>
      </g>
     </g>
    </g>
    <g id="ytick_6">
     <g id="line2d_75">
      <g>
       <use style="stroke:#000000;" x="72.0" xlink:href="#m53b0fc342a" y="189.257142857"/>
      </g>
     </g>
     <g id="line2d_76">
      <g>
       <use style="stroke:#000000;" x="518.4" xlink:href="#me7b1683851" y="189.257142857"/>
      </g>
     </g>
     <g id="text_13">
      <!-- 500 -->
      <g transform="translate(35.55125 193.948080357)scale(0.17 -0.17)">
       <use xlink:href="#BitstreamVeraSans-Roman-35"/>
       <use x="63.623046875" xlink:href="#BitstreamVeraSans-Roman-30"/>
       <use x="127.24609375" xlink:href="#BitstreamVeraSans-Roman-30"/>
      </g>
     </g>
    </g>
    <g id="ytick_7">
     <g id="line2d_77">
      <g>
       <use style="stroke:#000000;" x="72.0" xlink:href="#m53b0fc342a" y="123.428571429"/>
      </g>
     </g>
     <g id="line2d_78">
      <g>
       <use style="stroke:#000000;" x="518.4" xlink:href="#me7b1683851" y="123.428571429"/>
      </g>
     </g>
     <g id="text_14">
      <!-- 600 -->
      <g transform="translate(35.55125 128.119508929)scale(0.17 -0.17)">
       <use xlink:href="#BitstreamVeraSans-Roman-36"/>
       <use x="63.623046875" xlink:href="#BitstreamVeraSans-Roman-30"/>
       <use x="127.24609375" xlink:href="#BitstreamVeraSans-Roman-30"/>
      </g>
     </g>
    </g>
    <g id="ytick_8">
     <g id="line2d_79">
      <g>
       <use style="stroke:#000000;" x="72.0" xlink:href="#m53b0fc342a" y="57.6"/>
      </g>
     </g>
     <g id="line2d_80">
      <g>
       <use style="stroke:#000000;" x="518.4" xlink:href="#me7b1683851" y="57.6"/>
      </g>
     </g>
     <g id="text_15">
      <!-- 700 -->
      <g transform="translate(35.55125 62.2909375)scale(0.17 -0.17)">
       <use xlink:href="#BitstreamVeraSans-Roman-37"/>
       <use x="63.623046875" xlink:href="#BitstreamVeraSans-Roman-30"/>
       <use x="127.24609375" xlink:href="#BitstreamVeraSans-Roman-30"/>
      </g>
     </g>
    </g>
    <g id="ytick_9">
     <g id="line2d_81">
      <g>
       <use style="stroke:#000000;" x="72.0" xlink:href="#m53b0fc342a" y="505.234285714"/>
      </g>
     </g>
     <g id="line2d_82">
      <g>
       <use style="stroke:#000000;" x="518.4" xlink:href="#me7b1683851" y="505.234285714"/>
      </g>
     </g>
    </g>
    <g id="ytick_10">
     <g id="line2d_83">
      <g>
       <use style="stroke:#000000;" x="72.0" xlink:href="#m53b0fc342a" y="492.068571429"/>
      </g>
     </g>
     <g id="line2d_84">
      <g>
       <use style="stroke:#000000;" x="518.4" xlink:href="#me7b1683851" y="492.068571429"/>
      </g>
     </g>
    </g>
    <g id="ytick_11">
     <g id="line2d_85">
      <g>
       <use style="stroke:#000000;" x="72.0" xlink:href="#m53b0fc342a" y="478.902857143"/>
      </g>
     </g>
     <g id="line2d_86">
      <g>
       <use style="stroke:#000000;" x="518.4" xlink:href="#me7b1683851" y="478.902857143"/>
      </g>
     </g>
    </g>
    <g id="ytick_12">
     <g id="line2d_87">
      <g>
       <use style="stroke:#000000;" x="72.0" xlink:href="#m53b0fc342a" y="465.737142857"/>
      </g>
     </g>
     <g id="line2d_88">
      <g>
       <use style="stroke:#000000;" x="518.4" xlink:href="#me7b1683851" y="465.737142857"/>
      </g>
     </g>
    </g>
    <g id="ytick_13">
     <g id="line2d_89">
      <g>
       <use style="stroke:#000000;" x="72.0" xlink:href="#m53b0fc342a" y="439.405714286"/>
      </g>
     </g>
     <g id="line2d_90">
      <g>
       <use style="stroke:#000000;" x="518.4" xlink:href="#me7b1683851" y="439.405714286"/>
      </g>
     </g>
    </g>
    <g id="ytick_14">
     <g id="line2d_91">
      <g>
       <use style="stroke:#000000;" x="72.0" xlink:href="#m53b0fc342a" y="426.24"/>
      </g>
     </g>
     <g id="line2d_92">
      <g>
       <use style="stroke:#000000;" x="518.4" xlink:href="#me7b1683851" y="426.24"/>
      </g>
     </g>
    </g>
    <g id="ytick_15">
     <g id="line2d_93">
      <g>
       <use style="stroke:#000000;" x="72.0" xlink:href="#m53b0fc342a" y="413.074285714"/>
      </g>
     </g>
     <g id="line2d_94">
      <g>
       <use style="stroke:#000000;" x="518.4" xlink:href="#me7b1683851" y="413.074285714"/>
      </g>
     </g>
    </g>
    <g id="ytick_16">
     <g id="line2d_95">
      <g>
       <use style="stroke:#000000;" x="72.0" xlink:href="#m53b0fc342a" y="399.908571429"/>
      </g>
     </g>
     <g id="line2d_96">
      <g>
       <use style="stroke:#000000;" x="518.4" xlink:href="#me7b1683851" y="399.908571429"/>
      </g>
     </g>
    </g>
    <g id="ytick_17">
     <g id="line2d_97">
      <g>
       <use style="stroke:#000000;" x="72.0" xlink:href="#m53b0fc342a" y="373.577142857"/>
      </g>
     </g>
     <g id="line2d_98">
      <g>
       <use style="stroke:#000000;" x="518.4" xlink:href="#me7b1683851" y="373.577142857"/>
      </g>
     </g>
    </g>
    <g id="ytick_18">
     <g id="line2d_99">
      <g>
       <use style="stroke:#000000;" x="72.0" xlink:href="#m53b0fc342a" y="360.411428571"/>
      </g>
     </g>
     <g id="line2d_100">
      <g>
       <use style="stroke:#000000;" x="518.4" xlink:href="#me7b1683851" y="360.411428571"/>
      </g>
     </g>
    </g>
    <g id="ytick_19">
     <g id="line2d_101">
      <g>
       <use style="stroke:#000000;" x="72.0" xlink:href="#m53b0fc342a" y="347.245714286"/>
      </g>
     </g>
     <g id="line2d_102">
      <g>
       <use style="stroke:#000000;" x="518.4" xlink:href="#me7b1683851" y="347.245714286"/>
      </g>
     </g>
    </g>
    <g id="ytick_20">
     <g id="line2d_103">
      <g>
       <use style="stroke:#000000;" x="72.0" xlink:href="#m53b0fc342a" y="334.08"/>
      </g>
     </g>
     <g id="line2d_104">
      <g>
       <use style="stroke:#000000;" x="518.4" xlink:href="#me7b1683851" y="334.08"/>
      </g>
     </g>
    </g>
    <g id="ytick_21">
     <g id="line2d_105">
      <g>
       <use style="stroke:#000000;" x="72.0" xlink:href="#m53b0fc342a" y="307.748571429"/>
      </g>
     </g>
     <g id="line2d_106">
      <g>
       <use style="stroke:#000000;" x="518.4" xlink:href="#me7b1683851" y="307.748571429"/>
      </g>
     </g>
    </g>
    <g id="ytick_22">
     <g id="line2d_107">
      <g>
       <use style="stroke:#000000;" x="72.0" xlink:href="#m53b0fc342a" y="294.582857143"/>
      </g>
     </g>
     <g id="line2d_108">
      <g>
       <use style="stroke:#000000;" x="518.4" xlink:href="#me7b1683851" y="294.582857143"/>
      </g>
     </g>
    </g>
    <g id="ytick_23">
     <g id="line2d_109">
      <g>
       <use style="stroke:#000000;" x="72.0" xlink:href="#m53b0fc342a" y="281.417142857"/>
      </g>
     </g>
     <g id="line2d_110">
      <g>
       <use style="stroke:#000000;" x="518.4" xlink:href="#me7b1683851" y="281.417142857"/>
      </g>
     </g>
    </g>
    <g id="ytick_24">
     <g id="line2d_111">
      <g>
       <use style="stroke:#000000;" x="72.0" xlink:href="#m53b0fc342a" y="268.251428571"/>
      </g>
     </g>
     <g id="line2d_112">
      <g>
       <use style="stroke:#000000;" x="518.4" xlink:href="#me7b1683851" y="268.251428571"/>
      </g>
     </g>
    </g>
    <g id="ytick_25">
     <g id="line2d_113">
      <g>
       <use style="stroke:#000000;" x="72.0" xlink:href="#m53b0fc342a" y="241.92"/>
      </g>
     </g>
     <g id="line2d_114">
      <g>
       <use style="stroke:#000000;" x="518.4" xlink:href="#me7b1683851" y="241.92"/>
      </g>
     </g>
    </g>
    <g id="ytick_26">
     <g id="line2d_115">
      <g>
       <use style="stroke:#000000;" x="72.0" xlink:href="#m53b0fc342a" y="228.754285714"/>
      </g>
     </g>
     <g id="line2d_116">
      <g>
       <use style="stroke:#000000;" x="518.4" xlink:href="#me7b1683851" y="228.754285714"/>
      </g>
     </g>
    </g>
    <g id="ytick_27">
     <g id="line2d_117">
      <g>
       <use style="stroke:#000000;" x="72.0" xlink:href="#m53b0fc342a" y="215.588571429"/>
      </g>
     </g>
     <g id="line2d_118">
      <g>
       <use style="stroke:#000000;" x="518.4" xlink:href="#me7b1683851" y="215.588571429"/>
      </g>
     </g>
    </g>
    <g id="ytick_28">
     <g id="line2d_119">
      <g>
       <use style="stroke:#000000;" x="72.0" xlink:href="#m53b0fc342a" y="202.422857143"/>
      </g>
     </g>
     <g id="line2d_120">
      <g>
       <use style="stroke:#000000;" x="518.4" xlink:href="#me7b1683851" y="202.422857143"/>
      </g>
     </g>
    </g>
    <g id="ytick_29">
     <g id="line2d_121">
      <g>
       <use style="stroke:#000000;" x="72.0" xlink:href="#m53b0fc342a" y="176.091428571"/>
      </g>
     </g>
     <g id="line2d_122">
      <g>
       <use style="stroke:#000000;" x="518.4" xlink:href="#me7b1683851" y="176.091428571"/>
      </g>
     </g>
    </g>
    <g id="ytick_30">
     <g id="line2d_123">
      <g>
       <use style="stroke:#000000;" x="72.0" xlink:href="#m53b0fc342a" y="162.925714286"/>
      </g>
     </g>
     <g id="line2d_124">
      <g>
       <use style="stroke:#000000;" x="518.4" xlink:href="#me7b1683851" y="162.925714286"/>
      </g>
     </g>
    </g>
    <g id="ytick_31">
     <g id="line2d_125">
      <g>
       <use style="stroke:#000000;" x="72.0" xlink:href="#m53b0fc342a" y="149.76"/>
      </g>
     </g>
     <g id="line2d_126">
      <g>
       <use style="stroke:#000000;" x="518.4" xlink:href="#me7b1683851" y="149.76"/>
      </g>
     </g>
    </g>
    <g id="ytick_32">
     <g id="line2d_127">
      <g>
       <use style="stroke:#000000;" x="72.0" xlink:href="#m53b0fc342a" y="136.594285714"/>
      </g>
     </g>
     <g id="line2d_128">
      <g>
       <use style="stroke:#000000;" x="518.4" xlink:href="#me7b1683851" y="136.594285714"/>
      </g>
     </g>
    </g>
    <g id="ytick_33">
     <g id="line2d_129">
      <g>
       <use style="stroke:#000000;" x="72.0" xlink:href="#m53b0fc342a" y="110.262857143"/>
      </g>
     </g>
     <g id="line2d_130">
      <g>
       <use style="stroke:#000000;" x="518.4" xlink:href="#me7b1683851" y="110.262857143"/>
      </g>
     </g>
    </g>
    <g id="ytick_34">
     <g id="line2d_131">
      <g>
       <use style="stroke:#000000;" x="72.0" xlink:href="#m53b0fc342a" y="97.0971428571"/>
      </g>
     </g>
     <g id="line2d_132">
      <g>
       <use style="stroke:#000000;" x="518.4" xlink:href="#me7b1683851" y="97.0971428571"/>
      </g>
     </g>
    </g>
    <g id="ytick_35">
     <g id="line2d_133">
      <g>
       <use style="stroke:#000000;" x="72.0" xlink:href="#m53b0fc342a" y="83.9314285714"/>
      </g>
     </g>
     <g id="line2d_134">
      <g>
       <use style="stroke:#000000;" x="518.4" xlink:href="#me7b1683851" y="83.9314285714"/>
      </g>
     </g>
    </g>
    <g id="ytick_36">
     <g id="line2d_135">
      <g>
       <use style="stroke:#000000;" x="72.0" xlink:href="#m53b0fc342a" y="70.7657142857"/>
      </g>
     </g>
     <g id="line2d_136">
      <g>
       <use style="stroke:#000000;" x="518.4" xlink:href="#me7b1683851" y="70.7657142857"/>
      </g>
     </g>
    </g>
    <g id="text_16">
     <!-- sediment flux ($m^3$) -->
     <defs>
      <path d="M 9.515625 7.71875 
Q 11.859375 4.296875 15.8125 2.640625 
Q 19.78125 0.984375 24.3125 0.984375 
Q 30.125 0.984375 32.5625 5.9375 
Q 35.015625 10.890625 35.015625 17.1875 
Q 35.015625 20.015625 34.5 22.84375 
Q 33.984375 25.6875 32.765625 28.125 
Q 31.546875 30.5625 29.421875 32.03125 
Q 27.296875 33.5 24.21875 33.5 
L 17.578125 33.5 
Q 16.703125 33.5 16.703125 34.421875 
L 16.703125 35.296875 
Q 16.703125 36.078125 17.578125 36.078125 
L 23.09375 36.53125 
Q 26.609375 36.53125 28.921875 39.15625 
Q 31.25 41.796875 32.328125 45.578125 
Q 33.40625 49.359375 33.40625 52.78125 
Q 33.40625 57.5625 31.15625 60.640625 
Q 28.90625 63.71875 24.3125 63.71875 
Q 20.515625 63.71875 17.046875 62.28125 
Q 13.578125 60.84375 11.53125 57.90625 
Q 11.71875 57.953125 11.859375 57.984375 
Q 12.015625 58.015625 12.203125 58.015625 
Q 14.453125 58.015625 15.96875 56.453125 
Q 17.484375 54.890625 17.484375 52.6875 
Q 17.484375 50.53125 15.96875 48.96875 
Q 14.453125 47.40625 12.203125 47.40625 
Q 10.015625 47.40625 8.453125 48.96875 
Q 6.890625 50.53125 6.890625 52.6875 
Q 6.890625 56.984375 9.46875 60.15625 
Q 12.0625 63.328125 16.140625 64.96875 
Q 20.21875 66.609375 24.3125 66.609375 
Q 27.34375 66.609375 30.703125 65.703125 
Q 34.078125 64.796875 36.8125 63.109375 
Q 39.546875 61.421875 41.28125 58.78125 
Q 43.015625 56.15625 43.015625 52.78125 
Q 43.015625 48.578125 41.140625 45.015625 
Q 39.265625 41.453125 35.984375 38.859375 
Q 32.71875 36.28125 28.8125 35.015625 
Q 33.15625 34.1875 37.0625 31.734375 
Q 40.96875 29.296875 43.328125 25.484375 
Q 45.703125 21.6875 45.703125 17.28125 
Q 45.703125 11.765625 42.671875 7.296875 
Q 39.65625 2.828125 34.71875 0.3125 
Q 29.78125 -2.203125 24.3125 -2.203125 
Q 19.625 -2.203125 14.90625 -0.40625 
Q 10.203125 1.375 7.203125 4.9375 
Q 4.203125 8.5 4.203125 13.484375 
Q 4.203125 15.96875 5.859375 17.625 
Q 7.515625 19.28125 10.015625 19.28125 
Q 11.625 19.28125 12.96875 18.53125 
Q 14.3125 17.78125 15.0625 16.40625 
Q 15.828125 15.046875 15.828125 13.484375 
Q 15.828125 11.03125 14.109375 9.375 
Q 12.40625 7.71875 10.015625 7.71875 
z
" id="Cmr10-33"/>
      <path d="M 45.40625 46.390625 
L 45.40625 75.984375 
L 54.390625 75.984375 
L 54.390625 0 
L 45.40625 0 
L 45.40625 8.203125 
Q 42.578125 3.328125 38.25 0.953125 
Q 33.9375 -1.421875 27.875 -1.421875 
Q 17.96875 -1.421875 11.734375 6.484375 
Q 5.515625 14.40625 5.515625 27.296875 
Q 5.515625 40.1875 11.734375 48.09375 
Q 17.96875 56 27.875 56 
Q 33.9375 56 38.25 53.625 
Q 42.578125 51.265625 45.40625 46.390625 
M 14.796875 27.296875 
Q 14.796875 17.390625 18.875 11.75 
Q 22.953125 6.109375 30.078125 6.109375 
Q 37.203125 6.109375 41.296875 11.75 
Q 45.40625 17.390625 45.40625 27.296875 
Q 45.40625 37.203125 41.296875 42.84375 
Q 37.203125 48.484375 30.078125 48.484375 
Q 22.953125 48.484375 18.875 42.84375 
Q 14.796875 37.203125 14.796875 27.296875 
" id="BitstreamVeraSans-Roman-64"/>
      <path d="M 37.109375 75.984375 
L 37.109375 68.5 
L 28.515625 68.5 
Q 23.6875 68.5 21.796875 66.546875 
Q 19.921875 64.59375 19.921875 59.515625 
L 19.921875 54.6875 
L 34.71875 54.6875 
L 34.71875 47.703125 
L 19.921875 47.703125 
L 19.921875 0 
L 10.890625 0 
L 10.890625 47.703125 
L 2.296875 47.703125 
L 2.296875 54.6875 
L 10.890625 54.6875 
L 10.890625 58.5 
Q 10.890625 67.625 15.140625 71.796875 
Q 19.390625 75.984375 28.609375 75.984375 
z
" id="BitstreamVeraSans-Roman-66"/>
      <path d="M 7.71875 1.703125 
Q 7.71875 2.296875 7.8125 2.59375 
L 15.28125 32.421875 
Q 16.015625 35.203125 16.015625 37.3125 
Q 16.015625 41.609375 13.09375 41.609375 
Q 9.96875 41.609375 8.453125 37.859375 
Q 6.9375 34.125 5.515625 28.421875 
Q 5.515625 28.125 5.21875 27.953125 
Q 4.9375 27.78125 4.6875 27.78125 
L 3.515625 27.78125 
Q 3.171875 27.78125 2.921875 28.140625 
Q 2.6875 28.515625 2.6875 28.8125 
Q 3.765625 33.15625 4.765625 36.171875 
Q 5.765625 39.203125 7.890625 41.6875 
Q 10.015625 44.1875 13.1875 44.1875 
Q 16.9375 44.1875 19.8125 41.8125 
Q 22.703125 39.453125 22.703125 35.796875 
Q 25.6875 39.703125 29.6875 41.9375 
Q 33.6875 44.1875 38.1875 44.1875 
Q 42.921875 44.1875 46.359375 41.765625 
Q 49.8125 39.359375 49.8125 34.90625 
Q 52.875 39.265625 57 41.71875 
Q 61.140625 44.1875 66.015625 44.1875 
Q 71.1875 44.1875 74.328125 41.375 
Q 77.484375 38.578125 77.484375 33.40625 
Q 77.484375 29.296875 75.65625 23.484375 
Q 73.828125 17.671875 71.09375 10.5 
Q 69.671875 7.03125 69.671875 4.5 
Q 69.671875 1.515625 72.015625 1.515625 
Q 75.921875 1.515625 78.515625 5.703125 
Q 81.109375 9.90625 82.171875 14.703125 
Q 82.46875 15.28125 83.015625 15.28125 
L 84.1875 15.28125 
Q 84.578125 15.28125 84.84375 15.015625 
Q 85.109375 14.75 85.109375 14.40625 
Q 85.109375 14.3125 85.015625 14.109375 
Q 83.640625 8.453125 80.25 3.65625 
Q 76.859375 -1.125 71.78125 -1.125 
Q 68.265625 -1.125 65.765625 1.296875 
Q 63.28125 3.71875 63.28125 7.171875 
Q 63.28125 8.9375 64.109375 11.078125 
Q 66.9375 18.609375 68.8125 24.515625 
Q 70.703125 30.421875 70.703125 34.90625 
Q 70.703125 37.703125 69.578125 39.65625 
Q 68.453125 41.609375 65.828125 41.609375 
Q 60.359375 41.609375 56.34375 38.25 
Q 52.34375 34.90625 49.421875 29.390625 
Q 49.21875 28.421875 49.125 27.875 
L 42.671875 2.203125 
Q 42.328125 0.828125 41.125 -0.140625 
Q 39.9375 -1.125 38.484375 -1.125 
Q 37.3125 -1.125 36.40625 -0.34375 
Q 35.5 0.4375 35.5 1.703125 
Q 35.5 2.296875 35.59375 2.59375 
L 42 28.078125 
Q 43.015625 32.171875 43.015625 34.90625 
Q 43.015625 37.703125 41.859375 39.65625 
Q 40.71875 41.609375 37.984375 41.609375 
Q 34.328125 41.609375 31.25 39.984375 
Q 28.171875 38.375 25.875 35.71875 
Q 23.578125 33.0625 21.6875 29.390625 
L 14.890625 2.203125 
Q 14.546875 0.828125 13.34375 -0.140625 
Q 12.15625 -1.125 10.6875 -1.125 
Q 9.46875 -1.125 8.59375 -0.34375 
Q 7.71875 0.4375 7.71875 1.703125 
" id="Cmmi10-6d"/>
      <path d="M 54.890625 54.6875 
L 35.109375 28.078125 
L 55.90625 0 
L 45.3125 0 
L 29.390625 21.484375 
L 13.484375 0 
L 2.875 0 
L 24.125 28.609375 
L 4.6875 54.6875 
L 15.28125 54.6875 
L 29.78125 35.203125 
L 44.28125 54.6875 
z
" id="BitstreamVeraSans-Roman-78"/>
     </defs>
     <g transform="translate(26.3086875 382.86)rotate(-90.0)scale(0.204 -0.204)">
      <use transform="translate(0.0 0.109375)" xlink:href="#BitstreamVeraSans-Roman-73"/>
      <use transform="translate(52.099609375 0.109375)" xlink:href="#BitstreamVeraSans-Roman-65"/>
      <use transform="translate(113.623046875 0.109375)" xlink:href="#BitstreamVeraSans-Roman-64"/>
      <use transform="translate(177.099609375 0.109375)" xlink:href="#BitstreamVeraSans-Roman-69"/>
      <use transform="translate(204.8828125 0.109375)" xlink:href="#BitstreamVeraSans-Roman-6d"/>
      <use transform="translate(302.294921875 0.109375)" xlink:href="#BitstreamVeraSans-Roman-65"/>
      <use transform="translate(363.818359375 0.109375)" xlink:href="#BitstreamVeraSans-Roman-6e"/>
      <use transform="translate(427.197265625 0.109375)" xlink:href="#BitstreamVeraSans-Roman-74"/>
      <use transform="translate(466.40625 0.109375)" xlink:href="#BitstreamVeraSans-Roman-20"/>
      <use transform="translate(498.193359375 0.109375)" xlink:href="#BitstreamVeraSans-Roman-66"/>
      <use transform="translate(533.3984375 0.109375)" xlink:href="#BitstreamVeraSans-Roman-6c"/>
      <use transform="translate(561.181640625 0.109375)" xlink:href="#BitstreamVeraSans-Roman-75"/>
      <use transform="translate(624.560546875 0.109375)" xlink:href="#BitstreamVeraSans-Roman-78"/>
      <use transform="translate(683.740234375 0.109375)" xlink:href="#BitstreamVeraSans-Roman-20"/>
      <use transform="translate(715.52734375 0.109375)" xlink:href="#BitstreamVeraSans-Roman-28"/>
      <use transform="translate(754.541015625 0.109375)" xlink:href="#Cmmi10-6d"/>
      <use transform="translate(848.637265625 38.3734375)scale(0.7)" xlink:href="#Cmr10-33"/>
      <use transform="translate(890.014609375 0.109375)" xlink:href="#BitstreamVeraSans-Roman-29"/>
     </g>
    </g>
   </g>
   <g id="legend_1">
    <g id="patch_7">
     <path d="M 318.14 172.9025 
L 509.9 172.9025 
L 509.9 66.1 
L 318.14 66.1 
z
" style="fill:#ffffff;stroke:#000000;stroke-linejoin:miter;"/>
    </g>
    <g id="line2d_137">
     <path d="M 330.04 79.867344 
L 353.84 79.867344 
" style="fill:none;stroke:#0d0887;stroke-linecap:square;stroke-width:2.0;"/>
    </g>
    <g id="line2d_138"/>
    <g id="text_17">
     <!-- GRID_DLIM -->
     <defs>
      <path d="M 9.8125 72.90625 
L 24.515625 72.90625 
L 43.109375 23.296875 
L 61.8125 72.90625 
L 76.515625 72.90625 
L 76.515625 0 
L 66.890625 0 
L 66.890625 64.015625 
L 48.09375 14.015625 
L 38.1875 14.015625 
L 19.390625 64.015625 
L 19.390625 0 
L 9.8125 0 
z
" id="BitstreamVeraSans-Roman-4d"/>
      <path d="M 9.8125 72.90625 
L 19.671875 72.90625 
L 19.671875 8.296875 
L 55.171875 8.296875 
L 55.171875 0 
L 9.8125 0 
z
" id="BitstreamVeraSans-Roman-4c"/>
      <path d="M 50.984375 -16.609375 
L 50.984375 -23.578125 
L -0.984375 -23.578125 
L -0.984375 -16.609375 
z
" id="BitstreamVeraSans-Roman-5f"/>
      <path d="M 59.515625 10.40625 
L 59.515625 29.984375 
L 43.40625 29.984375 
L 43.40625 38.09375 
L 69.28125 38.09375 
L 69.28125 6.78125 
Q 63.578125 2.734375 56.6875 0.65625 
Q 49.8125 -1.421875 42 -1.421875 
Q 24.90625 -1.421875 15.25 8.5625 
Q 5.609375 18.5625 5.609375 36.375 
Q 5.609375 54.25 15.25 64.234375 
Q 24.90625 74.21875 42 74.21875 
Q 49.125 74.21875 55.546875 72.453125 
Q 61.96875 70.703125 67.390625 67.28125 
L 67.390625 56.78125 
Q 61.921875 61.421875 55.765625 63.765625 
Q 49.609375 66.109375 42.828125 66.109375 
Q 29.4375 66.109375 22.71875 58.640625 
Q 16.015625 51.171875 16.015625 36.375 
Q 16.015625 21.625 22.71875 14.15625 
Q 29.4375 6.6875 42.828125 6.6875 
Q 48.046875 6.6875 52.140625 7.59375 
Q 56.25 8.5 59.515625 10.40625 
" id="BitstreamVeraSans-Roman-47"/>
      <path d="M 44.390625 34.1875 
Q 47.5625 33.109375 50.5625 29.59375 
Q 53.5625 26.078125 56.59375 19.921875 
L 66.609375 0 
L 56 0 
L 46.6875 18.703125 
Q 43.0625 26.03125 39.671875 28.421875 
Q 36.28125 30.8125 30.421875 30.8125 
L 19.671875 30.8125 
L 19.671875 0 
L 9.8125 0 
L 9.8125 72.90625 
L 32.078125 72.90625 
Q 44.578125 72.90625 50.734375 67.671875 
Q 56.890625 62.453125 56.890625 51.90625 
Q 56.890625 45.015625 53.6875 40.46875 
Q 50.484375 35.9375 44.390625 34.1875 
M 19.671875 64.796875 
L 19.671875 38.921875 
L 32.078125 38.921875 
Q 39.203125 38.921875 42.84375 42.21875 
Q 46.484375 45.515625 46.484375 51.90625 
Q 46.484375 58.296875 42.84375 61.546875 
Q 39.203125 64.796875 32.078125 64.796875 
z
" id="BitstreamVeraSans-Roman-52"/>
      <path d="M 19.671875 64.796875 
L 19.671875 8.109375 
L 31.59375 8.109375 
Q 46.6875 8.109375 53.6875 14.9375 
Q 60.6875 21.78125 60.6875 36.53125 
Q 60.6875 51.171875 53.6875 57.984375 
Q 46.6875 64.796875 31.59375 64.796875 
z
M 9.8125 72.90625 
L 30.078125 72.90625 
Q 51.265625 72.90625 61.171875 64.09375 
Q 71.09375 55.28125 71.09375 36.53125 
Q 71.09375 17.671875 61.125 8.828125 
Q 51.171875 0 30.078125 0 
L 9.8125 0 
z
" id="BitstreamVeraSans-Roman-44"/>
      <path d="M 9.8125 72.90625 
L 19.671875 72.90625 
L 19.671875 0 
L 9.8125 0 
z
" id="BitstreamVeraSans-Roman-49"/>
     </defs>
     <g transform="translate(372.54 85.81734375)scale(0.17 -0.17)">
      <use xlink:href="#BitstreamVeraSans-Roman-47"/>
      <use x="77.490234375" xlink:href="#BitstreamVeraSans-Roman-52"/>
      <use x="146.97265625" xlink:href="#BitstreamVeraSans-Roman-49"/>
      <use x="176.46484375" xlink:href="#BitstreamVeraSans-Roman-44"/>
      <use x="253.466796875" xlink:href="#BitstreamVeraSans-Roman-5f"/>
      <use x="303.466796875" xlink:href="#BitstreamVeraSans-Roman-44"/>
      <use x="380.46875" xlink:href="#BitstreamVeraSans-Roman-4c"/>
      <use x="436.181640625" xlink:href="#BitstreamVeraSans-Roman-49"/>
      <use x="465.673828125" xlink:href="#BitstreamVeraSans-Roman-4d"/>
     </g>
    </g>
    <g id="line2d_139">
     <path d="M 330.04 105.292969 
L 353.84 105.292969 
" style="fill:none;stroke:#7e03a8;stroke-dasharray:12.000000,3.000000;stroke-dashoffset:0.0;stroke-width:2.0;"/>
    </g>
    <g id="line2d_140"/>
    <g id="text_18">
     <!-- GRID_TLIM -->
     <defs>
      <path d="M -0.296875 72.90625 
L 61.375 72.90625 
L 61.375 64.59375 
L 35.5 64.59375 
L 35.5 0 
L 25.59375 0 
L 25.59375 64.59375 
L -0.296875 64.59375 
z
" id="BitstreamVeraSans-Roman-54"/>
     </defs>
     <g transform="translate(372.54 111.24296875)scale(0.17 -0.17)">
      <use xlink:href="#BitstreamVeraSans-Roman-47"/>
      <use x="77.490234375" xlink:href="#BitstreamVeraSans-Roman-52"/>
      <use x="146.97265625" xlink:href="#BitstreamVeraSans-Roman-49"/>
      <use x="176.46484375" xlink:href="#BitstreamVeraSans-Roman-44"/>
      <use x="253.466796875" xlink:href="#BitstreamVeraSans-Roman-5f"/>
      <use x="303.466796875" xlink:href="#BitstreamVeraSans-Roman-54"/>
      <use x="364.55078125" xlink:href="#BitstreamVeraSans-Roman-4c"/>
      <use x="420.263671875" xlink:href="#BitstreamVeraSans-Roman-49"/>
      <use x="449.755859375" xlink:href="#BitstreamVeraSans-Roman-4d"/>
     </g>
    </g>
    <g id="line2d_141">
     <path d="M 330.04 130.718594 
L 353.84 130.718594 
" style="fill:none;stroke:#cc4778;stroke-dasharray:10.000000,6.000000,3.000000,2.000000,3.000000,6.000000;stroke-dashoffset:0.0;stroke-width:2.0;"/>
    </g>
    <g id="line2d_142"/>
    <g id="text_19">
     <!-- UNIFORM_DLIM -->
     <defs>
      <path d="M 9.8125 72.90625 
L 51.703125 72.90625 
L 51.703125 64.59375 
L 19.671875 64.59375 
L 19.671875 43.109375 
L 48.578125 43.109375 
L 48.578125 34.8125 
L 19.671875 34.8125 
L 19.671875 0 
L 9.8125 0 
z
" id="BitstreamVeraSans-Roman-46"/>
      <path d="M 9.8125 72.90625 
L 23.09375 72.90625 
L 55.421875 11.921875 
L 55.421875 72.90625 
L 64.984375 72.90625 
L 64.984375 0 
L 51.703125 0 
L 19.390625 60.984375 
L 19.390625 0 
L 9.8125 0 
z
" id="BitstreamVeraSans-Roman-4e"/>
      <path d="M 8.6875 72.90625 
L 18.609375 72.90625 
L 18.609375 28.609375 
Q 18.609375 16.890625 22.84375 11.734375 
Q 27.09375 6.59375 36.625 6.59375 
Q 46.09375 6.59375 50.34375 11.734375 
Q 54.59375 16.890625 54.59375 28.609375 
L 54.59375 72.90625 
L 64.5 72.90625 
L 64.5 27.390625 
Q 64.5 13.140625 57.4375 5.859375 
Q 50.390625 -1.421875 36.625 -1.421875 
Q 22.796875 -1.421875 15.734375 5.859375 
Q 8.6875 13.140625 8.6875 27.390625 
z
" id="BitstreamVeraSans-Roman-55"/>
      <path d="M 39.40625 66.21875 
Q 28.65625 66.21875 22.328125 58.203125 
Q 16.015625 50.203125 16.015625 36.375 
Q 16.015625 22.609375 22.328125 14.59375 
Q 28.65625 6.59375 39.40625 6.59375 
Q 50.140625 6.59375 56.421875 14.59375 
Q 62.703125 22.609375 62.703125 36.375 
Q 62.703125 50.203125 56.421875 58.203125 
Q 50.140625 66.21875 39.40625 66.21875 
M 39.40625 74.21875 
Q 54.734375 74.21875 63.90625 63.9375 
Q 73.09375 53.65625 73.09375 36.375 
Q 73.09375 19.140625 63.90625 8.859375 
Q 54.734375 -1.421875 39.40625 -1.421875 
Q 24.03125 -1.421875 14.8125 8.828125 
Q 5.609375 19.09375 5.609375 36.375 
Q 5.609375 53.65625 14.8125 63.9375 
Q 24.03125 74.21875 39.40625 74.21875 
" id="BitstreamVeraSans-Roman-4f"/>
     </defs>
     <g transform="translate(372.54 136.66859375)scale(0.17 -0.17)">
      <use xlink:href="#BitstreamVeraSans-Roman-55"/>
      <use x="73.193359375" xlink:href="#BitstreamVeraSans-Roman-4e"/>
      <use x="147.998046875" xlink:href="#BitstreamVeraSans-Roman-49"/>
      <use x="177.490234375" xlink:href="#BitstreamVeraSans-Roman-46"/>
      <use x="235.009765625" xlink:href="#BitstreamVeraSans-Roman-4f"/>
      <use x="313.720703125" xlink:href="#BitstreamVeraSans-Roman-52"/>
      <use x="383.203125" xlink:href="#BitstreamVeraSans-Roman-4d"/>
      <use x="469.482421875" xlink:href="#BitstreamVeraSans-Roman-5f"/>
      <use x="519.482421875" xlink:href="#BitstreamVeraSans-Roman-44"/>
      <use x="596.484375" xlink:href="#BitstreamVeraSans-Roman-4c"/>
      <use x="652.197265625" xlink:href="#BitstreamVeraSans-Roman-49"/>
      <use x="681.689453125" xlink:href="#BitstreamVeraSans-Roman-4d"/>
     </g>
    </g>
    <g id="line2d_143">
     <path d="M 330.04 156.144219 
L 353.84 156.144219 
" style="fill:none;stroke:#f89540;stroke-dasharray:6.000000,3.000000;stroke-dashoffset:0.0;stroke-width:2.0;"/>
    </g>
    <g id="line2d_144"/>
    <g id="text_20">
     <!-- UNIFORM_TLIM -->
     <g transform="translate(372.54 162.09421875)scale(0.17 -0.17)">
      <use xlink:href="#BitstreamVeraSans-Roman-55"/>
      <use x="73.193359375" xlink:href="#BitstreamVeraSans-Roman-4e"/>
      <use x="147.998046875" xlink:href="#BitstreamVeraSans-Roman-49"/>
      <use x="177.490234375" xlink:href="#BitstreamVeraSans-Roman-46"/>
      <use x="235.009765625" xlink:href="#BitstreamVeraSans-Roman-4f"/>
      <use x="313.720703125" xlink:href="#BitstreamVeraSans-Roman-52"/>
      <use x="383.203125" xlink:href="#BitstreamVeraSans-Roman-4d"/>
      <use x="469.482421875" xlink:href="#BitstreamVeraSans-Roman-5f"/>
      <use x="519.482421875" xlink:href="#BitstreamVeraSans-Roman-54"/>
      <use x="580.56640625" xlink:href="#BitstreamVeraSans-Roman-4c"/>
      <use x="636.279296875" xlink:href="#BitstreamVeraSans-Roman-49"/>
      <use x="665.771484375" xlink:href="#BitstreamVeraSans-Roman-4d"/>
     </g>
    </g>
   </g>
  </g>
 </g>
 <defs>
  <clipPath id="pa9a6f4bdd5">
   <rect height="460.8" width="446.4" x="72.0" y="57.6"/>
  </clipPath>
 </defs>
</svg>
