<?xml version="1.0" encoding="utf-8" standalone="no"?>
<!DOCTYPE svg PUBLIC "-//W3C//DTD SVG 1.1//EN"
  "http://www.w3.org/Graphics/SVG/1.1/DTD/svg11.dtd">
<!-- Created with matplotlib (http://matplotlib.org/) -->
<svg height="396pt" version="1.1" viewBox="0 0 718 396" width="718pt" xmlns="http://www.w3.org/2000/svg" xmlns:xlink="http://www.w3.org/1999/xlink">
 <defs>
  <style type="text/css">
*{stroke-linecap:butt;stroke-linejoin:round;stroke-miterlimit:100000;}
  </style>
 </defs>
 <g id="figure_1">
  <g id="patch_1">
   <path d="M 0 396.9125 
L 718.626563 396.9125 
L 718.626563 0 
L 0 0 
z
" style="fill:#ffffff;"/>
  </g>
  <g id="axes_1">
   <g id="patch_2">
    <path d="M 63.7 349.7425 
L 565.9 349.7425 
L 565.9 14.9425 
L 63.7 14.9425 
z
" style="fill:#ffffff;"/>
   </g>
   <g id="line2d_1">
    <path clip-path="url(#pbb48497538)" d="M -1 349.301263 
L 38.59 349.074852 
L 101.365 349.001328 
L 113.92 348.773884 
L 126.475 348.331186 
L 130.66 333.270258 
L 134.845 319.779277 
L 139.03 314.00268 
L 143.215 282.663518 
L 147.4 233.998363 
L 151.585 161.993266 
L 155.77 100.925608 
L 159.955 53.597123 
L 164.14 51.25718 
L 168.325 66.449074 
L 172.51 94.346273 
L 176.695 125.470643 
L 189.25 200.140533 
L 193.435 220.13948 
L 197.62 236.712526 
L 201.805 249.540363 
L 205.99 259.204281 
L 210.175 267.655937 
L 214.36 272.225519 
L 218.545 274.19279 
L 222.73 274.122153 
L 226.915 269.120193 
L 231.1 261.968089 
L 235.285 261.464307 
L 239.47 262.189559 
L 243.655 265.869622 
L 247.84 270.779483 
L 256.21 281.661895 
L 264.58 293.105688 
L 268.765 298.081791 
L 272.95 302.23927 
L 277.135 305.78918 
L 281.32 309.802007 
L 285.505 313.088519 
L 289.69 315.683604 
L 293.875 317.677681 
L 298.06 320.341588 
L 310.615 323.411819 
L 314.8 323.537438 
L 318.985 323.780505 
L 323.17 324.317844 
L 327.355 325.327999 
L 331.54 326.082872 
L 335.725 326.523693 
L 339.91 327.736487 
L 344.095 328.253262 
L 348.28 329.025967 
L 352.465 330.025448 
L 356.65 330.721503 
L 390.13 335.124013 
L 406.87 336.528055 
L 431.98 338.427043 
L 440.35 338.833504 
L 448.72 339.465944 
L 494.755 341.930915 
L 515.68 342.672037 
L 544.975 343.419103 
L 603.565 344.598003 
L 645.415 345.185897 
L 712.375 345.888035 
L 719.626563 345.952373 
L 719.626563 345.952373 
" style="fill:none;stroke:#0000ff;stroke-linecap:square;"/>
   </g>
   <g id="line2d_2">
    <path clip-path="url(#pbb48497538)" d="M -1 349.299171 
L 42.775 349.045095 
L 67.885 349.093049 
L 92.995 349.070803 
L 109.735 348.830603 
L 122.29 348.461553 
L 126.475 348.325137 
L 130.66 332.373867 
L 134.845 320.195511 
L 139.03 314.760937 
L 143.215 291.307579 
L 147.4 240.313737 
L 151.585 168.252877 
L 155.77 94.240495 
L 159.955 49.345031 
L 164.14 40.813354 
L 168.325 59.119404 
L 172.51 84.738746 
L 176.695 116.220228 
L 180.88 143.57998 
L 185.065 169.17309 
L 189.25 192.666767 
L 193.435 214.360025 
L 197.62 232.028009 
L 201.805 245.80928 
L 205.99 256.751827 
L 210.175 264.746742 
L 214.36 271.999887 
L 218.545 275.50051 
L 222.73 275.664043 
L 226.915 273.478536 
L 231.1 265.00684 
L 235.285 259.621655 
L 239.47 261.814911 
L 243.655 265.196218 
L 247.84 268.745106 
L 252.025 273.02725 
L 256.21 278.136997 
L 264.58 292.591912 
L 268.765 297.672782 
L 272.95 302.238126 
L 277.135 306.143994 
L 285.505 312.147161 
L 293.875 316.754474 
L 298.06 318.634807 
L 302.245 320.357317 
L 306.43 322.628691 
L 310.615 323.30222 
L 314.8 323.547775 
L 318.985 323.937183 
L 331.54 326.050707 
L 339.91 327.048982 
L 344.095 328.391212 
L 348.28 329.277026 
L 356.65 330.631844 
L 369.205 332.605507 
L 381.76 334.312489 
L 390.13 335.216484 
L 402.685 336.296963 
L 436.165 338.520345 
L 448.72 339.520558 
L 473.83 340.940572 
L 490.57 341.738349 
L 511.495 342.48842 
L 540.79 343.300611 
L 578.455 344.102658 
L 624.49 344.847345 
L 683.08 345.554683 
L 719.626563 345.904361 
L 719.626563 345.904361 
" style="fill:none;stroke:#002aea;stroke-linecap:square;"/>
   </g>
   <g id="line2d_3">
    <path clip-path="url(#pbb48497538)" d="M -1 349.34346 
L 51.145 349.118073 
L 92.995 349.153064 
L 109.735 348.939756 
L 126.475 348.514864 
L 130.66 339.099905 
L 134.845 316.641073 
L 139.03 268.789923 
L 143.215 227.973995 
L 147.4 189.60195 
L 151.585 133.592295 
L 155.77 75.953386 
L 159.955 44.427003 
L 164.14 34.743599 
L 168.325 48.455009 
L 172.51 77.53183 
L 176.695 115.348821 
L 180.88 149.315424 
L 185.065 175.108947 
L 189.25 193.022746 
L 193.435 219.152676 
L 197.62 236.825345 
L 201.805 252.881558 
L 205.99 264.652331 
L 210.175 271.861544 
L 214.36 275.892716 
L 218.545 276.917013 
L 222.73 273.217258 
L 226.915 263.302409 
L 231.1 258.153551 
L 235.285 258.492155 
L 243.655 265.243755 
L 247.84 273.233565 
L 256.21 287.688429 
L 260.395 294.319392 
L 264.58 299.44727 
L 268.765 303.55905 
L 272.95 307.499083 
L 277.135 310.697783 
L 281.32 313.484348 
L 285.505 315.864933 
L 289.69 317.619323 
L 293.875 319.598091 
L 298.06 320.782426 
L 302.245 321.40837 
L 306.43 322.572946 
L 310.615 323.527099 
L 327.355 325.296224 
L 331.54 325.966071 
L 335.725 326.970657 
L 339.91 327.813487 
L 344.095 328.293603 
L 348.28 328.927386 
L 352.465 329.787416 
L 373.39 333.161124 
L 394.315 335.493489 
L 423.61 337.958358 
L 469.645 340.934728 
L 498.94 342.288444 
L 519.865 342.978674 
L 549.16 343.715533 
L 611.935 344.841647 
L 666.34 345.534144 
L 719.626563 346.040481 
L 719.626563 346.040481 
" style="fill:none;stroke:#0055d4;stroke-linecap:square;"/>
   </g>
   <g id="line2d_4">
    <path clip-path="url(#pbb48497538)" d="M -1 348.739206 
L 38.59 347.90861 
L 59.515 347.381593 
L 72.07 346.881485 
L 80.44 346.367796 
L 84.625 346.137794 
L 92.995 345.324933 
L 97.18 344.647137 
L 101.365 343.585578 
L 105.55 342.279331 
L 113.92 340.052344 
L 118.105 337.730158 
L 122.29 333.917653 
L 126.475 326.699444 
L 130.66 317.551223 
L 134.845 304.537992 
L 139.03 291.016789 
L 143.215 272.10545 
L 147.4 235.705291 
L 151.585 191.924884 
L 155.77 169.057854 
L 159.955 157.242201 
L 164.14 148.38952 
L 168.325 131.524717 
L 172.51 126.53948 
L 176.695 153.394568 
L 189.25 212.709651 
L 193.435 230.057717 
L 197.62 243.15995 
L 201.805 254.321571 
L 205.99 262.705232 
L 210.175 265.855631 
L 218.545 267.512153 
L 226.915 268.891813 
L 231.1 270.881109 
L 235.285 273.365618 
L 239.47 276.778751 
L 243.655 281.252949 
L 247.84 286.228249 
L 252.025 290.551561 
L 256.21 295.853391 
L 260.395 299.781999 
L 264.58 302.891632 
L 268.765 306.756563 
L 272.95 310.105371 
L 281.32 314.88583 
L 285.505 316.272387 
L 289.69 318.191559 
L 293.875 319.671331 
L 298.06 320.84274 
L 306.43 321.690261 
L 310.615 322.469654 
L 314.8 323.097538 
L 318.985 324.14124 
L 323.17 324.68354 
L 327.355 326.289685 
L 331.54 327.244842 
L 339.91 328.763748 
L 348.28 330.208973 
L 365.02 332.657505 
L 394.315 336.166735 
L 402.685 336.988633 
L 415.24 337.905223 
L 431.98 339.158796 
L 444.535 339.829658 
L 461.275 340.662565 
L 490.57 341.834595 
L 524.05 342.906192 
L 557.53 343.6658 
L 603.565 344.533857 
L 649.6 345.177697 
L 716.56 345.869479 
L 719.626563 345.896103 
L 719.626563 345.896103 
" style="fill:none;stroke:#0080bf;stroke-linecap:square;"/>
   </g>
   <g id="line2d_5">
    <path clip-path="url(#pbb48497538)" d="M -1 348.64174 
L 42.775 347.778494 
L 67.885 347.099177 
L 80.44 346.355791 
L 84.625 346.115285 
L 92.995 345.296574 
L 97.18 344.616697 
L 101.365 343.5848 
L 105.55 342.305161 
L 113.92 340.033417 
L 118.105 337.68948 
L 122.29 333.81004 
L 126.475 326.724201 
L 130.66 317.73269 
L 139.03 291.556411 
L 143.215 273.10492 
L 147.4 242.881168 
L 151.585 199.458263 
L 155.77 169.390074 
L 159.955 152.78929 
L 164.14 145.364698 
L 172.51 124.793416 
L 176.695 138.868456 
L 180.88 158.794576 
L 185.065 179.854256 
L 189.25 202.327955 
L 193.435 222.158291 
L 197.62 236.624643 
L 201.805 247.30438 
L 205.99 255.83698 
L 210.175 261.113533 
L 214.36 263.622635 
L 218.545 265.699991 
L 222.73 267.41274 
L 226.915 268.788555 
L 231.1 269.908138 
L 235.285 271.877545 
L 239.47 275.329927 
L 243.655 279.924084 
L 247.84 285.275325 
L 252.025 290.220092 
L 260.395 297.761837 
L 264.58 301.33314 
L 268.765 304.721927 
L 277.135 309.924567 
L 281.32 313.106537 
L 285.505 315.154111 
L 289.69 316.963649 
L 293.875 319.591833 
L 302.245 320.953038 
L 306.43 321.317057 
L 310.615 321.893202 
L 314.8 323.023876 
L 318.985 323.943009 
L 323.17 325.213803 
L 327.355 326.215313 
L 331.54 326.744427 
L 335.725 328.331207 
L 339.91 329.263274 
L 344.095 330.056796 
L 356.65 332.006246 
L 373.39 334.337258 
L 385.945 335.750823 
L 402.685 337.308505 
L 419.425 338.598552 
L 436.165 339.658916 
L 457.09 340.735819 
L 482.2 341.764561 
L 511.495 342.709409 
L 544.975 343.551625 
L 586.825 344.364214 
L 637.045 345.101281 
L 699.82 345.785848 
L 719.626563 345.962885 
L 719.626563 345.962885 
" style="fill:none;stroke:#00aaaa;stroke-linecap:square;"/>
   </g>
   <g id="line2d_6">
    <path clip-path="url(#pbb48497538)" d="M -1 348.955959 
L 42.775 348.248917 
L 55.33 347.896823 
L 80.44 346.935821 
L 88.81 346.399681 
L 92.995 346.162544 
L 97.18 345.570101 
L 101.365 344.5626 
L 105.55 343.297983 
L 113.92 341.508259 
L 118.105 339.781047 
L 122.29 335.971822 
L 126.475 327.508683 
L 130.66 318.608877 
L 134.845 305.420661 
L 139.03 290.197682 
L 143.215 263.653007 
L 147.4 208.714437 
L 151.585 190.893363 
L 155.77 161.657922 
L 159.955 135.83638 
L 164.14 121.131889 
L 168.325 101.462889 
L 172.51 94.852179 
L 180.88 155.318321 
L 189.25 206.041858 
L 197.62 242.272811 
L 201.805 254.308268 
L 205.99 260.176913 
L 210.175 262.882398 
L 214.36 264.563605 
L 218.545 265.18465 
L 222.73 266.843595 
L 231.1 270.439284 
L 235.285 273.699261 
L 239.47 277.768466 
L 247.84 288.808264 
L 252.025 294.042663 
L 256.21 298.491986 
L 260.395 302.565849 
L 264.58 306.227358 
L 268.765 309.445403 
L 272.95 312.21717 
L 277.135 314.485277 
L 281.32 316.341239 
L 285.505 317.844733 
L 289.69 319.186089 
L 293.875 320.125065 
L 302.245 320.780032 
L 314.8 323.020386 
L 318.985 324.179457 
L 323.17 325.178925 
L 327.355 326.037969 
L 331.54 327.02871 
L 356.65 331.710086 
L 365.02 333.015911 
L 381.76 335.19905 
L 394.315 336.501141 
L 411.055 337.912917 
L 427.795 339.080997 
L 457.09 340.672446 
L 469.645 341.238254 
L 503.125 342.428095 
L 536.605 343.342626 
L 582.64 344.273412 
L 624.49 344.910715 
L 674.71 345.514424 
L 719.626563 345.948728 
L 719.626563 345.948728 
" style="fill:none;stroke:#00d594;stroke-linecap:square;"/>
   </g>
   <g id="patch_3">
    <path d="M 63.7 14.9425 
L 565.9 14.9425 
" style="fill:none;stroke:#000000;stroke-linecap:square;stroke-linejoin:miter;"/>
   </g>
   <g id="patch_4">
    <path d="M 565.9 349.7425 
L 565.9 14.9425 
" style="fill:none;stroke:#000000;stroke-linecap:square;stroke-linejoin:miter;"/>
   </g>
   <g id="patch_5">
    <path d="M 63.7 349.7425 
L 565.9 349.7425 
" style="fill:none;stroke:#000000;stroke-linecap:square;stroke-linejoin:miter;"/>
   </g>
   <g id="patch_6">
    <path d="M 63.7 349.7425 
L 63.7 14.9425 
" style="fill:none;stroke:#000000;stroke-linecap:square;stroke-linejoin:miter;"/>
   </g>
   <g id="matplotlib.axis_1">
    <g id="xtick_1">
     <g id="line2d_7">
      <defs>
       <path d="M 0 0 
L 0 -4 
" id="mb6b8ec9e1e" style="stroke:#000000;stroke-width:0.5;"/>
      </defs>
      <g>
       <use style="stroke:#000000;stroke-width:0.5;" x="63.7" xlink:href="#mb6b8ec9e1e" y="349.7425"/>
      </g>
     </g>
     <g id="line2d_8">
      <defs>
       <path d="M 0 0 
L 0 4 
" id="mc08db42655" style="stroke:#000000;stroke-width:0.5;"/>
      </defs>
      <g>
       <use style="stroke:#000000;stroke-width:0.5;" x="63.7" xlink:href="#mc08db42655" y="14.9425"/>
      </g>
     </g>
     <g id="text_1">
      <!-- 38 -->
      <defs>
       <path d="M 40.578125 39.3125 
Q 47.65625 37.796875 51.625 33 
Q 55.609375 28.21875 55.609375 21.1875 
Q 55.609375 10.40625 48.1875 4.484375 
Q 40.765625 -1.421875 27.09375 -1.421875 
Q 22.515625 -1.421875 17.65625 -0.515625 
Q 12.796875 0.390625 7.625 2.203125 
L 7.625 11.71875 
Q 11.71875 9.328125 16.59375 8.109375 
Q 21.484375 6.890625 26.8125 6.890625 
Q 36.078125 6.890625 40.9375 10.546875 
Q 45.796875 14.203125 45.796875 21.1875 
Q 45.796875 27.640625 41.28125 31.265625 
Q 36.765625 34.90625 28.71875 34.90625 
L 20.21875 34.90625 
L 20.21875 43.015625 
L 29.109375 43.015625 
Q 36.375 43.015625 40.234375 45.921875 
Q 44.09375 48.828125 44.09375 54.296875 
Q 44.09375 59.90625 40.109375 62.90625 
Q 36.140625 65.921875 28.71875 65.921875 
Q 24.65625 65.921875 20.015625 65.03125 
Q 15.375 64.15625 9.8125 62.3125 
L 9.8125 71.09375 
Q 15.4375 72.65625 20.34375 73.4375 
Q 25.25 74.21875 29.59375 74.21875 
Q 40.828125 74.21875 47.359375 69.109375 
Q 53.90625 64.015625 53.90625 55.328125 
Q 53.90625 49.265625 50.4375 45.09375 
Q 46.96875 40.921875 40.578125 39.3125 
" id="BitstreamVeraSans-Roman-33"/>
       <path d="M 31.78125 34.625 
Q 24.75 34.625 20.71875 30.859375 
Q 16.703125 27.09375 16.703125 20.515625 
Q 16.703125 13.921875 20.71875 10.15625 
Q 24.75 6.390625 31.78125 6.390625 
Q 38.8125 6.390625 42.859375 10.171875 
Q 46.921875 13.96875 46.921875 20.515625 
Q 46.921875 27.09375 42.890625 30.859375 
Q 38.875 34.625 31.78125 34.625 
M 21.921875 38.8125 
Q 15.578125 40.375 12.03125 44.71875 
Q 8.5 49.078125 8.5 55.328125 
Q 8.5 64.0625 14.71875 69.140625 
Q 20.953125 74.21875 31.78125 74.21875 
Q 42.671875 74.21875 48.875 69.140625 
Q 55.078125 64.0625 55.078125 55.328125 
Q 55.078125 49.078125 51.53125 44.71875 
Q 48 40.375 41.703125 38.8125 
Q 48.828125 37.15625 52.796875 32.3125 
Q 56.78125 27.484375 56.78125 20.515625 
Q 56.78125 9.90625 50.3125 4.234375 
Q 43.84375 -1.421875 31.78125 -1.421875 
Q 19.734375 -1.421875 13.25 4.234375 
Q 6.78125 9.90625 6.78125 20.515625 
Q 6.78125 27.484375 10.78125 32.3125 
Q 14.796875 37.15625 21.921875 38.8125 
M 18.3125 54.390625 
Q 18.3125 48.734375 21.84375 45.5625 
Q 25.390625 42.390625 31.78125 42.390625 
Q 38.140625 42.390625 41.71875 45.5625 
Q 45.3125 48.734375 45.3125 54.390625 
Q 45.3125 60.0625 41.71875 63.234375 
Q 38.140625 66.40625 31.78125 66.40625 
Q 25.390625 66.40625 21.84375 63.234375 
Q 18.3125 60.0625 18.3125 54.390625 
" id="BitstreamVeraSans-Roman-38"/>
      </defs>
      <g transform="translate(53.52 365.9)scale(0.16 -0.16)">
       <use xlink:href="#BitstreamVeraSans-Roman-33"/>
       <use x="63.623046875" xlink:href="#BitstreamVeraSans-Roman-38"/>
      </g>
     </g>
    </g>
    <g id="xtick_2">
     <g id="line2d_9">
      <g>
       <use style="stroke:#000000;stroke-width:0.5;" x="164.14" xlink:href="#mb6b8ec9e1e" y="349.7425"/>
      </g>
     </g>
     <g id="line2d_10">
      <g>
       <use style="stroke:#000000;stroke-width:0.5;" x="164.14" xlink:href="#mc08db42655" y="14.9425"/>
      </g>
     </g>
     <g id="text_2">
      <!-- 40 -->
      <defs>
       <path d="M 31.78125 66.40625 
Q 24.171875 66.40625 20.328125 58.90625 
Q 16.5 51.421875 16.5 36.375 
Q 16.5 21.390625 20.328125 13.890625 
Q 24.171875 6.390625 31.78125 6.390625 
Q 39.453125 6.390625 43.28125 13.890625 
Q 47.125 21.390625 47.125 36.375 
Q 47.125 51.421875 43.28125 58.90625 
Q 39.453125 66.40625 31.78125 66.40625 
M 31.78125 74.21875 
Q 44.046875 74.21875 50.515625 64.515625 
Q 56.984375 54.828125 56.984375 36.375 
Q 56.984375 17.96875 50.515625 8.265625 
Q 44.046875 -1.421875 31.78125 -1.421875 
Q 19.53125 -1.421875 13.0625 8.265625 
Q 6.59375 17.96875 6.59375 36.375 
Q 6.59375 54.828125 13.0625 64.515625 
Q 19.53125 74.21875 31.78125 74.21875 
" id="BitstreamVeraSans-Roman-30"/>
       <path d="M 37.796875 64.3125 
L 12.890625 25.390625 
L 37.796875 25.390625 
z
M 35.203125 72.90625 
L 47.609375 72.90625 
L 47.609375 25.390625 
L 58.015625 25.390625 
L 58.015625 17.1875 
L 47.609375 17.1875 
L 47.609375 0 
L 37.796875 0 
L 37.796875 17.1875 
L 4.890625 17.1875 
L 4.890625 26.703125 
z
" id="BitstreamVeraSans-Roman-34"/>
      </defs>
      <g transform="translate(153.96 365.9)scale(0.16 -0.16)">
       <use xlink:href="#BitstreamVeraSans-Roman-34"/>
       <use x="63.623046875" xlink:href="#BitstreamVeraSans-Roman-30"/>
      </g>
     </g>
    </g>
    <g id="xtick_3">
     <g id="line2d_11">
      <g>
       <use style="stroke:#000000;stroke-width:0.5;" x="264.58" xlink:href="#mb6b8ec9e1e" y="349.7425"/>
      </g>
     </g>
     <g id="line2d_12">
      <g>
       <use style="stroke:#000000;stroke-width:0.5;" x="264.58" xlink:href="#mc08db42655" y="14.9425"/>
      </g>
     </g>
     <g id="text_3">
      <!-- 42 -->
      <defs>
       <path d="M 19.1875 8.296875 
L 53.609375 8.296875 
L 53.609375 0 
L 7.328125 0 
L 7.328125 8.296875 
Q 12.9375 14.109375 22.625 23.890625 
Q 32.328125 33.6875 34.8125 36.53125 
Q 39.546875 41.84375 41.421875 45.53125 
Q 43.3125 49.21875 43.3125 52.78125 
Q 43.3125 58.59375 39.234375 62.25 
Q 35.15625 65.921875 28.609375 65.921875 
Q 23.96875 65.921875 18.8125 64.3125 
Q 13.671875 62.703125 7.8125 59.421875 
L 7.8125 69.390625 
Q 13.765625 71.78125 18.9375 73 
Q 24.125 74.21875 28.421875 74.21875 
Q 39.75 74.21875 46.484375 68.546875 
Q 53.21875 62.890625 53.21875 53.421875 
Q 53.21875 48.921875 51.53125 44.890625 
Q 49.859375 40.875 45.40625 35.40625 
Q 44.1875 33.984375 37.640625 27.21875 
Q 31.109375 20.453125 19.1875 8.296875 
" id="BitstreamVeraSans-Roman-32"/>
      </defs>
      <g transform="translate(254.4 365.9)scale(0.16 -0.16)">
       <use xlink:href="#BitstreamVeraSans-Roman-34"/>
       <use x="63.623046875" xlink:href="#BitstreamVeraSans-Roman-32"/>
      </g>
     </g>
    </g>
    <g id="xtick_4">
     <g id="line2d_13">
      <g>
       <use style="stroke:#000000;stroke-width:0.5;" x="365.02" xlink:href="#mb6b8ec9e1e" y="349.7425"/>
      </g>
     </g>
     <g id="line2d_14">
      <g>
       <use style="stroke:#000000;stroke-width:0.5;" x="365.02" xlink:href="#mc08db42655" y="14.9425"/>
      </g>
     </g>
     <g id="text_4">
      <!-- 44 -->
      <g transform="translate(354.84 365.9)scale(0.16 -0.16)">
       <use xlink:href="#BitstreamVeraSans-Roman-34"/>
       <use x="63.623046875" xlink:href="#BitstreamVeraSans-Roman-34"/>
      </g>
     </g>
    </g>
    <g id="xtick_5">
     <g id="line2d_15">
      <g>
       <use style="stroke:#000000;stroke-width:0.5;" x="465.46" xlink:href="#mb6b8ec9e1e" y="349.7425"/>
      </g>
     </g>
     <g id="line2d_16">
      <g>
       <use style="stroke:#000000;stroke-width:0.5;" x="465.46" xlink:href="#mc08db42655" y="14.9425"/>
      </g>
     </g>
     <g id="text_5">
      <!-- 46 -->
      <defs>
       <path d="M 33.015625 40.375 
Q 26.375 40.375 22.484375 35.828125 
Q 18.609375 31.296875 18.609375 23.390625 
Q 18.609375 15.53125 22.484375 10.953125 
Q 26.375 6.390625 33.015625 6.390625 
Q 39.65625 6.390625 43.53125 10.953125 
Q 47.40625 15.53125 47.40625 23.390625 
Q 47.40625 31.296875 43.53125 35.828125 
Q 39.65625 40.375 33.015625 40.375 
M 52.59375 71.296875 
L 52.59375 62.3125 
Q 48.875 64.0625 45.09375 64.984375 
Q 41.3125 65.921875 37.59375 65.921875 
Q 27.828125 65.921875 22.671875 59.328125 
Q 17.53125 52.734375 16.796875 39.40625 
Q 19.671875 43.65625 24.015625 45.921875 
Q 28.375 48.1875 33.59375 48.1875 
Q 44.578125 48.1875 50.953125 41.515625 
Q 57.328125 34.859375 57.328125 23.390625 
Q 57.328125 12.15625 50.6875 5.359375 
Q 44.046875 -1.421875 33.015625 -1.421875 
Q 20.359375 -1.421875 13.671875 8.265625 
Q 6.984375 17.96875 6.984375 36.375 
Q 6.984375 53.65625 15.1875 63.9375 
Q 23.390625 74.21875 37.203125 74.21875 
Q 40.921875 74.21875 44.703125 73.484375 
Q 48.484375 72.75 52.59375 71.296875 
" id="BitstreamVeraSans-Roman-36"/>
      </defs>
      <g transform="translate(455.28 365.9)scale(0.16 -0.16)">
       <use xlink:href="#BitstreamVeraSans-Roman-34"/>
       <use x="63.623046875" xlink:href="#BitstreamVeraSans-Roman-36"/>
      </g>
     </g>
    </g>
    <g id="xtick_6">
     <g id="line2d_17">
      <g>
       <use style="stroke:#000000;stroke-width:0.5;" x="565.9" xlink:href="#mb6b8ec9e1e" y="349.7425"/>
      </g>
     </g>
     <g id="line2d_18">
      <g>
       <use style="stroke:#000000;stroke-width:0.5;" x="565.9" xlink:href="#mc08db42655" y="14.9425"/>
      </g>
     </g>
     <g id="text_6">
      <!-- 48 -->
      <g transform="translate(555.72 365.9)scale(0.16 -0.16)">
       <use xlink:href="#BitstreamVeraSans-Roman-34"/>
       <use x="63.623046875" xlink:href="#BitstreamVeraSans-Roman-38"/>
      </g>
     </g>
    </g>
    <g id="text_7">
     <!-- simulation time (hours) -->
     <defs>
      <path id="BitstreamVeraSans-Roman-20"/>
      <path d="M 54.890625 33.015625 
L 54.890625 0 
L 45.90625 0 
L 45.90625 32.71875 
Q 45.90625 40.484375 42.875 44.328125 
Q 39.84375 48.1875 33.796875 48.1875 
Q 26.515625 48.1875 22.3125 43.546875 
Q 18.109375 38.921875 18.109375 30.90625 
L 18.109375 0 
L 9.078125 0 
L 9.078125 54.6875 
L 18.109375 54.6875 
L 18.109375 46.1875 
Q 21.34375 51.125 25.703125 53.5625 
Q 30.078125 56 35.796875 56 
Q 45.21875 56 50.046875 50.171875 
Q 54.890625 44.34375 54.890625 33.015625 
" id="BitstreamVeraSans-Roman-6e"/>
      <path d="M 52 44.1875 
Q 55.375 50.25 60.0625 53.125 
Q 64.75 56 71.09375 56 
Q 79.640625 56 84.28125 50.015625 
Q 88.921875 44.046875 88.921875 33.015625 
L 88.921875 0 
L 79.890625 0 
L 79.890625 32.71875 
Q 79.890625 40.578125 77.09375 44.375 
Q 74.3125 48.1875 68.609375 48.1875 
Q 61.625 48.1875 57.5625 43.546875 
Q 53.515625 38.921875 53.515625 30.90625 
L 53.515625 0 
L 44.484375 0 
L 44.484375 32.71875 
Q 44.484375 40.625 41.703125 44.40625 
Q 38.921875 48.1875 33.109375 48.1875 
Q 26.21875 48.1875 22.15625 43.53125 
Q 18.109375 38.875 18.109375 30.90625 
L 18.109375 0 
L 9.078125 0 
L 9.078125 54.6875 
L 18.109375 54.6875 
L 18.109375 46.1875 
Q 21.1875 51.21875 25.484375 53.609375 
Q 29.78125 56 35.6875 56 
Q 41.65625 56 45.828125 52.96875 
Q 50 49.953125 52 44.1875 
" id="BitstreamVeraSans-Roman-6d"/>
      <path d="M 30.609375 48.390625 
Q 23.390625 48.390625 19.1875 42.75 
Q 14.984375 37.109375 14.984375 27.296875 
Q 14.984375 17.484375 19.15625 11.84375 
Q 23.34375 6.203125 30.609375 6.203125 
Q 37.796875 6.203125 41.984375 11.859375 
Q 46.1875 17.53125 46.1875 27.296875 
Q 46.1875 37.015625 41.984375 42.703125 
Q 37.796875 48.390625 30.609375 48.390625 
M 30.609375 56 
Q 42.328125 56 49.015625 48.375 
Q 55.71875 40.765625 55.71875 27.296875 
Q 55.71875 13.875 49.015625 6.21875 
Q 42.328125 -1.421875 30.609375 -1.421875 
Q 18.84375 -1.421875 12.171875 6.21875 
Q 5.515625 13.875 5.515625 27.296875 
Q 5.515625 40.765625 12.171875 48.375 
Q 18.84375 56 30.609375 56 
" id="BitstreamVeraSans-Roman-6f"/>
      <path d="M 9.421875 75.984375 
L 18.40625 75.984375 
L 18.40625 0 
L 9.421875 0 
z
" id="BitstreamVeraSans-Roman-6c"/>
      <path d="M 8.015625 75.875 
L 15.828125 75.875 
Q 23.140625 64.359375 26.78125 53.3125 
Q 30.421875 42.28125 30.421875 31.390625 
Q 30.421875 20.453125 26.78125 9.375 
Q 23.140625 -1.703125 15.828125 -13.1875 
L 8.015625 -13.1875 
Q 14.5 -2 17.703125 9.0625 
Q 20.90625 20.125 20.90625 31.390625 
Q 20.90625 42.671875 17.703125 53.65625 
Q 14.5 64.65625 8.015625 75.875 
" id="BitstreamVeraSans-Roman-29"/>
      <path d="M 9.421875 54.6875 
L 18.40625 54.6875 
L 18.40625 0 
L 9.421875 0 
z
M 9.421875 75.984375 
L 18.40625 75.984375 
L 18.40625 64.59375 
L 9.421875 64.59375 
z
" id="BitstreamVeraSans-Roman-69"/>
      <path d="M 54.890625 33.015625 
L 54.890625 0 
L 45.90625 0 
L 45.90625 32.71875 
Q 45.90625 40.484375 42.875 44.328125 
Q 39.84375 48.1875 33.796875 48.1875 
Q 26.515625 48.1875 22.3125 43.546875 
Q 18.109375 38.921875 18.109375 30.90625 
L 18.109375 0 
L 9.078125 0 
L 9.078125 75.984375 
L 18.109375 75.984375 
L 18.109375 46.1875 
Q 21.34375 51.125 25.703125 53.5625 
Q 30.078125 56 35.796875 56 
Q 45.21875 56 50.046875 50.171875 
Q 54.890625 44.34375 54.890625 33.015625 
" id="BitstreamVeraSans-Roman-68"/>
      <path d="M 41.109375 46.296875 
Q 39.59375 47.171875 37.8125 47.578125 
Q 36.03125 48 33.890625 48 
Q 26.265625 48 22.1875 43.046875 
Q 18.109375 38.09375 18.109375 28.8125 
L 18.109375 0 
L 9.078125 0 
L 9.078125 54.6875 
L 18.109375 54.6875 
L 18.109375 46.1875 
Q 20.953125 51.171875 25.484375 53.578125 
Q 30.03125 56 36.53125 56 
Q 37.453125 56 38.578125 55.875 
Q 39.703125 55.765625 41.0625 55.515625 
z
" id="BitstreamVeraSans-Roman-72"/>
      <path d="M 31 75.875 
Q 24.46875 64.65625 21.28125 53.65625 
Q 18.109375 42.671875 18.109375 31.390625 
Q 18.109375 20.125 21.3125 9.0625 
Q 24.515625 -2 31 -13.1875 
L 23.1875 -13.1875 
Q 15.875 -1.703125 12.234375 9.375 
Q 8.59375 20.453125 8.59375 31.390625 
Q 8.59375 42.28125 12.203125 53.3125 
Q 15.828125 64.359375 23.1875 75.875 
z
" id="BitstreamVeraSans-Roman-28"/>
      <path d="M 56.203125 29.59375 
L 56.203125 25.203125 
L 14.890625 25.203125 
Q 15.484375 15.921875 20.484375 11.0625 
Q 25.484375 6.203125 34.421875 6.203125 
Q 39.59375 6.203125 44.453125 7.46875 
Q 49.3125 8.734375 54.109375 11.28125 
L 54.109375 2.78125 
Q 49.265625 0.734375 44.1875 -0.34375 
Q 39.109375 -1.421875 33.890625 -1.421875 
Q 20.796875 -1.421875 13.15625 6.1875 
Q 5.515625 13.8125 5.515625 26.8125 
Q 5.515625 40.234375 12.765625 48.109375 
Q 20.015625 56 32.328125 56 
Q 43.359375 56 49.78125 48.890625 
Q 56.203125 41.796875 56.203125 29.59375 
M 47.21875 32.234375 
Q 47.125 39.59375 43.09375 43.984375 
Q 39.0625 48.390625 32.421875 48.390625 
Q 24.90625 48.390625 20.390625 44.140625 
Q 15.875 39.890625 15.1875 32.171875 
z
" id="BitstreamVeraSans-Roman-65"/>
      <path d="M 18.3125 70.21875 
L 18.3125 54.6875 
L 36.8125 54.6875 
L 36.8125 47.703125 
L 18.3125 47.703125 
L 18.3125 18.015625 
Q 18.3125 11.328125 20.140625 9.421875 
Q 21.96875 7.515625 27.59375 7.515625 
L 36.8125 7.515625 
L 36.8125 0 
L 27.59375 0 
Q 17.1875 0 13.234375 3.875 
Q 9.28125 7.765625 9.28125 18.015625 
L 9.28125 47.703125 
L 2.6875 47.703125 
L 2.6875 54.6875 
L 9.28125 54.6875 
L 9.28125 70.21875 
z
" id="BitstreamVeraSans-Roman-74"/>
      <path d="M 8.5 21.578125 
L 8.5 54.6875 
L 17.484375 54.6875 
L 17.484375 21.921875 
Q 17.484375 14.15625 20.5 10.265625 
Q 23.53125 6.390625 29.59375 6.390625 
Q 36.859375 6.390625 41.078125 11.03125 
Q 45.3125 15.671875 45.3125 23.6875 
L 45.3125 54.6875 
L 54.296875 54.6875 
L 54.296875 0 
L 45.3125 0 
L 45.3125 8.40625 
Q 42.046875 3.421875 37.71875 1 
Q 33.40625 -1.421875 27.6875 -1.421875 
Q 18.265625 -1.421875 13.375 4.4375 
Q 8.5 10.296875 8.5 21.578125 
" id="BitstreamVeraSans-Roman-75"/>
      <path d="M 34.28125 27.484375 
Q 23.390625 27.484375 19.1875 25 
Q 14.984375 22.515625 14.984375 16.5 
Q 14.984375 11.71875 18.140625 8.90625 
Q 21.296875 6.109375 26.703125 6.109375 
Q 34.1875 6.109375 38.703125 11.40625 
Q 43.21875 16.703125 43.21875 25.484375 
L 43.21875 27.484375 
z
M 52.203125 31.203125 
L 52.203125 0 
L 43.21875 0 
L 43.21875 8.296875 
Q 40.140625 3.328125 35.546875 0.953125 
Q 30.953125 -1.421875 24.3125 -1.421875 
Q 15.921875 -1.421875 10.953125 3.296875 
Q 6 8.015625 6 15.921875 
Q 6 25.140625 12.171875 29.828125 
Q 18.359375 34.515625 30.609375 34.515625 
L 43.21875 34.515625 
L 43.21875 35.40625 
Q 43.21875 41.609375 39.140625 45 
Q 35.0625 48.390625 27.6875 48.390625 
Q 23 48.390625 18.546875 47.265625 
Q 14.109375 46.140625 10.015625 43.890625 
L 10.015625 52.203125 
Q 14.9375 54.109375 19.578125 55.046875 
Q 24.21875 56 28.609375 56 
Q 40.484375 56 46.34375 49.84375 
Q 52.203125 43.703125 52.203125 31.203125 
" id="BitstreamVeraSans-Roman-61"/>
      <path d="M 44.28125 53.078125 
L 44.28125 44.578125 
Q 40.484375 46.53125 36.375 47.5 
Q 32.28125 48.484375 27.875 48.484375 
Q 21.1875 48.484375 17.84375 46.4375 
Q 14.5 44.390625 14.5 40.28125 
Q 14.5 37.15625 16.890625 35.375 
Q 19.28125 33.59375 26.515625 31.984375 
L 29.59375 31.296875 
Q 39.15625 29.25 43.1875 25.515625 
Q 47.21875 21.78125 47.21875 15.09375 
Q 47.21875 7.46875 41.1875 3.015625 
Q 35.15625 -1.421875 24.609375 -1.421875 
Q 20.21875 -1.421875 15.453125 -0.5625 
Q 10.6875 0.296875 5.421875 2 
L 5.421875 11.28125 
Q 10.40625 8.6875 15.234375 7.390625 
Q 20.0625 6.109375 24.8125 6.109375 
Q 31.15625 6.109375 34.5625 8.28125 
Q 37.984375 10.453125 37.984375 14.40625 
Q 37.984375 18.0625 35.515625 20.015625 
Q 33.0625 21.96875 24.703125 23.78125 
L 21.578125 24.515625 
Q 13.234375 26.265625 9.515625 29.90625 
Q 5.8125 33.546875 5.8125 39.890625 
Q 5.8125 47.609375 11.28125 51.796875 
Q 16.75 56 26.8125 56 
Q 31.78125 56 36.171875 55.265625 
Q 40.578125 54.546875 44.28125 53.078125 
" id="BitstreamVeraSans-Roman-73"/>
     </defs>
     <g transform="translate(221.20625 386.385)scale(0.16 -0.16)">
      <use xlink:href="#BitstreamVeraSans-Roman-73"/>
      <use x="52.099609375" xlink:href="#BitstreamVeraSans-Roman-69"/>
      <use x="79.8828125" xlink:href="#BitstreamVeraSans-Roman-6d"/>
      <use x="177.294921875" xlink:href="#BitstreamVeraSans-Roman-75"/>
      <use x="240.673828125" xlink:href="#BitstreamVeraSans-Roman-6c"/>
      <use x="268.45703125" xlink:href="#BitstreamVeraSans-Roman-61"/>
      <use x="329.736328125" xlink:href="#BitstreamVeraSans-Roman-74"/>
      <use x="368.9453125" xlink:href="#BitstreamVeraSans-Roman-69"/>
      <use x="396.728515625" xlink:href="#BitstreamVeraSans-Roman-6f"/>
      <use x="457.91015625" xlink:href="#BitstreamVeraSans-Roman-6e"/>
      <use x="521.2890625" xlink:href="#BitstreamVeraSans-Roman-20"/>
      <use x="553.076171875" xlink:href="#BitstreamVeraSans-Roman-74"/>
      <use x="592.28515625" xlink:href="#BitstreamVeraSans-Roman-69"/>
      <use x="620.068359375" xlink:href="#BitstreamVeraSans-Roman-6d"/>
      <use x="717.48046875" xlink:href="#BitstreamVeraSans-Roman-65"/>
      <use x="779.00390625" xlink:href="#BitstreamVeraSans-Roman-20"/>
      <use x="810.791015625" xlink:href="#BitstreamVeraSans-Roman-28"/>
      <use x="849.8046875" xlink:href="#BitstreamVeraSans-Roman-68"/>
      <use x="913.18359375" xlink:href="#BitstreamVeraSans-Roman-6f"/>
      <use x="974.365234375" xlink:href="#BitstreamVeraSans-Roman-75"/>
      <use x="1037.74414062" xlink:href="#BitstreamVeraSans-Roman-72"/>
      <use x="1078.85742188" xlink:href="#BitstreamVeraSans-Roman-73"/>
      <use x="1130.95703125" xlink:href="#BitstreamVeraSans-Roman-29"/>
     </g>
    </g>
   </g>
   <g id="matplotlib.axis_2">
    <g id="ytick_1">
     <g id="line2d_19">
      <defs>
       <path d="M 0 0 
L 4 0 
" id="m1d880a9c5a" style="stroke:#000000;stroke-width:0.5;"/>
      </defs>
      <g>
       <use style="stroke:#000000;stroke-width:0.5;" x="63.7" xlink:href="#m1d880a9c5a" y="349.7425"/>
      </g>
     </g>
     <g id="line2d_20">
      <defs>
       <path d="M 0 0 
L -4 0 
" id="m41428c152a" style="stroke:#000000;stroke-width:0.5;"/>
      </defs>
      <g>
       <use style="stroke:#000000;stroke-width:0.5;" x="565.9" xlink:href="#m41428c152a" y="349.7425"/>
      </g>
     </g>
     <g id="text_8">
      <!-- 0 -->
      <g transform="translate(49.52 354.1575)scale(0.16 -0.16)">
       <use xlink:href="#BitstreamVeraSans-Roman-30"/>
      </g>
     </g>
    </g>
    <g id="ytick_2">
     <g id="line2d_21">
      <g>
       <use style="stroke:#000000;stroke-width:0.5;" x="63.7" xlink:href="#m1d880a9c5a" y="307.8925"/>
      </g>
     </g>
     <g id="line2d_22">
      <g>
       <use style="stroke:#000000;stroke-width:0.5;" x="565.9" xlink:href="#m41428c152a" y="307.8925"/>
      </g>
     </g>
     <g id="text_9">
      <!-- 20 -->
      <g transform="translate(39.34 312.3075)scale(0.16 -0.16)">
       <use xlink:href="#BitstreamVeraSans-Roman-32"/>
       <use x="63.623046875" xlink:href="#BitstreamVeraSans-Roman-30"/>
      </g>
     </g>
    </g>
    <g id="ytick_3">
     <g id="line2d_23">
      <g>
       <use style="stroke:#000000;stroke-width:0.5;" x="63.7" xlink:href="#m1d880a9c5a" y="266.0425"/>
      </g>
     </g>
     <g id="line2d_24">
      <g>
       <use style="stroke:#000000;stroke-width:0.5;" x="565.9" xlink:href="#m41428c152a" y="266.0425"/>
      </g>
     </g>
     <g id="text_10">
      <!-- 40 -->
      <g transform="translate(39.34 270.4575)scale(0.16 -0.16)">
       <use xlink:href="#BitstreamVeraSans-Roman-34"/>
       <use x="63.623046875" xlink:href="#BitstreamVeraSans-Roman-30"/>
      </g>
     </g>
    </g>
    <g id="ytick_4">
     <g id="line2d_25">
      <g>
       <use style="stroke:#000000;stroke-width:0.5;" x="63.7" xlink:href="#m1d880a9c5a" y="224.1925"/>
      </g>
     </g>
     <g id="line2d_26">
      <g>
       <use style="stroke:#000000;stroke-width:0.5;" x="565.9" xlink:href="#m41428c152a" y="224.1925"/>
      </g>
     </g>
     <g id="text_11">
      <!-- 60 -->
      <g transform="translate(39.34 228.6075)scale(0.16 -0.16)">
       <use xlink:href="#BitstreamVeraSans-Roman-36"/>
       <use x="63.623046875" xlink:href="#BitstreamVeraSans-Roman-30"/>
      </g>
     </g>
    </g>
    <g id="ytick_5">
     <g id="line2d_27">
      <g>
       <use style="stroke:#000000;stroke-width:0.5;" x="63.7" xlink:href="#m1d880a9c5a" y="182.3425"/>
      </g>
     </g>
     <g id="line2d_28">
      <g>
       <use style="stroke:#000000;stroke-width:0.5;" x="565.9" xlink:href="#m41428c152a" y="182.3425"/>
      </g>
     </g>
     <g id="text_12">
      <!-- 80 -->
      <g transform="translate(39.34 186.7575)scale(0.16 -0.16)">
       <use xlink:href="#BitstreamVeraSans-Roman-38"/>
       <use x="63.623046875" xlink:href="#BitstreamVeraSans-Roman-30"/>
      </g>
     </g>
    </g>
    <g id="ytick_6">
     <g id="line2d_29">
      <g>
       <use style="stroke:#000000;stroke-width:0.5;" x="63.7" xlink:href="#m1d880a9c5a" y="140.4925"/>
      </g>
     </g>
     <g id="line2d_30">
      <g>
       <use style="stroke:#000000;stroke-width:0.5;" x="565.9" xlink:href="#m41428c152a" y="140.4925"/>
      </g>
     </g>
     <g id="text_13">
      <!-- 100 -->
      <defs>
       <path d="M 12.40625 8.296875 
L 28.515625 8.296875 
L 28.515625 63.921875 
L 10.984375 60.40625 
L 10.984375 69.390625 
L 28.421875 72.90625 
L 38.28125 72.90625 
L 38.28125 8.296875 
L 54.390625 8.296875 
L 54.390625 0 
L 12.40625 0 
z
" id="BitstreamVeraSans-Roman-31"/>
      </defs>
      <g transform="translate(29.16 144.9075)scale(0.16 -0.16)">
       <use xlink:href="#BitstreamVeraSans-Roman-31"/>
       <use x="63.623046875" xlink:href="#BitstreamVeraSans-Roman-30"/>
       <use x="127.24609375" xlink:href="#BitstreamVeraSans-Roman-30"/>
      </g>
     </g>
    </g>
    <g id="ytick_7">
     <g id="line2d_31">
      <g>
       <use style="stroke:#000000;stroke-width:0.5;" x="63.7" xlink:href="#m1d880a9c5a" y="98.6425"/>
      </g>
     </g>
     <g id="line2d_32">
      <g>
       <use style="stroke:#000000;stroke-width:0.5;" x="565.9" xlink:href="#m41428c152a" y="98.6425"/>
      </g>
     </g>
     <g id="text_14">
      <!-- 120 -->
      <g transform="translate(29.16 103.0575)scale(0.16 -0.16)">
       <use xlink:href="#BitstreamVeraSans-Roman-31"/>
       <use x="63.623046875" xlink:href="#BitstreamVeraSans-Roman-32"/>
       <use x="127.24609375" xlink:href="#BitstreamVeraSans-Roman-30"/>
      </g>
     </g>
    </g>
    <g id="ytick_8">
     <g id="line2d_33">
      <g>
       <use style="stroke:#000000;stroke-width:0.5;" x="63.7" xlink:href="#m1d880a9c5a" y="56.7925"/>
      </g>
     </g>
     <g id="line2d_34">
      <g>
       <use style="stroke:#000000;stroke-width:0.5;" x="565.9" xlink:href="#m41428c152a" y="56.7925"/>
      </g>
     </g>
     <g id="text_15">
      <!-- 140 -->
      <g transform="translate(29.16 61.2075)scale(0.16 -0.16)">
       <use xlink:href="#BitstreamVeraSans-Roman-31"/>
       <use x="63.623046875" xlink:href="#BitstreamVeraSans-Roman-34"/>
       <use x="127.24609375" xlink:href="#BitstreamVeraSans-Roman-30"/>
      </g>
     </g>
    </g>
    <g id="ytick_9">
     <g id="line2d_35">
      <g>
       <use style="stroke:#000000;stroke-width:0.5;" x="63.7" xlink:href="#m1d880a9c5a" y="14.9425"/>
      </g>
     </g>
     <g id="line2d_36">
      <g>
       <use style="stroke:#000000;stroke-width:0.5;" x="565.9" xlink:href="#m41428c152a" y="14.9425"/>
      </g>
     </g>
     <g id="text_16">
      <!-- 160 -->
      <g transform="translate(29.16 19.3575)scale(0.16 -0.16)">
       <use xlink:href="#BitstreamVeraSans-Roman-31"/>
       <use x="63.623046875" xlink:href="#BitstreamVeraSans-Roman-36"/>
       <use x="127.24609375" xlink:href="#BitstreamVeraSans-Roman-30"/>
      </g>
     </g>
    </g>
    <g id="text_17">
     <!-- water discharge ($m^3s^{-1}$) -->
     <defs>
      <path d="M 9.515625 7.71875 
Q 11.859375 4.296875 15.8125 2.640625 
Q 19.78125 0.984375 24.3125 0.984375 
Q 30.125 0.984375 32.5625 5.9375 
Q 35.015625 10.890625 35.015625 17.1875 
Q 35.015625 20.015625 34.5 22.84375 
Q 33.984375 25.6875 32.765625 28.125 
Q 31.546875 30.5625 29.421875 32.03125 
Q 27.296875 33.5 24.21875 33.5 
L 17.578125 33.5 
Q 16.703125 33.5 16.703125 34.421875 
L 16.703125 35.296875 
Q 16.703125 36.078125 17.578125 36.078125 
L 23.09375 36.53125 
Q 26.609375 36.53125 28.921875 39.15625 
Q 31.25 41.796875 32.328125 45.578125 
Q 33.40625 49.359375 33.40625 52.78125 
Q 33.40625 57.5625 31.15625 60.640625 
Q 28.90625 63.71875 24.3125 63.71875 
Q 20.515625 63.71875 17.046875 62.28125 
Q 13.578125 60.84375 11.53125 57.90625 
Q 11.71875 57.953125 11.859375 57.984375 
Q 12.015625 58.015625 12.203125 58.015625 
Q 14.453125 58.015625 15.96875 56.453125 
Q 17.484375 54.890625 17.484375 52.6875 
Q 17.484375 50.53125 15.96875 48.96875 
Q 14.453125 47.40625 12.203125 47.40625 
Q 10.015625 47.40625 8.453125 48.96875 
Q 6.890625 50.53125 6.890625 52.6875 
Q 6.890625 56.984375 9.46875 60.15625 
Q 12.0625 63.328125 16.140625 64.96875 
Q 20.21875 66.609375 24.3125 66.609375 
Q 27.34375 66.609375 30.703125 65.703125 
Q 34.078125 64.796875 36.8125 63.109375 
Q 39.546875 61.421875 41.28125 58.78125 
Q 43.015625 56.15625 43.015625 52.78125 
Q 43.015625 48.578125 41.140625 45.015625 
Q 39.265625 41.453125 35.984375 38.859375 
Q 32.71875 36.28125 28.8125 35.015625 
Q 33.15625 34.1875 37.0625 31.734375 
Q 40.96875 29.296875 43.328125 25.484375 
Q 45.703125 21.6875 45.703125 17.28125 
Q 45.703125 11.765625 42.671875 7.296875 
Q 39.65625 2.828125 34.71875 0.3125 
Q 29.78125 -2.203125 24.3125 -2.203125 
Q 19.625 -2.203125 14.90625 -0.40625 
Q 10.203125 1.375 7.203125 4.9375 
Q 4.203125 8.5 4.203125 13.484375 
Q 4.203125 15.96875 5.859375 17.625 
Q 7.515625 19.28125 10.015625 19.28125 
Q 11.625 19.28125 12.96875 18.53125 
Q 14.3125 17.78125 15.0625 16.40625 
Q 15.828125 15.046875 15.828125 13.484375 
Q 15.828125 11.03125 14.109375 9.375 
Q 12.40625 7.71875 10.015625 7.71875 
z
" id="Cmr10-33"/>
      <path d="M 9.28125 0 
L 9.28125 3.515625 
Q 21.78125 3.515625 21.78125 6.6875 
L 21.78125 59.1875 
Q 16.609375 56.6875 8.6875 56.6875 
L 8.6875 60.203125 
Q 20.953125 60.203125 27.203125 66.609375 
L 28.609375 66.609375 
Q 28.953125 66.609375 29.265625 66.328125 
Q 29.59375 66.0625 29.59375 65.71875 
L 29.59375 6.6875 
Q 29.59375 3.515625 42.09375 3.515625 
L 42.09375 0 
z
" id="Cmr10-31"/>
      <path d="M 10.203125 23 
Q 9.375 23 8.828125 23.625 
Q 8.296875 24.265625 8.296875 25 
Q 8.296875 25.734375 8.828125 26.359375 
Q 9.375 27 10.203125 27 
L 67.578125 27 
Q 68.359375 27 68.875 26.359375 
Q 69.390625 25.734375 69.390625 25 
Q 69.390625 24.265625 68.875 23.625 
Q 68.359375 23 67.578125 23 
z
" id="Cmsy10-a1"/>
      <path d="M 7.71875 1.703125 
Q 7.71875 2.296875 7.8125 2.59375 
L 15.28125 32.421875 
Q 16.015625 35.203125 16.015625 37.3125 
Q 16.015625 41.609375 13.09375 41.609375 
Q 9.96875 41.609375 8.453125 37.859375 
Q 6.9375 34.125 5.515625 28.421875 
Q 5.515625 28.125 5.21875 27.953125 
Q 4.9375 27.78125 4.6875 27.78125 
L 3.515625 27.78125 
Q 3.171875 27.78125 2.921875 28.140625 
Q 2.6875 28.515625 2.6875 28.8125 
Q 3.765625 33.15625 4.765625 36.171875 
Q 5.765625 39.203125 7.890625 41.6875 
Q 10.015625 44.1875 13.1875 44.1875 
Q 16.9375 44.1875 19.8125 41.8125 
Q 22.703125 39.453125 22.703125 35.796875 
Q 25.6875 39.703125 29.6875 41.9375 
Q 33.6875 44.1875 38.1875 44.1875 
Q 42.921875 44.1875 46.359375 41.765625 
Q 49.8125 39.359375 49.8125 34.90625 
Q 52.875 39.265625 57 41.71875 
Q 61.140625 44.1875 66.015625 44.1875 
Q 71.1875 44.1875 74.328125 41.375 
Q 77.484375 38.578125 77.484375 33.40625 
Q 77.484375 29.296875 75.65625 23.484375 
Q 73.828125 17.671875 71.09375 10.5 
Q 69.671875 7.03125 69.671875 4.5 
Q 69.671875 1.515625 72.015625 1.515625 
Q 75.921875 1.515625 78.515625 5.703125 
Q 81.109375 9.90625 82.171875 14.703125 
Q 82.46875 15.28125 83.015625 15.28125 
L 84.1875 15.28125 
Q 84.578125 15.28125 84.84375 15.015625 
Q 85.109375 14.75 85.109375 14.40625 
Q 85.109375 14.3125 85.015625 14.109375 
Q 83.640625 8.453125 80.25 3.65625 
Q 76.859375 -1.125 71.78125 -1.125 
Q 68.265625 -1.125 65.765625 1.296875 
Q 63.28125 3.71875 63.28125 7.171875 
Q 63.28125 8.9375 64.109375 11.078125 
Q 66.9375 18.609375 68.8125 24.515625 
Q 70.703125 30.421875 70.703125 34.90625 
Q 70.703125 37.703125 69.578125 39.65625 
Q 68.453125 41.609375 65.828125 41.609375 
Q 60.359375 41.609375 56.34375 38.25 
Q 52.34375 34.90625 49.421875 29.390625 
Q 49.21875 28.421875 49.125 27.875 
L 42.671875 2.203125 
Q 42.328125 0.828125 41.125 -0.140625 
Q 39.9375 -1.125 38.484375 -1.125 
Q 37.3125 -1.125 36.40625 -0.34375 
Q 35.5 0.4375 35.5 1.703125 
Q 35.5 2.296875 35.59375 2.59375 
L 42 28.078125 
Q 43.015625 32.171875 43.015625 34.90625 
Q 43.015625 37.703125 41.859375 39.65625 
Q 40.71875 41.609375 37.984375 41.609375 
Q 34.328125 41.609375 31.25 39.984375 
Q 28.171875 38.375 25.875 35.71875 
Q 23.578125 33.0625 21.6875 29.390625 
L 14.890625 2.203125 
Q 14.546875 0.828125 13.34375 -0.140625 
Q 12.15625 -1.125 10.6875 -1.125 
Q 9.46875 -1.125 8.59375 -0.34375 
Q 7.71875 0.4375 7.71875 1.703125 
" id="Cmmi10-6d"/>
      <path d="M 8.6875 6.109375 
Q 11.375 1.515625 19.484375 1.515625 
Q 23 1.515625 26.171875 2.703125 
Q 29.34375 3.90625 31.421875 6.296875 
Q 33.5 8.6875 33.5 12.109375 
Q 33.5 14.703125 31.640625 16.359375 
Q 29.78125 18.015625 27.09375 18.609375 
L 21.6875 19.671875 
Q 17.96875 20.609375 15.578125 23.140625 
Q 13.1875 25.6875 13.1875 29.296875 
Q 13.1875 33.734375 15.59375 37.15625 
Q 18.015625 40.578125 21.96875 42.375 
Q 25.921875 44.1875 30.171875 44.1875 
Q 34.71875 44.1875 38.296875 42.015625 
Q 41.890625 39.84375 41.890625 35.59375 
Q 41.890625 33.296875 40.59375 31.53125 
Q 39.3125 29.78125 37.015625 29.78125 
Q 35.6875 29.78125 34.734375 30.640625 
Q 33.796875 31.5 33.796875 32.8125 
Q 33.796875 33.984375 34.453125 35.078125 
Q 35.109375 36.1875 36.203125 36.84375 
Q 37.3125 37.5 38.484375 37.5 
Q 37.59375 39.65625 35.171875 40.625 
Q 32.765625 41.609375 29.984375 41.609375 
Q 27.4375 41.609375 24.890625 40.578125 
Q 22.359375 39.546875 20.8125 37.5625 
Q 19.28125 35.59375 19.28125 32.90625 
Q 19.28125 31.109375 20.546875 29.734375 
Q 21.828125 28.375 23.6875 27.78125 
L 29.5 26.609375 
Q 32.28125 26.03125 34.59375 24.53125 
Q 36.921875 23.046875 38.25 20.765625 
Q 39.59375 18.5 39.59375 15.578125 
Q 39.59375 11.859375 37.515625 8.25 
Q 35.453125 4.640625 32.421875 2.484375 
Q 27.09375 -1.125 19.390625 -1.125 
Q 14.0625 -1.125 9.609375 1.3125 
Q 5.171875 3.765625 5.171875 8.59375 
Q 5.171875 11.328125 6.75 13.34375 
Q 8.34375 15.375 11.078125 15.375 
Q 12.703125 15.375 13.796875 14.390625 
Q 14.890625 13.421875 14.890625 11.8125 
Q 14.890625 9.515625 13.171875 7.8125 
Q 11.46875 6.109375 9.1875 6.109375 
z
" id="Cmmi10-73"/>
      <path d="M 45.40625 46.390625 
L 45.40625 75.984375 
L 54.390625 75.984375 
L 54.390625 0 
L 45.40625 0 
L 45.40625 8.203125 
Q 42.578125 3.328125 38.25 0.953125 
Q 33.9375 -1.421875 27.875 -1.421875 
Q 17.96875 -1.421875 11.734375 6.484375 
Q 5.515625 14.40625 5.515625 27.296875 
Q 5.515625 40.1875 11.734375 48.09375 
Q 17.96875 56 27.875 56 
Q 33.9375 56 38.25 53.625 
Q 42.578125 51.265625 45.40625 46.390625 
M 14.796875 27.296875 
Q 14.796875 17.390625 18.875 11.75 
Q 22.953125 6.109375 30.078125 6.109375 
Q 37.203125 6.109375 41.296875 11.75 
Q 45.40625 17.390625 45.40625 27.296875 
Q 45.40625 37.203125 41.296875 42.84375 
Q 37.203125 48.484375 30.078125 48.484375 
Q 22.953125 48.484375 18.875 42.84375 
Q 14.796875 37.203125 14.796875 27.296875 
" id="BitstreamVeraSans-Roman-64"/>
      <path d="M 4.203125 54.6875 
L 13.1875 54.6875 
L 24.421875 12.015625 
L 35.59375 54.6875 
L 46.1875 54.6875 
L 57.421875 12.015625 
L 68.609375 54.6875 
L 77.59375 54.6875 
L 63.28125 0 
L 52.6875 0 
L 40.921875 44.828125 
L 29.109375 0 
L 18.5 0 
z
" id="BitstreamVeraSans-Roman-77"/>
      <path d="M 45.40625 27.984375 
Q 45.40625 37.75 41.375 43.109375 
Q 37.359375 48.484375 30.078125 48.484375 
Q 22.859375 48.484375 18.828125 43.109375 
Q 14.796875 37.75 14.796875 27.984375 
Q 14.796875 18.265625 18.828125 12.890625 
Q 22.859375 7.515625 30.078125 7.515625 
Q 37.359375 7.515625 41.375 12.890625 
Q 45.40625 18.265625 45.40625 27.984375 
M 54.390625 6.78125 
Q 54.390625 -7.171875 48.1875 -13.984375 
Q 42 -20.796875 29.203125 -20.796875 
Q 24.46875 -20.796875 20.265625 -20.09375 
Q 16.0625 -19.390625 12.109375 -17.921875 
L 12.109375 -9.1875 
Q 16.0625 -11.328125 19.921875 -12.34375 
Q 23.78125 -13.375 27.78125 -13.375 
Q 36.625 -13.375 41.015625 -8.765625 
Q 45.40625 -4.15625 45.40625 5.171875 
L 45.40625 9.625 
Q 42.625 4.78125 38.28125 2.390625 
Q 33.9375 0 27.875 0 
Q 17.828125 0 11.671875 7.65625 
Q 5.515625 15.328125 5.515625 27.984375 
Q 5.515625 40.671875 11.671875 48.328125 
Q 17.828125 56 27.875 56 
Q 33.9375 56 38.28125 53.609375 
Q 42.625 51.21875 45.40625 46.390625 
L 45.40625 54.6875 
L 54.390625 54.6875 
z
" id="BitstreamVeraSans-Roman-67"/>
      <path d="M 48.78125 52.59375 
L 48.78125 44.1875 
Q 44.96875 46.296875 41.140625 47.34375 
Q 37.3125 48.390625 33.40625 48.390625 
Q 24.65625 48.390625 19.8125 42.84375 
Q 14.984375 37.3125 14.984375 27.296875 
Q 14.984375 17.28125 19.8125 11.734375 
Q 24.65625 6.203125 33.40625 6.203125 
Q 37.3125 6.203125 41.140625 7.25 
Q 44.96875 8.296875 48.78125 10.40625 
L 48.78125 2.09375 
Q 45.015625 0.34375 40.984375 -0.53125 
Q 36.96875 -1.421875 32.421875 -1.421875 
Q 20.0625 -1.421875 12.78125 6.34375 
Q 5.515625 14.109375 5.515625 27.296875 
Q 5.515625 40.671875 12.859375 48.328125 
Q 20.21875 56 33.015625 56 
Q 37.15625 56 41.109375 55.140625 
Q 45.0625 54.296875 48.78125 52.59375 
" id="BitstreamVeraSans-Roman-63"/>
     </defs>
     <g transform="translate(20.8 278.3425)rotate(-90.0)scale(0.16 -0.16)">
      <use transform="translate(0.0 0.109375)" xlink:href="#BitstreamVeraSans-Roman-77"/>
      <use transform="translate(81.787109375 0.109375)" xlink:href="#BitstreamVeraSans-Roman-61"/>
      <use transform="translate(143.06640625 0.109375)" xlink:href="#BitstreamVeraSans-Roman-74"/>
      <use transform="translate(182.275390625 0.109375)" xlink:href="#BitstreamVeraSans-Roman-65"/>
      <use transform="translate(243.798828125 0.109375)" xlink:href="#BitstreamVeraSans-Roman-72"/>
      <use transform="translate(284.912109375 0.109375)" xlink:href="#BitstreamVeraSans-Roman-20"/>
      <use transform="translate(316.69921875 0.109375)" xlink:href="#BitstreamVeraSans-Roman-64"/>
      <use transform="translate(380.17578125 0.109375)" xlink:href="#BitstreamVeraSans-Roman-69"/>
      <use transform="translate(407.958984375 0.109375)" xlink:href="#BitstreamVeraSans-Roman-73"/>
      <use transform="translate(460.05859375 0.109375)" xlink:href="#BitstreamVeraSans-Roman-63"/>
      <use transform="translate(515.0390625 0.109375)" xlink:href="#BitstreamVeraSans-Roman-68"/>
      <use transform="translate(578.41796875 0.109375)" xlink:href="#BitstreamVeraSans-Roman-61"/>
      <use transform="translate(639.697265625 0.109375)" xlink:href="#BitstreamVeraSans-Roman-72"/>
      <use transform="translate(680.810546875 0.109375)" xlink:href="#BitstreamVeraSans-Roman-67"/>
      <use transform="translate(744.287109375 0.109375)" xlink:href="#BitstreamVeraSans-Roman-65"/>
      <use transform="translate(805.810546875 0.109375)" xlink:href="#BitstreamVeraSans-Roman-20"/>
      <use transform="translate(837.59765625 0.109375)" xlink:href="#BitstreamVeraSans-Roman-28"/>
      <use transform="translate(876.611328125 0.109375)" xlink:href="#Cmmi10-6d"/>
      <use transform="translate(970.707578125 38.3734375)scale(0.7)" xlink:href="#Cmr10-33"/>
      <use transform="translate(1012.08492187 0.109375)" xlink:href="#Cmmi10-73"/>
      <use transform="translate(1065.16554688 38.3734375)scale(0.7)" xlink:href="#Cmsy10-a1"/>
      <use transform="translate(1119.54542969 38.3734375)scale(0.7)" xlink:href="#Cmr10-31"/>
      <use transform="translate(1160.92277344 0.109375)" xlink:href="#BitstreamVeraSans-Roman-29"/>
     </g>
    </g>
   </g>
   <g id="legend_1">
    <g id="patch_7">
     <path d="M 571.4 148.730312 
L 711.426563 148.730312 
L 711.426563 48.554688 
L 571.4 48.554688 
z
" style="fill:#ffffff;stroke:#000000;stroke-linejoin:miter;"/>
    </g>
    <g id="line2d_37">
     <path d="M 579.1 57.462969 
L 594.5 57.462969 
" style="fill:none;stroke:#0000ff;stroke-linecap:square;"/>
    </g>
    <g id="line2d_38"/>
    <g id="text_18">
     <!-- gridded detachlim -->
     <g transform="translate(606.6 61.31296875)scale(0.11 -0.11)">
      <use xlink:href="#BitstreamVeraSans-Roman-67"/>
      <use x="63.4765625" xlink:href="#BitstreamVeraSans-Roman-72"/>
      <use x="104.58984375" xlink:href="#BitstreamVeraSans-Roman-69"/>
      <use x="132.373046875" xlink:href="#BitstreamVeraSans-Roman-64"/>
      <use x="195.849609375" xlink:href="#BitstreamVeraSans-Roman-64"/>
      <use x="259.326171875" xlink:href="#BitstreamVeraSans-Roman-65"/>
      <use x="320.849609375" xlink:href="#BitstreamVeraSans-Roman-64"/>
      <use x="384.326171875" xlink:href="#BitstreamVeraSans-Roman-20"/>
      <use x="416.11328125" xlink:href="#BitstreamVeraSans-Roman-64"/>
      <use x="479.58984375" xlink:href="#BitstreamVeraSans-Roman-65"/>
      <use x="541.11328125" xlink:href="#BitstreamVeraSans-Roman-74"/>
      <use x="580.322265625" xlink:href="#BitstreamVeraSans-Roman-61"/>
      <use x="641.6015625" xlink:href="#BitstreamVeraSans-Roman-63"/>
      <use x="696.58203125" xlink:href="#BitstreamVeraSans-Roman-68"/>
      <use x="759.9609375" xlink:href="#BitstreamVeraSans-Roman-6c"/>
      <use x="787.744140625" xlink:href="#BitstreamVeraSans-Roman-69"/>
      <use x="815.52734375" xlink:href="#BitstreamVeraSans-Roman-6d"/>
     </g>
    </g>
    <g id="line2d_39">
     <path d="M 579.1 73.608906 
L 594.5 73.608906 
" style="fill:none;stroke:#002aea;stroke-linecap:square;"/>
    </g>
    <g id="line2d_40"/>
    <g id="text_19">
     <!-- gridded hydro -->
     <defs>
      <path d="M 32.171875 -5.078125 
Q 28.375 -14.84375 24.75 -17.8125 
Q 21.140625 -20.796875 15.09375 -20.796875 
L 7.90625 -20.796875 
L 7.90625 -13.28125 
L 13.1875 -13.28125 
Q 16.890625 -13.28125 18.9375 -11.515625 
Q 21 -9.765625 23.484375 -3.21875 
L 25.09375 0.875 
L 2.984375 54.6875 
L 12.5 54.6875 
L 29.59375 11.921875 
L 46.6875 54.6875 
L 56.203125 54.6875 
z
" id="BitstreamVeraSans-Roman-79"/>
     </defs>
     <g transform="translate(606.6 77.45890625)scale(0.11 -0.11)">
      <use xlink:href="#BitstreamVeraSans-Roman-67"/>
      <use x="63.4765625" xlink:href="#BitstreamVeraSans-Roman-72"/>
      <use x="104.58984375" xlink:href="#BitstreamVeraSans-Roman-69"/>
      <use x="132.373046875" xlink:href="#BitstreamVeraSans-Roman-64"/>
      <use x="195.849609375" xlink:href="#BitstreamVeraSans-Roman-64"/>
      <use x="259.326171875" xlink:href="#BitstreamVeraSans-Roman-65"/>
      <use x="320.849609375" xlink:href="#BitstreamVeraSans-Roman-64"/>
      <use x="384.326171875" xlink:href="#BitstreamVeraSans-Roman-20"/>
      <use x="416.11328125" xlink:href="#BitstreamVeraSans-Roman-68"/>
      <use x="479.4921875" xlink:href="#BitstreamVeraSans-Roman-79"/>
      <use x="538.671875" xlink:href="#BitstreamVeraSans-Roman-64"/>
      <use x="602.1484375" xlink:href="#BitstreamVeraSans-Roman-72"/>
      <use x="643.23046875" xlink:href="#BitstreamVeraSans-Roman-6f"/>
     </g>
    </g>
    <g id="line2d_41">
     <path d="M 579.1 89.754844 
L 594.5 89.754844 
" style="fill:none;stroke:#0055d4;stroke-linecap:square;"/>
    </g>
    <g id="line2d_42"/>
    <g id="text_20">
     <!-- gridded translim -->
     <g transform="translate(606.6 93.60484375)scale(0.11 -0.11)">
      <use xlink:href="#BitstreamVeraSans-Roman-67"/>
      <use x="63.4765625" xlink:href="#BitstreamVeraSans-Roman-72"/>
      <use x="104.58984375" xlink:href="#BitstreamVeraSans-Roman-69"/>
      <use x="132.373046875" xlink:href="#BitstreamVeraSans-Roman-64"/>
      <use x="195.849609375" xlink:href="#BitstreamVeraSans-Roman-64"/>
      <use x="259.326171875" xlink:href="#BitstreamVeraSans-Roman-65"/>
      <use x="320.849609375" xlink:href="#BitstreamVeraSans-Roman-64"/>
      <use x="384.326171875" xlink:href="#BitstreamVeraSans-Roman-20"/>
      <use x="416.11328125" xlink:href="#BitstreamVeraSans-Roman-74"/>
      <use x="455.322265625" xlink:href="#BitstreamVeraSans-Roman-72"/>
      <use x="496.435546875" xlink:href="#BitstreamVeraSans-Roman-61"/>
      <use x="557.71484375" xlink:href="#BitstreamVeraSans-Roman-6e"/>
      <use x="621.09375" xlink:href="#BitstreamVeraSans-Roman-73"/>
      <use x="673.193359375" xlink:href="#BitstreamVeraSans-Roman-6c"/>
      <use x="700.9765625" xlink:href="#BitstreamVeraSans-Roman-69"/>
      <use x="728.759765625" xlink:href="#BitstreamVeraSans-Roman-6d"/>
     </g>
    </g>
    <g id="line2d_43">
     <path d="M 579.1 105.900781 
L 594.5 105.900781 
" style="fill:none;stroke:#0080bf;stroke-linecap:square;"/>
    </g>
    <g id="line2d_44"/>
    <g id="text_21">
     <!-- lumped detachlim -->
     <defs>
      <path d="M 18.109375 8.203125 
L 18.109375 -20.796875 
L 9.078125 -20.796875 
L 9.078125 54.6875 
L 18.109375 54.6875 
L 18.109375 46.390625 
Q 20.953125 51.265625 25.265625 53.625 
Q 29.59375 56 35.59375 56 
Q 45.5625 56 51.78125 48.09375 
Q 58.015625 40.1875 58.015625 27.296875 
Q 58.015625 14.40625 51.78125 6.484375 
Q 45.5625 -1.421875 35.59375 -1.421875 
Q 29.59375 -1.421875 25.265625 0.953125 
Q 20.953125 3.328125 18.109375 8.203125 
M 48.6875 27.296875 
Q 48.6875 37.203125 44.609375 42.84375 
Q 40.53125 48.484375 33.40625 48.484375 
Q 26.265625 48.484375 22.1875 42.84375 
Q 18.109375 37.203125 18.109375 27.296875 
Q 18.109375 17.390625 22.1875 11.75 
Q 26.265625 6.109375 33.40625 6.109375 
Q 40.53125 6.109375 44.609375 11.75 
Q 48.6875 17.390625 48.6875 27.296875 
" id="BitstreamVeraSans-Roman-70"/>
     </defs>
     <g transform="translate(606.6 109.75078125)scale(0.11 -0.11)">
      <use xlink:href="#BitstreamVeraSans-Roman-6c"/>
      <use x="27.783203125" xlink:href="#BitstreamVeraSans-Roman-75"/>
      <use x="91.162109375" xlink:href="#BitstreamVeraSans-Roman-6d"/>
      <use x="188.57421875" xlink:href="#BitstreamVeraSans-Roman-70"/>
      <use x="252.05078125" xlink:href="#BitstreamVeraSans-Roman-65"/>
      <use x="313.57421875" xlink:href="#BitstreamVeraSans-Roman-64"/>
      <use x="377.05078125" xlink:href="#BitstreamVeraSans-Roman-20"/>
      <use x="408.837890625" xlink:href="#BitstreamVeraSans-Roman-64"/>
      <use x="472.314453125" xlink:href="#BitstreamVeraSans-Roman-65"/>
      <use x="533.837890625" xlink:href="#BitstreamVeraSans-Roman-74"/>
      <use x="573.046875" xlink:href="#BitstreamVeraSans-Roman-61"/>
      <use x="634.326171875" xlink:href="#BitstreamVeraSans-Roman-63"/>
      <use x="689.306640625" xlink:href="#BitstreamVeraSans-Roman-68"/>
      <use x="752.685546875" xlink:href="#BitstreamVeraSans-Roman-6c"/>
      <use x="780.46875" xlink:href="#BitstreamVeraSans-Roman-69"/>
      <use x="808.251953125" xlink:href="#BitstreamVeraSans-Roman-6d"/>
     </g>
    </g>
    <g id="line2d_45">
     <path d="M 579.1 122.046719 
L 594.5 122.046719 
" style="fill:none;stroke:#00aaaa;stroke-linecap:square;"/>
    </g>
    <g id="line2d_46"/>
    <g id="text_22">
     <!-- lumped hydro -->
     <g transform="translate(606.6 125.89671875)scale(0.11 -0.11)">
      <use xlink:href="#BitstreamVeraSans-Roman-6c"/>
      <use x="27.783203125" xlink:href="#BitstreamVeraSans-Roman-75"/>
      <use x="91.162109375" xlink:href="#BitstreamVeraSans-Roman-6d"/>
      <use x="188.57421875" xlink:href="#BitstreamVeraSans-Roman-70"/>
      <use x="252.05078125" xlink:href="#BitstreamVeraSans-Roman-65"/>
      <use x="313.57421875" xlink:href="#BitstreamVeraSans-Roman-64"/>
      <use x="377.05078125" xlink:href="#BitstreamVeraSans-Roman-20"/>
      <use x="408.837890625" xlink:href="#BitstreamVeraSans-Roman-68"/>
      <use x="472.216796875" xlink:href="#BitstreamVeraSans-Roman-79"/>
      <use x="531.396484375" xlink:href="#BitstreamVeraSans-Roman-64"/>
      <use x="594.873046875" xlink:href="#BitstreamVeraSans-Roman-72"/>
      <use x="635.955078125" xlink:href="#BitstreamVeraSans-Roman-6f"/>
     </g>
    </g>
    <g id="line2d_47">
     <path d="M 579.1 138.192656 
L 594.5 138.192656 
" style="fill:none;stroke:#00d594;stroke-linecap:square;"/>
    </g>
    <g id="line2d_48"/>
    <g id="text_23">
     <!-- lumped translim -->
     <g transform="translate(606.6 142.04265625)scale(0.11 -0.11)">
      <use xlink:href="#BitstreamVeraSans-Roman-6c"/>
      <use x="27.783203125" xlink:href="#BitstreamVeraSans-Roman-75"/>
      <use x="91.162109375" xlink:href="#BitstreamVeraSans-Roman-6d"/>
      <use x="188.57421875" xlink:href="#BitstreamVeraSans-Roman-70"/>
      <use x="252.05078125" xlink:href="#BitstreamVeraSans-Roman-65"/>
      <use x="313.57421875" xlink:href="#BitstreamVeraSans-Roman-64"/>
      <use x="377.05078125" xlink:href="#BitstreamVeraSans-Roman-20"/>
      <use x="408.837890625" xlink:href="#BitstreamVeraSans-Roman-74"/>
      <use x="448.046875" xlink:href="#BitstreamVeraSans-Roman-72"/>
      <use x="489.16015625" xlink:href="#BitstreamVeraSans-Roman-61"/>
      <use x="550.439453125" xlink:href="#BitstreamVeraSans-Roman-6e"/>
      <use x="613.818359375" xlink:href="#BitstreamVeraSans-Roman-73"/>
      <use x="665.91796875" xlink:href="#BitstreamVeraSans-Roman-6c"/>
      <use x="693.701171875" xlink:href="#BitstreamVeraSans-Roman-69"/>
      <use x="721.484375" xlink:href="#BitstreamVeraSans-Roman-6d"/>
     </g>
    </g>
   </g>
  </g>
  <g id="axes_2">
   <g id="patch_8">
    <path d="M 355.42 275.6425 
L 556.3 275.6425 
L 556.3 24.5425 
L 355.42 24.5425 
z
" style="fill:#ffffff;"/>
   </g>
   <g id="line2d_49">
    <path clip-path="url(#p5e48e95257)" d="M 426.142846 397.9125 
L 430.75 318.644032 
L 439.12 196.508716 
L 447.49 101.851746 
L 455.86 97.171861 
L 464.23 127.555647 
L 472.6 183.350046 
L 480.97 245.598787 
L 489.34 295.62526 
L 497.71 346.666625 
L 506.702328 397.9125 
L 506.702328 397.9125 
" style="fill:none;stroke:#0000ff;stroke-linecap:square;"/>
   </g>
   <g id="line2d_50">
    <path clip-path="url(#p5e48e95257)" d="M 426.873477 397.9125 
L 430.75 331.163254 
L 439.12 183.13849 
L 447.49 93.347562 
L 455.86 76.284208 
L 464.23 112.896308 
L 472.6 164.134991 
L 480.97 227.097956 
L 489.34 281.817459 
L 497.71 333.003679 
L 506.08 379.991035 
L 509.537357 397.9125 
L 509.537357 397.9125 
" style="fill:none;stroke:#002aea;stroke-linecap:square;"/>
   </g>
   <g id="line2d_51">
    <path clip-path="url(#p5e48e95257)" d="M 419.756896 397.9125 
L 422.38 373.861399 
L 430.75 261.84209 
L 439.12 146.564273 
L 447.49 83.511506 
L 455.86 64.144699 
L 464.23 91.567518 
L 472.6 149.721161 
L 480.97 225.355142 
L 489.34 293.288347 
L 497.71 344.875394 
L 506.08 380.702991 
L 508.836295 397.9125 
L 508.836295 397.9125 
" style="fill:none;stroke:#0055d4;stroke-linecap:square;"/>
   </g>
   <g id="line2d_52">
    <path clip-path="url(#p5e48e95257)" d="M 428.89504 397.9125 
L 430.75 378.507268 
L 439.12 332.773207 
L 447.49 309.141902 
L 455.86 291.436539 
L 464.23 257.706933 
L 472.6 247.73646 
L 480.97 301.446637 
L 489.34 340.807022 
L 497.71 379.289578 
L 501.531634 397.9125 
L 501.531634 397.9125 
" style="fill:none;stroke:#0080bf;stroke-linecap:square;"/>
   </g>
   <g id="line2d_53">
    <path clip-path="url(#p5e48e95257)" d="M 430.331868 397.9125 
L 430.75 393.574026 
L 439.12 333.437647 
L 447.49 300.236079 
L 455.86 285.386896 
L 472.6 244.244332 
L 480.97 272.394413 
L 489.34 312.246653 
L 497.71 354.366012 
L 505.819126 397.9125 
L 505.819126 397.9125 
" style="fill:none;stroke:#00aaaa;stroke-linecap:square;"/>
   </g>
   <g id="line2d_54">
    <path clip-path="url(#p5e48e95257)" d="M 425.708512 397.9125 
L 430.75 376.444226 
L 439.12 317.973344 
L 447.49 266.33026 
L 455.86 236.921277 
L 464.23 197.583277 
L 472.6 184.361858 
L 489.34 305.294142 
L 504.620905 397.9125 
L 504.620905 397.9125 
" style="fill:none;stroke:#00d594;stroke-linecap:square;"/>
   </g>
   <g id="patch_9">
    <path d="M 355.42 24.5425 
L 556.3 24.5425 
" style="fill:none;stroke:#000000;stroke-linecap:square;stroke-linejoin:miter;"/>
   </g>
   <g id="patch_10">
    <path d="M 556.3 275.6425 
L 556.3 24.5425 
" style="fill:none;stroke:#000000;stroke-linecap:square;stroke-linejoin:miter;"/>
   </g>
   <g id="patch_11">
    <path d="M 355.42 275.6425 
L 556.3 275.6425 
" style="fill:none;stroke:#000000;stroke-linecap:square;stroke-linejoin:miter;"/>
   </g>
   <g id="patch_12">
    <path d="M 355.42 275.6425 
L 355.42 24.5425 
" style="fill:none;stroke:#000000;stroke-linecap:square;stroke-linejoin:miter;"/>
   </g>
   <g id="matplotlib.axis_3">
    <g id="xtick_7">
     <g id="line2d_55">
      <g>
       <use style="stroke:#000000;stroke-width:0.5;" x="355.42" xlink:href="#mb6b8ec9e1e" y="275.6425"/>
      </g>
     </g>
     <g id="line2d_56">
      <g>
       <use style="stroke:#000000;stroke-width:0.5;" x="355.42" xlink:href="#mc08db42655" y="24.5425"/>
      </g>
     </g>
    </g>
    <g id="xtick_8">
     <g id="line2d_57">
      <g>
       <use style="stroke:#000000;stroke-width:0.5;" x="405.64" xlink:href="#mb6b8ec9e1e" y="275.6425"/>
      </g>
     </g>
     <g id="line2d_58">
      <g>
       <use style="stroke:#000000;stroke-width:0.5;" x="405.64" xlink:href="#mc08db42655" y="24.5425"/>
      </g>
     </g>
     <g id="text_24">
      <!-- 39.5 -->
      <defs>
       <path d="M 10.984375 1.515625 
L 10.984375 10.5 
Q 14.703125 8.734375 18.5 7.8125 
Q 22.3125 6.890625 25.984375 6.890625 
Q 35.75 6.890625 40.890625 13.453125 
Q 46.046875 20.015625 46.78125 33.40625 
Q 43.953125 29.203125 39.59375 26.953125 
Q 35.25 24.703125 29.984375 24.703125 
Q 19.046875 24.703125 12.671875 31.3125 
Q 6.296875 37.9375 6.296875 49.421875 
Q 6.296875 60.640625 12.9375 67.421875 
Q 19.578125 74.21875 30.609375 74.21875 
Q 43.265625 74.21875 49.921875 64.515625 
Q 56.59375 54.828125 56.59375 36.375 
Q 56.59375 19.140625 48.40625 8.859375 
Q 40.234375 -1.421875 26.421875 -1.421875 
Q 22.703125 -1.421875 18.890625 -0.6875 
Q 15.09375 0.046875 10.984375 1.515625 
M 30.609375 32.421875 
Q 37.25 32.421875 41.125 36.953125 
Q 45.015625 41.5 45.015625 49.421875 
Q 45.015625 57.28125 41.125 61.84375 
Q 37.25 66.40625 30.609375 66.40625 
Q 23.96875 66.40625 20.09375 61.84375 
Q 16.21875 57.28125 16.21875 49.421875 
Q 16.21875 41.5 20.09375 36.953125 
Q 23.96875 32.421875 30.609375 32.421875 
" id="BitstreamVeraSans-Roman-39"/>
       <path d="M 10.6875 12.40625 
L 21 12.40625 
L 21 0 
L 10.6875 0 
z
" id="BitstreamVeraSans-Roman-2e"/>
       <path d="M 10.796875 72.90625 
L 49.515625 72.90625 
L 49.515625 64.59375 
L 19.828125 64.59375 
L 19.828125 46.734375 
Q 21.96875 47.46875 24.109375 47.828125 
Q 26.265625 48.1875 28.421875 48.1875 
Q 40.625 48.1875 47.75 41.5 
Q 54.890625 34.8125 54.890625 23.390625 
Q 54.890625 11.625 47.5625 5.09375 
Q 40.234375 -1.421875 26.90625 -1.421875 
Q 22.3125 -1.421875 17.546875 -0.640625 
Q 12.796875 0.140625 7.71875 1.703125 
L 7.71875 11.625 
Q 12.109375 9.234375 16.796875 8.0625 
Q 21.484375 6.890625 26.703125 6.890625 
Q 35.15625 6.890625 40.078125 11.328125 
Q 45.015625 15.765625 45.015625 23.390625 
Q 45.015625 31 40.078125 35.4375 
Q 35.15625 39.890625 26.703125 39.890625 
Q 22.75 39.890625 18.8125 39.015625 
Q 14.890625 38.140625 10.796875 36.28125 
z
" id="BitstreamVeraSans-Roman-35"/>
      </defs>
      <g transform="translate(387.8275 291.8)scale(0.16 -0.16)">
       <use xlink:href="#BitstreamVeraSans-Roman-33"/>
       <use x="63.623046875" xlink:href="#BitstreamVeraSans-Roman-39"/>
       <use x="127.24609375" xlink:href="#BitstreamVeraSans-Roman-2e"/>
       <use x="159.033203125" xlink:href="#BitstreamVeraSans-Roman-35"/>
      </g>
     </g>
    </g>
    <g id="xtick_9">
     <g id="line2d_59">
      <g>
       <use style="stroke:#000000;stroke-width:0.5;" x="455.86" xlink:href="#mb6b8ec9e1e" y="275.6425"/>
      </g>
     </g>
     <g id="line2d_60">
      <g>
       <use style="stroke:#000000;stroke-width:0.5;" x="455.86" xlink:href="#mc08db42655" y="24.5425"/>
      </g>
     </g>
     <g id="text_25">
      <!-- 40.0 -->
      <g transform="translate(438.0475 291.8)scale(0.16 -0.16)">
       <use xlink:href="#BitstreamVeraSans-Roman-34"/>
       <use x="63.623046875" xlink:href="#BitstreamVeraSans-Roman-30"/>
       <use x="127.24609375" xlink:href="#BitstreamVeraSans-Roman-2e"/>
       <use x="159.033203125" xlink:href="#BitstreamVeraSans-Roman-30"/>
      </g>
     </g>
    </g>
    <g id="xtick_10">
     <g id="line2d_61">
      <g>
       <use style="stroke:#000000;stroke-width:0.5;" x="506.08" xlink:href="#mb6b8ec9e1e" y="275.6425"/>
      </g>
     </g>
     <g id="line2d_62">
      <g>
       <use style="stroke:#000000;stroke-width:0.5;" x="506.08" xlink:href="#mc08db42655" y="24.5425"/>
      </g>
     </g>
     <g id="text_26">
      <!-- 40.5 -->
      <g transform="translate(488.2675 291.8)scale(0.16 -0.16)">
       <use xlink:href="#BitstreamVeraSans-Roman-34"/>
       <use x="63.623046875" xlink:href="#BitstreamVeraSans-Roman-30"/>
       <use x="127.24609375" xlink:href="#BitstreamVeraSans-Roman-2e"/>
       <use x="159.033203125" xlink:href="#BitstreamVeraSans-Roman-35"/>
      </g>
     </g>
    </g>
    <g id="xtick_11">
     <g id="line2d_63">
      <g>
       <use style="stroke:#000000;stroke-width:0.5;" x="556.3" xlink:href="#mb6b8ec9e1e" y="275.6425"/>
      </g>
     </g>
     <g id="line2d_64">
      <g>
       <use style="stroke:#000000;stroke-width:0.5;" x="556.3" xlink:href="#mc08db42655" y="24.5425"/>
      </g>
     </g>
    </g>
   </g>
   <g id="matplotlib.axis_4">
    <g id="ytick_10">
     <g id="line2d_65">
      <g>
       <use style="stroke:#000000;stroke-width:0.5;" x="355.42" xlink:href="#m1d880a9c5a" y="275.6425"/>
      </g>
     </g>
     <g id="line2d_66">
      <g>
       <use style="stroke:#000000;stroke-width:0.5;" x="556.3" xlink:href="#m41428c152a" y="275.6425"/>
      </g>
     </g>
     <g id="text_27">
      <!-- 100 -->
      <g transform="translate(320.88 280.0575)scale(0.16 -0.16)">
       <use xlink:href="#BitstreamVeraSans-Roman-31"/>
       <use x="63.623046875" xlink:href="#BitstreamVeraSans-Roman-30"/>
       <use x="127.24609375" xlink:href="#BitstreamVeraSans-Roman-30"/>
      </g>
     </g>
    </g>
    <g id="ytick_11">
     <g id="line2d_67">
      <g>
       <use style="stroke:#000000;stroke-width:0.5;" x="355.42" xlink:href="#m1d880a9c5a" y="233.7925"/>
      </g>
     </g>
     <g id="line2d_68">
      <g>
       <use style="stroke:#000000;stroke-width:0.5;" x="556.3" xlink:href="#m41428c152a" y="233.7925"/>
      </g>
     </g>
     <g id="text_28">
      <!-- 110 -->
      <g transform="translate(320.88 238.2075)scale(0.16 -0.16)">
       <use xlink:href="#BitstreamVeraSans-Roman-31"/>
       <use x="63.623046875" xlink:href="#BitstreamVeraSans-Roman-31"/>
       <use x="127.24609375" xlink:href="#BitstreamVeraSans-Roman-30"/>
      </g>
     </g>
    </g>
    <g id="ytick_12">
     <g id="line2d_69">
      <g>
       <use style="stroke:#000000;stroke-width:0.5;" x="355.42" xlink:href="#m1d880a9c5a" y="191.9425"/>
      </g>
     </g>
     <g id="line2d_70">
      <g>
       <use style="stroke:#000000;stroke-width:0.5;" x="556.3" xlink:href="#m41428c152a" y="191.9425"/>
      </g>
     </g>
     <g id="text_29">
      <!-- 120 -->
      <g transform="translate(320.88 196.3575)scale(0.16 -0.16)">
       <use xlink:href="#BitstreamVeraSans-Roman-31"/>
       <use x="63.623046875" xlink:href="#BitstreamVeraSans-Roman-32"/>
       <use x="127.24609375" xlink:href="#BitstreamVeraSans-Roman-30"/>
      </g>
     </g>
    </g>
    <g id="ytick_13">
     <g id="line2d_71">
      <g>
       <use style="stroke:#000000;stroke-width:0.5;" x="355.42" xlink:href="#m1d880a9c5a" y="150.0925"/>
      </g>
     </g>
     <g id="line2d_72">
      <g>
       <use style="stroke:#000000;stroke-width:0.5;" x="556.3" xlink:href="#m41428c152a" y="150.0925"/>
      </g>
     </g>
     <g id="text_30">
      <!-- 130 -->
      <g transform="translate(320.88 154.5075)scale(0.16 -0.16)">
       <use xlink:href="#BitstreamVeraSans-Roman-31"/>
       <use x="63.623046875" xlink:href="#BitstreamVeraSans-Roman-33"/>
       <use x="127.24609375" xlink:href="#BitstreamVeraSans-Roman-30"/>
      </g>
     </g>
    </g>
    <g id="ytick_14">
     <g id="line2d_73">
      <g>
       <use style="stroke:#000000;stroke-width:0.5;" x="355.42" xlink:href="#m1d880a9c5a" y="108.2425"/>
      </g>
     </g>
     <g id="line2d_74">
      <g>
       <use style="stroke:#000000;stroke-width:0.5;" x="556.3" xlink:href="#m41428c152a" y="108.2425"/>
      </g>
     </g>
     <g id="text_31">
      <!-- 140 -->
      <g transform="translate(320.88 112.6575)scale(0.16 -0.16)">
       <use xlink:href="#BitstreamVeraSans-Roman-31"/>
       <use x="63.623046875" xlink:href="#BitstreamVeraSans-Roman-34"/>
       <use x="127.24609375" xlink:href="#BitstreamVeraSans-Roman-30"/>
      </g>
     </g>
    </g>
    <g id="ytick_15">
     <g id="line2d_75">
      <g>
       <use style="stroke:#000000;stroke-width:0.5;" x="355.42" xlink:href="#m1d880a9c5a" y="66.3925"/>
      </g>
     </g>
     <g id="line2d_76">
      <g>
       <use style="stroke:#000000;stroke-width:0.5;" x="556.3" xlink:href="#m41428c152a" y="66.3925"/>
      </g>
     </g>
     <g id="text_32">
      <!-- 150 -->
      <g transform="translate(320.88 70.8075)scale(0.16 -0.16)">
       <use xlink:href="#BitstreamVeraSans-Roman-31"/>
       <use x="63.623046875" xlink:href="#BitstreamVeraSans-Roman-35"/>
       <use x="127.24609375" xlink:href="#BitstreamVeraSans-Roman-30"/>
      </g>
     </g>
    </g>
    <g id="ytick_16">
     <g id="line2d_77">
      <g>
       <use style="stroke:#000000;stroke-width:0.5;" x="355.42" xlink:href="#m1d880a9c5a" y="24.5425"/>
      </g>
     </g>
     <g id="line2d_78">
      <g>
       <use style="stroke:#000000;stroke-width:0.5;" x="556.3" xlink:href="#m41428c152a" y="24.5425"/>
      </g>
     </g>
     <g id="text_33">
      <!-- 160 -->
      <g transform="translate(320.88 28.9575)scale(0.16 -0.16)">
       <use xlink:href="#BitstreamVeraSans-Roman-31"/>
       <use x="63.623046875" xlink:href="#BitstreamVeraSans-Roman-36"/>
       <use x="127.24609375" xlink:href="#BitstreamVeraSans-Roman-30"/>
      </g>
     </g>
    </g>
   </g>
  </g>
 </g>
 <defs>
  <clipPath id="p5e48e95257">
   <rect height="251.1" width="200.88" x="355.42" y="24.5425"/>
  </clipPath>
  <clipPath id="pbb48497538">
   <rect height="334.8" width="502.2" x="63.7" y="14.9425"/>
  </clipPath>
 </defs>
</svg>
