<?xml version="1.0" encoding="utf-8" standalone="no"?>
<!DOCTYPE svg PUBLIC "-//W3C//DTD SVG 1.1//EN"
  "http://www.w3.org/Graphics/SVG/1.1/DTD/svg11.dtd">
<!-- Created with matplotlib (http://matplotlib.org/) -->
<svg height="396pt" version="1.1" viewBox="0 0 717 396" width="717pt" xmlns="http://www.w3.org/2000/svg" xmlns:xlink="http://www.w3.org/1999/xlink">
 <defs>
  <style type="text/css">
*{stroke-linecap:butt;stroke-linejoin:round;stroke-miterlimit:100000;}
  </style>
 </defs>
 <g id="figure_1">
  <g id="patch_1">
   <path d="M 0 396.9125 
L 717.506562 396.9125 
L 717.506562 0 
L 0 0 
z
" style="fill:#ffffff;"/>
  </g>
  <g id="axes_1">
   <g id="patch_2">
    <path d="M 62.58 349.7425 
L 564.78 349.7425 
L 564.78 14.9425 
L 62.58 14.9425 
z
" style="fill:#ffffff;"/>
   </g>
   <g id="line2d_1">
    <path clip-path="url(#p8f2160cee2)" d="M -1 349.742486 
L 125.355 349.736728 
L 129.54 346.306596 
L 133.725 344.631699 
L 137.91 344.988598 
L 142.095 342.911129 
L 146.28 342.278781 
L 150.465 341.837608 
L 158.835 334.150778 
L 167.205 335.877447 
L 171.39 337.637442 
L 175.575 339.20123 
L 179.76 341.219554 
L 183.945 342.905617 
L 188.13 344.076358 
L 192.315 344.937973 
L 196.5 346.175114 
L 200.685 346.436528 
L 204.87 347.270064 
L 221.61 348.386849 
L 225.795 347.708008 
L 229.98 348.217374 
L 234.165 347.942539 
L 242.535 348.540941 
L 246.72 348.467321 
L 259.275 348.791157 
L 263.46 349.183693 
L 267.645 349.339508 
L 271.83 349.011526 
L 280.2 349.341874 
L 292.755 349.551822 
L 296.94 349.50183 
L 301.125 349.312707 
L 309.495 349.550766 
L 330.42 349.65872 
L 368.085 349.709375 
L 372.27 349.551927 
L 380.64 349.594824 
L 401.565 349.693276 
L 531.3 349.735518 
L 718.506562 349.741523 
L 718.506562 349.741523 
" style="fill:none;stroke:#e41a1c;stroke-linecap:square;stroke-width:2.0;"/>
   </g>
   <g id="line2d_2">
    <path clip-path="url(#p8f2160cee2)" d="M -1 349.742491 
L 125.355 349.710275 
L 129.54 346.781946 
L 133.725 337.714669 
L 137.91 316.682916 
L 142.095 285.391048 
L 146.28 229.761188 
L 150.465 141.840272 
L 154.65 66.802491 
L 158.835 68.01379 
L 163.02 47.512291 
L 167.205 61.275479 
L 171.39 85.379727 
L 175.575 115.458551 
L 179.76 155.328858 
L 183.945 186.565406 
L 188.13 204.685381 
L 192.315 238.244984 
L 196.5 256.601514 
L 200.685 269.831816 
L 204.87 281.408921 
L 209.055 288.121267 
L 213.24 291.571319 
L 217.425 293.071747 
L 221.61 289.597056 
L 225.795 281.141125 
L 229.98 276.345147 
L 234.165 277.19088 
L 238.35 285.364007 
L 242.535 292.010245 
L 246.72 301.344864 
L 250.905 308.795609 
L 255.09 315.106466 
L 259.275 320.056221 
L 263.46 323.686623 
L 267.645 326.61945 
L 271.83 329.965034 
L 276.015 331.422309 
L 280.2 333.478701 
L 284.385 335.105335 
L 288.57 336.458055 
L 292.755 337.682905 
L 296.94 338.604832 
L 301.125 339.110489 
L 309.495 339.783797 
L 330.42 341.385456 
L 338.79 342.311243 
L 347.16 342.835597 
L 351.345 343.247648 
L 359.715 343.897403 
L 368.085 344.486859 
L 384.825 345.420705 
L 393.195 345.755821 
L 409.935 346.297083 
L 435.045 347.03334 
L 460.155 347.553459 
L 481.08 347.961086 
L 506.19 348.29211 
L 539.67 348.561209 
L 718.506562 349.200426 
L 718.506562 349.200426 
" style="fill:none;stroke:#4eae4b;stroke-linecap:square;stroke-width:2.0;"/>
   </g>
   <g id="line2d_3">
    <path clip-path="url(#p8f2160cee2)" d="M -1 349.742434 
L 29.1 349.704446 
L 37.47 349.280422 
L 58.395 349.250837 
L 79.32 349.31264 
L 91.875 349.074877 
L 100.245 348.731388 
L 104.43 348.524141 
L 112.8 348.437998 
L 116.985 347.968423 
L 121.17 347.155416 
L 125.355 346.980855 
L 129.54 347.200994 
L 137.91 345.905096 
L 142.095 345.997046 
L 146.28 345.015615 
L 150.465 342.587902 
L 154.65 341.385485 
L 158.835 340.699206 
L 163.02 340.452501 
L 167.205 339.87314 
L 171.39 338.579365 
L 175.575 340.779507 
L 179.76 342.278897 
L 183.945 343.405934 
L 188.13 344.22351 
L 192.315 345.379104 
L 196.5 346.260769 
L 200.685 346.821926 
L 204.87 347.205988 
L 209.055 347.89247 
L 213.24 347.313147 
L 217.425 347.791557 
L 221.61 348.077241 
L 225.795 348.036096 
L 229.98 348.152488 
L 234.165 348.386558 
L 238.35 348.31471 
L 242.535 348.674036 
L 246.72 348.625469 
L 255.09 349.24889 
L 259.275 348.931408 
L 263.46 348.951311 
L 267.645 349.282849 
L 276.015 349.499457 
L 280.2 349.211114 
L 296.94 349.589055 
L 313.68 349.651635 
L 317.865 349.456281 
L 322.05 349.37852 
L 330.42 349.562529 
L 351.345 349.66628 
L 443.415 349.731968 
L 485.265 349.705396 
L 489.45 349.600647 
L 531.3 349.717834 
L 718.506562 349.740036 
L 718.506562 349.740036 
" style="fill:none;stroke:#ff8101;stroke-linecap:square;stroke-width:2.0;"/>
   </g>
   <g id="line2d_4">
    <path clip-path="url(#p8f2160cee2)" d="M -1 349.723567 
L 45.84 349.678512 
L 50.025 349.380578 
L 62.58 349.29939 
L 83.505 349.125442 
L 96.06 348.807194 
L 100.245 348.497151 
L 104.43 348.065121 
L 112.8 347.411756 
L 116.985 346.72421 
L 121.17 345.020364 
L 125.355 341.006371 
L 129.54 338.395221 
L 133.725 334.461324 
L 137.91 330.030159 
L 142.095 318.132082 
L 146.28 277.06731 
L 150.465 250.133298 
L 154.65 211.850109 
L 158.835 175.434726 
L 163.02 152.783827 
L 167.205 148.413736 
L 171.39 152.447377 
L 175.575 166.528106 
L 179.76 181.653055 
L 183.945 193.268017 
L 188.13 209.318676 
L 192.315 236.957636 
L 196.5 258.025352 
L 200.685 272.122888 
L 204.87 277.018085 
L 209.055 276.14481 
L 221.61 281.032442 
L 225.795 285.41166 
L 229.98 288.593809 
L 234.165 292.98726 
L 238.35 299.953928 
L 242.535 307.331165 
L 250.905 318.191659 
L 255.09 322.110468 
L 259.275 325.354302 
L 263.46 327.674556 
L 267.645 330.483579 
L 271.83 332.674957 
L 276.015 334.425431 
L 280.2 335.171932 
L 288.57 337.065544 
L 292.755 337.716853 
L 296.94 337.897066 
L 301.125 338.32912 
L 305.31 338.633446 
L 309.495 339.076709 
L 313.68 339.720106 
L 317.865 340.156216 
L 326.235 340.909582 
L 330.42 341.55372 
L 347.16 343.253064 
L 363.9 344.479754 
L 376.455 345.245999 
L 389.01 345.843364 
L 405.75 346.413357 
L 430.86 347.055745 
L 468.525 347.745978 
L 514.56 348.262909 
L 573.15 348.648124 
L 652.665 348.977919 
L 715.44 349.127109 
L 718.506562 349.132141 
L 718.506562 349.132141 
" style="fill:none;stroke:#a8572c;stroke-linecap:square;stroke-width:2.0;"/>
   </g>
   <g id="patch_3">
    <path d="M 62.58 14.9425 
L 564.78 14.9425 
" style="fill:none;stroke:#000000;stroke-linecap:square;stroke-linejoin:miter;"/>
   </g>
   <g id="patch_4">
    <path d="M 564.78 349.7425 
L 564.78 14.9425 
" style="fill:none;stroke:#000000;stroke-linecap:square;stroke-linejoin:miter;"/>
   </g>
   <g id="patch_5">
    <path d="M 62.58 349.7425 
L 564.78 349.7425 
" style="fill:none;stroke:#000000;stroke-linecap:square;stroke-linejoin:miter;"/>
   </g>
   <g id="patch_6">
    <path d="M 62.58 349.7425 
L 62.58 14.9425 
" style="fill:none;stroke:#000000;stroke-linecap:square;stroke-linejoin:miter;"/>
   </g>
   <g id="matplotlib.axis_1">
    <g id="xtick_1">
     <g id="line2d_5">
      <defs>
       <path d="M 0 0 
L 0 -4 
" id="m9e4432c5a2" style="stroke:#000000;stroke-width:0.5;"/>
      </defs>
      <g>
       <use style="stroke:#000000;stroke-width:0.5;" x="62.58" xlink:href="#m9e4432c5a2" y="349.7425"/>
      </g>
     </g>
     <g id="line2d_6">
      <defs>
       <path d="M 0 0 
L 0 4 
" id="m750b5c5dbc" style="stroke:#000000;stroke-width:0.5;"/>
      </defs>
      <g>
       <use style="stroke:#000000;stroke-width:0.5;" x="62.58" xlink:href="#m750b5c5dbc" y="14.9425"/>
      </g>
     </g>
     <g id="text_1">
      <!-- 38 -->
      <defs>
       <path d="M 40.578125 39.3125 
Q 47.65625 37.796875 51.625 33 
Q 55.609375 28.21875 55.609375 21.1875 
Q 55.609375 10.40625 48.1875 4.484375 
Q 40.765625 -1.421875 27.09375 -1.421875 
Q 22.515625 -1.421875 17.65625 -0.515625 
Q 12.796875 0.390625 7.625 2.203125 
L 7.625 11.71875 
Q 11.71875 9.328125 16.59375 8.109375 
Q 21.484375 6.890625 26.8125 6.890625 
Q 36.078125 6.890625 40.9375 10.546875 
Q 45.796875 14.203125 45.796875 21.1875 
Q 45.796875 27.640625 41.28125 31.265625 
Q 36.765625 34.90625 28.71875 34.90625 
L 20.21875 34.90625 
L 20.21875 43.015625 
L 29.109375 43.015625 
Q 36.375 43.015625 40.234375 45.921875 
Q 44.09375 48.828125 44.09375 54.296875 
Q 44.09375 59.90625 40.109375 62.90625 
Q 36.140625 65.921875 28.71875 65.921875 
Q 24.65625 65.921875 20.015625 65.03125 
Q 15.375 64.15625 9.8125 62.3125 
L 9.8125 71.09375 
Q 15.4375 72.65625 20.34375 73.4375 
Q 25.25 74.21875 29.59375 74.21875 
Q 40.828125 74.21875 47.359375 69.109375 
Q 53.90625 64.015625 53.90625 55.328125 
Q 53.90625 49.265625 50.4375 45.09375 
Q 46.96875 40.921875 40.578125 39.3125 
" id="BitstreamVeraSans-Roman-33"/>
       <path d="M 31.78125 34.625 
Q 24.75 34.625 20.71875 30.859375 
Q 16.703125 27.09375 16.703125 20.515625 
Q 16.703125 13.921875 20.71875 10.15625 
Q 24.75 6.390625 31.78125 6.390625 
Q 38.8125 6.390625 42.859375 10.171875 
Q 46.921875 13.96875 46.921875 20.515625 
Q 46.921875 27.09375 42.890625 30.859375 
Q 38.875 34.625 31.78125 34.625 
M 21.921875 38.8125 
Q 15.578125 40.375 12.03125 44.71875 
Q 8.5 49.078125 8.5 55.328125 
Q 8.5 64.0625 14.71875 69.140625 
Q 20.953125 74.21875 31.78125 74.21875 
Q 42.671875 74.21875 48.875 69.140625 
Q 55.078125 64.0625 55.078125 55.328125 
Q 55.078125 49.078125 51.53125 44.71875 
Q 48 40.375 41.703125 38.8125 
Q 48.828125 37.15625 52.796875 32.3125 
Q 56.78125 27.484375 56.78125 20.515625 
Q 56.78125 9.90625 50.3125 4.234375 
Q 43.84375 -1.421875 31.78125 -1.421875 
Q 19.734375 -1.421875 13.25 4.234375 
Q 6.78125 9.90625 6.78125 20.515625 
Q 6.78125 27.484375 10.78125 32.3125 
Q 14.796875 37.15625 21.921875 38.8125 
M 18.3125 54.390625 
Q 18.3125 48.734375 21.84375 45.5625 
Q 25.390625 42.390625 31.78125 42.390625 
Q 38.140625 42.390625 41.71875 45.5625 
Q 45.3125 48.734375 45.3125 54.390625 
Q 45.3125 60.0625 41.71875 63.234375 
Q 38.140625 66.40625 31.78125 66.40625 
Q 25.390625 66.40625 21.84375 63.234375 
Q 18.3125 60.0625 18.3125 54.390625 
" id="BitstreamVeraSans-Roman-38"/>
      </defs>
      <g transform="translate(52.4 365.9)scale(0.16 -0.16)">
       <use xlink:href="#BitstreamVeraSans-Roman-33"/>
       <use x="63.623046875" xlink:href="#BitstreamVeraSans-Roman-38"/>
      </g>
     </g>
    </g>
    <g id="xtick_2">
     <g id="line2d_7">
      <g>
       <use style="stroke:#000000;stroke-width:0.5;" x="163.02" xlink:href="#m9e4432c5a2" y="349.7425"/>
      </g>
     </g>
     <g id="line2d_8">
      <g>
       <use style="stroke:#000000;stroke-width:0.5;" x="163.02" xlink:href="#m750b5c5dbc" y="14.9425"/>
      </g>
     </g>
     <g id="text_2">
      <!-- 40 -->
      <defs>
       <path d="M 31.78125 66.40625 
Q 24.171875 66.40625 20.328125 58.90625 
Q 16.5 51.421875 16.5 36.375 
Q 16.5 21.390625 20.328125 13.890625 
Q 24.171875 6.390625 31.78125 6.390625 
Q 39.453125 6.390625 43.28125 13.890625 
Q 47.125 21.390625 47.125 36.375 
Q 47.125 51.421875 43.28125 58.90625 
Q 39.453125 66.40625 31.78125 66.40625 
M 31.78125 74.21875 
Q 44.046875 74.21875 50.515625 64.515625 
Q 56.984375 54.828125 56.984375 36.375 
Q 56.984375 17.96875 50.515625 8.265625 
Q 44.046875 -1.421875 31.78125 -1.421875 
Q 19.53125 -1.421875 13.0625 8.265625 
Q 6.59375 17.96875 6.59375 36.375 
Q 6.59375 54.828125 13.0625 64.515625 
Q 19.53125 74.21875 31.78125 74.21875 
" id="BitstreamVeraSans-Roman-30"/>
       <path d="M 37.796875 64.3125 
L 12.890625 25.390625 
L 37.796875 25.390625 
z
M 35.203125 72.90625 
L 47.609375 72.90625 
L 47.609375 25.390625 
L 58.015625 25.390625 
L 58.015625 17.1875 
L 47.609375 17.1875 
L 47.609375 0 
L 37.796875 0 
L 37.796875 17.1875 
L 4.890625 17.1875 
L 4.890625 26.703125 
z
" id="BitstreamVeraSans-Roman-34"/>
      </defs>
      <g transform="translate(152.84 365.9)scale(0.16 -0.16)">
       <use xlink:href="#BitstreamVeraSans-Roman-34"/>
       <use x="63.623046875" xlink:href="#BitstreamVeraSans-Roman-30"/>
      </g>
     </g>
    </g>
    <g id="xtick_3">
     <g id="line2d_9">
      <g>
       <use style="stroke:#000000;stroke-width:0.5;" x="263.46" xlink:href="#m9e4432c5a2" y="349.7425"/>
      </g>
     </g>
     <g id="line2d_10">
      <g>
       <use style="stroke:#000000;stroke-width:0.5;" x="263.46" xlink:href="#m750b5c5dbc" y="14.9425"/>
      </g>
     </g>
     <g id="text_3">
      <!-- 42 -->
      <defs>
       <path d="M 19.1875 8.296875 
L 53.609375 8.296875 
L 53.609375 0 
L 7.328125 0 
L 7.328125 8.296875 
Q 12.9375 14.109375 22.625 23.890625 
Q 32.328125 33.6875 34.8125 36.53125 
Q 39.546875 41.84375 41.421875 45.53125 
Q 43.3125 49.21875 43.3125 52.78125 
Q 43.3125 58.59375 39.234375 62.25 
Q 35.15625 65.921875 28.609375 65.921875 
Q 23.96875 65.921875 18.8125 64.3125 
Q 13.671875 62.703125 7.8125 59.421875 
L 7.8125 69.390625 
Q 13.765625 71.78125 18.9375 73 
Q 24.125 74.21875 28.421875 74.21875 
Q 39.75 74.21875 46.484375 68.546875 
Q 53.21875 62.890625 53.21875 53.421875 
Q 53.21875 48.921875 51.53125 44.890625 
Q 49.859375 40.875 45.40625 35.40625 
Q 44.1875 33.984375 37.640625 27.21875 
Q 31.109375 20.453125 19.1875 8.296875 
" id="BitstreamVeraSans-Roman-32"/>
      </defs>
      <g transform="translate(253.28 365.9)scale(0.16 -0.16)">
       <use xlink:href="#BitstreamVeraSans-Roman-34"/>
       <use x="63.623046875" xlink:href="#BitstreamVeraSans-Roman-32"/>
      </g>
     </g>
    </g>
    <g id="xtick_4">
     <g id="line2d_11">
      <g>
       <use style="stroke:#000000;stroke-width:0.5;" x="363.9" xlink:href="#m9e4432c5a2" y="349.7425"/>
      </g>
     </g>
     <g id="line2d_12">
      <g>
       <use style="stroke:#000000;stroke-width:0.5;" x="363.9" xlink:href="#m750b5c5dbc" y="14.9425"/>
      </g>
     </g>
     <g id="text_4">
      <!-- 44 -->
      <g transform="translate(353.72 365.9)scale(0.16 -0.16)">
       <use xlink:href="#BitstreamVeraSans-Roman-34"/>
       <use x="63.623046875" xlink:href="#BitstreamVeraSans-Roman-34"/>
      </g>
     </g>
    </g>
    <g id="xtick_5">
     <g id="line2d_13">
      <g>
       <use style="stroke:#000000;stroke-width:0.5;" x="464.34" xlink:href="#m9e4432c5a2" y="349.7425"/>
      </g>
     </g>
     <g id="line2d_14">
      <g>
       <use style="stroke:#000000;stroke-width:0.5;" x="464.34" xlink:href="#m750b5c5dbc" y="14.9425"/>
      </g>
     </g>
     <g id="text_5">
      <!-- 46 -->
      <defs>
       <path d="M 33.015625 40.375 
Q 26.375 40.375 22.484375 35.828125 
Q 18.609375 31.296875 18.609375 23.390625 
Q 18.609375 15.53125 22.484375 10.953125 
Q 26.375 6.390625 33.015625 6.390625 
Q 39.65625 6.390625 43.53125 10.953125 
Q 47.40625 15.53125 47.40625 23.390625 
Q 47.40625 31.296875 43.53125 35.828125 
Q 39.65625 40.375 33.015625 40.375 
M 52.59375 71.296875 
L 52.59375 62.3125 
Q 48.875 64.0625 45.09375 64.984375 
Q 41.3125 65.921875 37.59375 65.921875 
Q 27.828125 65.921875 22.671875 59.328125 
Q 17.53125 52.734375 16.796875 39.40625 
Q 19.671875 43.65625 24.015625 45.921875 
Q 28.375 48.1875 33.59375 48.1875 
Q 44.578125 48.1875 50.953125 41.515625 
Q 57.328125 34.859375 57.328125 23.390625 
Q 57.328125 12.15625 50.6875 5.359375 
Q 44.046875 -1.421875 33.015625 -1.421875 
Q 20.359375 -1.421875 13.671875 8.265625 
Q 6.984375 17.96875 6.984375 36.375 
Q 6.984375 53.65625 15.1875 63.9375 
Q 23.390625 74.21875 37.203125 74.21875 
Q 40.921875 74.21875 44.703125 73.484375 
Q 48.484375 72.75 52.59375 71.296875 
" id="BitstreamVeraSans-Roman-36"/>
      </defs>
      <g transform="translate(454.16 365.9)scale(0.16 -0.16)">
       <use xlink:href="#BitstreamVeraSans-Roman-34"/>
       <use x="63.623046875" xlink:href="#BitstreamVeraSans-Roman-36"/>
      </g>
     </g>
    </g>
    <g id="xtick_6">
     <g id="line2d_15">
      <g>
       <use style="stroke:#000000;stroke-width:0.5;" x="564.78" xlink:href="#m9e4432c5a2" y="349.7425"/>
      </g>
     </g>
     <g id="line2d_16">
      <g>
       <use style="stroke:#000000;stroke-width:0.5;" x="564.78" xlink:href="#m750b5c5dbc" y="14.9425"/>
      </g>
     </g>
     <g id="text_6">
      <!-- 48 -->
      <g transform="translate(554.6 365.9)scale(0.16 -0.16)">
       <use xlink:href="#BitstreamVeraSans-Roman-34"/>
       <use x="63.623046875" xlink:href="#BitstreamVeraSans-Roman-38"/>
      </g>
     </g>
    </g>
    <g id="text_7">
     <!-- simulation time (hours) -->
     <defs>
      <path id="BitstreamVeraSans-Roman-20"/>
      <path d="M 54.890625 33.015625 
L 54.890625 0 
L 45.90625 0 
L 45.90625 32.71875 
Q 45.90625 40.484375 42.875 44.328125 
Q 39.84375 48.1875 33.796875 48.1875 
Q 26.515625 48.1875 22.3125 43.546875 
Q 18.109375 38.921875 18.109375 30.90625 
L 18.109375 0 
L 9.078125 0 
L 9.078125 54.6875 
L 18.109375 54.6875 
L 18.109375 46.1875 
Q 21.34375 51.125 25.703125 53.5625 
Q 30.078125 56 35.796875 56 
Q 45.21875 56 50.046875 50.171875 
Q 54.890625 44.34375 54.890625 33.015625 
" id="BitstreamVeraSans-Roman-6e"/>
      <path d="M 52 44.1875 
Q 55.375 50.25 60.0625 53.125 
Q 64.75 56 71.09375 56 
Q 79.640625 56 84.28125 50.015625 
Q 88.921875 44.046875 88.921875 33.015625 
L 88.921875 0 
L 79.890625 0 
L 79.890625 32.71875 
Q 79.890625 40.578125 77.09375 44.375 
Q 74.3125 48.1875 68.609375 48.1875 
Q 61.625 48.1875 57.5625 43.546875 
Q 53.515625 38.921875 53.515625 30.90625 
L 53.515625 0 
L 44.484375 0 
L 44.484375 32.71875 
Q 44.484375 40.625 41.703125 44.40625 
Q 38.921875 48.1875 33.109375 48.1875 
Q 26.21875 48.1875 22.15625 43.53125 
Q 18.109375 38.875 18.109375 30.90625 
L 18.109375 0 
L 9.078125 0 
L 9.078125 54.6875 
L 18.109375 54.6875 
L 18.109375 46.1875 
Q 21.1875 51.21875 25.484375 53.609375 
Q 29.78125 56 35.6875 56 
Q 41.65625 56 45.828125 52.96875 
Q 50 49.953125 52 44.1875 
" id="BitstreamVeraSans-Roman-6d"/>
      <path d="M 30.609375 48.390625 
Q 23.390625 48.390625 19.1875 42.75 
Q 14.984375 37.109375 14.984375 27.296875 
Q 14.984375 17.484375 19.15625 11.84375 
Q 23.34375 6.203125 30.609375 6.203125 
Q 37.796875 6.203125 41.984375 11.859375 
Q 46.1875 17.53125 46.1875 27.296875 
Q 46.1875 37.015625 41.984375 42.703125 
Q 37.796875 48.390625 30.609375 48.390625 
M 30.609375 56 
Q 42.328125 56 49.015625 48.375 
Q 55.71875 40.765625 55.71875 27.296875 
Q 55.71875 13.875 49.015625 6.21875 
Q 42.328125 -1.421875 30.609375 -1.421875 
Q 18.84375 -1.421875 12.171875 6.21875 
Q 5.515625 13.875 5.515625 27.296875 
Q 5.515625 40.765625 12.171875 48.375 
Q 18.84375 56 30.609375 56 
" id="BitstreamVeraSans-Roman-6f"/>
      <path d="M 9.421875 75.984375 
L 18.40625 75.984375 
L 18.40625 0 
L 9.421875 0 
z
" id="BitstreamVeraSans-Roman-6c"/>
      <path d="M 8.015625 75.875 
L 15.828125 75.875 
Q 23.140625 64.359375 26.78125 53.3125 
Q 30.421875 42.28125 30.421875 31.390625 
Q 30.421875 20.453125 26.78125 9.375 
Q 23.140625 -1.703125 15.828125 -13.1875 
L 8.015625 -13.1875 
Q 14.5 -2 17.703125 9.0625 
Q 20.90625 20.125 20.90625 31.390625 
Q 20.90625 42.671875 17.703125 53.65625 
Q 14.5 64.65625 8.015625 75.875 
" id="BitstreamVeraSans-Roman-29"/>
      <path d="M 9.421875 54.6875 
L 18.40625 54.6875 
L 18.40625 0 
L 9.421875 0 
z
M 9.421875 75.984375 
L 18.40625 75.984375 
L 18.40625 64.59375 
L 9.421875 64.59375 
z
" id="BitstreamVeraSans-Roman-69"/>
      <path d="M 54.890625 33.015625 
L 54.890625 0 
L 45.90625 0 
L 45.90625 32.71875 
Q 45.90625 40.484375 42.875 44.328125 
Q 39.84375 48.1875 33.796875 48.1875 
Q 26.515625 48.1875 22.3125 43.546875 
Q 18.109375 38.921875 18.109375 30.90625 
L 18.109375 0 
L 9.078125 0 
L 9.078125 75.984375 
L 18.109375 75.984375 
L 18.109375 46.1875 
Q 21.34375 51.125 25.703125 53.5625 
Q 30.078125 56 35.796875 56 
Q 45.21875 56 50.046875 50.171875 
Q 54.890625 44.34375 54.890625 33.015625 
" id="BitstreamVeraSans-Roman-68"/>
      <path d="M 41.109375 46.296875 
Q 39.59375 47.171875 37.8125 47.578125 
Q 36.03125 48 33.890625 48 
Q 26.265625 48 22.1875 43.046875 
Q 18.109375 38.09375 18.109375 28.8125 
L 18.109375 0 
L 9.078125 0 
L 9.078125 54.6875 
L 18.109375 54.6875 
L 18.109375 46.1875 
Q 20.953125 51.171875 25.484375 53.578125 
Q 30.03125 56 36.53125 56 
Q 37.453125 56 38.578125 55.875 
Q 39.703125 55.765625 41.0625 55.515625 
z
" id="BitstreamVeraSans-Roman-72"/>
      <path d="M 31 75.875 
Q 24.46875 64.65625 21.28125 53.65625 
Q 18.109375 42.671875 18.109375 31.390625 
Q 18.109375 20.125 21.3125 9.0625 
Q 24.515625 -2 31 -13.1875 
L 23.1875 -13.1875 
Q 15.875 -1.703125 12.234375 9.375 
Q 8.59375 20.453125 8.59375 31.390625 
Q 8.59375 42.28125 12.203125 53.3125 
Q 15.828125 64.359375 23.1875 75.875 
z
" id="BitstreamVeraSans-Roman-28"/>
      <path d="M 56.203125 29.59375 
L 56.203125 25.203125 
L 14.890625 25.203125 
Q 15.484375 15.921875 20.484375 11.0625 
Q 25.484375 6.203125 34.421875 6.203125 
Q 39.59375 6.203125 44.453125 7.46875 
Q 49.3125 8.734375 54.109375 11.28125 
L 54.109375 2.78125 
Q 49.265625 0.734375 44.1875 -0.34375 
Q 39.109375 -1.421875 33.890625 -1.421875 
Q 20.796875 -1.421875 13.15625 6.1875 
Q 5.515625 13.8125 5.515625 26.8125 
Q 5.515625 40.234375 12.765625 48.109375 
Q 20.015625 56 32.328125 56 
Q 43.359375 56 49.78125 48.890625 
Q 56.203125 41.796875 56.203125 29.59375 
M 47.21875 32.234375 
Q 47.125 39.59375 43.09375 43.984375 
Q 39.0625 48.390625 32.421875 48.390625 
Q 24.90625 48.390625 20.390625 44.140625 
Q 15.875 39.890625 15.1875 32.171875 
z
" id="BitstreamVeraSans-Roman-65"/>
      <path d="M 18.3125 70.21875 
L 18.3125 54.6875 
L 36.8125 54.6875 
L 36.8125 47.703125 
L 18.3125 47.703125 
L 18.3125 18.015625 
Q 18.3125 11.328125 20.140625 9.421875 
Q 21.96875 7.515625 27.59375 7.515625 
L 36.8125 7.515625 
L 36.8125 0 
L 27.59375 0 
Q 17.1875 0 13.234375 3.875 
Q 9.28125 7.765625 9.28125 18.015625 
L 9.28125 47.703125 
L 2.6875 47.703125 
L 2.6875 54.6875 
L 9.28125 54.6875 
L 9.28125 70.21875 
z
" id="BitstreamVeraSans-Roman-74"/>
      <path d="M 8.5 21.578125 
L 8.5 54.6875 
L 17.484375 54.6875 
L 17.484375 21.921875 
Q 17.484375 14.15625 20.5 10.265625 
Q 23.53125 6.390625 29.59375 6.390625 
Q 36.859375 6.390625 41.078125 11.03125 
Q 45.3125 15.671875 45.3125 23.6875 
L 45.3125 54.6875 
L 54.296875 54.6875 
L 54.296875 0 
L 45.3125 0 
L 45.3125 8.40625 
Q 42.046875 3.421875 37.71875 1 
Q 33.40625 -1.421875 27.6875 -1.421875 
Q 18.265625 -1.421875 13.375 4.4375 
Q 8.5 10.296875 8.5 21.578125 
" id="BitstreamVeraSans-Roman-75"/>
      <path d="M 34.28125 27.484375 
Q 23.390625 27.484375 19.1875 25 
Q 14.984375 22.515625 14.984375 16.5 
Q 14.984375 11.71875 18.140625 8.90625 
Q 21.296875 6.109375 26.703125 6.109375 
Q 34.1875 6.109375 38.703125 11.40625 
Q 43.21875 16.703125 43.21875 25.484375 
L 43.21875 27.484375 
z
M 52.203125 31.203125 
L 52.203125 0 
L 43.21875 0 
L 43.21875 8.296875 
Q 40.140625 3.328125 35.546875 0.953125 
Q 30.953125 -1.421875 24.3125 -1.421875 
Q 15.921875 -1.421875 10.953125 3.296875 
Q 6 8.015625 6 15.921875 
Q 6 25.140625 12.171875 29.828125 
Q 18.359375 34.515625 30.609375 34.515625 
L 43.21875 34.515625 
L 43.21875 35.40625 
Q 43.21875 41.609375 39.140625 45 
Q 35.0625 48.390625 27.6875 48.390625 
Q 23 48.390625 18.546875 47.265625 
Q 14.109375 46.140625 10.015625 43.890625 
L 10.015625 52.203125 
Q 14.9375 54.109375 19.578125 55.046875 
Q 24.21875 56 28.609375 56 
Q 40.484375 56 46.34375 49.84375 
Q 52.203125 43.703125 52.203125 31.203125 
" id="BitstreamVeraSans-Roman-61"/>
      <path d="M 44.28125 53.078125 
L 44.28125 44.578125 
Q 40.484375 46.53125 36.375 47.5 
Q 32.28125 48.484375 27.875 48.484375 
Q 21.1875 48.484375 17.84375 46.4375 
Q 14.5 44.390625 14.5 40.28125 
Q 14.5 37.15625 16.890625 35.375 
Q 19.28125 33.59375 26.515625 31.984375 
L 29.59375 31.296875 
Q 39.15625 29.25 43.1875 25.515625 
Q 47.21875 21.78125 47.21875 15.09375 
Q 47.21875 7.46875 41.1875 3.015625 
Q 35.15625 -1.421875 24.609375 -1.421875 
Q 20.21875 -1.421875 15.453125 -0.5625 
Q 10.6875 0.296875 5.421875 2 
L 5.421875 11.28125 
Q 10.40625 8.6875 15.234375 7.390625 
Q 20.0625 6.109375 24.8125 6.109375 
Q 31.15625 6.109375 34.5625 8.28125 
Q 37.984375 10.453125 37.984375 14.40625 
Q 37.984375 18.0625 35.515625 20.015625 
Q 33.0625 21.96875 24.703125 23.78125 
L 21.578125 24.515625 
Q 13.234375 26.265625 9.515625 29.90625 
Q 5.8125 33.546875 5.8125 39.890625 
Q 5.8125 47.609375 11.28125 51.796875 
Q 16.75 56 26.8125 56 
Q 31.78125 56 36.171875 55.265625 
Q 40.578125 54.546875 44.28125 53.078125 
" id="BitstreamVeraSans-Roman-73"/>
     </defs>
     <g transform="translate(220.08625 386.385)scale(0.16 -0.16)">
      <use xlink:href="#BitstreamVeraSans-Roman-73"/>
      <use x="52.099609375" xlink:href="#BitstreamVeraSans-Roman-69"/>
      <use x="79.8828125" xlink:href="#BitstreamVeraSans-Roman-6d"/>
      <use x="177.294921875" xlink:href="#BitstreamVeraSans-Roman-75"/>
      <use x="240.673828125" xlink:href="#BitstreamVeraSans-Roman-6c"/>
      <use x="268.45703125" xlink:href="#BitstreamVeraSans-Roman-61"/>
      <use x="329.736328125" xlink:href="#BitstreamVeraSans-Roman-74"/>
      <use x="368.9453125" xlink:href="#BitstreamVeraSans-Roman-69"/>
      <use x="396.728515625" xlink:href="#BitstreamVeraSans-Roman-6f"/>
      <use x="457.91015625" xlink:href="#BitstreamVeraSans-Roman-6e"/>
      <use x="521.2890625" xlink:href="#BitstreamVeraSans-Roman-20"/>
      <use x="553.076171875" xlink:href="#BitstreamVeraSans-Roman-74"/>
      <use x="592.28515625" xlink:href="#BitstreamVeraSans-Roman-69"/>
      <use x="620.068359375" xlink:href="#BitstreamVeraSans-Roman-6d"/>
      <use x="717.48046875" xlink:href="#BitstreamVeraSans-Roman-65"/>
      <use x="779.00390625" xlink:href="#BitstreamVeraSans-Roman-20"/>
      <use x="810.791015625" xlink:href="#BitstreamVeraSans-Roman-28"/>
      <use x="849.8046875" xlink:href="#BitstreamVeraSans-Roman-68"/>
      <use x="913.18359375" xlink:href="#BitstreamVeraSans-Roman-6f"/>
      <use x="974.365234375" xlink:href="#BitstreamVeraSans-Roman-75"/>
      <use x="1037.74414062" xlink:href="#BitstreamVeraSans-Roman-72"/>
      <use x="1078.85742188" xlink:href="#BitstreamVeraSans-Roman-73"/>
      <use x="1130.95703125" xlink:href="#BitstreamVeraSans-Roman-29"/>
     </g>
    </g>
   </g>
   <g id="matplotlib.axis_2">
    <g id="ytick_1">
     <g id="line2d_17">
      <defs>
       <path d="M 0 0 
L 4 0 
" id="m6bb4a5d898" style="stroke:#000000;stroke-width:0.5;"/>
      </defs>
      <g>
       <use style="stroke:#000000;stroke-width:0.5;" x="62.58" xlink:href="#m6bb4a5d898" y="349.7425"/>
      </g>
     </g>
     <g id="line2d_18">
      <defs>
       <path d="M 0 0 
L -4 0 
" id="mbe526bdb8e" style="stroke:#000000;stroke-width:0.5;"/>
      </defs>
      <g>
       <use style="stroke:#000000;stroke-width:0.5;" x="564.78" xlink:href="#mbe526bdb8e" y="349.7425"/>
      </g>
     </g>
     <g id="text_8">
      <!-- 0 -->
      <g transform="translate(48.4 354.1575)scale(0.16 -0.16)">
       <use xlink:href="#BitstreamVeraSans-Roman-30"/>
      </g>
     </g>
    </g>
    <g id="ytick_2">
     <g id="line2d_19">
      <g>
       <use style="stroke:#000000;stroke-width:0.5;" x="62.58" xlink:href="#m6bb4a5d898" y="293.9425"/>
      </g>
     </g>
     <g id="line2d_20">
      <g>
       <use style="stroke:#000000;stroke-width:0.5;" x="564.78" xlink:href="#mbe526bdb8e" y="293.9425"/>
      </g>
     </g>
     <g id="text_9">
      <!-- 100 -->
      <defs>
       <path d="M 12.40625 8.296875 
L 28.515625 8.296875 
L 28.515625 63.921875 
L 10.984375 60.40625 
L 10.984375 69.390625 
L 28.421875 72.90625 
L 38.28125 72.90625 
L 38.28125 8.296875 
L 54.390625 8.296875 
L 54.390625 0 
L 12.40625 0 
z
" id="BitstreamVeraSans-Roman-31"/>
      </defs>
      <g transform="translate(28.04 298.3575)scale(0.16 -0.16)">
       <use xlink:href="#BitstreamVeraSans-Roman-31"/>
       <use x="63.623046875" xlink:href="#BitstreamVeraSans-Roman-30"/>
       <use x="127.24609375" xlink:href="#BitstreamVeraSans-Roman-30"/>
      </g>
     </g>
    </g>
    <g id="ytick_3">
     <g id="line2d_21">
      <g>
       <use style="stroke:#000000;stroke-width:0.5;" x="62.58" xlink:href="#m6bb4a5d898" y="238.1425"/>
      </g>
     </g>
     <g id="line2d_22">
      <g>
       <use style="stroke:#000000;stroke-width:0.5;" x="564.78" xlink:href="#mbe526bdb8e" y="238.1425"/>
      </g>
     </g>
     <g id="text_10">
      <!-- 200 -->
      <g transform="translate(28.04 242.5575)scale(0.16 -0.16)">
       <use xlink:href="#BitstreamVeraSans-Roman-32"/>
       <use x="63.623046875" xlink:href="#BitstreamVeraSans-Roman-30"/>
       <use x="127.24609375" xlink:href="#BitstreamVeraSans-Roman-30"/>
      </g>
     </g>
    </g>
    <g id="ytick_4">
     <g id="line2d_23">
      <g>
       <use style="stroke:#000000;stroke-width:0.5;" x="62.58" xlink:href="#m6bb4a5d898" y="182.3425"/>
      </g>
     </g>
     <g id="line2d_24">
      <g>
       <use style="stroke:#000000;stroke-width:0.5;" x="564.78" xlink:href="#mbe526bdb8e" y="182.3425"/>
      </g>
     </g>
     <g id="text_11">
      <!-- 300 -->
      <g transform="translate(28.04 186.7575)scale(0.16 -0.16)">
       <use xlink:href="#BitstreamVeraSans-Roman-33"/>
       <use x="63.623046875" xlink:href="#BitstreamVeraSans-Roman-30"/>
       <use x="127.24609375" xlink:href="#BitstreamVeraSans-Roman-30"/>
      </g>
     </g>
    </g>
    <g id="ytick_5">
     <g id="line2d_25">
      <g>
       <use style="stroke:#000000;stroke-width:0.5;" x="62.58" xlink:href="#m6bb4a5d898" y="126.5425"/>
      </g>
     </g>
     <g id="line2d_26">
      <g>
       <use style="stroke:#000000;stroke-width:0.5;" x="564.78" xlink:href="#mbe526bdb8e" y="126.5425"/>
      </g>
     </g>
     <g id="text_12">
      <!-- 400 -->
      <g transform="translate(28.04 130.9575)scale(0.16 -0.16)">
       <use xlink:href="#BitstreamVeraSans-Roman-34"/>
       <use x="63.623046875" xlink:href="#BitstreamVeraSans-Roman-30"/>
       <use x="127.24609375" xlink:href="#BitstreamVeraSans-Roman-30"/>
      </g>
     </g>
    </g>
    <g id="ytick_6">
     <g id="line2d_27">
      <g>
       <use style="stroke:#000000;stroke-width:0.5;" x="62.58" xlink:href="#m6bb4a5d898" y="70.7425"/>
      </g>
     </g>
     <g id="line2d_28">
      <g>
       <use style="stroke:#000000;stroke-width:0.5;" x="564.78" xlink:href="#mbe526bdb8e" y="70.7425"/>
      </g>
     </g>
     <g id="text_13">
      <!-- 500 -->
      <defs>
       <path d="M 10.796875 72.90625 
L 49.515625 72.90625 
L 49.515625 64.59375 
L 19.828125 64.59375 
L 19.828125 46.734375 
Q 21.96875 47.46875 24.109375 47.828125 
Q 26.265625 48.1875 28.421875 48.1875 
Q 40.625 48.1875 47.75 41.5 
Q 54.890625 34.8125 54.890625 23.390625 
Q 54.890625 11.625 47.5625 5.09375 
Q 40.234375 -1.421875 26.90625 -1.421875 
Q 22.3125 -1.421875 17.546875 -0.640625 
Q 12.796875 0.140625 7.71875 1.703125 
L 7.71875 11.625 
Q 12.109375 9.234375 16.796875 8.0625 
Q 21.484375 6.890625 26.703125 6.890625 
Q 35.15625 6.890625 40.078125 11.328125 
Q 45.015625 15.765625 45.015625 23.390625 
Q 45.015625 31 40.078125 35.4375 
Q 35.15625 39.890625 26.703125 39.890625 
Q 22.75 39.890625 18.8125 39.015625 
Q 14.890625 38.140625 10.796875 36.28125 
z
" id="BitstreamVeraSans-Roman-35"/>
      </defs>
      <g transform="translate(28.04 75.1575)scale(0.16 -0.16)">
       <use xlink:href="#BitstreamVeraSans-Roman-35"/>
       <use x="63.623046875" xlink:href="#BitstreamVeraSans-Roman-30"/>
       <use x="127.24609375" xlink:href="#BitstreamVeraSans-Roman-30"/>
      </g>
     </g>
    </g>
    <g id="ytick_7">
     <g id="line2d_29">
      <g>
       <use style="stroke:#000000;stroke-width:0.5;" x="62.58" xlink:href="#m6bb4a5d898" y="14.9425"/>
      </g>
     </g>
     <g id="line2d_30">
      <g>
       <use style="stroke:#000000;stroke-width:0.5;" x="564.78" xlink:href="#mbe526bdb8e" y="14.9425"/>
      </g>
     </g>
     <g id="text_14">
      <!-- 600 -->
      <g transform="translate(28.04 19.3575)scale(0.16 -0.16)">
       <use xlink:href="#BitstreamVeraSans-Roman-36"/>
       <use x="63.623046875" xlink:href="#BitstreamVeraSans-Roman-30"/>
       <use x="127.24609375" xlink:href="#BitstreamVeraSans-Roman-30"/>
      </g>
     </g>
    </g>
    <g id="text_15">
     <!-- sediment flux ($m^3$) -->
     <defs>
      <path d="M 9.515625 7.71875 
Q 11.859375 4.296875 15.8125 2.640625 
Q 19.78125 0.984375 24.3125 0.984375 
Q 30.125 0.984375 32.5625 5.9375 
Q 35.015625 10.890625 35.015625 17.1875 
Q 35.015625 20.015625 34.5 22.84375 
Q 33.984375 25.6875 32.765625 28.125 
Q 31.546875 30.5625 29.421875 32.03125 
Q 27.296875 33.5 24.21875 33.5 
L 17.578125 33.5 
Q 16.703125 33.5 16.703125 34.421875 
L 16.703125 35.296875 
Q 16.703125 36.078125 17.578125 36.078125 
L 23.09375 36.53125 
Q 26.609375 36.53125 28.921875 39.15625 
Q 31.25 41.796875 32.328125 45.578125 
Q 33.40625 49.359375 33.40625 52.78125 
Q 33.40625 57.5625 31.15625 60.640625 
Q 28.90625 63.71875 24.3125 63.71875 
Q 20.515625 63.71875 17.046875 62.28125 
Q 13.578125 60.84375 11.53125 57.90625 
Q 11.71875 57.953125 11.859375 57.984375 
Q 12.015625 58.015625 12.203125 58.015625 
Q 14.453125 58.015625 15.96875 56.453125 
Q 17.484375 54.890625 17.484375 52.6875 
Q 17.484375 50.53125 15.96875 48.96875 
Q 14.453125 47.40625 12.203125 47.40625 
Q 10.015625 47.40625 8.453125 48.96875 
Q 6.890625 50.53125 6.890625 52.6875 
Q 6.890625 56.984375 9.46875 60.15625 
Q 12.0625 63.328125 16.140625 64.96875 
Q 20.21875 66.609375 24.3125 66.609375 
Q 27.34375 66.609375 30.703125 65.703125 
Q 34.078125 64.796875 36.8125 63.109375 
Q 39.546875 61.421875 41.28125 58.78125 
Q 43.015625 56.15625 43.015625 52.78125 
Q 43.015625 48.578125 41.140625 45.015625 
Q 39.265625 41.453125 35.984375 38.859375 
Q 32.71875 36.28125 28.8125 35.015625 
Q 33.15625 34.1875 37.0625 31.734375 
Q 40.96875 29.296875 43.328125 25.484375 
Q 45.703125 21.6875 45.703125 17.28125 
Q 45.703125 11.765625 42.671875 7.296875 
Q 39.65625 2.828125 34.71875 0.3125 
Q 29.78125 -2.203125 24.3125 -2.203125 
Q 19.625 -2.203125 14.90625 -0.40625 
Q 10.203125 1.375 7.203125 4.9375 
Q 4.203125 8.5 4.203125 13.484375 
Q 4.203125 15.96875 5.859375 17.625 
Q 7.515625 19.28125 10.015625 19.28125 
Q 11.625 19.28125 12.96875 18.53125 
Q 14.3125 17.78125 15.0625 16.40625 
Q 15.828125 15.046875 15.828125 13.484375 
Q 15.828125 11.03125 14.109375 9.375 
Q 12.40625 7.71875 10.015625 7.71875 
z
" id="Cmr10-33"/>
      <path d="M 45.40625 46.390625 
L 45.40625 75.984375 
L 54.390625 75.984375 
L 54.390625 0 
L 45.40625 0 
L 45.40625 8.203125 
Q 42.578125 3.328125 38.25 0.953125 
Q 33.9375 -1.421875 27.875 -1.421875 
Q 17.96875 -1.421875 11.734375 6.484375 
Q 5.515625 14.40625 5.515625 27.296875 
Q 5.515625 40.1875 11.734375 48.09375 
Q 17.96875 56 27.875 56 
Q 33.9375 56 38.25 53.625 
Q 42.578125 51.265625 45.40625 46.390625 
M 14.796875 27.296875 
Q 14.796875 17.390625 18.875 11.75 
Q 22.953125 6.109375 30.078125 6.109375 
Q 37.203125 6.109375 41.296875 11.75 
Q 45.40625 17.390625 45.40625 27.296875 
Q 45.40625 37.203125 41.296875 42.84375 
Q 37.203125 48.484375 30.078125 48.484375 
Q 22.953125 48.484375 18.875 42.84375 
Q 14.796875 37.203125 14.796875 27.296875 
" id="BitstreamVeraSans-Roman-64"/>
      <path d="M 37.109375 75.984375 
L 37.109375 68.5 
L 28.515625 68.5 
Q 23.6875 68.5 21.796875 66.546875 
Q 19.921875 64.59375 19.921875 59.515625 
L 19.921875 54.6875 
L 34.71875 54.6875 
L 34.71875 47.703125 
L 19.921875 47.703125 
L 19.921875 0 
L 10.890625 0 
L 10.890625 47.703125 
L 2.296875 47.703125 
L 2.296875 54.6875 
L 10.890625 54.6875 
L 10.890625 58.5 
Q 10.890625 67.625 15.140625 71.796875 
Q 19.390625 75.984375 28.609375 75.984375 
z
" id="BitstreamVeraSans-Roman-66"/>
      <path d="M 7.71875 1.703125 
Q 7.71875 2.296875 7.8125 2.59375 
L 15.28125 32.421875 
Q 16.015625 35.203125 16.015625 37.3125 
Q 16.015625 41.609375 13.09375 41.609375 
Q 9.96875 41.609375 8.453125 37.859375 
Q 6.9375 34.125 5.515625 28.421875 
Q 5.515625 28.125 5.21875 27.953125 
Q 4.9375 27.78125 4.6875 27.78125 
L 3.515625 27.78125 
Q 3.171875 27.78125 2.921875 28.140625 
Q 2.6875 28.515625 2.6875 28.8125 
Q 3.765625 33.15625 4.765625 36.171875 
Q 5.765625 39.203125 7.890625 41.6875 
Q 10.015625 44.1875 13.1875 44.1875 
Q 16.9375 44.1875 19.8125 41.8125 
Q 22.703125 39.453125 22.703125 35.796875 
Q 25.6875 39.703125 29.6875 41.9375 
Q 33.6875 44.1875 38.1875 44.1875 
Q 42.921875 44.1875 46.359375 41.765625 
Q 49.8125 39.359375 49.8125 34.90625 
Q 52.875 39.265625 57 41.71875 
Q 61.140625 44.1875 66.015625 44.1875 
Q 71.1875 44.1875 74.328125 41.375 
Q 77.484375 38.578125 77.484375 33.40625 
Q 77.484375 29.296875 75.65625 23.484375 
Q 73.828125 17.671875 71.09375 10.5 
Q 69.671875 7.03125 69.671875 4.5 
Q 69.671875 1.515625 72.015625 1.515625 
Q 75.921875 1.515625 78.515625 5.703125 
Q 81.109375 9.90625 82.171875 14.703125 
Q 82.46875 15.28125 83.015625 15.28125 
L 84.1875 15.28125 
Q 84.578125 15.28125 84.84375 15.015625 
Q 85.109375 14.75 85.109375 14.40625 
Q 85.109375 14.3125 85.015625 14.109375 
Q 83.640625 8.453125 80.25 3.65625 
Q 76.859375 -1.125 71.78125 -1.125 
Q 68.265625 -1.125 65.765625 1.296875 
Q 63.28125 3.71875 63.28125 7.171875 
Q 63.28125 8.9375 64.109375 11.078125 
Q 66.9375 18.609375 68.8125 24.515625 
Q 70.703125 30.421875 70.703125 34.90625 
Q 70.703125 37.703125 69.578125 39.65625 
Q 68.453125 41.609375 65.828125 41.609375 
Q 60.359375 41.609375 56.34375 38.25 
Q 52.34375 34.90625 49.421875 29.390625 
Q 49.21875 28.421875 49.125 27.875 
L 42.671875 2.203125 
Q 42.328125 0.828125 41.125 -0.140625 
Q 39.9375 -1.125 38.484375 -1.125 
Q 37.3125 -1.125 36.40625 -0.34375 
Q 35.5 0.4375 35.5 1.703125 
Q 35.5 2.296875 35.59375 2.59375 
L 42 28.078125 
Q 43.015625 32.171875 43.015625 34.90625 
Q 43.015625 37.703125 41.859375 39.65625 
Q 40.71875 41.609375 37.984375 41.609375 
Q 34.328125 41.609375 31.25 39.984375 
Q 28.171875 38.375 25.875 35.71875 
Q 23.578125 33.0625 21.6875 29.390625 
L 14.890625 2.203125 
Q 14.546875 0.828125 13.34375 -0.140625 
Q 12.15625 -1.125 10.6875 -1.125 
Q 9.46875 -1.125 8.59375 -0.34375 
Q 7.71875 0.4375 7.71875 1.703125 
" id="Cmmi10-6d"/>
      <path d="M 54.890625 54.6875 
L 35.109375 28.078125 
L 55.90625 0 
L 45.3125 0 
L 29.390625 21.484375 
L 13.484375 0 
L 2.875 0 
L 24.125 28.609375 
L 4.6875 54.6875 
L 15.28125 54.6875 
L 29.78125 35.203125 
L 44.28125 54.6875 
z
" id="BitstreamVeraSans-Roman-78"/>
     </defs>
     <g transform="translate(19.7125 256.7425)rotate(-90.0)scale(0.16 -0.16)">
      <use transform="translate(0.0 0.109375)" xlink:href="#BitstreamVeraSans-Roman-73"/>
      <use transform="translate(52.099609375 0.109375)" xlink:href="#BitstreamVeraSans-Roman-65"/>
      <use transform="translate(113.623046875 0.109375)" xlink:href="#BitstreamVeraSans-Roman-64"/>
      <use transform="translate(177.099609375 0.109375)" xlink:href="#BitstreamVeraSans-Roman-69"/>
      <use transform="translate(204.8828125 0.109375)" xlink:href="#BitstreamVeraSans-Roman-6d"/>
      <use transform="translate(302.294921875 0.109375)" xlink:href="#BitstreamVeraSans-Roman-65"/>
      <use transform="translate(363.818359375 0.109375)" xlink:href="#BitstreamVeraSans-Roman-6e"/>
      <use transform="translate(427.197265625 0.109375)" xlink:href="#BitstreamVeraSans-Roman-74"/>
      <use transform="translate(466.40625 0.109375)" xlink:href="#BitstreamVeraSans-Roman-20"/>
      <use transform="translate(498.193359375 0.109375)" xlink:href="#BitstreamVeraSans-Roman-66"/>
      <use transform="translate(533.3984375 0.109375)" xlink:href="#BitstreamVeraSans-Roman-6c"/>
      <use transform="translate(561.181640625 0.109375)" xlink:href="#BitstreamVeraSans-Roman-75"/>
      <use transform="translate(624.560546875 0.109375)" xlink:href="#BitstreamVeraSans-Roman-78"/>
      <use transform="translate(683.740234375 0.109375)" xlink:href="#BitstreamVeraSans-Roman-20"/>
      <use transform="translate(715.52734375 0.109375)" xlink:href="#BitstreamVeraSans-Roman-28"/>
      <use transform="translate(754.541015625 0.109375)" xlink:href="#Cmmi10-6d"/>
      <use transform="translate(848.637265625 38.3734375)scale(0.7)" xlink:href="#Cmr10-33"/>
      <use transform="translate(890.014609375 0.109375)" xlink:href="#BitstreamVeraSans-Roman-29"/>
     </g>
    </g>
   </g>
   <g id="legend_1">
    <g id="patch_7">
     <path d="M 570.28 132.584375 
L 710.306563 132.584375 
L 710.306563 64.700625 
L 570.28 64.700625 
z
" style="fill:#ffffff;stroke:#000000;stroke-linejoin:miter;"/>
    </g>
    <g id="line2d_31">
     <path d="M 577.98 73.608906 
L 593.38 73.608906 
" style="fill:none;stroke:#e41a1c;stroke-linecap:square;stroke-width:2.0;"/>
    </g>
    <g id="line2d_32"/>
    <g id="text_16">
     <!-- gridded detachlim -->
     <defs>
      <path d="M 45.40625 27.984375 
Q 45.40625 37.75 41.375 43.109375 
Q 37.359375 48.484375 30.078125 48.484375 
Q 22.859375 48.484375 18.828125 43.109375 
Q 14.796875 37.75 14.796875 27.984375 
Q 14.796875 18.265625 18.828125 12.890625 
Q 22.859375 7.515625 30.078125 7.515625 
Q 37.359375 7.515625 41.375 12.890625 
Q 45.40625 18.265625 45.40625 27.984375 
M 54.390625 6.78125 
Q 54.390625 -7.171875 48.1875 -13.984375 
Q 42 -20.796875 29.203125 -20.796875 
Q 24.46875 -20.796875 20.265625 -20.09375 
Q 16.0625 -19.390625 12.109375 -17.921875 
L 12.109375 -9.1875 
Q 16.0625 -11.328125 19.921875 -12.34375 
Q 23.78125 -13.375 27.78125 -13.375 
Q 36.625 -13.375 41.015625 -8.765625 
Q 45.40625 -4.15625 45.40625 5.171875 
L 45.40625 9.625 
Q 42.625 4.78125 38.28125 2.390625 
Q 33.9375 0 27.875 0 
Q 17.828125 0 11.671875 7.65625 
Q 5.515625 15.328125 5.515625 27.984375 
Q 5.515625 40.671875 11.671875 48.328125 
Q 17.828125 56 27.875 56 
Q 33.9375 56 38.28125 53.609375 
Q 42.625 51.21875 45.40625 46.390625 
L 45.40625 54.6875 
L 54.390625 54.6875 
z
" id="BitstreamVeraSans-Roman-67"/>
      <path d="M 48.78125 52.59375 
L 48.78125 44.1875 
Q 44.96875 46.296875 41.140625 47.34375 
Q 37.3125 48.390625 33.40625 48.390625 
Q 24.65625 48.390625 19.8125 42.84375 
Q 14.984375 37.3125 14.984375 27.296875 
Q 14.984375 17.28125 19.8125 11.734375 
Q 24.65625 6.203125 33.40625 6.203125 
Q 37.3125 6.203125 41.140625 7.25 
Q 44.96875 8.296875 48.78125 10.40625 
L 48.78125 2.09375 
Q 45.015625 0.34375 40.984375 -0.53125 
Q 36.96875 -1.421875 32.421875 -1.421875 
Q 20.0625 -1.421875 12.78125 6.34375 
Q 5.515625 14.109375 5.515625 27.296875 
Q 5.515625 40.671875 12.859375 48.328125 
Q 20.21875 56 33.015625 56 
Q 37.15625 56 41.109375 55.140625 
Q 45.0625 54.296875 48.78125 52.59375 
" id="BitstreamVeraSans-Roman-63"/>
     </defs>
     <g transform="translate(605.48 77.45890625)scale(0.11 -0.11)">
      <use xlink:href="#BitstreamVeraSans-Roman-67"/>
      <use x="63.4765625" xlink:href="#BitstreamVeraSans-Roman-72"/>
      <use x="104.58984375" xlink:href="#BitstreamVeraSans-Roman-69"/>
      <use x="132.373046875" xlink:href="#BitstreamVeraSans-Roman-64"/>
      <use x="195.849609375" xlink:href="#BitstreamVeraSans-Roman-64"/>
      <use x="259.326171875" xlink:href="#BitstreamVeraSans-Roman-65"/>
      <use x="320.849609375" xlink:href="#BitstreamVeraSans-Roman-64"/>
      <use x="384.326171875" xlink:href="#BitstreamVeraSans-Roman-20"/>
      <use x="416.11328125" xlink:href="#BitstreamVeraSans-Roman-64"/>
      <use x="479.58984375" xlink:href="#BitstreamVeraSans-Roman-65"/>
      <use x="541.11328125" xlink:href="#BitstreamVeraSans-Roman-74"/>
      <use x="580.322265625" xlink:href="#BitstreamVeraSans-Roman-61"/>
      <use x="641.6015625" xlink:href="#BitstreamVeraSans-Roman-63"/>
      <use x="696.58203125" xlink:href="#BitstreamVeraSans-Roman-68"/>
      <use x="759.9609375" xlink:href="#BitstreamVeraSans-Roman-6c"/>
      <use x="787.744140625" xlink:href="#BitstreamVeraSans-Roman-69"/>
      <use x="815.52734375" xlink:href="#BitstreamVeraSans-Roman-6d"/>
     </g>
    </g>
    <g id="line2d_33">
     <path d="M 577.98 89.754844 
L 593.38 89.754844 
" style="fill:none;stroke:#4eae4b;stroke-linecap:square;stroke-width:2.0;"/>
    </g>
    <g id="line2d_34"/>
    <g id="text_17">
     <!-- gridded translim -->
     <g transform="translate(605.48 93.60484375)scale(0.11 -0.11)">
      <use xlink:href="#BitstreamVeraSans-Roman-67"/>
      <use x="63.4765625" xlink:href="#BitstreamVeraSans-Roman-72"/>
      <use x="104.58984375" xlink:href="#BitstreamVeraSans-Roman-69"/>
      <use x="132.373046875" xlink:href="#BitstreamVeraSans-Roman-64"/>
      <use x="195.849609375" xlink:href="#BitstreamVeraSans-Roman-64"/>
      <use x="259.326171875" xlink:href="#BitstreamVeraSans-Roman-65"/>
      <use x="320.849609375" xlink:href="#BitstreamVeraSans-Roman-64"/>
      <use x="384.326171875" xlink:href="#BitstreamVeraSans-Roman-20"/>
      <use x="416.11328125" xlink:href="#BitstreamVeraSans-Roman-74"/>
      <use x="455.322265625" xlink:href="#BitstreamVeraSans-Roman-72"/>
      <use x="496.435546875" xlink:href="#BitstreamVeraSans-Roman-61"/>
      <use x="557.71484375" xlink:href="#BitstreamVeraSans-Roman-6e"/>
      <use x="621.09375" xlink:href="#BitstreamVeraSans-Roman-73"/>
      <use x="673.193359375" xlink:href="#BitstreamVeraSans-Roman-6c"/>
      <use x="700.9765625" xlink:href="#BitstreamVeraSans-Roman-69"/>
      <use x="728.759765625" xlink:href="#BitstreamVeraSans-Roman-6d"/>
     </g>
    </g>
    <g id="line2d_35">
     <path d="M 577.98 105.900781 
L 593.38 105.900781 
" style="fill:none;stroke:#ff8101;stroke-linecap:square;stroke-width:2.0;"/>
    </g>
    <g id="line2d_36"/>
    <g id="text_18">
     <!-- lumped detachlim -->
     <defs>
      <path d="M 18.109375 8.203125 
L 18.109375 -20.796875 
L 9.078125 -20.796875 
L 9.078125 54.6875 
L 18.109375 54.6875 
L 18.109375 46.390625 
Q 20.953125 51.265625 25.265625 53.625 
Q 29.59375 56 35.59375 56 
Q 45.5625 56 51.78125 48.09375 
Q 58.015625 40.1875 58.015625 27.296875 
Q 58.015625 14.40625 51.78125 6.484375 
Q 45.5625 -1.421875 35.59375 -1.421875 
Q 29.59375 -1.421875 25.265625 0.953125 
Q 20.953125 3.328125 18.109375 8.203125 
M 48.6875 27.296875 
Q 48.6875 37.203125 44.609375 42.84375 
Q 40.53125 48.484375 33.40625 48.484375 
Q 26.265625 48.484375 22.1875 42.84375 
Q 18.109375 37.203125 18.109375 27.296875 
Q 18.109375 17.390625 22.1875 11.75 
Q 26.265625 6.109375 33.40625 6.109375 
Q 40.53125 6.109375 44.609375 11.75 
Q 48.6875 17.390625 48.6875 27.296875 
" id="BitstreamVeraSans-Roman-70"/>
     </defs>
     <g transform="translate(605.48 109.75078125)scale(0.11 -0.11)">
      <use xlink:href="#BitstreamVeraSans-Roman-6c"/>
      <use x="27.783203125" xlink:href="#BitstreamVeraSans-Roman-75"/>
      <use x="91.162109375" xlink:href="#BitstreamVeraSans-Roman-6d"/>
      <use x="188.57421875" xlink:href="#BitstreamVeraSans-Roman-70"/>
      <use x="252.05078125" xlink:href="#BitstreamVeraSans-Roman-65"/>
      <use x="313.57421875" xlink:href="#BitstreamVeraSans-Roman-64"/>
      <use x="377.05078125" xlink:href="#BitstreamVeraSans-Roman-20"/>
      <use x="408.837890625" xlink:href="#BitstreamVeraSans-Roman-64"/>
      <use x="472.314453125" xlink:href="#BitstreamVeraSans-Roman-65"/>
      <use x="533.837890625" xlink:href="#BitstreamVeraSans-Roman-74"/>
      <use x="573.046875" xlink:href="#BitstreamVeraSans-Roman-61"/>
      <use x="634.326171875" xlink:href="#BitstreamVeraSans-Roman-63"/>
      <use x="689.306640625" xlink:href="#BitstreamVeraSans-Roman-68"/>
      <use x="752.685546875" xlink:href="#BitstreamVeraSans-Roman-6c"/>
      <use x="780.46875" xlink:href="#BitstreamVeraSans-Roman-69"/>
      <use x="808.251953125" xlink:href="#BitstreamVeraSans-Roman-6d"/>
     </g>
    </g>
    <g id="line2d_37">
     <path d="M 577.98 122.046719 
L 593.38 122.046719 
" style="fill:none;stroke:#a8572c;stroke-linecap:square;stroke-width:2.0;"/>
    </g>
    <g id="line2d_38"/>
    <g id="text_19">
     <!-- lumped translim -->
     <g transform="translate(605.48 125.89671875)scale(0.11 -0.11)">
      <use xlink:href="#BitstreamVeraSans-Roman-6c"/>
      <use x="27.783203125" xlink:href="#BitstreamVeraSans-Roman-75"/>
      <use x="91.162109375" xlink:href="#BitstreamVeraSans-Roman-6d"/>
      <use x="188.57421875" xlink:href="#BitstreamVeraSans-Roman-70"/>
      <use x="252.05078125" xlink:href="#BitstreamVeraSans-Roman-65"/>
      <use x="313.57421875" xlink:href="#BitstreamVeraSans-Roman-64"/>
      <use x="377.05078125" xlink:href="#BitstreamVeraSans-Roman-20"/>
      <use x="408.837890625" xlink:href="#BitstreamVeraSans-Roman-74"/>
      <use x="448.046875" xlink:href="#BitstreamVeraSans-Roman-72"/>
      <use x="489.16015625" xlink:href="#BitstreamVeraSans-Roman-61"/>
      <use x="550.439453125" xlink:href="#BitstreamVeraSans-Roman-6e"/>
      <use x="613.818359375" xlink:href="#BitstreamVeraSans-Roman-73"/>
      <use x="665.91796875" xlink:href="#BitstreamVeraSans-Roman-6c"/>
      <use x="693.701171875" xlink:href="#BitstreamVeraSans-Roman-69"/>
      <use x="721.484375" xlink:href="#BitstreamVeraSans-Roman-6d"/>
     </g>
    </g>
   </g>
  </g>
  <g id="axes_2">
   <g id="patch_8">
    <path d="M 354.3 136.1425 
L 555.18 136.1425 
L 555.18 24.5425 
L 354.3 24.5425 
z
" style="fill:#ffffff;"/>
   </g>
   <g id="line2d_39">
    <path clip-path="url(#p9ac941e0e0)" d="M -1 136.1425 
L 379.41 136.130955 
L 387.78 129.270691 
L 396.15 125.920898 
L 404.52 126.634696 
L 412.89 122.479757 
L 421.26 121.215062 
L 429.63 120.332716 
L 446.37 104.959057 
L 463.11 108.412395 
L 471.48 111.932385 
L 479.85 115.059959 
L 488.22 119.096608 
L 496.59 122.468733 
L 504.96 124.810216 
L 513.33 126.533446 
L 521.7 129.007729 
L 530.07 129.530556 
L 538.44 131.197628 
L 546.81 131.71373 
L 555.18 132.373627 
L 563.55 132.615271 
L 571.92 133.431198 
L 580.29 132.073515 
L 588.66 133.092248 
L 597.03 132.542578 
L 613.77 133.739382 
L 622.14 133.592141 
L 647.25 134.239815 
L 655.62 135.024886 
L 663.99 135.336516 
L 672.36 134.680552 
L 680.73 135.076754 
L 697.47 135.542306 
L 714.21 135.761144 
L 718.506562 135.709819 
L 718.506562 135.709819 
" style="fill:none;stroke:#e41a1c;stroke-linecap:square;"/>
   </g>
   <g id="line2d_40">
    <path clip-path="url(#p9ac941e0e0)" d="M -1 136.1425 
L 379.41 136.078051 
L 387.78 130.221393 
L 396.15 112.086839 
L 404.52 70.023332 
L 412.89 7.439596 
L 413.524906 -1 
M 538.268169 -1 
L 538.44 -0.524658 
L 546.81 12.900034 
L 555.18 19.800138 
L 563.55 22.800995 
L 571.92 15.851612 
L 580.260182 -1 
M 601.106248 -1 
L 605.4 7.385515 
L 613.77 20.677989 
L 622.14 39.347227 
L 630.51 54.248718 
L 638.88 66.870433 
L 647.25 76.769942 
L 655.62 84.030746 
L 663.99 89.896401 
L 672.36 96.587568 
L 680.73 99.502119 
L 689.1 103.614902 
L 697.47 106.86817 
L 705.84 109.573611 
L 714.21 112.02331 
L 718.506562 112.969814 
L 718.506562 112.969814 
" style="fill:none;stroke:#4eae4b;stroke-linecap:square;"/>
   </g>
   <g id="line2d_41">
    <path clip-path="url(#p9ac941e0e0)" d="M -1 136.142498 
L 186.9 136.066393 
L 195.27 135.548523 
L 203.64 135.218344 
L 237.12 135.118099 
L 287.34 135.282779 
L 304.08 135.03611 
L 320.82 134.5615 
L 337.56 133.705781 
L 354.3 133.533495 
L 362.67 132.594346 
L 371.04 130.968332 
L 379.41 130.61921 
L 387.78 131.059488 
L 396.15 129.672081 
L 404.52 128.467692 
L 412.89 128.651591 
L 421.26 126.688729 
L 429.63 121.833303 
L 438 119.42847 
L 446.37 118.055913 
L 454.74 117.562503 
L 463.11 116.403779 
L 471.48 113.816229 
L 479.85 118.216514 
L 488.22 121.215293 
L 496.59 123.469368 
L 504.96 125.10452 
L 513.33 127.415708 
L 521.7 129.179037 
L 530.07 130.301352 
L 538.44 131.069476 
L 546.81 132.44244 
L 555.18 131.283794 
L 563.55 132.240614 
L 571.92 132.811981 
L 580.29 132.729693 
L 588.66 132.962475 
L 597.03 133.430616 
L 605.4 133.286919 
L 613.77 134.005572 
L 622.14 133.908437 
L 638.88 135.155281 
L 647.25 134.520315 
L 655.62 134.560122 
L 663.99 135.223198 
L 672.36 135.50145 
L 680.73 135.656414 
L 689.1 135.079728 
L 697.47 135.29738 
L 705.84 135.627875 
L 718.506562 135.796942 
L 718.506562 135.796942 
" style="fill:none;stroke:#ff8101;stroke-linecap:square;"/>
   </g>
   <g id="line2d_42">
    <path clip-path="url(#p9ac941e0e0)" d="M -1 136.1425 
L 212.01 136.066345 
L 220.38 136.014524 
L 228.75 135.418657 
L 245.49 135.261965 
L 270.6 135.166025 
L 295.71 134.908383 
L 312.45 134.635411 
L 320.82 134.271888 
L 329.19 133.651802 
L 337.56 132.787743 
L 354.3 131.481012 
L 362.67 130.10592 
L 371.04 126.698228 
L 379.41 118.670242 
L 387.78 113.447941 
L 396.15 105.580148 
L 404.52 96.717818 
L 412.89 72.921663 
L 420.423517 -1 
M 572.185303 -1 
L 580.29 7.480821 
L 588.66 13.845118 
L 597.03 22.63202 
L 605.4 36.565356 
L 613.77 51.319831 
L 630.51 73.040819 
L 638.88 80.878435 
L 647.25 87.366104 
L 655.62 92.006613 
L 663.99 97.624658 
L 672.36 102.007414 
L 680.73 105.508362 
L 689.1 107.001365 
L 705.84 110.788589 
L 714.21 112.091205 
L 718.506562 112.276222 
L 718.506562 112.276222 
" style="fill:none;stroke:#a8572c;stroke-linecap:square;"/>
   </g>
   <g id="patch_9">
    <path d="M 354.3 24.5425 
L 555.18 24.5425 
" style="fill:none;stroke:#000000;stroke-linecap:square;stroke-linejoin:miter;"/>
   </g>
   <g id="patch_10">
    <path d="M 555.18 136.1425 
L 555.18 24.5425 
" style="fill:none;stroke:#000000;stroke-linecap:square;stroke-linejoin:miter;"/>
   </g>
   <g id="patch_11">
    <path d="M 354.3 136.1425 
L 555.18 136.1425 
" style="fill:none;stroke:#000000;stroke-linecap:square;stroke-linejoin:miter;"/>
   </g>
   <g id="patch_12">
    <path d="M 354.3 136.1425 
L 354.3 24.5425 
" style="fill:none;stroke:#000000;stroke-linecap:square;stroke-linejoin:miter;"/>
   </g>
   <g id="matplotlib.axis_3">
    <g id="xtick_7">
     <g id="line2d_43">
      <g>
       <use style="stroke:#000000;stroke-width:0.5;" x="354.3" xlink:href="#m9e4432c5a2" y="136.1425"/>
      </g>
     </g>
     <g id="line2d_44">
      <g>
       <use style="stroke:#000000;stroke-width:0.5;" x="354.3" xlink:href="#m750b5c5dbc" y="24.5425"/>
      </g>
     </g>
    </g>
    <g id="xtick_8">
     <g id="line2d_45">
      <g>
       <use style="stroke:#000000;stroke-width:0.5;" x="404.52" xlink:href="#m9e4432c5a2" y="136.1425"/>
      </g>
     </g>
     <g id="line2d_46">
      <g>
       <use style="stroke:#000000;stroke-width:0.5;" x="404.52" xlink:href="#m750b5c5dbc" y="24.5425"/>
      </g>
     </g>
     <g id="text_20">
      <!-- 39.5 -->
      <defs>
       <path d="M 10.984375 1.515625 
L 10.984375 10.5 
Q 14.703125 8.734375 18.5 7.8125 
Q 22.3125 6.890625 25.984375 6.890625 
Q 35.75 6.890625 40.890625 13.453125 
Q 46.046875 20.015625 46.78125 33.40625 
Q 43.953125 29.203125 39.59375 26.953125 
Q 35.25 24.703125 29.984375 24.703125 
Q 19.046875 24.703125 12.671875 31.3125 
Q 6.296875 37.9375 6.296875 49.421875 
Q 6.296875 60.640625 12.9375 67.421875 
Q 19.578125 74.21875 30.609375 74.21875 
Q 43.265625 74.21875 49.921875 64.515625 
Q 56.59375 54.828125 56.59375 36.375 
Q 56.59375 19.140625 48.40625 8.859375 
Q 40.234375 -1.421875 26.421875 -1.421875 
Q 22.703125 -1.421875 18.890625 -0.6875 
Q 15.09375 0.046875 10.984375 1.515625 
M 30.609375 32.421875 
Q 37.25 32.421875 41.125 36.953125 
Q 45.015625 41.5 45.015625 49.421875 
Q 45.015625 57.28125 41.125 61.84375 
Q 37.25 66.40625 30.609375 66.40625 
Q 23.96875 66.40625 20.09375 61.84375 
Q 16.21875 57.28125 16.21875 49.421875 
Q 16.21875 41.5 20.09375 36.953125 
Q 23.96875 32.421875 30.609375 32.421875 
" id="BitstreamVeraSans-Roman-39"/>
       <path d="M 10.6875 12.40625 
L 21 12.40625 
L 21 0 
L 10.6875 0 
z
" id="BitstreamVeraSans-Roman-2e"/>
      </defs>
      <g transform="translate(386.7075 152.3)scale(0.16 -0.16)">
       <use xlink:href="#BitstreamVeraSans-Roman-33"/>
       <use x="63.623046875" xlink:href="#BitstreamVeraSans-Roman-39"/>
       <use x="127.24609375" xlink:href="#BitstreamVeraSans-Roman-2e"/>
       <use x="159.033203125" xlink:href="#BitstreamVeraSans-Roman-35"/>
      </g>
     </g>
    </g>
    <g id="xtick_9">
     <g id="line2d_47">
      <g>
       <use style="stroke:#000000;stroke-width:0.5;" x="454.74" xlink:href="#m9e4432c5a2" y="136.1425"/>
      </g>
     </g>
     <g id="line2d_48">
      <g>
       <use style="stroke:#000000;stroke-width:0.5;" x="454.74" xlink:href="#m750b5c5dbc" y="24.5425"/>
      </g>
     </g>
     <g id="text_21">
      <!-- 40.0 -->
      <g transform="translate(436.9275 152.3)scale(0.16 -0.16)">
       <use xlink:href="#BitstreamVeraSans-Roman-34"/>
       <use x="63.623046875" xlink:href="#BitstreamVeraSans-Roman-30"/>
       <use x="127.24609375" xlink:href="#BitstreamVeraSans-Roman-2e"/>
       <use x="159.033203125" xlink:href="#BitstreamVeraSans-Roman-30"/>
      </g>
     </g>
    </g>
    <g id="xtick_10">
     <g id="line2d_49">
      <g>
       <use style="stroke:#000000;stroke-width:0.5;" x="504.96" xlink:href="#m9e4432c5a2" y="136.1425"/>
      </g>
     </g>
     <g id="line2d_50">
      <g>
       <use style="stroke:#000000;stroke-width:0.5;" x="504.96" xlink:href="#m750b5c5dbc" y="24.5425"/>
      </g>
     </g>
     <g id="text_22">
      <!-- 40.5 -->
      <g transform="translate(487.1475 152.3)scale(0.16 -0.16)">
       <use xlink:href="#BitstreamVeraSans-Roman-34"/>
       <use x="63.623046875" xlink:href="#BitstreamVeraSans-Roman-30"/>
       <use x="127.24609375" xlink:href="#BitstreamVeraSans-Roman-2e"/>
       <use x="159.033203125" xlink:href="#BitstreamVeraSans-Roman-35"/>
      </g>
     </g>
    </g>
    <g id="xtick_11">
     <g id="line2d_51">
      <g>
       <use style="stroke:#000000;stroke-width:0.5;" x="555.18" xlink:href="#m9e4432c5a2" y="136.1425"/>
      </g>
     </g>
     <g id="line2d_52">
      <g>
       <use style="stroke:#000000;stroke-width:0.5;" x="555.18" xlink:href="#m750b5c5dbc" y="24.5425"/>
      </g>
     </g>
    </g>
   </g>
   <g id="matplotlib.axis_4">
    <g id="ytick_8">
     <g id="line2d_53">
      <g>
       <use style="stroke:#000000;stroke-width:0.5;" x="354.3" xlink:href="#m6bb4a5d898" y="136.1425"/>
      </g>
     </g>
     <g id="line2d_54">
      <g>
       <use style="stroke:#000000;stroke-width:0.5;" x="555.18" xlink:href="#mbe526bdb8e" y="136.1425"/>
      </g>
     </g>
     <g id="text_23">
      <!-- 0 -->
      <g transform="translate(340.12 140.5575)scale(0.16 -0.16)">
       <use xlink:href="#BitstreamVeraSans-Roman-30"/>
      </g>
     </g>
    </g>
    <g id="ytick_9">
     <g id="line2d_55">
      <g>
       <use style="stroke:#000000;stroke-width:0.5;" x="354.3" xlink:href="#m6bb4a5d898" y="113.8225"/>
      </g>
     </g>
     <g id="line2d_56">
      <g>
       <use style="stroke:#000000;stroke-width:0.5;" x="555.18" xlink:href="#mbe526bdb8e" y="113.8225"/>
      </g>
     </g>
     <g id="text_24">
      <!-- 20 -->
      <g transform="translate(329.94 118.2375)scale(0.16 -0.16)">
       <use xlink:href="#BitstreamVeraSans-Roman-32"/>
       <use x="63.623046875" xlink:href="#BitstreamVeraSans-Roman-30"/>
      </g>
     </g>
    </g>
    <g id="ytick_10">
     <g id="line2d_57">
      <g>
       <use style="stroke:#000000;stroke-width:0.5;" x="354.3" xlink:href="#m6bb4a5d898" y="91.5025"/>
      </g>
     </g>
     <g id="line2d_58">
      <g>
       <use style="stroke:#000000;stroke-width:0.5;" x="555.18" xlink:href="#mbe526bdb8e" y="91.5025"/>
      </g>
     </g>
     <g id="text_25">
      <!-- 40 -->
      <g transform="translate(329.94 95.9175)scale(0.16 -0.16)">
       <use xlink:href="#BitstreamVeraSans-Roman-34"/>
       <use x="63.623046875" xlink:href="#BitstreamVeraSans-Roman-30"/>
      </g>
     </g>
    </g>
    <g id="ytick_11">
     <g id="line2d_59">
      <g>
       <use style="stroke:#000000;stroke-width:0.5;" x="354.3" xlink:href="#m6bb4a5d898" y="69.1825"/>
      </g>
     </g>
     <g id="line2d_60">
      <g>
       <use style="stroke:#000000;stroke-width:0.5;" x="555.18" xlink:href="#mbe526bdb8e" y="69.1825"/>
      </g>
     </g>
     <g id="text_26">
      <!-- 60 -->
      <g transform="translate(329.94 73.5975)scale(0.16 -0.16)">
       <use xlink:href="#BitstreamVeraSans-Roman-36"/>
       <use x="63.623046875" xlink:href="#BitstreamVeraSans-Roman-30"/>
      </g>
     </g>
    </g>
    <g id="ytick_12">
     <g id="line2d_61">
      <g>
       <use style="stroke:#000000;stroke-width:0.5;" x="354.3" xlink:href="#m6bb4a5d898" y="46.8625"/>
      </g>
     </g>
     <g id="line2d_62">
      <g>
       <use style="stroke:#000000;stroke-width:0.5;" x="555.18" xlink:href="#mbe526bdb8e" y="46.8625"/>
      </g>
     </g>
     <g id="text_27">
      <!-- 80 -->
      <g transform="translate(329.94 51.2775)scale(0.16 -0.16)">
       <use xlink:href="#BitstreamVeraSans-Roman-38"/>
       <use x="63.623046875" xlink:href="#BitstreamVeraSans-Roman-30"/>
      </g>
     </g>
    </g>
    <g id="ytick_13">
     <g id="line2d_63">
      <g>
       <use style="stroke:#000000;stroke-width:0.5;" x="354.3" xlink:href="#m6bb4a5d898" y="24.5425"/>
      </g>
     </g>
     <g id="line2d_64">
      <g>
       <use style="stroke:#000000;stroke-width:0.5;" x="555.18" xlink:href="#mbe526bdb8e" y="24.5425"/>
      </g>
     </g>
     <g id="text_28">
      <!-- 100 -->
      <g transform="translate(319.76 28.9575)scale(0.16 -0.16)">
       <use xlink:href="#BitstreamVeraSans-Roman-31"/>
       <use x="63.623046875" xlink:href="#BitstreamVeraSans-Roman-30"/>
       <use x="127.24609375" xlink:href="#BitstreamVeraSans-Roman-30"/>
      </g>
     </g>
    </g>
   </g>
  </g>
 </g>
 <defs>
  <clipPath id="p8f2160cee2">
   <rect height="334.8" width="502.2" x="62.58" y="14.9425"/>
  </clipPath>
  <clipPath id="p9ac941e0e0">
   <rect height="111.6" width="200.88" x="354.3" y="24.5425"/>
  </clipPath>
 </defs>
</svg>
