<?xml version="1.0" encoding="utf-8" standalone="no"?>
<!DOCTYPE svg PUBLIC "-//W3C//DTD SVG 1.1//EN"
  "http://www.w3.org/Graphics/SVG/1.1/DTD/svg11.dtd">
<!-- Created with matplotlib (http://matplotlib.org/) -->
<svg height="396pt" version="1.1" viewBox="0 0 718 396" width="718pt" xmlns="http://www.w3.org/2000/svg" xmlns:xlink="http://www.w3.org/1999/xlink">
 <defs>
  <style type="text/css">
*{stroke-linecap:butt;stroke-linejoin:round;stroke-miterlimit:100000;}
  </style>
 </defs>
 <g id="figure_1">
  <g id="patch_1">
   <path d="M 0 396.9125 
L 718.138906 396.9125 
L 718.138906 0 
L 0 0 
z
" style="fill:#ffffff;"/>
  </g>
  <g id="axes_1">
   <g id="patch_2">
    <path d="M 72.76 349.7425 
L 574.96 349.7425 
L 574.96 14.9425 
L 72.76 14.9425 
z
" style="fill:#ffffff;"/>
   </g>
   <g id="line2d_1">
    <path clip-path="url(#p9bfcc681d7)" d="M -1 349.7425 
L 118.795 349.658288 
L 131.35 349.565038 
L 139.72 349.678609 
L 169.015 349.725934 
L 173.2 340.969454 
L 177.385 295.270466 
L 181.57 278.910755 
L 185.755 280.663316 
L 189.94 290.507584 
L 194.125 303.551538 
L 198.31 312.162685 
L 202.495 316.353423 
L 206.68 319.87374 
L 210.865 322.879187 
L 215.05 325.473744 
L 219.235 327.615853 
L 227.605 331.143533 
L 231.79 332.720806 
L 235.975 334.020387 
L 244.345 336.12225 
L 248.53 336.89145 
L 252.715 337.841744 
L 265.27 339.768625 
L 286.195 342.445729 
L 298.75 343.819819 
L 323.86 345.669292 
L 348.97 346.807577 
L 378.265 347.761743 
L 403.375 348.287493 
L 424.3 348.599142 
L 461.965 348.993078 
L 512.185 349.284517 
L 600.07 349.510624 
L 719.138906 349.622493 
L 719.138906 349.622493 
" style="fill:none;stroke:#e41a1c;stroke-linecap:square;stroke-width:2.0;"/>
   </g>
   <g id="line2d_2">
    <path clip-path="url(#p9bfcc681d7)" d="M -1 349.7425 
L 118.795 349.659622 
L 131.35 349.566963 
L 139.72 349.683508 
L 164.83 349.74198 
L 169.015 348.538537 
L 173.2 273.498405 
L 177.385 116.404619 
L 181.57 95.548403 
L 189.94 60.310518 
L 194.125 53.369095 
L 198.31 54.359198 
L 202.495 57.759079 
L 206.68 64.948241 
L 210.865 74.763971 
L 215.05 88.592117 
L 219.235 101.717375 
L 223.42 109.947374 
L 227.605 119.738627 
L 235.975 150.985053 
L 244.345 179.982743 
L 248.53 192.774712 
L 252.715 204.831645 
L 256.9 215.567217 
L 261.085 222.302361 
L 265.27 228.762082 
L 269.455 236.550779 
L 273.64 245.427337 
L 277.825 251.154746 
L 282.01 257.195864 
L 286.195 262.491279 
L 290.38 269.127397 
L 294.565 275.12203 
L 298.75 280.56356 
L 307.12 289.543489 
L 311.305 294.009428 
L 315.49 298.080535 
L 319.675 301.668249 
L 332.23 309.684157 
L 340.6 314.315231 
L 344.785 316.223873 
L 348.97 317.846389 
L 353.155 319.833484 
L 361.525 322.707136 
L 365.71 324.250319 
L 369.895 325.345292 
L 378.265 328.020293 
L 382.45 329.005713 
L 386.635 330.158397 
L 390.82 331.175247 
L 411.745 335.19187 
L 415.93 336.000825 
L 420.115 336.461989 
L 428.485 338.088519 
L 436.855 339.151128 
L 453.595 341.196588 
L 461.965 342.062403 
L 470.335 342.609676 
L 503.815 344.982389 
L 545.665 346.687944 
L 554.035 346.875861 
L 570.775 347.29645 
L 625.18 348.30055 
L 719.138906 349.048891 
L 719.138906 349.048891 
" style="fill:none;stroke:#4eae4b;stroke-linecap:square;stroke-width:2.0;"/>
   </g>
   <g id="line2d_3">
    <path clip-path="url(#p9bfcc681d7)" d="M -1 349.7425 
L 131.35 349.7425 
L 135.535 349.508667 
L 139.72 348.161218 
L 143.905 347.446671 
L 148.09 348.146719 
L 152.275 348.635689 
L 160.645 348.832438 
L 169.015 348.685025 
L 173.2 347.818244 
L 177.385 344.773906 
L 181.57 342.296063 
L 185.755 341.356337 
L 189.94 341.177592 
L 194.125 341.706172 
L 198.31 342.379487 
L 206.68 343.51408 
L 210.865 344.204353 
L 215.05 344.684438 
L 219.235 344.933264 
L 223.42 344.045358 
L 227.605 337.041732 
L 231.79 326.677818 
L 235.975 322.216249 
L 240.16 321.155546 
L 244.345 319.490844 
L 248.53 319.750307 
L 252.715 321.80651 
L 256.9 323.588464 
L 261.085 325.109218 
L 269.455 328.418134 
L 277.825 331.179974 
L 294.565 335.831039 
L 302.935 337.671291 
L 315.49 340.16473 
L 323.86 341.530208 
L 332.23 342.625334 
L 348.97 344.376601 
L 365.71 345.676152 
L 382.45 346.647151 
L 407.56 347.622197 
L 428.485 348.184781 
L 461.965 348.752018 
L 499.63 349.094172 
L 566.59 349.395976 
L 662.845 349.561748 
L 719.138906 349.6111 
L 719.138906 349.6111 
" style="fill:none;stroke:#ff8101;stroke-linecap:square;stroke-width:2.0;"/>
   </g>
   <g id="line2d_4">
    <path clip-path="url(#p9bfcc681d7)" d="M -1 349.7425 
L 131.35 349.7425 
L 135.535 348.549675 
L 139.72 345.086038 
L 143.905 343.977021 
L 152.275 343.028138 
L 156.46 342.592141 
L 164.83 342.320751 
L 169.015 341.370385 
L 173.2 336.639072 
L 177.385 326.727743 
L 181.57 318.110214 
L 185.755 313.281082 
L 189.94 311.745441 
L 194.125 311.828345 
L 198.31 312.473299 
L 202.495 313.802882 
L 206.68 315.487499 
L 210.865 315.929737 
L 215.05 313.832893 
L 219.235 297.72702 
L 223.42 234.679546 
L 227.605 187.50993 
L 231.79 179.306741 
L 240.16 165.763165 
L 244.345 160.35142 
L 248.53 155.488054 
L 252.715 154.890583 
L 256.9 153.967534 
L 261.085 156.223808 
L 265.27 159.914084 
L 269.455 165.054385 
L 273.64 168.482049 
L 277.825 170.775872 
L 282.01 177.50469 
L 286.195 187.676747 
L 290.38 198.191423 
L 294.565 208.366078 
L 298.75 219.225206 
L 302.935 228.117783 
L 307.12 237.845273 
L 311.305 244.405044 
L 315.49 250.269953 
L 319.675 256.82509 
L 328.045 267.621205 
L 332.23 273.562321 
L 336.415 279.84576 
L 344.785 290.029736 
L 348.97 294.761052 
L 353.155 298.656653 
L 357.34 302.381478 
L 361.525 305.66142 
L 365.71 308.723072 
L 369.895 311.628445 
L 378.265 316.5705 
L 382.45 318.772295 
L 386.635 320.375094 
L 390.82 322.347511 
L 395.005 324.113579 
L 399.19 325.696902 
L 403.375 326.838939 
L 407.56 328.263066 
L 411.745 330.046092 
L 424.3 332.839519 
L 432.67 334.6937 
L 436.855 335.680137 
L 441.04 336.27324 
L 457.78 339.12943 
L 461.965 339.674068 
L 466.15 340.022908 
L 478.705 341.634214 
L 487.075 342.309141 
L 512.185 344.227788 
L 524.74 344.841865 
L 533.11 345.189361 
L 537.295 345.473499 
L 566.59 346.475031 
L 587.515 347.094786 
L 604.255 347.486113 
L 629.365 347.933227 
L 646.105 348.251073 
L 683.77 348.613759 
L 719.138906 348.869529 
L 719.138906 348.869529 
" style="fill:none;stroke:#a8572c;stroke-linecap:square;stroke-width:2.0;"/>
   </g>
   <g id="patch_3">
    <path d="M 72.76 14.9425 
L 574.96 14.9425 
" style="fill:none;stroke:#000000;stroke-linecap:square;stroke-linejoin:miter;"/>
   </g>
   <g id="patch_4">
    <path d="M 574.96 349.7425 
L 574.96 14.9425 
" style="fill:none;stroke:#000000;stroke-linecap:square;stroke-linejoin:miter;"/>
   </g>
   <g id="patch_5">
    <path d="M 72.76 349.7425 
L 574.96 349.7425 
" style="fill:none;stroke:#000000;stroke-linecap:square;stroke-linejoin:miter;"/>
   </g>
   <g id="patch_6">
    <path d="M 72.76 349.7425 
L 72.76 14.9425 
" style="fill:none;stroke:#000000;stroke-linecap:square;stroke-linejoin:miter;"/>
   </g>
   <g id="matplotlib.axis_1">
    <g id="xtick_1">
     <g id="line2d_5">
      <defs>
       <path d="M 0 0 
L 0 -4 
" id="m79f1527ac4" style="stroke:#000000;stroke-width:0.5;"/>
      </defs>
      <g>
       <use style="stroke:#000000;stroke-width:0.5;" x="72.76" xlink:href="#m79f1527ac4" y="349.7425"/>
      </g>
     </g>
     <g id="line2d_6">
      <defs>
       <path d="M 0 0 
L 0 4 
" id="m9964d4e780" style="stroke:#000000;stroke-width:0.5;"/>
      </defs>
      <g>
       <use style="stroke:#000000;stroke-width:0.5;" x="72.76" xlink:href="#m9964d4e780" y="14.9425"/>
      </g>
     </g>
     <g id="text_1">
      <!-- 40 -->
      <defs>
       <path d="M 31.78125 66.40625 
Q 24.171875 66.40625 20.328125 58.90625 
Q 16.5 51.421875 16.5 36.375 
Q 16.5 21.390625 20.328125 13.890625 
Q 24.171875 6.390625 31.78125 6.390625 
Q 39.453125 6.390625 43.28125 13.890625 
Q 47.125 21.390625 47.125 36.375 
Q 47.125 51.421875 43.28125 58.90625 
Q 39.453125 66.40625 31.78125 66.40625 
M 31.78125 74.21875 
Q 44.046875 74.21875 50.515625 64.515625 
Q 56.984375 54.828125 56.984375 36.375 
Q 56.984375 17.96875 50.515625 8.265625 
Q 44.046875 -1.421875 31.78125 -1.421875 
Q 19.53125 -1.421875 13.0625 8.265625 
Q 6.59375 17.96875 6.59375 36.375 
Q 6.59375 54.828125 13.0625 64.515625 
Q 19.53125 74.21875 31.78125 74.21875 
" id="BitstreamVeraSans-Roman-30"/>
       <path d="M 37.796875 64.3125 
L 12.890625 25.390625 
L 37.796875 25.390625 
z
M 35.203125 72.90625 
L 47.609375 72.90625 
L 47.609375 25.390625 
L 58.015625 25.390625 
L 58.015625 17.1875 
L 47.609375 17.1875 
L 47.609375 0 
L 37.796875 0 
L 37.796875 17.1875 
L 4.890625 17.1875 
L 4.890625 26.703125 
z
" id="BitstreamVeraSans-Roman-34"/>
      </defs>
      <g transform="translate(62.58 365.9)scale(0.16 -0.16)">
       <use xlink:href="#BitstreamVeraSans-Roman-34"/>
       <use x="63.623046875" xlink:href="#BitstreamVeraSans-Roman-30"/>
      </g>
     </g>
    </g>
    <g id="xtick_2">
     <g id="line2d_7">
      <g>
       <use style="stroke:#000000;stroke-width:0.5;" x="173.2" xlink:href="#m79f1527ac4" y="349.7425"/>
      </g>
     </g>
     <g id="line2d_8">
      <g>
       <use style="stroke:#000000;stroke-width:0.5;" x="173.2" xlink:href="#m9964d4e780" y="14.9425"/>
      </g>
     </g>
     <g id="text_2">
      <!-- 42 -->
      <defs>
       <path d="M 19.1875 8.296875 
L 53.609375 8.296875 
L 53.609375 0 
L 7.328125 0 
L 7.328125 8.296875 
Q 12.9375 14.109375 22.625 23.890625 
Q 32.328125 33.6875 34.8125 36.53125 
Q 39.546875 41.84375 41.421875 45.53125 
Q 43.3125 49.21875 43.3125 52.78125 
Q 43.3125 58.59375 39.234375 62.25 
Q 35.15625 65.921875 28.609375 65.921875 
Q 23.96875 65.921875 18.8125 64.3125 
Q 13.671875 62.703125 7.8125 59.421875 
L 7.8125 69.390625 
Q 13.765625 71.78125 18.9375 73 
Q 24.125 74.21875 28.421875 74.21875 
Q 39.75 74.21875 46.484375 68.546875 
Q 53.21875 62.890625 53.21875 53.421875 
Q 53.21875 48.921875 51.53125 44.890625 
Q 49.859375 40.875 45.40625 35.40625 
Q 44.1875 33.984375 37.640625 27.21875 
Q 31.109375 20.453125 19.1875 8.296875 
" id="BitstreamVeraSans-Roman-32"/>
      </defs>
      <g transform="translate(163.02 365.9)scale(0.16 -0.16)">
       <use xlink:href="#BitstreamVeraSans-Roman-34"/>
       <use x="63.623046875" xlink:href="#BitstreamVeraSans-Roman-32"/>
      </g>
     </g>
    </g>
    <g id="xtick_3">
     <g id="line2d_9">
      <g>
       <use style="stroke:#000000;stroke-width:0.5;" x="273.64" xlink:href="#m79f1527ac4" y="349.7425"/>
      </g>
     </g>
     <g id="line2d_10">
      <g>
       <use style="stroke:#000000;stroke-width:0.5;" x="273.64" xlink:href="#m9964d4e780" y="14.9425"/>
      </g>
     </g>
     <g id="text_3">
      <!-- 44 -->
      <g transform="translate(263.46 365.9)scale(0.16 -0.16)">
       <use xlink:href="#BitstreamVeraSans-Roman-34"/>
       <use x="63.623046875" xlink:href="#BitstreamVeraSans-Roman-34"/>
      </g>
     </g>
    </g>
    <g id="xtick_4">
     <g id="line2d_11">
      <g>
       <use style="stroke:#000000;stroke-width:0.5;" x="374.08" xlink:href="#m79f1527ac4" y="349.7425"/>
      </g>
     </g>
     <g id="line2d_12">
      <g>
       <use style="stroke:#000000;stroke-width:0.5;" x="374.08" xlink:href="#m9964d4e780" y="14.9425"/>
      </g>
     </g>
     <g id="text_4">
      <!-- 46 -->
      <defs>
       <path d="M 33.015625 40.375 
Q 26.375 40.375 22.484375 35.828125 
Q 18.609375 31.296875 18.609375 23.390625 
Q 18.609375 15.53125 22.484375 10.953125 
Q 26.375 6.390625 33.015625 6.390625 
Q 39.65625 6.390625 43.53125 10.953125 
Q 47.40625 15.53125 47.40625 23.390625 
Q 47.40625 31.296875 43.53125 35.828125 
Q 39.65625 40.375 33.015625 40.375 
M 52.59375 71.296875 
L 52.59375 62.3125 
Q 48.875 64.0625 45.09375 64.984375 
Q 41.3125 65.921875 37.59375 65.921875 
Q 27.828125 65.921875 22.671875 59.328125 
Q 17.53125 52.734375 16.796875 39.40625 
Q 19.671875 43.65625 24.015625 45.921875 
Q 28.375 48.1875 33.59375 48.1875 
Q 44.578125 48.1875 50.953125 41.515625 
Q 57.328125 34.859375 57.328125 23.390625 
Q 57.328125 12.15625 50.6875 5.359375 
Q 44.046875 -1.421875 33.015625 -1.421875 
Q 20.359375 -1.421875 13.671875 8.265625 
Q 6.984375 17.96875 6.984375 36.375 
Q 6.984375 53.65625 15.1875 63.9375 
Q 23.390625 74.21875 37.203125 74.21875 
Q 40.921875 74.21875 44.703125 73.484375 
Q 48.484375 72.75 52.59375 71.296875 
" id="BitstreamVeraSans-Roman-36"/>
      </defs>
      <g transform="translate(363.9 365.9)scale(0.16 -0.16)">
       <use xlink:href="#BitstreamVeraSans-Roman-34"/>
       <use x="63.623046875" xlink:href="#BitstreamVeraSans-Roman-36"/>
      </g>
     </g>
    </g>
    <g id="xtick_5">
     <g id="line2d_13">
      <g>
       <use style="stroke:#000000;stroke-width:0.5;" x="474.52" xlink:href="#m79f1527ac4" y="349.7425"/>
      </g>
     </g>
     <g id="line2d_14">
      <g>
       <use style="stroke:#000000;stroke-width:0.5;" x="474.52" xlink:href="#m9964d4e780" y="14.9425"/>
      </g>
     </g>
     <g id="text_5">
      <!-- 48 -->
      <defs>
       <path d="M 31.78125 34.625 
Q 24.75 34.625 20.71875 30.859375 
Q 16.703125 27.09375 16.703125 20.515625 
Q 16.703125 13.921875 20.71875 10.15625 
Q 24.75 6.390625 31.78125 6.390625 
Q 38.8125 6.390625 42.859375 10.171875 
Q 46.921875 13.96875 46.921875 20.515625 
Q 46.921875 27.09375 42.890625 30.859375 
Q 38.875 34.625 31.78125 34.625 
M 21.921875 38.8125 
Q 15.578125 40.375 12.03125 44.71875 
Q 8.5 49.078125 8.5 55.328125 
Q 8.5 64.0625 14.71875 69.140625 
Q 20.953125 74.21875 31.78125 74.21875 
Q 42.671875 74.21875 48.875 69.140625 
Q 55.078125 64.0625 55.078125 55.328125 
Q 55.078125 49.078125 51.53125 44.71875 
Q 48 40.375 41.703125 38.8125 
Q 48.828125 37.15625 52.796875 32.3125 
Q 56.78125 27.484375 56.78125 20.515625 
Q 56.78125 9.90625 50.3125 4.234375 
Q 43.84375 -1.421875 31.78125 -1.421875 
Q 19.734375 -1.421875 13.25 4.234375 
Q 6.78125 9.90625 6.78125 20.515625 
Q 6.78125 27.484375 10.78125 32.3125 
Q 14.796875 37.15625 21.921875 38.8125 
M 18.3125 54.390625 
Q 18.3125 48.734375 21.84375 45.5625 
Q 25.390625 42.390625 31.78125 42.390625 
Q 38.140625 42.390625 41.71875 45.5625 
Q 45.3125 48.734375 45.3125 54.390625 
Q 45.3125 60.0625 41.71875 63.234375 
Q 38.140625 66.40625 31.78125 66.40625 
Q 25.390625 66.40625 21.84375 63.234375 
Q 18.3125 60.0625 18.3125 54.390625 
" id="BitstreamVeraSans-Roman-38"/>
      </defs>
      <g transform="translate(464.34 365.9)scale(0.16 -0.16)">
       <use xlink:href="#BitstreamVeraSans-Roman-34"/>
       <use x="63.623046875" xlink:href="#BitstreamVeraSans-Roman-38"/>
      </g>
     </g>
    </g>
    <g id="xtick_6">
     <g id="line2d_15">
      <g>
       <use style="stroke:#000000;stroke-width:0.5;" x="574.96" xlink:href="#m79f1527ac4" y="349.7425"/>
      </g>
     </g>
     <g id="line2d_16">
      <g>
       <use style="stroke:#000000;stroke-width:0.5;" x="574.96" xlink:href="#m9964d4e780" y="14.9425"/>
      </g>
     </g>
     <g id="text_6">
      <!-- 50 -->
      <defs>
       <path d="M 10.796875 72.90625 
L 49.515625 72.90625 
L 49.515625 64.59375 
L 19.828125 64.59375 
L 19.828125 46.734375 
Q 21.96875 47.46875 24.109375 47.828125 
Q 26.265625 48.1875 28.421875 48.1875 
Q 40.625 48.1875 47.75 41.5 
Q 54.890625 34.8125 54.890625 23.390625 
Q 54.890625 11.625 47.5625 5.09375 
Q 40.234375 -1.421875 26.90625 -1.421875 
Q 22.3125 -1.421875 17.546875 -0.640625 
Q 12.796875 0.140625 7.71875 1.703125 
L 7.71875 11.625 
Q 12.109375 9.234375 16.796875 8.0625 
Q 21.484375 6.890625 26.703125 6.890625 
Q 35.15625 6.890625 40.078125 11.328125 
Q 45.015625 15.765625 45.015625 23.390625 
Q 45.015625 31 40.078125 35.4375 
Q 35.15625 39.890625 26.703125 39.890625 
Q 22.75 39.890625 18.8125 39.015625 
Q 14.890625 38.140625 10.796875 36.28125 
z
" id="BitstreamVeraSans-Roman-35"/>
      </defs>
      <g transform="translate(564.78 365.9)scale(0.16 -0.16)">
       <use xlink:href="#BitstreamVeraSans-Roman-35"/>
       <use x="63.623046875" xlink:href="#BitstreamVeraSans-Roman-30"/>
      </g>
     </g>
    </g>
    <g id="text_7">
     <!-- simulation time (hours) -->
     <defs>
      <path id="BitstreamVeraSans-Roman-20"/>
      <path d="M 54.890625 33.015625 
L 54.890625 0 
L 45.90625 0 
L 45.90625 32.71875 
Q 45.90625 40.484375 42.875 44.328125 
Q 39.84375 48.1875 33.796875 48.1875 
Q 26.515625 48.1875 22.3125 43.546875 
Q 18.109375 38.921875 18.109375 30.90625 
L 18.109375 0 
L 9.078125 0 
L 9.078125 54.6875 
L 18.109375 54.6875 
L 18.109375 46.1875 
Q 21.34375 51.125 25.703125 53.5625 
Q 30.078125 56 35.796875 56 
Q 45.21875 56 50.046875 50.171875 
Q 54.890625 44.34375 54.890625 33.015625 
" id="BitstreamVeraSans-Roman-6e"/>
      <path d="M 52 44.1875 
Q 55.375 50.25 60.0625 53.125 
Q 64.75 56 71.09375 56 
Q 79.640625 56 84.28125 50.015625 
Q 88.921875 44.046875 88.921875 33.015625 
L 88.921875 0 
L 79.890625 0 
L 79.890625 32.71875 
Q 79.890625 40.578125 77.09375 44.375 
Q 74.3125 48.1875 68.609375 48.1875 
Q 61.625 48.1875 57.5625 43.546875 
Q 53.515625 38.921875 53.515625 30.90625 
L 53.515625 0 
L 44.484375 0 
L 44.484375 32.71875 
Q 44.484375 40.625 41.703125 44.40625 
Q 38.921875 48.1875 33.109375 48.1875 
Q 26.21875 48.1875 22.15625 43.53125 
Q 18.109375 38.875 18.109375 30.90625 
L 18.109375 0 
L 9.078125 0 
L 9.078125 54.6875 
L 18.109375 54.6875 
L 18.109375 46.1875 
Q 21.1875 51.21875 25.484375 53.609375 
Q 29.78125 56 35.6875 56 
Q 41.65625 56 45.828125 52.96875 
Q 50 49.953125 52 44.1875 
" id="BitstreamVeraSans-Roman-6d"/>
      <path d="M 30.609375 48.390625 
Q 23.390625 48.390625 19.1875 42.75 
Q 14.984375 37.109375 14.984375 27.296875 
Q 14.984375 17.484375 19.15625 11.84375 
Q 23.34375 6.203125 30.609375 6.203125 
Q 37.796875 6.203125 41.984375 11.859375 
Q 46.1875 17.53125 46.1875 27.296875 
Q 46.1875 37.015625 41.984375 42.703125 
Q 37.796875 48.390625 30.609375 48.390625 
M 30.609375 56 
Q 42.328125 56 49.015625 48.375 
Q 55.71875 40.765625 55.71875 27.296875 
Q 55.71875 13.875 49.015625 6.21875 
Q 42.328125 -1.421875 30.609375 -1.421875 
Q 18.84375 -1.421875 12.171875 6.21875 
Q 5.515625 13.875 5.515625 27.296875 
Q 5.515625 40.765625 12.171875 48.375 
Q 18.84375 56 30.609375 56 
" id="BitstreamVeraSans-Roman-6f"/>
      <path d="M 9.421875 75.984375 
L 18.40625 75.984375 
L 18.40625 0 
L 9.421875 0 
z
" id="BitstreamVeraSans-Roman-6c"/>
      <path d="M 8.015625 75.875 
L 15.828125 75.875 
Q 23.140625 64.359375 26.78125 53.3125 
Q 30.421875 42.28125 30.421875 31.390625 
Q 30.421875 20.453125 26.78125 9.375 
Q 23.140625 -1.703125 15.828125 -13.1875 
L 8.015625 -13.1875 
Q 14.5 -2 17.703125 9.0625 
Q 20.90625 20.125 20.90625 31.390625 
Q 20.90625 42.671875 17.703125 53.65625 
Q 14.5 64.65625 8.015625 75.875 
" id="BitstreamVeraSans-Roman-29"/>
      <path d="M 9.421875 54.6875 
L 18.40625 54.6875 
L 18.40625 0 
L 9.421875 0 
z
M 9.421875 75.984375 
L 18.40625 75.984375 
L 18.40625 64.59375 
L 9.421875 64.59375 
z
" id="BitstreamVeraSans-Roman-69"/>
      <path d="M 54.890625 33.015625 
L 54.890625 0 
L 45.90625 0 
L 45.90625 32.71875 
Q 45.90625 40.484375 42.875 44.328125 
Q 39.84375 48.1875 33.796875 48.1875 
Q 26.515625 48.1875 22.3125 43.546875 
Q 18.109375 38.921875 18.109375 30.90625 
L 18.109375 0 
L 9.078125 0 
L 9.078125 75.984375 
L 18.109375 75.984375 
L 18.109375 46.1875 
Q 21.34375 51.125 25.703125 53.5625 
Q 30.078125 56 35.796875 56 
Q 45.21875 56 50.046875 50.171875 
Q 54.890625 44.34375 54.890625 33.015625 
" id="BitstreamVeraSans-Roman-68"/>
      <path d="M 41.109375 46.296875 
Q 39.59375 47.171875 37.8125 47.578125 
Q 36.03125 48 33.890625 48 
Q 26.265625 48 22.1875 43.046875 
Q 18.109375 38.09375 18.109375 28.8125 
L 18.109375 0 
L 9.078125 0 
L 9.078125 54.6875 
L 18.109375 54.6875 
L 18.109375 46.1875 
Q 20.953125 51.171875 25.484375 53.578125 
Q 30.03125 56 36.53125 56 
Q 37.453125 56 38.578125 55.875 
Q 39.703125 55.765625 41.0625 55.515625 
z
" id="BitstreamVeraSans-Roman-72"/>
      <path d="M 31 75.875 
Q 24.46875 64.65625 21.28125 53.65625 
Q 18.109375 42.671875 18.109375 31.390625 
Q 18.109375 20.125 21.3125 9.0625 
Q 24.515625 -2 31 -13.1875 
L 23.1875 -13.1875 
Q 15.875 -1.703125 12.234375 9.375 
Q 8.59375 20.453125 8.59375 31.390625 
Q 8.59375 42.28125 12.203125 53.3125 
Q 15.828125 64.359375 23.1875 75.875 
z
" id="BitstreamVeraSans-Roman-28"/>
      <path d="M 56.203125 29.59375 
L 56.203125 25.203125 
L 14.890625 25.203125 
Q 15.484375 15.921875 20.484375 11.0625 
Q 25.484375 6.203125 34.421875 6.203125 
Q 39.59375 6.203125 44.453125 7.46875 
Q 49.3125 8.734375 54.109375 11.28125 
L 54.109375 2.78125 
Q 49.265625 0.734375 44.1875 -0.34375 
Q 39.109375 -1.421875 33.890625 -1.421875 
Q 20.796875 -1.421875 13.15625 6.1875 
Q 5.515625 13.8125 5.515625 26.8125 
Q 5.515625 40.234375 12.765625 48.109375 
Q 20.015625 56 32.328125 56 
Q 43.359375 56 49.78125 48.890625 
Q 56.203125 41.796875 56.203125 29.59375 
M 47.21875 32.234375 
Q 47.125 39.59375 43.09375 43.984375 
Q 39.0625 48.390625 32.421875 48.390625 
Q 24.90625 48.390625 20.390625 44.140625 
Q 15.875 39.890625 15.1875 32.171875 
z
" id="BitstreamVeraSans-Roman-65"/>
      <path d="M 18.3125 70.21875 
L 18.3125 54.6875 
L 36.8125 54.6875 
L 36.8125 47.703125 
L 18.3125 47.703125 
L 18.3125 18.015625 
Q 18.3125 11.328125 20.140625 9.421875 
Q 21.96875 7.515625 27.59375 7.515625 
L 36.8125 7.515625 
L 36.8125 0 
L 27.59375 0 
Q 17.1875 0 13.234375 3.875 
Q 9.28125 7.765625 9.28125 18.015625 
L 9.28125 47.703125 
L 2.6875 47.703125 
L 2.6875 54.6875 
L 9.28125 54.6875 
L 9.28125 70.21875 
z
" id="BitstreamVeraSans-Roman-74"/>
      <path d="M 8.5 21.578125 
L 8.5 54.6875 
L 17.484375 54.6875 
L 17.484375 21.921875 
Q 17.484375 14.15625 20.5 10.265625 
Q 23.53125 6.390625 29.59375 6.390625 
Q 36.859375 6.390625 41.078125 11.03125 
Q 45.3125 15.671875 45.3125 23.6875 
L 45.3125 54.6875 
L 54.296875 54.6875 
L 54.296875 0 
L 45.3125 0 
L 45.3125 8.40625 
Q 42.046875 3.421875 37.71875 1 
Q 33.40625 -1.421875 27.6875 -1.421875 
Q 18.265625 -1.421875 13.375 4.4375 
Q 8.5 10.296875 8.5 21.578125 
" id="BitstreamVeraSans-Roman-75"/>
      <path d="M 34.28125 27.484375 
Q 23.390625 27.484375 19.1875 25 
Q 14.984375 22.515625 14.984375 16.5 
Q 14.984375 11.71875 18.140625 8.90625 
Q 21.296875 6.109375 26.703125 6.109375 
Q 34.1875 6.109375 38.703125 11.40625 
Q 43.21875 16.703125 43.21875 25.484375 
L 43.21875 27.484375 
z
M 52.203125 31.203125 
L 52.203125 0 
L 43.21875 0 
L 43.21875 8.296875 
Q 40.140625 3.328125 35.546875 0.953125 
Q 30.953125 -1.421875 24.3125 -1.421875 
Q 15.921875 -1.421875 10.953125 3.296875 
Q 6 8.015625 6 15.921875 
Q 6 25.140625 12.171875 29.828125 
Q 18.359375 34.515625 30.609375 34.515625 
L 43.21875 34.515625 
L 43.21875 35.40625 
Q 43.21875 41.609375 39.140625 45 
Q 35.0625 48.390625 27.6875 48.390625 
Q 23 48.390625 18.546875 47.265625 
Q 14.109375 46.140625 10.015625 43.890625 
L 10.015625 52.203125 
Q 14.9375 54.109375 19.578125 55.046875 
Q 24.21875 56 28.609375 56 
Q 40.484375 56 46.34375 49.84375 
Q 52.203125 43.703125 52.203125 31.203125 
" id="BitstreamVeraSans-Roman-61"/>
      <path d="M 44.28125 53.078125 
L 44.28125 44.578125 
Q 40.484375 46.53125 36.375 47.5 
Q 32.28125 48.484375 27.875 48.484375 
Q 21.1875 48.484375 17.84375 46.4375 
Q 14.5 44.390625 14.5 40.28125 
Q 14.5 37.15625 16.890625 35.375 
Q 19.28125 33.59375 26.515625 31.984375 
L 29.59375 31.296875 
Q 39.15625 29.25 43.1875 25.515625 
Q 47.21875 21.78125 47.21875 15.09375 
Q 47.21875 7.46875 41.1875 3.015625 
Q 35.15625 -1.421875 24.609375 -1.421875 
Q 20.21875 -1.421875 15.453125 -0.5625 
Q 10.6875 0.296875 5.421875 2 
L 5.421875 11.28125 
Q 10.40625 8.6875 15.234375 7.390625 
Q 20.0625 6.109375 24.8125 6.109375 
Q 31.15625 6.109375 34.5625 8.28125 
Q 37.984375 10.453125 37.984375 14.40625 
Q 37.984375 18.0625 35.515625 20.015625 
Q 33.0625 21.96875 24.703125 23.78125 
L 21.578125 24.515625 
Q 13.234375 26.265625 9.515625 29.90625 
Q 5.8125 33.546875 5.8125 39.890625 
Q 5.8125 47.609375 11.28125 51.796875 
Q 16.75 56 26.8125 56 
Q 31.78125 56 36.171875 55.265625 
Q 40.578125 54.546875 44.28125 53.078125 
" id="BitstreamVeraSans-Roman-73"/>
     </defs>
     <g transform="translate(230.26625 386.385)scale(0.16 -0.16)">
      <use xlink:href="#BitstreamVeraSans-Roman-73"/>
      <use x="52.099609375" xlink:href="#BitstreamVeraSans-Roman-69"/>
      <use x="79.8828125" xlink:href="#BitstreamVeraSans-Roman-6d"/>
      <use x="177.294921875" xlink:href="#BitstreamVeraSans-Roman-75"/>
      <use x="240.673828125" xlink:href="#BitstreamVeraSans-Roman-6c"/>
      <use x="268.45703125" xlink:href="#BitstreamVeraSans-Roman-61"/>
      <use x="329.736328125" xlink:href="#BitstreamVeraSans-Roman-74"/>
      <use x="368.9453125" xlink:href="#BitstreamVeraSans-Roman-69"/>
      <use x="396.728515625" xlink:href="#BitstreamVeraSans-Roman-6f"/>
      <use x="457.91015625" xlink:href="#BitstreamVeraSans-Roman-6e"/>
      <use x="521.2890625" xlink:href="#BitstreamVeraSans-Roman-20"/>
      <use x="553.076171875" xlink:href="#BitstreamVeraSans-Roman-74"/>
      <use x="592.28515625" xlink:href="#BitstreamVeraSans-Roman-69"/>
      <use x="620.068359375" xlink:href="#BitstreamVeraSans-Roman-6d"/>
      <use x="717.48046875" xlink:href="#BitstreamVeraSans-Roman-65"/>
      <use x="779.00390625" xlink:href="#BitstreamVeraSans-Roman-20"/>
      <use x="810.791015625" xlink:href="#BitstreamVeraSans-Roman-28"/>
      <use x="849.8046875" xlink:href="#BitstreamVeraSans-Roman-68"/>
      <use x="913.18359375" xlink:href="#BitstreamVeraSans-Roman-6f"/>
      <use x="974.365234375" xlink:href="#BitstreamVeraSans-Roman-75"/>
      <use x="1037.74414062" xlink:href="#BitstreamVeraSans-Roman-72"/>
      <use x="1078.85742188" xlink:href="#BitstreamVeraSans-Roman-73"/>
      <use x="1130.95703125" xlink:href="#BitstreamVeraSans-Roman-29"/>
     </g>
    </g>
   </g>
   <g id="matplotlib.axis_2">
    <g id="ytick_1">
     <g id="line2d_17">
      <defs>
       <path d="M 0 0 
L 4 0 
" id="mab8e5c7af8" style="stroke:#000000;stroke-width:0.5;"/>
      </defs>
      <g>
       <use style="stroke:#000000;stroke-width:0.5;" x="72.76" xlink:href="#mab8e5c7af8" y="349.7425"/>
      </g>
     </g>
     <g id="line2d_18">
      <defs>
       <path d="M 0 0 
L -4 0 
" id="m270f5a7dd4" style="stroke:#000000;stroke-width:0.5;"/>
      </defs>
      <g>
       <use style="stroke:#000000;stroke-width:0.5;" x="574.96" xlink:href="#m270f5a7dd4" y="349.7425"/>
      </g>
     </g>
     <g id="text_8">
      <!-- 0 -->
      <g transform="translate(58.58 354.1575)scale(0.16 -0.16)">
       <use xlink:href="#BitstreamVeraSans-Roman-30"/>
      </g>
     </g>
    </g>
    <g id="ytick_2">
     <g id="line2d_19">
      <g>
       <use style="stroke:#000000;stroke-width:0.5;" x="72.76" xlink:href="#mab8e5c7af8" y="307.8925"/>
      </g>
     </g>
     <g id="line2d_20">
      <g>
       <use style="stroke:#000000;stroke-width:0.5;" x="574.96" xlink:href="#m270f5a7dd4" y="307.8925"/>
      </g>
     </g>
     <g id="text_9">
      <!-- 500 -->
      <g transform="translate(38.22 312.3075)scale(0.16 -0.16)">
       <use xlink:href="#BitstreamVeraSans-Roman-35"/>
       <use x="63.623046875" xlink:href="#BitstreamVeraSans-Roman-30"/>
       <use x="127.24609375" xlink:href="#BitstreamVeraSans-Roman-30"/>
      </g>
     </g>
    </g>
    <g id="ytick_3">
     <g id="line2d_21">
      <g>
       <use style="stroke:#000000;stroke-width:0.5;" x="72.76" xlink:href="#mab8e5c7af8" y="266.0425"/>
      </g>
     </g>
     <g id="line2d_22">
      <g>
       <use style="stroke:#000000;stroke-width:0.5;" x="574.96" xlink:href="#m270f5a7dd4" y="266.0425"/>
      </g>
     </g>
     <g id="text_10">
      <!-- 1000 -->
      <defs>
       <path d="M 12.40625 8.296875 
L 28.515625 8.296875 
L 28.515625 63.921875 
L 10.984375 60.40625 
L 10.984375 69.390625 
L 28.421875 72.90625 
L 38.28125 72.90625 
L 38.28125 8.296875 
L 54.390625 8.296875 
L 54.390625 0 
L 12.40625 0 
z
" id="BitstreamVeraSans-Roman-31"/>
      </defs>
      <g transform="translate(28.04 270.4575)scale(0.16 -0.16)">
       <use xlink:href="#BitstreamVeraSans-Roman-31"/>
       <use x="63.623046875" xlink:href="#BitstreamVeraSans-Roman-30"/>
       <use x="127.24609375" xlink:href="#BitstreamVeraSans-Roman-30"/>
       <use x="190.869140625" xlink:href="#BitstreamVeraSans-Roman-30"/>
      </g>
     </g>
    </g>
    <g id="ytick_4">
     <g id="line2d_23">
      <g>
       <use style="stroke:#000000;stroke-width:0.5;" x="72.76" xlink:href="#mab8e5c7af8" y="224.1925"/>
      </g>
     </g>
     <g id="line2d_24">
      <g>
       <use style="stroke:#000000;stroke-width:0.5;" x="574.96" xlink:href="#m270f5a7dd4" y="224.1925"/>
      </g>
     </g>
     <g id="text_11">
      <!-- 1500 -->
      <g transform="translate(28.04 228.6075)scale(0.16 -0.16)">
       <use xlink:href="#BitstreamVeraSans-Roman-31"/>
       <use x="63.623046875" xlink:href="#BitstreamVeraSans-Roman-35"/>
       <use x="127.24609375" xlink:href="#BitstreamVeraSans-Roman-30"/>
       <use x="190.869140625" xlink:href="#BitstreamVeraSans-Roman-30"/>
      </g>
     </g>
    </g>
    <g id="ytick_5">
     <g id="line2d_25">
      <g>
       <use style="stroke:#000000;stroke-width:0.5;" x="72.76" xlink:href="#mab8e5c7af8" y="182.3425"/>
      </g>
     </g>
     <g id="line2d_26">
      <g>
       <use style="stroke:#000000;stroke-width:0.5;" x="574.96" xlink:href="#m270f5a7dd4" y="182.3425"/>
      </g>
     </g>
     <g id="text_12">
      <!-- 2000 -->
      <g transform="translate(28.04 186.7575)scale(0.16 -0.16)">
       <use xlink:href="#BitstreamVeraSans-Roman-32"/>
       <use x="63.623046875" xlink:href="#BitstreamVeraSans-Roman-30"/>
       <use x="127.24609375" xlink:href="#BitstreamVeraSans-Roman-30"/>
       <use x="190.869140625" xlink:href="#BitstreamVeraSans-Roman-30"/>
      </g>
     </g>
    </g>
    <g id="ytick_6">
     <g id="line2d_27">
      <g>
       <use style="stroke:#000000;stroke-width:0.5;" x="72.76" xlink:href="#mab8e5c7af8" y="140.4925"/>
      </g>
     </g>
     <g id="line2d_28">
      <g>
       <use style="stroke:#000000;stroke-width:0.5;" x="574.96" xlink:href="#m270f5a7dd4" y="140.4925"/>
      </g>
     </g>
     <g id="text_13">
      <!-- 2500 -->
      <g transform="translate(28.04 144.9075)scale(0.16 -0.16)">
       <use xlink:href="#BitstreamVeraSans-Roman-32"/>
       <use x="63.623046875" xlink:href="#BitstreamVeraSans-Roman-35"/>
       <use x="127.24609375" xlink:href="#BitstreamVeraSans-Roman-30"/>
       <use x="190.869140625" xlink:href="#BitstreamVeraSans-Roman-30"/>
      </g>
     </g>
    </g>
    <g id="ytick_7">
     <g id="line2d_29">
      <g>
       <use style="stroke:#000000;stroke-width:0.5;" x="72.76" xlink:href="#mab8e5c7af8" y="98.6425"/>
      </g>
     </g>
     <g id="line2d_30">
      <g>
       <use style="stroke:#000000;stroke-width:0.5;" x="574.96" xlink:href="#m270f5a7dd4" y="98.6425"/>
      </g>
     </g>
     <g id="text_14">
      <!-- 3000 -->
      <defs>
       <path d="M 40.578125 39.3125 
Q 47.65625 37.796875 51.625 33 
Q 55.609375 28.21875 55.609375 21.1875 
Q 55.609375 10.40625 48.1875 4.484375 
Q 40.765625 -1.421875 27.09375 -1.421875 
Q 22.515625 -1.421875 17.65625 -0.515625 
Q 12.796875 0.390625 7.625 2.203125 
L 7.625 11.71875 
Q 11.71875 9.328125 16.59375 8.109375 
Q 21.484375 6.890625 26.8125 6.890625 
Q 36.078125 6.890625 40.9375 10.546875 
Q 45.796875 14.203125 45.796875 21.1875 
Q 45.796875 27.640625 41.28125 31.265625 
Q 36.765625 34.90625 28.71875 34.90625 
L 20.21875 34.90625 
L 20.21875 43.015625 
L 29.109375 43.015625 
Q 36.375 43.015625 40.234375 45.921875 
Q 44.09375 48.828125 44.09375 54.296875 
Q 44.09375 59.90625 40.109375 62.90625 
Q 36.140625 65.921875 28.71875 65.921875 
Q 24.65625 65.921875 20.015625 65.03125 
Q 15.375 64.15625 9.8125 62.3125 
L 9.8125 71.09375 
Q 15.4375 72.65625 20.34375 73.4375 
Q 25.25 74.21875 29.59375 74.21875 
Q 40.828125 74.21875 47.359375 69.109375 
Q 53.90625 64.015625 53.90625 55.328125 
Q 53.90625 49.265625 50.4375 45.09375 
Q 46.96875 40.921875 40.578125 39.3125 
" id="BitstreamVeraSans-Roman-33"/>
      </defs>
      <g transform="translate(28.04 103.0575)scale(0.16 -0.16)">
       <use xlink:href="#BitstreamVeraSans-Roman-33"/>
       <use x="63.623046875" xlink:href="#BitstreamVeraSans-Roman-30"/>
       <use x="127.24609375" xlink:href="#BitstreamVeraSans-Roman-30"/>
       <use x="190.869140625" xlink:href="#BitstreamVeraSans-Roman-30"/>
      </g>
     </g>
    </g>
    <g id="ytick_8">
     <g id="line2d_31">
      <g>
       <use style="stroke:#000000;stroke-width:0.5;" x="72.76" xlink:href="#mab8e5c7af8" y="56.7925"/>
      </g>
     </g>
     <g id="line2d_32">
      <g>
       <use style="stroke:#000000;stroke-width:0.5;" x="574.96" xlink:href="#m270f5a7dd4" y="56.7925"/>
      </g>
     </g>
     <g id="text_15">
      <!-- 3500 -->
      <g transform="translate(28.04 61.2075)scale(0.16 -0.16)">
       <use xlink:href="#BitstreamVeraSans-Roman-33"/>
       <use x="63.623046875" xlink:href="#BitstreamVeraSans-Roman-35"/>
       <use x="127.24609375" xlink:href="#BitstreamVeraSans-Roman-30"/>
       <use x="190.869140625" xlink:href="#BitstreamVeraSans-Roman-30"/>
      </g>
     </g>
    </g>
    <g id="ytick_9">
     <g id="line2d_33">
      <g>
       <use style="stroke:#000000;stroke-width:0.5;" x="72.76" xlink:href="#mab8e5c7af8" y="14.9425"/>
      </g>
     </g>
     <g id="line2d_34">
      <g>
       <use style="stroke:#000000;stroke-width:0.5;" x="574.96" xlink:href="#m270f5a7dd4" y="14.9425"/>
      </g>
     </g>
     <g id="text_16">
      <!-- 4000 -->
      <g transform="translate(28.04 19.3575)scale(0.16 -0.16)">
       <use xlink:href="#BitstreamVeraSans-Roman-34"/>
       <use x="63.623046875" xlink:href="#BitstreamVeraSans-Roman-30"/>
       <use x="127.24609375" xlink:href="#BitstreamVeraSans-Roman-30"/>
       <use x="190.869140625" xlink:href="#BitstreamVeraSans-Roman-30"/>
      </g>
     </g>
    </g>
    <g id="text_17">
     <!-- sediment flux ($m^3$) -->
     <defs>
      <path d="M 9.515625 7.71875 
Q 11.859375 4.296875 15.8125 2.640625 
Q 19.78125 0.984375 24.3125 0.984375 
Q 30.125 0.984375 32.5625 5.9375 
Q 35.015625 10.890625 35.015625 17.1875 
Q 35.015625 20.015625 34.5 22.84375 
Q 33.984375 25.6875 32.765625 28.125 
Q 31.546875 30.5625 29.421875 32.03125 
Q 27.296875 33.5 24.21875 33.5 
L 17.578125 33.5 
Q 16.703125 33.5 16.703125 34.421875 
L 16.703125 35.296875 
Q 16.703125 36.078125 17.578125 36.078125 
L 23.09375 36.53125 
Q 26.609375 36.53125 28.921875 39.15625 
Q 31.25 41.796875 32.328125 45.578125 
Q 33.40625 49.359375 33.40625 52.78125 
Q 33.40625 57.5625 31.15625 60.640625 
Q 28.90625 63.71875 24.3125 63.71875 
Q 20.515625 63.71875 17.046875 62.28125 
Q 13.578125 60.84375 11.53125 57.90625 
Q 11.71875 57.953125 11.859375 57.984375 
Q 12.015625 58.015625 12.203125 58.015625 
Q 14.453125 58.015625 15.96875 56.453125 
Q 17.484375 54.890625 17.484375 52.6875 
Q 17.484375 50.53125 15.96875 48.96875 
Q 14.453125 47.40625 12.203125 47.40625 
Q 10.015625 47.40625 8.453125 48.96875 
Q 6.890625 50.53125 6.890625 52.6875 
Q 6.890625 56.984375 9.46875 60.15625 
Q 12.0625 63.328125 16.140625 64.96875 
Q 20.21875 66.609375 24.3125 66.609375 
Q 27.34375 66.609375 30.703125 65.703125 
Q 34.078125 64.796875 36.8125 63.109375 
Q 39.546875 61.421875 41.28125 58.78125 
Q 43.015625 56.15625 43.015625 52.78125 
Q 43.015625 48.578125 41.140625 45.015625 
Q 39.265625 41.453125 35.984375 38.859375 
Q 32.71875 36.28125 28.8125 35.015625 
Q 33.15625 34.1875 37.0625 31.734375 
Q 40.96875 29.296875 43.328125 25.484375 
Q 45.703125 21.6875 45.703125 17.28125 
Q 45.703125 11.765625 42.671875 7.296875 
Q 39.65625 2.828125 34.71875 0.3125 
Q 29.78125 -2.203125 24.3125 -2.203125 
Q 19.625 -2.203125 14.90625 -0.40625 
Q 10.203125 1.375 7.203125 4.9375 
Q 4.203125 8.5 4.203125 13.484375 
Q 4.203125 15.96875 5.859375 17.625 
Q 7.515625 19.28125 10.015625 19.28125 
Q 11.625 19.28125 12.96875 18.53125 
Q 14.3125 17.78125 15.0625 16.40625 
Q 15.828125 15.046875 15.828125 13.484375 
Q 15.828125 11.03125 14.109375 9.375 
Q 12.40625 7.71875 10.015625 7.71875 
z
" id="Cmr10-33"/>
      <path d="M 45.40625 46.390625 
L 45.40625 75.984375 
L 54.390625 75.984375 
L 54.390625 0 
L 45.40625 0 
L 45.40625 8.203125 
Q 42.578125 3.328125 38.25 0.953125 
Q 33.9375 -1.421875 27.875 -1.421875 
Q 17.96875 -1.421875 11.734375 6.484375 
Q 5.515625 14.40625 5.515625 27.296875 
Q 5.515625 40.1875 11.734375 48.09375 
Q 17.96875 56 27.875 56 
Q 33.9375 56 38.25 53.625 
Q 42.578125 51.265625 45.40625 46.390625 
M 14.796875 27.296875 
Q 14.796875 17.390625 18.875 11.75 
Q 22.953125 6.109375 30.078125 6.109375 
Q 37.203125 6.109375 41.296875 11.75 
Q 45.40625 17.390625 45.40625 27.296875 
Q 45.40625 37.203125 41.296875 42.84375 
Q 37.203125 48.484375 30.078125 48.484375 
Q 22.953125 48.484375 18.875 42.84375 
Q 14.796875 37.203125 14.796875 27.296875 
" id="BitstreamVeraSans-Roman-64"/>
      <path d="M 37.109375 75.984375 
L 37.109375 68.5 
L 28.515625 68.5 
Q 23.6875 68.5 21.796875 66.546875 
Q 19.921875 64.59375 19.921875 59.515625 
L 19.921875 54.6875 
L 34.71875 54.6875 
L 34.71875 47.703125 
L 19.921875 47.703125 
L 19.921875 0 
L 10.890625 0 
L 10.890625 47.703125 
L 2.296875 47.703125 
L 2.296875 54.6875 
L 10.890625 54.6875 
L 10.890625 58.5 
Q 10.890625 67.625 15.140625 71.796875 
Q 19.390625 75.984375 28.609375 75.984375 
z
" id="BitstreamVeraSans-Roman-66"/>
      <path d="M 7.71875 1.703125 
Q 7.71875 2.296875 7.8125 2.59375 
L 15.28125 32.421875 
Q 16.015625 35.203125 16.015625 37.3125 
Q 16.015625 41.609375 13.09375 41.609375 
Q 9.96875 41.609375 8.453125 37.859375 
Q 6.9375 34.125 5.515625 28.421875 
Q 5.515625 28.125 5.21875 27.953125 
Q 4.9375 27.78125 4.6875 27.78125 
L 3.515625 27.78125 
Q 3.171875 27.78125 2.921875 28.140625 
Q 2.6875 28.515625 2.6875 28.8125 
Q 3.765625 33.15625 4.765625 36.171875 
Q 5.765625 39.203125 7.890625 41.6875 
Q 10.015625 44.1875 13.1875 44.1875 
Q 16.9375 44.1875 19.8125 41.8125 
Q 22.703125 39.453125 22.703125 35.796875 
Q 25.6875 39.703125 29.6875 41.9375 
Q 33.6875 44.1875 38.1875 44.1875 
Q 42.921875 44.1875 46.359375 41.765625 
Q 49.8125 39.359375 49.8125 34.90625 
Q 52.875 39.265625 57 41.71875 
Q 61.140625 44.1875 66.015625 44.1875 
Q 71.1875 44.1875 74.328125 41.375 
Q 77.484375 38.578125 77.484375 33.40625 
Q 77.484375 29.296875 75.65625 23.484375 
Q 73.828125 17.671875 71.09375 10.5 
Q 69.671875 7.03125 69.671875 4.5 
Q 69.671875 1.515625 72.015625 1.515625 
Q 75.921875 1.515625 78.515625 5.703125 
Q 81.109375 9.90625 82.171875 14.703125 
Q 82.46875 15.28125 83.015625 15.28125 
L 84.1875 15.28125 
Q 84.578125 15.28125 84.84375 15.015625 
Q 85.109375 14.75 85.109375 14.40625 
Q 85.109375 14.3125 85.015625 14.109375 
Q 83.640625 8.453125 80.25 3.65625 
Q 76.859375 -1.125 71.78125 -1.125 
Q 68.265625 -1.125 65.765625 1.296875 
Q 63.28125 3.71875 63.28125 7.171875 
Q 63.28125 8.9375 64.109375 11.078125 
Q 66.9375 18.609375 68.8125 24.515625 
Q 70.703125 30.421875 70.703125 34.90625 
Q 70.703125 37.703125 69.578125 39.65625 
Q 68.453125 41.609375 65.828125 41.609375 
Q 60.359375 41.609375 56.34375 38.25 
Q 52.34375 34.90625 49.421875 29.390625 
Q 49.21875 28.421875 49.125 27.875 
L 42.671875 2.203125 
Q 42.328125 0.828125 41.125 -0.140625 
Q 39.9375 -1.125 38.484375 -1.125 
Q 37.3125 -1.125 36.40625 -0.34375 
Q 35.5 0.4375 35.5 1.703125 
Q 35.5 2.296875 35.59375 2.59375 
L 42 28.078125 
Q 43.015625 32.171875 43.015625 34.90625 
Q 43.015625 37.703125 41.859375 39.65625 
Q 40.71875 41.609375 37.984375 41.609375 
Q 34.328125 41.609375 31.25 39.984375 
Q 28.171875 38.375 25.875 35.71875 
Q 23.578125 33.0625 21.6875 29.390625 
L 14.890625 2.203125 
Q 14.546875 0.828125 13.34375 -0.140625 
Q 12.15625 -1.125 10.6875 -1.125 
Q 9.46875 -1.125 8.59375 -0.34375 
Q 7.71875 0.4375 7.71875 1.703125 
" id="Cmmi10-6d"/>
      <path d="M 54.890625 54.6875 
L 35.109375 28.078125 
L 55.90625 0 
L 45.3125 0 
L 29.390625 21.484375 
L 13.484375 0 
L 2.875 0 
L 24.125 28.609375 
L 4.6875 54.6875 
L 15.28125 54.6875 
L 29.78125 35.203125 
L 44.28125 54.6875 
z
" id="BitstreamVeraSans-Roman-78"/>
     </defs>
     <g transform="translate(19.7125 256.7425)rotate(-90.0)scale(0.16 -0.16)">
      <use transform="translate(0.0 0.109375)" xlink:href="#BitstreamVeraSans-Roman-73"/>
      <use transform="translate(52.099609375 0.109375)" xlink:href="#BitstreamVeraSans-Roman-65"/>
      <use transform="translate(113.623046875 0.109375)" xlink:href="#BitstreamVeraSans-Roman-64"/>
      <use transform="translate(177.099609375 0.109375)" xlink:href="#BitstreamVeraSans-Roman-69"/>
      <use transform="translate(204.8828125 0.109375)" xlink:href="#BitstreamVeraSans-Roman-6d"/>
      <use transform="translate(302.294921875 0.109375)" xlink:href="#BitstreamVeraSans-Roman-65"/>
      <use transform="translate(363.818359375 0.109375)" xlink:href="#BitstreamVeraSans-Roman-6e"/>
      <use transform="translate(427.197265625 0.109375)" xlink:href="#BitstreamVeraSans-Roman-74"/>
      <use transform="translate(466.40625 0.109375)" xlink:href="#BitstreamVeraSans-Roman-20"/>
      <use transform="translate(498.193359375 0.109375)" xlink:href="#BitstreamVeraSans-Roman-66"/>
      <use transform="translate(533.3984375 0.109375)" xlink:href="#BitstreamVeraSans-Roman-6c"/>
      <use transform="translate(561.181640625 0.109375)" xlink:href="#BitstreamVeraSans-Roman-75"/>
      <use transform="translate(624.560546875 0.109375)" xlink:href="#BitstreamVeraSans-Roman-78"/>
      <use transform="translate(683.740234375 0.109375)" xlink:href="#BitstreamVeraSans-Roman-20"/>
      <use transform="translate(715.52734375 0.109375)" xlink:href="#BitstreamVeraSans-Roman-28"/>
      <use transform="translate(754.541015625 0.109375)" xlink:href="#Cmmi10-6d"/>
      <use transform="translate(848.637265625 38.3734375)scale(0.7)" xlink:href="#Cmr10-33"/>
      <use transform="translate(890.014609375 0.109375)" xlink:href="#BitstreamVeraSans-Roman-29"/>
     </g>
    </g>
   </g>
   <g id="legend_1">
    <g id="patch_7">
     <path d="M 580.46 132.584375 
L 710.938906 132.584375 
L 710.938906 64.700625 
L 580.46 64.700625 
z
" style="fill:#ffffff;stroke:#000000;stroke-linejoin:miter;"/>
    </g>
    <g id="line2d_35">
     <path d="M 588.16 73.608906 
L 603.56 73.608906 
" style="fill:none;stroke:#e41a1c;stroke-linecap:square;stroke-width:2.0;"/>
    </g>
    <g id="line2d_36"/>
    <g id="text_18">
     <!-- gridded detach -->
     <defs>
      <path d="M 45.40625 27.984375 
Q 45.40625 37.75 41.375 43.109375 
Q 37.359375 48.484375 30.078125 48.484375 
Q 22.859375 48.484375 18.828125 43.109375 
Q 14.796875 37.75 14.796875 27.984375 
Q 14.796875 18.265625 18.828125 12.890625 
Q 22.859375 7.515625 30.078125 7.515625 
Q 37.359375 7.515625 41.375 12.890625 
Q 45.40625 18.265625 45.40625 27.984375 
M 54.390625 6.78125 
Q 54.390625 -7.171875 48.1875 -13.984375 
Q 42 -20.796875 29.203125 -20.796875 
Q 24.46875 -20.796875 20.265625 -20.09375 
Q 16.0625 -19.390625 12.109375 -17.921875 
L 12.109375 -9.1875 
Q 16.0625 -11.328125 19.921875 -12.34375 
Q 23.78125 -13.375 27.78125 -13.375 
Q 36.625 -13.375 41.015625 -8.765625 
Q 45.40625 -4.15625 45.40625 5.171875 
L 45.40625 9.625 
Q 42.625 4.78125 38.28125 2.390625 
Q 33.9375 0 27.875 0 
Q 17.828125 0 11.671875 7.65625 
Q 5.515625 15.328125 5.515625 27.984375 
Q 5.515625 40.671875 11.671875 48.328125 
Q 17.828125 56 27.875 56 
Q 33.9375 56 38.28125 53.609375 
Q 42.625 51.21875 45.40625 46.390625 
L 45.40625 54.6875 
L 54.390625 54.6875 
z
" id="BitstreamVeraSans-Roman-67"/>
      <path d="M 48.78125 52.59375 
L 48.78125 44.1875 
Q 44.96875 46.296875 41.140625 47.34375 
Q 37.3125 48.390625 33.40625 48.390625 
Q 24.65625 48.390625 19.8125 42.84375 
Q 14.984375 37.3125 14.984375 27.296875 
Q 14.984375 17.28125 19.8125 11.734375 
Q 24.65625 6.203125 33.40625 6.203125 
Q 37.3125 6.203125 41.140625 7.25 
Q 44.96875 8.296875 48.78125 10.40625 
L 48.78125 2.09375 
Q 45.015625 0.34375 40.984375 -0.53125 
Q 36.96875 -1.421875 32.421875 -1.421875 
Q 20.0625 -1.421875 12.78125 6.34375 
Q 5.515625 14.109375 5.515625 27.296875 
Q 5.515625 40.671875 12.859375 48.328125 
Q 20.21875 56 33.015625 56 
Q 37.15625 56 41.109375 55.140625 
Q 45.0625 54.296875 48.78125 52.59375 
" id="BitstreamVeraSans-Roman-63"/>
     </defs>
     <g transform="translate(615.66 77.45890625)scale(0.11 -0.11)">
      <use xlink:href="#BitstreamVeraSans-Roman-67"/>
      <use x="63.4765625" xlink:href="#BitstreamVeraSans-Roman-72"/>
      <use x="104.58984375" xlink:href="#BitstreamVeraSans-Roman-69"/>
      <use x="132.373046875" xlink:href="#BitstreamVeraSans-Roman-64"/>
      <use x="195.849609375" xlink:href="#BitstreamVeraSans-Roman-64"/>
      <use x="259.326171875" xlink:href="#BitstreamVeraSans-Roman-65"/>
      <use x="320.849609375" xlink:href="#BitstreamVeraSans-Roman-64"/>
      <use x="384.326171875" xlink:href="#BitstreamVeraSans-Roman-20"/>
      <use x="416.11328125" xlink:href="#BitstreamVeraSans-Roman-64"/>
      <use x="479.58984375" xlink:href="#BitstreamVeraSans-Roman-65"/>
      <use x="541.11328125" xlink:href="#BitstreamVeraSans-Roman-74"/>
      <use x="580.322265625" xlink:href="#BitstreamVeraSans-Roman-61"/>
      <use x="641.6015625" xlink:href="#BitstreamVeraSans-Roman-63"/>
      <use x="696.58203125" xlink:href="#BitstreamVeraSans-Roman-68"/>
     </g>
    </g>
    <g id="line2d_37">
     <path d="M 588.16 89.754844 
L 603.56 89.754844 
" style="fill:none;stroke:#4eae4b;stroke-linecap:square;stroke-width:2.0;"/>
    </g>
    <g id="line2d_38"/>
    <g id="text_19">
     <!-- gridded translim -->
     <g transform="translate(615.66 93.60484375)scale(0.11 -0.11)">
      <use xlink:href="#BitstreamVeraSans-Roman-67"/>
      <use x="63.4765625" xlink:href="#BitstreamVeraSans-Roman-72"/>
      <use x="104.58984375" xlink:href="#BitstreamVeraSans-Roman-69"/>
      <use x="132.373046875" xlink:href="#BitstreamVeraSans-Roman-64"/>
      <use x="195.849609375" xlink:href="#BitstreamVeraSans-Roman-64"/>
      <use x="259.326171875" xlink:href="#BitstreamVeraSans-Roman-65"/>
      <use x="320.849609375" xlink:href="#BitstreamVeraSans-Roman-64"/>
      <use x="384.326171875" xlink:href="#BitstreamVeraSans-Roman-20"/>
      <use x="416.11328125" xlink:href="#BitstreamVeraSans-Roman-74"/>
      <use x="455.322265625" xlink:href="#BitstreamVeraSans-Roman-72"/>
      <use x="496.435546875" xlink:href="#BitstreamVeraSans-Roman-61"/>
      <use x="557.71484375" xlink:href="#BitstreamVeraSans-Roman-6e"/>
      <use x="621.09375" xlink:href="#BitstreamVeraSans-Roman-73"/>
      <use x="673.193359375" xlink:href="#BitstreamVeraSans-Roman-6c"/>
      <use x="700.9765625" xlink:href="#BitstreamVeraSans-Roman-69"/>
      <use x="728.759765625" xlink:href="#BitstreamVeraSans-Roman-6d"/>
     </g>
    </g>
    <g id="line2d_39">
     <path d="M 588.16 105.900781 
L 603.56 105.900781 
" style="fill:none;stroke:#ff8101;stroke-linecap:square;stroke-width:2.0;"/>
    </g>
    <g id="line2d_40"/>
    <g id="text_20">
     <!-- lumped detach -->
     <defs>
      <path d="M 18.109375 8.203125 
L 18.109375 -20.796875 
L 9.078125 -20.796875 
L 9.078125 54.6875 
L 18.109375 54.6875 
L 18.109375 46.390625 
Q 20.953125 51.265625 25.265625 53.625 
Q 29.59375 56 35.59375 56 
Q 45.5625 56 51.78125 48.09375 
Q 58.015625 40.1875 58.015625 27.296875 
Q 58.015625 14.40625 51.78125 6.484375 
Q 45.5625 -1.421875 35.59375 -1.421875 
Q 29.59375 -1.421875 25.265625 0.953125 
Q 20.953125 3.328125 18.109375 8.203125 
M 48.6875 27.296875 
Q 48.6875 37.203125 44.609375 42.84375 
Q 40.53125 48.484375 33.40625 48.484375 
Q 26.265625 48.484375 22.1875 42.84375 
Q 18.109375 37.203125 18.109375 27.296875 
Q 18.109375 17.390625 22.1875 11.75 
Q 26.265625 6.109375 33.40625 6.109375 
Q 40.53125 6.109375 44.609375 11.75 
Q 48.6875 17.390625 48.6875 27.296875 
" id="BitstreamVeraSans-Roman-70"/>
     </defs>
     <g transform="translate(615.66 109.75078125)scale(0.11 -0.11)">
      <use xlink:href="#BitstreamVeraSans-Roman-6c"/>
      <use x="27.783203125" xlink:href="#BitstreamVeraSans-Roman-75"/>
      <use x="91.162109375" xlink:href="#BitstreamVeraSans-Roman-6d"/>
      <use x="188.57421875" xlink:href="#BitstreamVeraSans-Roman-70"/>
      <use x="252.05078125" xlink:href="#BitstreamVeraSans-Roman-65"/>
      <use x="313.57421875" xlink:href="#BitstreamVeraSans-Roman-64"/>
      <use x="377.05078125" xlink:href="#BitstreamVeraSans-Roman-20"/>
      <use x="408.837890625" xlink:href="#BitstreamVeraSans-Roman-64"/>
      <use x="472.314453125" xlink:href="#BitstreamVeraSans-Roman-65"/>
      <use x="533.837890625" xlink:href="#BitstreamVeraSans-Roman-74"/>
      <use x="573.046875" xlink:href="#BitstreamVeraSans-Roman-61"/>
      <use x="634.326171875" xlink:href="#BitstreamVeraSans-Roman-63"/>
      <use x="689.306640625" xlink:href="#BitstreamVeraSans-Roman-68"/>
     </g>
    </g>
    <g id="line2d_41">
     <path d="M 588.16 122.046719 
L 603.56 122.046719 
" style="fill:none;stroke:#a8572c;stroke-linecap:square;stroke-width:2.0;"/>
    </g>
    <g id="line2d_42"/>
    <g id="text_21">
     <!-- lumped translim -->
     <g transform="translate(615.66 125.89671875)scale(0.11 -0.11)">
      <use xlink:href="#BitstreamVeraSans-Roman-6c"/>
      <use x="27.783203125" xlink:href="#BitstreamVeraSans-Roman-75"/>
      <use x="91.162109375" xlink:href="#BitstreamVeraSans-Roman-6d"/>
      <use x="188.57421875" xlink:href="#BitstreamVeraSans-Roman-70"/>
      <use x="252.05078125" xlink:href="#BitstreamVeraSans-Roman-65"/>
      <use x="313.57421875" xlink:href="#BitstreamVeraSans-Roman-64"/>
      <use x="377.05078125" xlink:href="#BitstreamVeraSans-Roman-20"/>
      <use x="408.837890625" xlink:href="#BitstreamVeraSans-Roman-74"/>
      <use x="448.046875" xlink:href="#BitstreamVeraSans-Roman-72"/>
      <use x="489.16015625" xlink:href="#BitstreamVeraSans-Roman-61"/>
      <use x="550.439453125" xlink:href="#BitstreamVeraSans-Roman-6e"/>
      <use x="613.818359375" xlink:href="#BitstreamVeraSans-Roman-73"/>
      <use x="665.91796875" xlink:href="#BitstreamVeraSans-Roman-6c"/>
      <use x="693.701171875" xlink:href="#BitstreamVeraSans-Roman-69"/>
      <use x="721.484375" xlink:href="#BitstreamVeraSans-Roman-6d"/>
     </g>
    </g>
   </g>
  </g>
 </g>
 <defs>
  <clipPath id="p9bfcc681d7">
   <rect height="334.8" width="502.2" x="72.76" y="14.9425"/>
  </clipPath>
 </defs>
</svg>
