<?xml version="1.0" encoding="utf-8" standalone="no"?>
<!DOCTYPE svg PUBLIC "-//W3C//DTD SVG 1.1//EN"
  "http://www.w3.org/Graphics/SVG/1.1/DTD/svg11.dtd">
<!-- Created with matplotlib (http://matplotlib.org/) -->
<svg height="396pt" version="1.1" viewBox="0 0 583 396" width="583pt" xmlns="http://www.w3.org/2000/svg" xmlns:xlink="http://www.w3.org/1999/xlink">
 <defs>
  <style type="text/css">
*{stroke-linecap:butt;stroke-linejoin:round;stroke-miterlimit:100000;}
  </style>
 </defs>
 <g id="figure_1">
  <g id="patch_1">
   <path d="M 0 396.9125 
L 583.28 396.9125 
L 583.28 0 
L 0 0 
z
" style="fill:#ffffff;"/>
  </g>
  <g id="axes_1">
   <g id="patch_2">
    <path d="M 63.7 349.7425 
L 565.9 349.7425 
L 565.9 14.9425 
L 63.7 14.9425 
z
" style="fill:#ffffff;"/>
   </g>
   <g id="line2d_1">
    <path clip-path="url(#p2989d2fbe4)" d="M -1 349.7425 
L 102.330769 349.6336 
L 110.378846 349.629147 
L 120.036538 349.661506 
L 121.646154 346.693114 
L 123.255769 342.083669 
L 124.865385 338.667701 
L 126.475 336.16442 
L 128.084615 334.54507 
L 129.694231 333.720899 
L 131.303846 333.543953 
L 132.913462 333.793027 
L 134.523077 334.239383 
L 136.132692 334.396743 
L 137.742308 332.302534 
L 139.351923 323.614005 
L 140.961538 308.551825 
L 142.571154 295.560944 
L 144.180769 287.713801 
L 145.790385 283.632895 
L 147.4 282.061772 
L 149.009615 282.063008 
L 150.619231 282.890068 
L 152.228846 284.230656 
L 153.838462 286.022278 
L 155.448077 288.052265 
L 157.057692 289.850536 
L 158.667308 290.620731 
L 160.276923 288.71576 
L 161.886538 276.000889 
L 163.496154 232.120704 
L 165.105769 165.054455 
L 166.715385 112.689937 
L 168.325 78.775247 
L 169.934615 62.798981 
L 171.544231 56.563891 
L 173.153846 55.601457 
L 174.763462 57.600738 
L 176.373077 61.40975 
L 177.982692 66.417032 
L 179.592308 72.277773 
L 181.201923 78.795947 
L 184.421154 93.222913 
L 192.469231 131.238991 
L 195.688462 145.254428 
L 198.907692 158.18464 
L 202.126923 169.991101 
L 205.346154 180.687456 
L 208.565385 190.437328 
L 211.784615 199.418749 
L 215.003846 207.764468 
L 218.223077 215.514715 
L 221.442308 222.662952 
L 224.661538 229.255652 
L 227.880769 235.359911 
L 231.1 240.992342 
L 234.319231 246.253268 
L 237.538462 251.197369 
L 240.757692 255.832715 
L 243.976923 260.169354 
L 247.196154 264.192402 
L 250.415385 267.92388 
L 253.634615 271.404276 
L 258.463462 276.230429 
L 263.292308 280.644219 
L 268.121154 284.665054 
L 272.95 288.313304 
L 277.778846 291.614463 
L 282.607692 294.617996 
L 287.436538 297.36491 
L 292.265385 299.852409 
L 297.094231 302.118179 
L 301.923077 304.185218 
L 308.361538 306.669523 
L 314.8 308.89858 
L 321.238462 310.91545 
L 329.286538 313.171039 
L 337.334615 315.172373 
L 345.382692 316.959991 
L 355.040385 318.876497 
L 366.307692 320.847842 
L 377.575 322.595486 
L 390.451923 324.363138 
L 404.938462 326.103862 
L 421.034615 327.795827 
L 438.740385 329.414189 
L 459.665385 331.079446 
L 480.590385 332.523017 
L 503.125 333.843001 
L 528.878846 335.124542 
L 557.851923 336.340349 
L 565.9 336.644363 
L 565.9 336.644363 
" style="fill:none;stroke:#0000ff;stroke-linecap:square;"/>
   </g>
   <g id="line2d_2">
    <path clip-path="url(#p2989d2fbe4)" d="M -1 349.7425 
L 134.523077 349.663629 
L 137.742308 345.960441 
L 139.351923 344.700463 
L 140.961538 343.773829 
L 142.571154 343.138229 
L 145.790385 342.355314 
L 149.009615 341.898321 
L 152.228846 341.707832 
L 153.838462 341.687904 
L 155.448077 341.552338 
L 157.057692 340.706993 
L 158.667308 337.922547 
L 161.886538 327.557819 
L 163.496154 323.410852 
L 165.105769 320.672821 
L 166.715385 318.987993 
L 168.325 318.033424 
L 169.934615 317.60207 
L 171.544231 317.55571 
L 173.153846 317.784529 
L 174.763462 318.205005 
L 177.982692 319.377712 
L 186.030769 322.643067 
L 187.640385 322.96794 
L 189.25 322.303564 
L 190.859615 316.312081 
L 192.469231 294.61163 
L 194.078846 264.62022 
L 195.688462 243.165474 
L 197.298077 228.36268 
L 198.907692 218.505795 
L 200.517308 212.475686 
L 202.126923 209.552935 
L 203.736538 208.415797 
L 205.346154 208.331482 
L 206.955769 208.960257 
L 208.565385 210.121766 
L 210.175 211.652907 
L 211.784615 213.436933 
L 215.003846 217.489569 
L 219.832692 224.150713 
L 227.880769 235.28993 
L 232.709615 241.44935 
L 239.148077 249.178215 
L 243.976923 254.597952 
L 248.805769 259.600182 
L 253.634615 264.184024 
L 258.463462 268.407635 
L 263.292308 272.342369 
L 269.730769 277.245255 
L 274.559615 280.686474 
L 279.388462 283.903126 
L 285.826923 287.867918 
L 292.265385 291.503585 
L 298.703846 294.856566 
L 305.142308 297.936821 
L 311.580769 300.703232 
L 318.019231 303.182603 
L 324.457692 305.396015 
L 330.896154 307.390376 
L 338.944231 309.638302 
L 346.992308 311.652745 
L 355.040385 313.463398 
L 364.698077 315.402074 
L 374.355769 317.122734 
L 385.623077 318.906372 
L 398.5 320.714208 
L 412.986538 322.51756 
L 429.082692 324.276333 
L 446.788462 325.970647 
L 466.103846 327.594083 
L 487.028846 329.132575 
L 512.782692 330.779746 
L 538.536538 332.206911 
L 565.9 333.502797 
L 584.28 334.270087 
L 584.28 334.270087 
" style="fill:none;stroke:#002aea;stroke-linecap:square;"/>
   </g>
   <g id="line2d_3">
    <path clip-path="url(#p2989d2fbe4)" d="M -1 349.7425 
L 149.009615 349.719379 
L 150.619231 348.736872 
L 152.228846 347.583426 
L 153.838462 346.957808 
L 155.448077 346.544262 
L 158.667308 346.140994 
L 163.496154 346.007052 
L 171.544231 346.075793 
L 177.982692 346.190405 
L 179.592308 346.126511 
L 181.201923 345.848372 
L 182.811538 345.15159 
L 184.421154 343.902071 
L 187.640385 340.647584 
L 189.25 339.276212 
L 190.859615 338.293931 
L 192.469231 337.630239 
L 194.078846 337.209523 
L 197.298077 336.816348 
L 200.517308 336.723944 
L 211.784615 336.911067 
L 218.223077 336.966366 
L 221.442308 336.717825 
L 223.051923 336.409976 
L 224.661538 335.938134 
L 226.271154 335.284929 
L 227.880769 334.42422 
L 229.490385 333.233283 
L 231.1 331.255726 
L 232.709615 327.659508 
L 234.319231 321.557911 
L 237.538462 306.159962 
L 239.148077 300.402715 
L 240.757692 296.413689 
L 242.367308 293.70897 
L 243.976923 291.892236 
L 245.586538 290.731223 
L 247.196154 290.021263 
L 248.805769 289.599054 
L 250.415385 289.357638 
L 253.634615 289.19242 
L 256.853846 289.292185 
L 260.073077 289.601942 
L 263.292308 290.110869 
L 266.511538 290.81018 
L 271.340385 292.136552 
L 277.778846 294.223002 
L 305.142308 303.546967 
L 313.190385 305.970348 
L 321.238462 308.153363 
L 329.286538 310.104098 
L 338.944231 312.179245 
L 348.601923 314.02707 
L 359.869231 315.945077 
L 371.136538 317.641305 
L 384.013462 319.344497 
L 398.5 321.02744 
L 414.596154 322.669161 
L 433.911538 324.397105 
L 454.836538 326.040717 
L 478.980769 327.704198 
L 504.734615 329.248196 
L 535.317308 330.844099 
L 567.509615 332.290091 
L 584.28 332.959063 
L 584.28 332.959063 
" style="fill:none;stroke:#0055d4;stroke-linecap:square;"/>
   </g>
   <g id="line2d_4">
    <path clip-path="url(#p2989d2fbe4)" d="M -1 349.7425 
L 168.325 349.741233 
L 171.544231 348.97927 
L 176.373077 348.409207 
L 181.201923 348.134778 
L 189.25 348.007135 
L 203.736538 347.910976 
L 205.346154 347.76292 
L 206.955769 347.489797 
L 208.565385 347.056858 
L 216.613462 344.286946 
L 219.832692 343.708126 
L 223.051923 343.363423 
L 227.880769 343.079062 
L 234.319231 342.933858 
L 243.976923 342.97801 
L 264.901923 343.171103 
L 268.121154 342.892167 
L 271.340385 342.295447 
L 272.95 341.836109 
L 274.559615 341.229011 
L 276.169231 340.410997 
L 277.778846 339.340864 
L 279.388462 337.987696 
L 285.826923 331.644449 
L 287.436538 330.481391 
L 289.046154 329.566534 
L 290.655769 328.838677 
L 292.265385 328.282301 
L 295.484615 327.484042 
L 300.313462 326.635579 
L 305.142308 326.022095 
L 311.580769 325.473856 
L 318.019231 325.219387 
L 324.457692 325.213824 
L 337.334615 325.511957 
L 358.259615 326.149338 
L 374.355769 326.928032 
L 419.425 329.235504 
L 456.446154 330.814653 
L 496.686538 332.33227 
L 536.926923 333.629629 
L 584.28 334.928332 
L 584.28 334.928332 
" style="fill:none;stroke:#0080bf;stroke-linecap:square;"/>
   </g>
   <g id="line2d_5">
    <path clip-path="url(#p2989d2fbe4)" d="M -1 349.7425 
L 210.175 349.71862 
L 213.394231 349.595736 
L 237.538462 349.405342 
L 269.730769 349.188545 
L 274.559615 348.819646 
L 282.607692 348.063899 
L 289.046154 347.774113 
L 298.703846 347.620482 
L 324.457692 347.413647 
L 326.067308 347.195248 
L 327.676923 346.697957 
L 329.286538 345.736799 
L 330.896154 344.316897 
L 332.505769 342.725572 
L 334.115385 341.332429 
L 335.725 340.220906 
L 337.334615 339.389319 
L 338.944231 338.79864 
L 340.553846 338.3689 
L 343.773077 337.831513 
L 346.992308 337.546726 
L 353.430769 337.303693 
L 374.355769 336.999291 
L 396.890385 336.812046 
L 419.425 336.89035 
L 464.494231 337.257241 
L 584.28 338.821363 
L 584.28 338.821363 
" style="fill:none;stroke:#00aaaa;stroke-linecap:square;"/>
   </g>
   <g id="line2d_6">
    <path clip-path="url(#p2989d2fbe4)" d="M -1 349.7425 
L 247.196154 349.633617 
L 287.436538 349.525299 
L 324.457692 349.398861 
L 335.725 349.062971 
L 350.211538 348.634013 
L 364.698077 348.50873 
L 393.671154 348.312385 
L 395.280769 348.08958 
L 396.890385 347.670812 
L 398.5 347.027223 
L 403.328846 344.73638 
L 404.938462 344.198979 
L 408.157692 343.518648 
L 411.376923 343.172481 
L 416.205769 342.938958 
L 425.863462 342.780229 
L 461.275 342.307429 
L 482.2 342.123309 
L 511.173077 342.142336 
L 584.28 342.302693 
L 584.28 342.302693 
" style="fill:none;stroke:#00d594;stroke-linecap:square;"/>
   </g>
   <g id="line2d_7">
    <path clip-path="url(#p2989d2fbe4)" d="M -1 348.9055 
L 107.159615 348.9055 
L 116.817308 348.75484 
L 131.303846 348.6823 
L 150.619231 348.64324 
L 160.276923 348.47584 
L 169.934615 348.0406 
L 179.592308 347.51608 
L 184.421154 347.4268 
L 189.25 347.04736 
L 194.078846 345.51286 
L 198.907692 343.7161 
L 203.736538 342.3211 
L 213.394231 340.2565 
L 218.223077 339.1405 
L 227.880769 337.2991 
L 232.709615 336.0715 
L 237.538462 334.3975 
L 242.367308 331.4401 
L 247.196154 326.7529 
L 252.025 317.8249 
L 256.853846 313.1377 
L 261.682692 309.7897 
L 266.511538 307.9483 
L 271.340385 306.9439 
L 276.169231 306.2743 
L 280.998077 305.9953 
L 290.655769 305.7163 
L 295.484615 305.6605 
L 305.142308 304.9909 
L 314.8 304.8235 
L 324.457692 304.7677 
L 334.115385 304.7677 
L 353.430769 305.2141 
L 358.259615 305.4931 
L 367.917308 306.2743 
L 382.403846 308.3389 
L 401.719231 312.1891 
L 411.376923 314.2537 
L 454.836538 322.7353 
L 464.494231 326.1949 
L 469.323077 328.0363 
L 478.980769 332.0539 
L 488.638462 335.4019 
L 493.467308 336.7411 
L 498.296154 337.7455 
L 507.953846 338.9731 
L 512.782692 339.4195 
L 522.440385 340.4797 
L 532.098077 341.2051 
L 536.926923 341.4841 
L 570.728846 342.6001 
L 584.28 342.913282 
L 584.28 342.913282 
" style="fill:none;stroke:#000000;stroke-dasharray:6.000000,6.000000;stroke-dashoffset:0.0;stroke-width:2.0;"/>
   </g>
   <g id="text_1">
    <g id="patch_3">
     <path clip-path="url(#p2989d2fbe4)" d="M 172.890538 150.667355 
L 173.923734 117.055106 
L 159.252538 116.604133 
L 158.219343 150.216382 
z
" style="fill:#ffffff;stroke:#ffffff;stroke-linejoin:miter;"/>
    </g>
    <g clip-path="url(#p2989d2fbe4)">
     <!-- 0.003 -->
     <defs>
      <path d="M 40.578125 39.3125 
Q 47.65625 37.796875 51.625 33 
Q 55.609375 28.21875 55.609375 21.1875 
Q 55.609375 10.40625 48.1875 4.484375 
Q 40.765625 -1.421875 27.09375 -1.421875 
Q 22.515625 -1.421875 17.65625 -0.515625 
Q 12.796875 0.390625 7.625 2.203125 
L 7.625 11.71875 
Q 11.71875 9.328125 16.59375 8.109375 
Q 21.484375 6.890625 26.8125 6.890625 
Q 36.078125 6.890625 40.9375 10.546875 
Q 45.796875 14.203125 45.796875 21.1875 
Q 45.796875 27.640625 41.28125 31.265625 
Q 36.765625 34.90625 28.71875 34.90625 
L 20.21875 34.90625 
L 20.21875 43.015625 
L 29.109375 43.015625 
Q 36.375 43.015625 40.234375 45.921875 
Q 44.09375 48.828125 44.09375 54.296875 
Q 44.09375 59.90625 40.109375 62.90625 
Q 36.140625 65.921875 28.71875 65.921875 
Q 24.65625 65.921875 20.015625 65.03125 
Q 15.375 64.15625 9.8125 62.3125 
L 9.8125 71.09375 
Q 15.4375 72.65625 20.34375 73.4375 
Q 25.25 74.21875 29.59375 74.21875 
Q 40.828125 74.21875 47.359375 69.109375 
Q 53.90625 64.015625 53.90625 55.328125 
Q 53.90625 49.265625 50.4375 45.09375 
Q 46.96875 40.921875 40.578125 39.3125 
" id="BitstreamVeraSans-Roman-33"/>
      <path d="M 31.78125 66.40625 
Q 24.171875 66.40625 20.328125 58.90625 
Q 16.5 51.421875 16.5 36.375 
Q 16.5 21.390625 20.328125 13.890625 
Q 24.171875 6.390625 31.78125 6.390625 
Q 39.453125 6.390625 43.28125 13.890625 
Q 47.125 21.390625 47.125 36.375 
Q 47.125 51.421875 43.28125 58.90625 
Q 39.453125 66.40625 31.78125 66.40625 
M 31.78125 74.21875 
Q 44.046875 74.21875 50.515625 64.515625 
Q 56.984375 54.828125 56.984375 36.375 
Q 56.984375 17.96875 50.515625 8.265625 
Q 44.046875 -1.421875 31.78125 -1.421875 
Q 19.53125 -1.421875 13.0625 8.265625 
Q 6.59375 17.96875 6.59375 36.375 
Q 6.59375 54.828125 13.0625 64.515625 
Q 19.53125 74.21875 31.78125 74.21875 
" id="BitstreamVeraSans-Roman-30"/>
      <path d="M 10.6875 12.40625 
L 21 12.40625 
L 21 0 
L 10.6875 0 
z
" id="BitstreamVeraSans-Roman-2e"/>
     </defs>
     <g style="fill:#0000ff;" transform="translate(168.389823394 148.027828522)rotate(-88.2393589296)scale(0.1 -0.1)">
      <use xlink:href="#BitstreamVeraSans-Roman-30"/>
      <use x="63.623046875" xlink:href="#BitstreamVeraSans-Roman-2e"/>
      <use x="95.41015625" xlink:href="#BitstreamVeraSans-Roman-30"/>
      <use x="159.033203125" xlink:href="#BitstreamVeraSans-Roman-30"/>
      <use x="222.65625" xlink:href="#BitstreamVeraSans-Roman-33"/>
     </g>
    </g>
   </g>
   <g id="text_2">
    <g id="patch_4">
     <path clip-path="url(#p2989d2fbe4)" d="M 201.105191 269.063375 
L 203.62103 235.529492 
L 188.984039 234.43137 
L 186.468201 267.965253 
z
" style="fill:#ffffff;stroke:#ffffff;stroke-linejoin:miter;"/>
    </g>
    <g clip-path="url(#p2989d2fbe4)">
     <!-- 0.004 -->
     <defs>
      <path d="M 37.796875 64.3125 
L 12.890625 25.390625 
L 37.796875 25.390625 
z
M 35.203125 72.90625 
L 47.609375 72.90625 
L 47.609375 25.390625 
L 58.015625 25.390625 
L 58.015625 17.1875 
L 47.609375 17.1875 
L 47.609375 0 
L 37.796875 0 
L 37.796875 17.1875 
L 4.890625 17.1875 
L 4.890625 26.703125 
z
" id="BitstreamVeraSans-Roman-34"/>
     </defs>
     <g style="fill:#002aea;" transform="translate(196.725371956 266.227759029)rotate(-85.7094923381)scale(0.1 -0.1)">
      <use xlink:href="#BitstreamVeraSans-Roman-30"/>
      <use x="63.623046875" xlink:href="#BitstreamVeraSans-Roman-2e"/>
      <use x="95.41015625" xlink:href="#BitstreamVeraSans-Roman-30"/>
      <use x="159.033203125" xlink:href="#BitstreamVeraSans-Roman-30"/>
      <use x="222.65625" xlink:href="#BitstreamVeraSans-Roman-34"/>
     </g>
    </g>
   </g>
   <g id="text_3">
    <g id="patch_5">
     <path clip-path="url(#p2989d2fbe4)" d="M 240.079205 324.329143 
L 249.133762 291.942946 
L 234.997718 287.99078 
L 225.943161 320.376978 
z
" style="fill:#ffffff;stroke:#ffffff;stroke-linejoin:miter;"/>
    </g>
    <g clip-path="url(#p2989d2fbe4)">
     <!-- 0.005 -->
     <defs>
      <path d="M 10.796875 72.90625 
L 49.515625 72.90625 
L 49.515625 64.59375 
L 19.828125 64.59375 
L 19.828125 46.734375 
Q 21.96875 47.46875 24.109375 47.828125 
Q 26.265625 48.1875 28.421875 48.1875 
Q 40.625 48.1875 47.75 41.5 
Q 54.890625 34.8125 54.890625 23.390625 
Q 54.890625 11.625 47.5625 5.09375 
Q 40.234375 -1.421875 26.90625 -1.421875 
Q 22.3125 -1.421875 17.546875 -0.640625 
Q 12.796875 0.140625 7.71875 1.703125 
L 7.71875 11.625 
Q 12.109375 9.234375 16.796875 8.0625 
Q 21.484375 6.890625 26.703125 6.890625 
Q 35.15625 6.890625 40.078125 11.328125 
Q 45.015625 15.765625 45.015625 23.390625 
Q 45.015625 31 40.078125 35.4375 
Q 35.15625 39.890625 26.703125 39.890625 
Q 22.75 39.890625 18.8125 39.015625 
Q 14.890625 38.140625 10.796875 36.28125 
z
" id="BitstreamVeraSans-Roman-35"/>
     </defs>
     <g style="fill:#0055d4;" transform="translate(236.341789527 320.688365514)rotate(-74.3800309296)scale(0.1 -0.1)">
      <use xlink:href="#BitstreamVeraSans-Roman-30"/>
      <use x="63.623046875" xlink:href="#BitstreamVeraSans-Roman-2e"/>
      <use x="95.41015625" xlink:href="#BitstreamVeraSans-Roman-30"/>
      <use x="159.033203125" xlink:href="#BitstreamVeraSans-Roman-30"/>
      <use x="222.65625" xlink:href="#BitstreamVeraSans-Roman-35"/>
     </g>
    </g>
   </g>
   <g id="text_4">
    <g id="patch_6">
     <path clip-path="url(#p2989d2fbe4)" d="M 298.242227 333.210669 
L 331.851335 332.079901 
L 331.357773 317.410077 
L 297.748665 318.540845 
z
" style="fill:#ffffff;stroke:#ffffff;stroke-linejoin:miter;"/>
    </g>
    <g clip-path="url(#p2989d2fbe4)">
     <!-- 0.006 -->
     <defs>
      <path d="M 33.015625 40.375 
Q 26.375 40.375 22.484375 35.828125 
Q 18.609375 31.296875 18.609375 23.390625 
Q 18.609375 15.53125 22.484375 10.953125 
Q 26.375 6.390625 33.015625 6.390625 
Q 39.65625 6.390625 43.53125 10.953125 
Q 47.40625 15.53125 47.40625 23.390625 
Q 47.40625 31.296875 43.53125 35.828125 
Q 39.65625 40.375 33.015625 40.375 
M 52.59375 71.296875 
L 52.59375 62.3125 
Q 48.875 64.0625 45.09375 64.984375 
Q 41.3125 65.921875 37.59375 65.921875 
Q 27.828125 65.921875 22.671875 59.328125 
Q 17.53125 52.734375 16.796875 39.40625 
Q 19.671875 43.65625 24.015625 45.921875 
Q 28.375 48.1875 33.59375 48.1875 
Q 44.578125 48.1875 50.953125 41.515625 
Q 57.328125 34.859375 57.328125 23.390625 
Q 57.328125 12.15625 50.6875 5.359375 
Q 44.046875 -1.421875 33.015625 -1.421875 
Q 20.359375 -1.421875 13.671875 8.265625 
Q 6.984375 17.96875 6.984375 36.375 
Q 6.984375 53.65625 15.1875 63.9375 
Q 23.390625 74.21875 37.203125 74.21875 
Q 40.921875 74.21875 44.703125 73.484375 
Q 48.484375 72.75 52.59375 71.296875 
" id="BitstreamVeraSans-Roman-36"/>
     </defs>
     <g style="fill:#0080bf;" transform="translate(300.586817965 328.549507375)rotate(-1.92697206118)scale(0.1 -0.1)">
      <use xlink:href="#BitstreamVeraSans-Roman-30"/>
      <use x="63.623046875" xlink:href="#BitstreamVeraSans-Roman-2e"/>
      <use x="95.41015625" xlink:href="#BitstreamVeraSans-Roman-30"/>
      <use x="159.033203125" xlink:href="#BitstreamVeraSans-Roman-30"/>
      <use x="222.65625" xlink:href="#BitstreamVeraSans-Roman-36"/>
     </g>
    </g>
   </g>
   <g id="text_5">
    <g id="patch_7">
     <path clip-path="url(#p2989d2fbe4)" d="M 375.279005 344.238541 
L 408.906822 344.094779 
L 408.844072 329.416788 
L 375.216255 329.56055 
z
" style="fill:#ffffff;stroke:#ffffff;stroke-linejoin:miter;"/>
    </g>
    <g clip-path="url(#p2989d2fbe4)">
     <!-- 0.007 -->
     <defs>
      <path d="M 8.203125 72.90625 
L 55.078125 72.90625 
L 55.078125 68.703125 
L 28.609375 0 
L 18.3125 0 
L 43.21875 64.59375 
L 8.203125 64.59375 
z
" id="BitstreamVeraSans-Roman-37"/>
     </defs>
     <g style="fill:#00aaaa;" transform="translate(377.759403243 339.648207951)rotate(-0.244943316299)scale(0.1 -0.1)">
      <use xlink:href="#BitstreamVeraSans-Roman-30"/>
      <use x="63.623046875" xlink:href="#BitstreamVeraSans-Roman-2e"/>
      <use x="95.41015625" xlink:href="#BitstreamVeraSans-Roman-30"/>
      <use x="159.033203125" xlink:href="#BitstreamVeraSans-Roman-30"/>
      <use x="222.65625" xlink:href="#BitstreamVeraSans-Roman-37"/>
     </g>
    </g>
   </g>
   <g id="text_6">
    <g id="patch_8">
     <path clip-path="url(#p2989d2fbe4)" d="M 452.581184 349.71136 
L 486.207719 349.384317 
L 486.06497 334.706886 
L 452.438435 335.033929 
z
" style="fill:#ffffff;stroke:#ffffff;stroke-linejoin:miter;"/>
    </g>
    <g clip-path="url(#p2989d2fbe4)">
     <!-- 0.008 -->
     <defs>
      <path d="M 31.78125 34.625 
Q 24.75 34.625 20.71875 30.859375 
Q 16.703125 27.09375 16.703125 20.515625 
Q 16.703125 13.921875 20.71875 10.15625 
Q 24.75 6.390625 31.78125 6.390625 
Q 38.8125 6.390625 42.859375 10.171875 
Q 46.921875 13.96875 46.921875 20.515625 
Q 46.921875 27.09375 42.890625 30.859375 
Q 38.875 34.625 31.78125 34.625 
M 21.921875 38.8125 
Q 15.578125 40.375 12.03125 44.71875 
Q 8.5 49.078125 8.5 55.328125 
Q 8.5 64.0625 14.71875 69.140625 
Q 20.953125 74.21875 31.78125 74.21875 
Q 42.671875 74.21875 48.875 69.140625 
Q 55.078125 64.0625 55.078125 55.328125 
Q 55.078125 49.078125 51.53125 44.71875 
Q 48 40.375 41.703125 38.8125 
Q 48.828125 37.15625 52.796875 32.3125 
Q 56.78125 27.484375 56.78125 20.515625 
Q 56.78125 9.90625 50.3125 4.234375 
Q 43.84375 -1.421875 31.78125 -1.421875 
Q 19.734375 -1.421875 13.25 4.234375 
Q 6.78125 9.90625 6.78125 20.515625 
Q 6.78125 27.484375 10.78125 32.3125 
Q 14.796875 37.15625 21.921875 38.8125 
M 18.3125 54.390625 
Q 18.3125 48.734375 21.84375 45.5625 
Q 25.390625 42.390625 31.78125 42.390625 
Q 38.140625 42.390625 41.71875 45.5625 
Q 45.3125 48.734375 45.3125 54.390625 
Q 45.3125 60.0625 41.71875 63.234375 
Q 38.140625 66.40625 31.78125 66.40625 
Q 25.390625 66.40625 21.84375 63.234375 
Q 18.3125 60.0625 18.3125 54.390625 
" id="BitstreamVeraSans-Roman-38"/>
     </defs>
     <g style="fill:#00d594;" transform="translate(455.036527034 345.107575468)rotate(-0.557225905526)scale(0.1 -0.1)">
      <use xlink:href="#BitstreamVeraSans-Roman-30"/>
      <use x="63.623046875" xlink:href="#BitstreamVeraSans-Roman-2e"/>
      <use x="95.41015625" xlink:href="#BitstreamVeraSans-Roman-30"/>
      <use x="159.033203125" xlink:href="#BitstreamVeraSans-Roman-30"/>
      <use x="222.65625" xlink:href="#BitstreamVeraSans-Roman-38"/>
     </g>
    </g>
   </g>
   <g id="patch_9">
    <path d="M 63.7 14.9425 
L 565.9 14.9425 
" style="fill:none;stroke:#000000;stroke-linecap:square;stroke-linejoin:miter;"/>
   </g>
   <g id="patch_10">
    <path d="M 565.9 349.7425 
L 565.9 14.9425 
" style="fill:none;stroke:#000000;stroke-linecap:square;stroke-linejoin:miter;"/>
   </g>
   <g id="patch_11">
    <path d="M 63.7 349.7425 
L 565.9 349.7425 
" style="fill:none;stroke:#000000;stroke-linecap:square;stroke-linejoin:miter;"/>
   </g>
   <g id="patch_12">
    <path d="M 63.7 349.7425 
L 63.7 14.9425 
" style="fill:none;stroke:#000000;stroke-linecap:square;stroke-linejoin:miter;"/>
   </g>
   <g id="matplotlib.axis_1">
    <g id="xtick_1">
     <g id="line2d_8">
      <defs>
       <path d="M 0 0 
L 0 -4 
" id="m89f9919a35" style="stroke:#000000;stroke-width:0.5;"/>
      </defs>
      <g>
       <use style="stroke:#000000;stroke-width:0.5;" x="83.0153846154" xlink:href="#m89f9919a35" y="349.7425"/>
      </g>
     </g>
     <g id="line2d_9">
      <defs>
       <path d="M 0 0 
L 0 4 
" id="m0303a991ea" style="stroke:#000000;stroke-width:0.5;"/>
      </defs>
      <g>
       <use style="stroke:#000000;stroke-width:0.5;" x="83.0153846154" xlink:href="#m0303a991ea" y="14.9425"/>
      </g>
     </g>
     <g id="text_7">
      <!-- 40 -->
      <g transform="translate(72.8353846154 365.9)scale(0.16 -0.16)">
       <use xlink:href="#BitstreamVeraSans-Roman-34"/>
       <use x="63.623046875" xlink:href="#BitstreamVeraSans-Roman-30"/>
      </g>
     </g>
    </g>
    <g id="xtick_2">
     <g id="line2d_10">
      <g>
       <use style="stroke:#000000;stroke-width:0.5;" x="179.592307692" xlink:href="#m89f9919a35" y="349.7425"/>
      </g>
     </g>
     <g id="line2d_11">
      <g>
       <use style="stroke:#000000;stroke-width:0.5;" x="179.592307692" xlink:href="#m0303a991ea" y="14.9425"/>
      </g>
     </g>
     <g id="text_8">
      <!-- 45 -->
      <g transform="translate(169.412307692 365.9)scale(0.16 -0.16)">
       <use xlink:href="#BitstreamVeraSans-Roman-34"/>
       <use x="63.623046875" xlink:href="#BitstreamVeraSans-Roman-35"/>
      </g>
     </g>
    </g>
    <g id="xtick_3">
     <g id="line2d_12">
      <g>
       <use style="stroke:#000000;stroke-width:0.5;" x="276.169230769" xlink:href="#m89f9919a35" y="349.7425"/>
      </g>
     </g>
     <g id="line2d_13">
      <g>
       <use style="stroke:#000000;stroke-width:0.5;" x="276.169230769" xlink:href="#m0303a991ea" y="14.9425"/>
      </g>
     </g>
     <g id="text_9">
      <!-- 50 -->
      <g transform="translate(265.989230769 365.9)scale(0.16 -0.16)">
       <use xlink:href="#BitstreamVeraSans-Roman-35"/>
       <use x="63.623046875" xlink:href="#BitstreamVeraSans-Roman-30"/>
      </g>
     </g>
    </g>
    <g id="xtick_4">
     <g id="line2d_14">
      <g>
       <use style="stroke:#000000;stroke-width:0.5;" x="372.746153846" xlink:href="#m89f9919a35" y="349.7425"/>
      </g>
     </g>
     <g id="line2d_15">
      <g>
       <use style="stroke:#000000;stroke-width:0.5;" x="372.746153846" xlink:href="#m0303a991ea" y="14.9425"/>
      </g>
     </g>
     <g id="text_10">
      <!-- 55 -->
      <g transform="translate(362.566153846 365.9)scale(0.16 -0.16)">
       <use xlink:href="#BitstreamVeraSans-Roman-35"/>
       <use x="63.623046875" xlink:href="#BitstreamVeraSans-Roman-35"/>
      </g>
     </g>
    </g>
    <g id="xtick_5">
     <g id="line2d_16">
      <g>
       <use style="stroke:#000000;stroke-width:0.5;" x="469.323076923" xlink:href="#m89f9919a35" y="349.7425"/>
      </g>
     </g>
     <g id="line2d_17">
      <g>
       <use style="stroke:#000000;stroke-width:0.5;" x="469.323076923" xlink:href="#m0303a991ea" y="14.9425"/>
      </g>
     </g>
     <g id="text_11">
      <!-- 60 -->
      <g transform="translate(459.143076923 365.9)scale(0.16 -0.16)">
       <use xlink:href="#BitstreamVeraSans-Roman-36"/>
       <use x="63.623046875" xlink:href="#BitstreamVeraSans-Roman-30"/>
      </g>
     </g>
    </g>
    <g id="xtick_6">
     <g id="line2d_18">
      <g>
       <use style="stroke:#000000;stroke-width:0.5;" x="565.9" xlink:href="#m89f9919a35" y="349.7425"/>
      </g>
     </g>
     <g id="line2d_19">
      <g>
       <use style="stroke:#000000;stroke-width:0.5;" x="565.9" xlink:href="#m0303a991ea" y="14.9425"/>
      </g>
     </g>
     <g id="text_12">
      <!-- 65 -->
      <g transform="translate(555.72 365.9)scale(0.16 -0.16)">
       <use xlink:href="#BitstreamVeraSans-Roman-36"/>
       <use x="63.623046875" xlink:href="#BitstreamVeraSans-Roman-35"/>
      </g>
     </g>
    </g>
    <g id="text_13">
     <!-- simulation time (hours) -->
     <defs>
      <path id="BitstreamVeraSans-Roman-20"/>
      <path d="M 54.890625 33.015625 
L 54.890625 0 
L 45.90625 0 
L 45.90625 32.71875 
Q 45.90625 40.484375 42.875 44.328125 
Q 39.84375 48.1875 33.796875 48.1875 
Q 26.515625 48.1875 22.3125 43.546875 
Q 18.109375 38.921875 18.109375 30.90625 
L 18.109375 0 
L 9.078125 0 
L 9.078125 54.6875 
L 18.109375 54.6875 
L 18.109375 46.1875 
Q 21.34375 51.125 25.703125 53.5625 
Q 30.078125 56 35.796875 56 
Q 45.21875 56 50.046875 50.171875 
Q 54.890625 44.34375 54.890625 33.015625 
" id="BitstreamVeraSans-Roman-6e"/>
      <path d="M 52 44.1875 
Q 55.375 50.25 60.0625 53.125 
Q 64.75 56 71.09375 56 
Q 79.640625 56 84.28125 50.015625 
Q 88.921875 44.046875 88.921875 33.015625 
L 88.921875 0 
L 79.890625 0 
L 79.890625 32.71875 
Q 79.890625 40.578125 77.09375 44.375 
Q 74.3125 48.1875 68.609375 48.1875 
Q 61.625 48.1875 57.5625 43.546875 
Q 53.515625 38.921875 53.515625 30.90625 
L 53.515625 0 
L 44.484375 0 
L 44.484375 32.71875 
Q 44.484375 40.625 41.703125 44.40625 
Q 38.921875 48.1875 33.109375 48.1875 
Q 26.21875 48.1875 22.15625 43.53125 
Q 18.109375 38.875 18.109375 30.90625 
L 18.109375 0 
L 9.078125 0 
L 9.078125 54.6875 
L 18.109375 54.6875 
L 18.109375 46.1875 
Q 21.1875 51.21875 25.484375 53.609375 
Q 29.78125 56 35.6875 56 
Q 41.65625 56 45.828125 52.96875 
Q 50 49.953125 52 44.1875 
" id="BitstreamVeraSans-Roman-6d"/>
      <path d="M 30.609375 48.390625 
Q 23.390625 48.390625 19.1875 42.75 
Q 14.984375 37.109375 14.984375 27.296875 
Q 14.984375 17.484375 19.15625 11.84375 
Q 23.34375 6.203125 30.609375 6.203125 
Q 37.796875 6.203125 41.984375 11.859375 
Q 46.1875 17.53125 46.1875 27.296875 
Q 46.1875 37.015625 41.984375 42.703125 
Q 37.796875 48.390625 30.609375 48.390625 
M 30.609375 56 
Q 42.328125 56 49.015625 48.375 
Q 55.71875 40.765625 55.71875 27.296875 
Q 55.71875 13.875 49.015625 6.21875 
Q 42.328125 -1.421875 30.609375 -1.421875 
Q 18.84375 -1.421875 12.171875 6.21875 
Q 5.515625 13.875 5.515625 27.296875 
Q 5.515625 40.765625 12.171875 48.375 
Q 18.84375 56 30.609375 56 
" id="BitstreamVeraSans-Roman-6f"/>
      <path d="M 9.421875 75.984375 
L 18.40625 75.984375 
L 18.40625 0 
L 9.421875 0 
z
" id="BitstreamVeraSans-Roman-6c"/>
      <path d="M 8.015625 75.875 
L 15.828125 75.875 
Q 23.140625 64.359375 26.78125 53.3125 
Q 30.421875 42.28125 30.421875 31.390625 
Q 30.421875 20.453125 26.78125 9.375 
Q 23.140625 -1.703125 15.828125 -13.1875 
L 8.015625 -13.1875 
Q 14.5 -2 17.703125 9.0625 
Q 20.90625 20.125 20.90625 31.390625 
Q 20.90625 42.671875 17.703125 53.65625 
Q 14.5 64.65625 8.015625 75.875 
" id="BitstreamVeraSans-Roman-29"/>
      <path d="M 9.421875 54.6875 
L 18.40625 54.6875 
L 18.40625 0 
L 9.421875 0 
z
M 9.421875 75.984375 
L 18.40625 75.984375 
L 18.40625 64.59375 
L 9.421875 64.59375 
z
" id="BitstreamVeraSans-Roman-69"/>
      <path d="M 54.890625 33.015625 
L 54.890625 0 
L 45.90625 0 
L 45.90625 32.71875 
Q 45.90625 40.484375 42.875 44.328125 
Q 39.84375 48.1875 33.796875 48.1875 
Q 26.515625 48.1875 22.3125 43.546875 
Q 18.109375 38.921875 18.109375 30.90625 
L 18.109375 0 
L 9.078125 0 
L 9.078125 75.984375 
L 18.109375 75.984375 
L 18.109375 46.1875 
Q 21.34375 51.125 25.703125 53.5625 
Q 30.078125 56 35.796875 56 
Q 45.21875 56 50.046875 50.171875 
Q 54.890625 44.34375 54.890625 33.015625 
" id="BitstreamVeraSans-Roman-68"/>
      <path d="M 41.109375 46.296875 
Q 39.59375 47.171875 37.8125 47.578125 
Q 36.03125 48 33.890625 48 
Q 26.265625 48 22.1875 43.046875 
Q 18.109375 38.09375 18.109375 28.8125 
L 18.109375 0 
L 9.078125 0 
L 9.078125 54.6875 
L 18.109375 54.6875 
L 18.109375 46.1875 
Q 20.953125 51.171875 25.484375 53.578125 
Q 30.03125 56 36.53125 56 
Q 37.453125 56 38.578125 55.875 
Q 39.703125 55.765625 41.0625 55.515625 
z
" id="BitstreamVeraSans-Roman-72"/>
      <path d="M 31 75.875 
Q 24.46875 64.65625 21.28125 53.65625 
Q 18.109375 42.671875 18.109375 31.390625 
Q 18.109375 20.125 21.3125 9.0625 
Q 24.515625 -2 31 -13.1875 
L 23.1875 -13.1875 
Q 15.875 -1.703125 12.234375 9.375 
Q 8.59375 20.453125 8.59375 31.390625 
Q 8.59375 42.28125 12.203125 53.3125 
Q 15.828125 64.359375 23.1875 75.875 
z
" id="BitstreamVeraSans-Roman-28"/>
      <path d="M 56.203125 29.59375 
L 56.203125 25.203125 
L 14.890625 25.203125 
Q 15.484375 15.921875 20.484375 11.0625 
Q 25.484375 6.203125 34.421875 6.203125 
Q 39.59375 6.203125 44.453125 7.46875 
Q 49.3125 8.734375 54.109375 11.28125 
L 54.109375 2.78125 
Q 49.265625 0.734375 44.1875 -0.34375 
Q 39.109375 -1.421875 33.890625 -1.421875 
Q 20.796875 -1.421875 13.15625 6.1875 
Q 5.515625 13.8125 5.515625 26.8125 
Q 5.515625 40.234375 12.765625 48.109375 
Q 20.015625 56 32.328125 56 
Q 43.359375 56 49.78125 48.890625 
Q 56.203125 41.796875 56.203125 29.59375 
M 47.21875 32.234375 
Q 47.125 39.59375 43.09375 43.984375 
Q 39.0625 48.390625 32.421875 48.390625 
Q 24.90625 48.390625 20.390625 44.140625 
Q 15.875 39.890625 15.1875 32.171875 
z
" id="BitstreamVeraSans-Roman-65"/>
      <path d="M 18.3125 70.21875 
L 18.3125 54.6875 
L 36.8125 54.6875 
L 36.8125 47.703125 
L 18.3125 47.703125 
L 18.3125 18.015625 
Q 18.3125 11.328125 20.140625 9.421875 
Q 21.96875 7.515625 27.59375 7.515625 
L 36.8125 7.515625 
L 36.8125 0 
L 27.59375 0 
Q 17.1875 0 13.234375 3.875 
Q 9.28125 7.765625 9.28125 18.015625 
L 9.28125 47.703125 
L 2.6875 47.703125 
L 2.6875 54.6875 
L 9.28125 54.6875 
L 9.28125 70.21875 
z
" id="BitstreamVeraSans-Roman-74"/>
      <path d="M 8.5 21.578125 
L 8.5 54.6875 
L 17.484375 54.6875 
L 17.484375 21.921875 
Q 17.484375 14.15625 20.5 10.265625 
Q 23.53125 6.390625 29.59375 6.390625 
Q 36.859375 6.390625 41.078125 11.03125 
Q 45.3125 15.671875 45.3125 23.6875 
L 45.3125 54.6875 
L 54.296875 54.6875 
L 54.296875 0 
L 45.3125 0 
L 45.3125 8.40625 
Q 42.046875 3.421875 37.71875 1 
Q 33.40625 -1.421875 27.6875 -1.421875 
Q 18.265625 -1.421875 13.375 4.4375 
Q 8.5 10.296875 8.5 21.578125 
" id="BitstreamVeraSans-Roman-75"/>
      <path d="M 34.28125 27.484375 
Q 23.390625 27.484375 19.1875 25 
Q 14.984375 22.515625 14.984375 16.5 
Q 14.984375 11.71875 18.140625 8.90625 
Q 21.296875 6.109375 26.703125 6.109375 
Q 34.1875 6.109375 38.703125 11.40625 
Q 43.21875 16.703125 43.21875 25.484375 
L 43.21875 27.484375 
z
M 52.203125 31.203125 
L 52.203125 0 
L 43.21875 0 
L 43.21875 8.296875 
Q 40.140625 3.328125 35.546875 0.953125 
Q 30.953125 -1.421875 24.3125 -1.421875 
Q 15.921875 -1.421875 10.953125 3.296875 
Q 6 8.015625 6 15.921875 
Q 6 25.140625 12.171875 29.828125 
Q 18.359375 34.515625 30.609375 34.515625 
L 43.21875 34.515625 
L 43.21875 35.40625 
Q 43.21875 41.609375 39.140625 45 
Q 35.0625 48.390625 27.6875 48.390625 
Q 23 48.390625 18.546875 47.265625 
Q 14.109375 46.140625 10.015625 43.890625 
L 10.015625 52.203125 
Q 14.9375 54.109375 19.578125 55.046875 
Q 24.21875 56 28.609375 56 
Q 40.484375 56 46.34375 49.84375 
Q 52.203125 43.703125 52.203125 31.203125 
" id="BitstreamVeraSans-Roman-61"/>
      <path d="M 44.28125 53.078125 
L 44.28125 44.578125 
Q 40.484375 46.53125 36.375 47.5 
Q 32.28125 48.484375 27.875 48.484375 
Q 21.1875 48.484375 17.84375 46.4375 
Q 14.5 44.390625 14.5 40.28125 
Q 14.5 37.15625 16.890625 35.375 
Q 19.28125 33.59375 26.515625 31.984375 
L 29.59375 31.296875 
Q 39.15625 29.25 43.1875 25.515625 
Q 47.21875 21.78125 47.21875 15.09375 
Q 47.21875 7.46875 41.1875 3.015625 
Q 35.15625 -1.421875 24.609375 -1.421875 
Q 20.21875 -1.421875 15.453125 -0.5625 
Q 10.6875 0.296875 5.421875 2 
L 5.421875 11.28125 
Q 10.40625 8.6875 15.234375 7.390625 
Q 20.0625 6.109375 24.8125 6.109375 
Q 31.15625 6.109375 34.5625 8.28125 
Q 37.984375 10.453125 37.984375 14.40625 
Q 37.984375 18.0625 35.515625 20.015625 
Q 33.0625 21.96875 24.703125 23.78125 
L 21.578125 24.515625 
Q 13.234375 26.265625 9.515625 29.90625 
Q 5.8125 33.546875 5.8125 39.890625 
Q 5.8125 47.609375 11.28125 51.796875 
Q 16.75 56 26.8125 56 
Q 31.78125 56 36.171875 55.265625 
Q 40.578125 54.546875 44.28125 53.078125 
" id="BitstreamVeraSans-Roman-73"/>
     </defs>
     <g transform="translate(221.20625 386.385)scale(0.16 -0.16)">
      <use xlink:href="#BitstreamVeraSans-Roman-73"/>
      <use x="52.099609375" xlink:href="#BitstreamVeraSans-Roman-69"/>
      <use x="79.8828125" xlink:href="#BitstreamVeraSans-Roman-6d"/>
      <use x="177.294921875" xlink:href="#BitstreamVeraSans-Roman-75"/>
      <use x="240.673828125" xlink:href="#BitstreamVeraSans-Roman-6c"/>
      <use x="268.45703125" xlink:href="#BitstreamVeraSans-Roman-61"/>
      <use x="329.736328125" xlink:href="#BitstreamVeraSans-Roman-74"/>
      <use x="368.9453125" xlink:href="#BitstreamVeraSans-Roman-69"/>
      <use x="396.728515625" xlink:href="#BitstreamVeraSans-Roman-6f"/>
      <use x="457.91015625" xlink:href="#BitstreamVeraSans-Roman-6e"/>
      <use x="521.2890625" xlink:href="#BitstreamVeraSans-Roman-20"/>
      <use x="553.076171875" xlink:href="#BitstreamVeraSans-Roman-74"/>
      <use x="592.28515625" xlink:href="#BitstreamVeraSans-Roman-69"/>
      <use x="620.068359375" xlink:href="#BitstreamVeraSans-Roman-6d"/>
      <use x="717.48046875" xlink:href="#BitstreamVeraSans-Roman-65"/>
      <use x="779.00390625" xlink:href="#BitstreamVeraSans-Roman-20"/>
      <use x="810.791015625" xlink:href="#BitstreamVeraSans-Roman-28"/>
      <use x="849.8046875" xlink:href="#BitstreamVeraSans-Roman-68"/>
      <use x="913.18359375" xlink:href="#BitstreamVeraSans-Roman-6f"/>
      <use x="974.365234375" xlink:href="#BitstreamVeraSans-Roman-75"/>
      <use x="1037.74414062" xlink:href="#BitstreamVeraSans-Roman-72"/>
      <use x="1078.85742188" xlink:href="#BitstreamVeraSans-Roman-73"/>
      <use x="1130.95703125" xlink:href="#BitstreamVeraSans-Roman-29"/>
     </g>
    </g>
   </g>
   <g id="matplotlib.axis_2">
    <g id="ytick_1">
     <g id="line2d_20">
      <defs>
       <path d="M 0 0 
L 4 0 
" id="ma4acc3a1dc" style="stroke:#000000;stroke-width:0.5;"/>
      </defs>
      <g>
       <use style="stroke:#000000;stroke-width:0.5;" x="63.7" xlink:href="#ma4acc3a1dc" y="349.7425"/>
      </g>
     </g>
     <g id="line2d_21">
      <defs>
       <path d="M 0 0 
L -4 0 
" id="me36272d1df" style="stroke:#000000;stroke-width:0.5;"/>
      </defs>
      <g>
       <use style="stroke:#000000;stroke-width:0.5;" x="565.9" xlink:href="#me36272d1df" y="349.7425"/>
      </g>
     </g>
     <g id="text_14">
      <!-- 0 -->
      <g transform="translate(49.52 354.1575)scale(0.16 -0.16)">
       <use xlink:href="#BitstreamVeraSans-Roman-30"/>
      </g>
     </g>
    </g>
    <g id="ytick_2">
     <g id="line2d_22">
      <g>
       <use style="stroke:#000000;stroke-width:0.5;" x="63.7" xlink:href="#ma4acc3a1dc" y="293.9425"/>
      </g>
     </g>
     <g id="line2d_23">
      <g>
       <use style="stroke:#000000;stroke-width:0.5;" x="565.9" xlink:href="#me36272d1df" y="293.9425"/>
      </g>
     </g>
     <g id="text_15">
      <!-- 100 -->
      <defs>
       <path d="M 12.40625 8.296875 
L 28.515625 8.296875 
L 28.515625 63.921875 
L 10.984375 60.40625 
L 10.984375 69.390625 
L 28.421875 72.90625 
L 38.28125 72.90625 
L 38.28125 8.296875 
L 54.390625 8.296875 
L 54.390625 0 
L 12.40625 0 
z
" id="BitstreamVeraSans-Roman-31"/>
      </defs>
      <g transform="translate(29.16 298.3575)scale(0.16 -0.16)">
       <use xlink:href="#BitstreamVeraSans-Roman-31"/>
       <use x="63.623046875" xlink:href="#BitstreamVeraSans-Roman-30"/>
       <use x="127.24609375" xlink:href="#BitstreamVeraSans-Roman-30"/>
      </g>
     </g>
    </g>
    <g id="ytick_3">
     <g id="line2d_24">
      <g>
       <use style="stroke:#000000;stroke-width:0.5;" x="63.7" xlink:href="#ma4acc3a1dc" y="238.1425"/>
      </g>
     </g>
     <g id="line2d_25">
      <g>
       <use style="stroke:#000000;stroke-width:0.5;" x="565.9" xlink:href="#me36272d1df" y="238.1425"/>
      </g>
     </g>
     <g id="text_16">
      <!-- 200 -->
      <defs>
       <path d="M 19.1875 8.296875 
L 53.609375 8.296875 
L 53.609375 0 
L 7.328125 0 
L 7.328125 8.296875 
Q 12.9375 14.109375 22.625 23.890625 
Q 32.328125 33.6875 34.8125 36.53125 
Q 39.546875 41.84375 41.421875 45.53125 
Q 43.3125 49.21875 43.3125 52.78125 
Q 43.3125 58.59375 39.234375 62.25 
Q 35.15625 65.921875 28.609375 65.921875 
Q 23.96875 65.921875 18.8125 64.3125 
Q 13.671875 62.703125 7.8125 59.421875 
L 7.8125 69.390625 
Q 13.765625 71.78125 18.9375 73 
Q 24.125 74.21875 28.421875 74.21875 
Q 39.75 74.21875 46.484375 68.546875 
Q 53.21875 62.890625 53.21875 53.421875 
Q 53.21875 48.921875 51.53125 44.890625 
Q 49.859375 40.875 45.40625 35.40625 
Q 44.1875 33.984375 37.640625 27.21875 
Q 31.109375 20.453125 19.1875 8.296875 
" id="BitstreamVeraSans-Roman-32"/>
      </defs>
      <g transform="translate(29.16 242.5575)scale(0.16 -0.16)">
       <use xlink:href="#BitstreamVeraSans-Roman-32"/>
       <use x="63.623046875" xlink:href="#BitstreamVeraSans-Roman-30"/>
       <use x="127.24609375" xlink:href="#BitstreamVeraSans-Roman-30"/>
      </g>
     </g>
    </g>
    <g id="ytick_4">
     <g id="line2d_26">
      <g>
       <use style="stroke:#000000;stroke-width:0.5;" x="63.7" xlink:href="#ma4acc3a1dc" y="182.3425"/>
      </g>
     </g>
     <g id="line2d_27">
      <g>
       <use style="stroke:#000000;stroke-width:0.5;" x="565.9" xlink:href="#me36272d1df" y="182.3425"/>
      </g>
     </g>
     <g id="text_17">
      <!-- 300 -->
      <g transform="translate(29.16 186.7575)scale(0.16 -0.16)">
       <use xlink:href="#BitstreamVeraSans-Roman-33"/>
       <use x="63.623046875" xlink:href="#BitstreamVeraSans-Roman-30"/>
       <use x="127.24609375" xlink:href="#BitstreamVeraSans-Roman-30"/>
      </g>
     </g>
    </g>
    <g id="ytick_5">
     <g id="line2d_28">
      <g>
       <use style="stroke:#000000;stroke-width:0.5;" x="63.7" xlink:href="#ma4acc3a1dc" y="126.5425"/>
      </g>
     </g>
     <g id="line2d_29">
      <g>
       <use style="stroke:#000000;stroke-width:0.5;" x="565.9" xlink:href="#me36272d1df" y="126.5425"/>
      </g>
     </g>
     <g id="text_18">
      <!-- 400 -->
      <g transform="translate(29.16 130.9575)scale(0.16 -0.16)">
       <use xlink:href="#BitstreamVeraSans-Roman-34"/>
       <use x="63.623046875" xlink:href="#BitstreamVeraSans-Roman-30"/>
       <use x="127.24609375" xlink:href="#BitstreamVeraSans-Roman-30"/>
      </g>
     </g>
    </g>
    <g id="ytick_6">
     <g id="line2d_30">
      <g>
       <use style="stroke:#000000;stroke-width:0.5;" x="63.7" xlink:href="#ma4acc3a1dc" y="70.7425"/>
      </g>
     </g>
     <g id="line2d_31">
      <g>
       <use style="stroke:#000000;stroke-width:0.5;" x="565.9" xlink:href="#me36272d1df" y="70.7425"/>
      </g>
     </g>
     <g id="text_19">
      <!-- 500 -->
      <g transform="translate(29.16 75.1575)scale(0.16 -0.16)">
       <use xlink:href="#BitstreamVeraSans-Roman-35"/>
       <use x="63.623046875" xlink:href="#BitstreamVeraSans-Roman-30"/>
       <use x="127.24609375" xlink:href="#BitstreamVeraSans-Roman-30"/>
      </g>
     </g>
    </g>
    <g id="ytick_7">
     <g id="line2d_32">
      <g>
       <use style="stroke:#000000;stroke-width:0.5;" x="63.7" xlink:href="#ma4acc3a1dc" y="14.9425"/>
      </g>
     </g>
     <g id="line2d_33">
      <g>
       <use style="stroke:#000000;stroke-width:0.5;" x="565.9" xlink:href="#me36272d1df" y="14.9425"/>
      </g>
     </g>
     <g id="text_20">
      <!-- 600 -->
      <g transform="translate(29.16 19.3575)scale(0.16 -0.16)">
       <use xlink:href="#BitstreamVeraSans-Roman-36"/>
       <use x="63.623046875" xlink:href="#BitstreamVeraSans-Roman-30"/>
       <use x="127.24609375" xlink:href="#BitstreamVeraSans-Roman-30"/>
      </g>
     </g>
    </g>
    <g id="text_21">
     <!-- water discharge ($m^3s^{-1}$) -->
     <defs>
      <path d="M 9.515625 7.71875 
Q 11.859375 4.296875 15.8125 2.640625 
Q 19.78125 0.984375 24.3125 0.984375 
Q 30.125 0.984375 32.5625 5.9375 
Q 35.015625 10.890625 35.015625 17.1875 
Q 35.015625 20.015625 34.5 22.84375 
Q 33.984375 25.6875 32.765625 28.125 
Q 31.546875 30.5625 29.421875 32.03125 
Q 27.296875 33.5 24.21875 33.5 
L 17.578125 33.5 
Q 16.703125 33.5 16.703125 34.421875 
L 16.703125 35.296875 
Q 16.703125 36.078125 17.578125 36.078125 
L 23.09375 36.53125 
Q 26.609375 36.53125 28.921875 39.15625 
Q 31.25 41.796875 32.328125 45.578125 
Q 33.40625 49.359375 33.40625 52.78125 
Q 33.40625 57.5625 31.15625 60.640625 
Q 28.90625 63.71875 24.3125 63.71875 
Q 20.515625 63.71875 17.046875 62.28125 
Q 13.578125 60.84375 11.53125 57.90625 
Q 11.71875 57.953125 11.859375 57.984375 
Q 12.015625 58.015625 12.203125 58.015625 
Q 14.453125 58.015625 15.96875 56.453125 
Q 17.484375 54.890625 17.484375 52.6875 
Q 17.484375 50.53125 15.96875 48.96875 
Q 14.453125 47.40625 12.203125 47.40625 
Q 10.015625 47.40625 8.453125 48.96875 
Q 6.890625 50.53125 6.890625 52.6875 
Q 6.890625 56.984375 9.46875 60.15625 
Q 12.0625 63.328125 16.140625 64.96875 
Q 20.21875 66.609375 24.3125 66.609375 
Q 27.34375 66.609375 30.703125 65.703125 
Q 34.078125 64.796875 36.8125 63.109375 
Q 39.546875 61.421875 41.28125 58.78125 
Q 43.015625 56.15625 43.015625 52.78125 
Q 43.015625 48.578125 41.140625 45.015625 
Q 39.265625 41.453125 35.984375 38.859375 
Q 32.71875 36.28125 28.8125 35.015625 
Q 33.15625 34.1875 37.0625 31.734375 
Q 40.96875 29.296875 43.328125 25.484375 
Q 45.703125 21.6875 45.703125 17.28125 
Q 45.703125 11.765625 42.671875 7.296875 
Q 39.65625 2.828125 34.71875 0.3125 
Q 29.78125 -2.203125 24.3125 -2.203125 
Q 19.625 -2.203125 14.90625 -0.40625 
Q 10.203125 1.375 7.203125 4.9375 
Q 4.203125 8.5 4.203125 13.484375 
Q 4.203125 15.96875 5.859375 17.625 
Q 7.515625 19.28125 10.015625 19.28125 
Q 11.625 19.28125 12.96875 18.53125 
Q 14.3125 17.78125 15.0625 16.40625 
Q 15.828125 15.046875 15.828125 13.484375 
Q 15.828125 11.03125 14.109375 9.375 
Q 12.40625 7.71875 10.015625 7.71875 
z
" id="Cmr10-33"/>
      <path d="M 9.28125 0 
L 9.28125 3.515625 
Q 21.78125 3.515625 21.78125 6.6875 
L 21.78125 59.1875 
Q 16.609375 56.6875 8.6875 56.6875 
L 8.6875 60.203125 
Q 20.953125 60.203125 27.203125 66.609375 
L 28.609375 66.609375 
Q 28.953125 66.609375 29.265625 66.328125 
Q 29.59375 66.0625 29.59375 65.71875 
L 29.59375 6.6875 
Q 29.59375 3.515625 42.09375 3.515625 
L 42.09375 0 
z
" id="Cmr10-31"/>
      <path d="M 10.203125 23 
Q 9.375 23 8.828125 23.625 
Q 8.296875 24.265625 8.296875 25 
Q 8.296875 25.734375 8.828125 26.359375 
Q 9.375 27 10.203125 27 
L 67.578125 27 
Q 68.359375 27 68.875 26.359375 
Q 69.390625 25.734375 69.390625 25 
Q 69.390625 24.265625 68.875 23.625 
Q 68.359375 23 67.578125 23 
z
" id="Cmsy10-a1"/>
      <path d="M 7.71875 1.703125 
Q 7.71875 2.296875 7.8125 2.59375 
L 15.28125 32.421875 
Q 16.015625 35.203125 16.015625 37.3125 
Q 16.015625 41.609375 13.09375 41.609375 
Q 9.96875 41.609375 8.453125 37.859375 
Q 6.9375 34.125 5.515625 28.421875 
Q 5.515625 28.125 5.21875 27.953125 
Q 4.9375 27.78125 4.6875 27.78125 
L 3.515625 27.78125 
Q 3.171875 27.78125 2.921875 28.140625 
Q 2.6875 28.515625 2.6875 28.8125 
Q 3.765625 33.15625 4.765625 36.171875 
Q 5.765625 39.203125 7.890625 41.6875 
Q 10.015625 44.1875 13.1875 44.1875 
Q 16.9375 44.1875 19.8125 41.8125 
Q 22.703125 39.453125 22.703125 35.796875 
Q 25.6875 39.703125 29.6875 41.9375 
Q 33.6875 44.1875 38.1875 44.1875 
Q 42.921875 44.1875 46.359375 41.765625 
Q 49.8125 39.359375 49.8125 34.90625 
Q 52.875 39.265625 57 41.71875 
Q 61.140625 44.1875 66.015625 44.1875 
Q 71.1875 44.1875 74.328125 41.375 
Q 77.484375 38.578125 77.484375 33.40625 
Q 77.484375 29.296875 75.65625 23.484375 
Q 73.828125 17.671875 71.09375 10.5 
Q 69.671875 7.03125 69.671875 4.5 
Q 69.671875 1.515625 72.015625 1.515625 
Q 75.921875 1.515625 78.515625 5.703125 
Q 81.109375 9.90625 82.171875 14.703125 
Q 82.46875 15.28125 83.015625 15.28125 
L 84.1875 15.28125 
Q 84.578125 15.28125 84.84375 15.015625 
Q 85.109375 14.75 85.109375 14.40625 
Q 85.109375 14.3125 85.015625 14.109375 
Q 83.640625 8.453125 80.25 3.65625 
Q 76.859375 -1.125 71.78125 -1.125 
Q 68.265625 -1.125 65.765625 1.296875 
Q 63.28125 3.71875 63.28125 7.171875 
Q 63.28125 8.9375 64.109375 11.078125 
Q 66.9375 18.609375 68.8125 24.515625 
Q 70.703125 30.421875 70.703125 34.90625 
Q 70.703125 37.703125 69.578125 39.65625 
Q 68.453125 41.609375 65.828125 41.609375 
Q 60.359375 41.609375 56.34375 38.25 
Q 52.34375 34.90625 49.421875 29.390625 
Q 49.21875 28.421875 49.125 27.875 
L 42.671875 2.203125 
Q 42.328125 0.828125 41.125 -0.140625 
Q 39.9375 -1.125 38.484375 -1.125 
Q 37.3125 -1.125 36.40625 -0.34375 
Q 35.5 0.4375 35.5 1.703125 
Q 35.5 2.296875 35.59375 2.59375 
L 42 28.078125 
Q 43.015625 32.171875 43.015625 34.90625 
Q 43.015625 37.703125 41.859375 39.65625 
Q 40.71875 41.609375 37.984375 41.609375 
Q 34.328125 41.609375 31.25 39.984375 
Q 28.171875 38.375 25.875 35.71875 
Q 23.578125 33.0625 21.6875 29.390625 
L 14.890625 2.203125 
Q 14.546875 0.828125 13.34375 -0.140625 
Q 12.15625 -1.125 10.6875 -1.125 
Q 9.46875 -1.125 8.59375 -0.34375 
Q 7.71875 0.4375 7.71875 1.703125 
" id="Cmmi10-6d"/>
      <path d="M 8.6875 6.109375 
Q 11.375 1.515625 19.484375 1.515625 
Q 23 1.515625 26.171875 2.703125 
Q 29.34375 3.90625 31.421875 6.296875 
Q 33.5 8.6875 33.5 12.109375 
Q 33.5 14.703125 31.640625 16.359375 
Q 29.78125 18.015625 27.09375 18.609375 
L 21.6875 19.671875 
Q 17.96875 20.609375 15.578125 23.140625 
Q 13.1875 25.6875 13.1875 29.296875 
Q 13.1875 33.734375 15.59375 37.15625 
Q 18.015625 40.578125 21.96875 42.375 
Q 25.921875 44.1875 30.171875 44.1875 
Q 34.71875 44.1875 38.296875 42.015625 
Q 41.890625 39.84375 41.890625 35.59375 
Q 41.890625 33.296875 40.59375 31.53125 
Q 39.3125 29.78125 37.015625 29.78125 
Q 35.6875 29.78125 34.734375 30.640625 
Q 33.796875 31.5 33.796875 32.8125 
Q 33.796875 33.984375 34.453125 35.078125 
Q 35.109375 36.1875 36.203125 36.84375 
Q 37.3125 37.5 38.484375 37.5 
Q 37.59375 39.65625 35.171875 40.625 
Q 32.765625 41.609375 29.984375 41.609375 
Q 27.4375 41.609375 24.890625 40.578125 
Q 22.359375 39.546875 20.8125 37.5625 
Q 19.28125 35.59375 19.28125 32.90625 
Q 19.28125 31.109375 20.546875 29.734375 
Q 21.828125 28.375 23.6875 27.78125 
L 29.5 26.609375 
Q 32.28125 26.03125 34.59375 24.53125 
Q 36.921875 23.046875 38.25 20.765625 
Q 39.59375 18.5 39.59375 15.578125 
Q 39.59375 11.859375 37.515625 8.25 
Q 35.453125 4.640625 32.421875 2.484375 
Q 27.09375 -1.125 19.390625 -1.125 
Q 14.0625 -1.125 9.609375 1.3125 
Q 5.171875 3.765625 5.171875 8.59375 
Q 5.171875 11.328125 6.75 13.34375 
Q 8.34375 15.375 11.078125 15.375 
Q 12.703125 15.375 13.796875 14.390625 
Q 14.890625 13.421875 14.890625 11.8125 
Q 14.890625 9.515625 13.171875 7.8125 
Q 11.46875 6.109375 9.1875 6.109375 
z
" id="Cmmi10-73"/>
      <path d="M 45.40625 46.390625 
L 45.40625 75.984375 
L 54.390625 75.984375 
L 54.390625 0 
L 45.40625 0 
L 45.40625 8.203125 
Q 42.578125 3.328125 38.25 0.953125 
Q 33.9375 -1.421875 27.875 -1.421875 
Q 17.96875 -1.421875 11.734375 6.484375 
Q 5.515625 14.40625 5.515625 27.296875 
Q 5.515625 40.1875 11.734375 48.09375 
Q 17.96875 56 27.875 56 
Q 33.9375 56 38.25 53.625 
Q 42.578125 51.265625 45.40625 46.390625 
M 14.796875 27.296875 
Q 14.796875 17.390625 18.875 11.75 
Q 22.953125 6.109375 30.078125 6.109375 
Q 37.203125 6.109375 41.296875 11.75 
Q 45.40625 17.390625 45.40625 27.296875 
Q 45.40625 37.203125 41.296875 42.84375 
Q 37.203125 48.484375 30.078125 48.484375 
Q 22.953125 48.484375 18.875 42.84375 
Q 14.796875 37.203125 14.796875 27.296875 
" id="BitstreamVeraSans-Roman-64"/>
      <path d="M 4.203125 54.6875 
L 13.1875 54.6875 
L 24.421875 12.015625 
L 35.59375 54.6875 
L 46.1875 54.6875 
L 57.421875 12.015625 
L 68.609375 54.6875 
L 77.59375 54.6875 
L 63.28125 0 
L 52.6875 0 
L 40.921875 44.828125 
L 29.109375 0 
L 18.5 0 
z
" id="BitstreamVeraSans-Roman-77"/>
      <path d="M 45.40625 27.984375 
Q 45.40625 37.75 41.375 43.109375 
Q 37.359375 48.484375 30.078125 48.484375 
Q 22.859375 48.484375 18.828125 43.109375 
Q 14.796875 37.75 14.796875 27.984375 
Q 14.796875 18.265625 18.828125 12.890625 
Q 22.859375 7.515625 30.078125 7.515625 
Q 37.359375 7.515625 41.375 12.890625 
Q 45.40625 18.265625 45.40625 27.984375 
M 54.390625 6.78125 
Q 54.390625 -7.171875 48.1875 -13.984375 
Q 42 -20.796875 29.203125 -20.796875 
Q 24.46875 -20.796875 20.265625 -20.09375 
Q 16.0625 -19.390625 12.109375 -17.921875 
L 12.109375 -9.1875 
Q 16.0625 -11.328125 19.921875 -12.34375 
Q 23.78125 -13.375 27.78125 -13.375 
Q 36.625 -13.375 41.015625 -8.765625 
Q 45.40625 -4.15625 45.40625 5.171875 
L 45.40625 9.625 
Q 42.625 4.78125 38.28125 2.390625 
Q 33.9375 0 27.875 0 
Q 17.828125 0 11.671875 7.65625 
Q 5.515625 15.328125 5.515625 27.984375 
Q 5.515625 40.671875 11.671875 48.328125 
Q 17.828125 56 27.875 56 
Q 33.9375 56 38.28125 53.609375 
Q 42.625 51.21875 45.40625 46.390625 
L 45.40625 54.6875 
L 54.390625 54.6875 
z
" id="BitstreamVeraSans-Roman-67"/>
      <path d="M 48.78125 52.59375 
L 48.78125 44.1875 
Q 44.96875 46.296875 41.140625 47.34375 
Q 37.3125 48.390625 33.40625 48.390625 
Q 24.65625 48.390625 19.8125 42.84375 
Q 14.984375 37.3125 14.984375 27.296875 
Q 14.984375 17.28125 19.8125 11.734375 
Q 24.65625 6.203125 33.40625 6.203125 
Q 37.3125 6.203125 41.140625 7.25 
Q 44.96875 8.296875 48.78125 10.40625 
L 48.78125 2.09375 
Q 45.015625 0.34375 40.984375 -0.53125 
Q 36.96875 -1.421875 32.421875 -1.421875 
Q 20.0625 -1.421875 12.78125 6.34375 
Q 5.515625 14.109375 5.515625 27.296875 
Q 5.515625 40.671875 12.859375 48.328125 
Q 20.21875 56 33.015625 56 
Q 37.15625 56 41.109375 55.140625 
Q 45.0625 54.296875 48.78125 52.59375 
" id="BitstreamVeraSans-Roman-63"/>
     </defs>
     <g transform="translate(20.8 278.3425)rotate(-90.0)scale(0.16 -0.16)">
      <use transform="translate(0.0 0.109375)" xlink:href="#BitstreamVeraSans-Roman-77"/>
      <use transform="translate(81.787109375 0.109375)" xlink:href="#BitstreamVeraSans-Roman-61"/>
      <use transform="translate(143.06640625 0.109375)" xlink:href="#BitstreamVeraSans-Roman-74"/>
      <use transform="translate(182.275390625 0.109375)" xlink:href="#BitstreamVeraSans-Roman-65"/>
      <use transform="translate(243.798828125 0.109375)" xlink:href="#BitstreamVeraSans-Roman-72"/>
      <use transform="translate(284.912109375 0.109375)" xlink:href="#BitstreamVeraSans-Roman-20"/>
      <use transform="translate(316.69921875 0.109375)" xlink:href="#BitstreamVeraSans-Roman-64"/>
      <use transform="translate(380.17578125 0.109375)" xlink:href="#BitstreamVeraSans-Roman-69"/>
      <use transform="translate(407.958984375 0.109375)" xlink:href="#BitstreamVeraSans-Roman-73"/>
      <use transform="translate(460.05859375 0.109375)" xlink:href="#BitstreamVeraSans-Roman-63"/>
      <use transform="translate(515.0390625 0.109375)" xlink:href="#BitstreamVeraSans-Roman-68"/>
      <use transform="translate(578.41796875 0.109375)" xlink:href="#BitstreamVeraSans-Roman-61"/>
      <use transform="translate(639.697265625 0.109375)" xlink:href="#BitstreamVeraSans-Roman-72"/>
      <use transform="translate(680.810546875 0.109375)" xlink:href="#BitstreamVeraSans-Roman-67"/>
      <use transform="translate(744.287109375 0.109375)" xlink:href="#BitstreamVeraSans-Roman-65"/>
      <use transform="translate(805.810546875 0.109375)" xlink:href="#BitstreamVeraSans-Roman-20"/>
      <use transform="translate(837.59765625 0.109375)" xlink:href="#BitstreamVeraSans-Roman-28"/>
      <use transform="translate(876.611328125 0.109375)" xlink:href="#Cmmi10-6d"/>
      <use transform="translate(970.707578125 38.3734375)scale(0.7)" xlink:href="#Cmr10-33"/>
      <use transform="translate(1012.08492187 0.109375)" xlink:href="#Cmmi10-73"/>
      <use transform="translate(1065.16554688 38.3734375)scale(0.7)" xlink:href="#Cmsy10-a1"/>
      <use transform="translate(1119.54542969 38.3734375)scale(0.7)" xlink:href="#Cmr10-31"/>
      <use transform="translate(1160.92277344 0.109375)" xlink:href="#BitstreamVeraSans-Roman-29"/>
     </g>
    </g>
   </g>
   <g id="legend_1">
    <g id="patch_13">
     <path d="M 446.35 162.090625 
L 548.42875 162.090625 
L 548.42875 35.194375 
L 446.35 35.194375 
z
" style="fill:#ffffff;stroke:#000000;stroke-linejoin:miter;"/>
    </g>
    <g id="line2d_34">
     <path d="M 454.75 44.9125 
L 471.55 44.9125 
" style="fill:none;stroke:#0000ff;stroke-linecap:square;"/>
    </g>
    <g id="line2d_35"/>
    <g id="text_22">
     <!-- 0.003 -->
     <g transform="translate(484.75 49.1125)scale(0.12 -0.12)">
      <use xlink:href="#BitstreamVeraSans-Roman-30"/>
      <use x="63.623046875" xlink:href="#BitstreamVeraSans-Roman-2e"/>
      <use x="95.41015625" xlink:href="#BitstreamVeraSans-Roman-30"/>
      <use x="159.033203125" xlink:href="#BitstreamVeraSans-Roman-30"/>
      <use x="222.65625" xlink:href="#BitstreamVeraSans-Roman-33"/>
     </g>
    </g>
    <g id="line2d_36">
     <path d="M 454.75 62.52625 
L 471.55 62.52625 
" style="fill:none;stroke:#002aea;stroke-linecap:square;"/>
    </g>
    <g id="line2d_37"/>
    <g id="text_23">
     <!-- 0.004 -->
     <g transform="translate(484.75 66.72625)scale(0.12 -0.12)">
      <use xlink:href="#BitstreamVeraSans-Roman-30"/>
      <use x="63.623046875" xlink:href="#BitstreamVeraSans-Roman-2e"/>
      <use x="95.41015625" xlink:href="#BitstreamVeraSans-Roman-30"/>
      <use x="159.033203125" xlink:href="#BitstreamVeraSans-Roman-30"/>
      <use x="222.65625" xlink:href="#BitstreamVeraSans-Roman-34"/>
     </g>
    </g>
    <g id="line2d_38">
     <path d="M 454.75 80.14 
L 471.55 80.14 
" style="fill:none;stroke:#0055d4;stroke-linecap:square;"/>
    </g>
    <g id="line2d_39"/>
    <g id="text_24">
     <!-- 0.005 -->
     <g transform="translate(484.75 84.34)scale(0.12 -0.12)">
      <use xlink:href="#BitstreamVeraSans-Roman-30"/>
      <use x="63.623046875" xlink:href="#BitstreamVeraSans-Roman-2e"/>
      <use x="95.41015625" xlink:href="#BitstreamVeraSans-Roman-30"/>
      <use x="159.033203125" xlink:href="#BitstreamVeraSans-Roman-30"/>
      <use x="222.65625" xlink:href="#BitstreamVeraSans-Roman-35"/>
     </g>
    </g>
    <g id="line2d_40">
     <path d="M 454.75 97.75375 
L 471.55 97.75375 
" style="fill:none;stroke:#0080bf;stroke-linecap:square;"/>
    </g>
    <g id="line2d_41"/>
    <g id="text_25">
     <!-- 0.006 -->
     <g transform="translate(484.75 101.95375)scale(0.12 -0.12)">
      <use xlink:href="#BitstreamVeraSans-Roman-30"/>
      <use x="63.623046875" xlink:href="#BitstreamVeraSans-Roman-2e"/>
      <use x="95.41015625" xlink:href="#BitstreamVeraSans-Roman-30"/>
      <use x="159.033203125" xlink:href="#BitstreamVeraSans-Roman-30"/>
      <use x="222.65625" xlink:href="#BitstreamVeraSans-Roman-36"/>
     </g>
    </g>
    <g id="line2d_42">
     <path d="M 454.75 115.3675 
L 471.55 115.3675 
" style="fill:none;stroke:#00aaaa;stroke-linecap:square;"/>
    </g>
    <g id="line2d_43"/>
    <g id="text_26">
     <!-- 0.007 -->
     <g transform="translate(484.75 119.5675)scale(0.12 -0.12)">
      <use xlink:href="#BitstreamVeraSans-Roman-30"/>
      <use x="63.623046875" xlink:href="#BitstreamVeraSans-Roman-2e"/>
      <use x="95.41015625" xlink:href="#BitstreamVeraSans-Roman-30"/>
      <use x="159.033203125" xlink:href="#BitstreamVeraSans-Roman-30"/>
      <use x="222.65625" xlink:href="#BitstreamVeraSans-Roman-37"/>
     </g>
    </g>
    <g id="line2d_44">
     <path d="M 454.75 132.98125 
L 471.55 132.98125 
" style="fill:none;stroke:#00d594;stroke-linecap:square;"/>
    </g>
    <g id="line2d_45"/>
    <g id="text_27">
     <!-- 0.008 -->
     <g transform="translate(484.75 137.18125)scale(0.12 -0.12)">
      <use xlink:href="#BitstreamVeraSans-Roman-30"/>
      <use x="63.623046875" xlink:href="#BitstreamVeraSans-Roman-2e"/>
      <use x="95.41015625" xlink:href="#BitstreamVeraSans-Roman-30"/>
      <use x="159.033203125" xlink:href="#BitstreamVeraSans-Roman-30"/>
      <use x="222.65625" xlink:href="#BitstreamVeraSans-Roman-38"/>
     </g>
    </g>
    <g id="line2d_46">
     <path d="M 454.75 150.595 
L 471.55 150.595 
" style="fill:none;stroke:#000000;stroke-dasharray:6.000000,6.000000;stroke-dashoffset:0.0;stroke-width:2.0;"/>
    </g>
    <g id="line2d_47"/>
    <g id="text_28">
     <!-- Measured -->
     <defs>
      <path d="M 9.8125 72.90625 
L 24.515625 72.90625 
L 43.109375 23.296875 
L 61.8125 72.90625 
L 76.515625 72.90625 
L 76.515625 0 
L 66.890625 0 
L 66.890625 64.015625 
L 48.09375 14.015625 
L 38.1875 14.015625 
L 19.390625 64.015625 
L 19.390625 0 
L 9.8125 0 
z
" id="BitstreamVeraSans-Roman-4d"/>
     </defs>
     <g transform="translate(484.75 154.795)scale(0.12 -0.12)">
      <use xlink:href="#BitstreamVeraSans-Roman-4d"/>
      <use x="86.279296875" xlink:href="#BitstreamVeraSans-Roman-65"/>
      <use x="147.802734375" xlink:href="#BitstreamVeraSans-Roman-61"/>
      <use x="209.08203125" xlink:href="#BitstreamVeraSans-Roman-73"/>
      <use x="261.181640625" xlink:href="#BitstreamVeraSans-Roman-75"/>
      <use x="324.560546875" xlink:href="#BitstreamVeraSans-Roman-72"/>
      <use x="365.642578125" xlink:href="#BitstreamVeraSans-Roman-65"/>
      <use x="427.166015625" xlink:href="#BitstreamVeraSans-Roman-64"/>
     </g>
    </g>
   </g>
  </g>
 </g>
 <defs>
  <clipPath id="p2989d2fbe4">
   <rect height="334.8" width="502.2" x="63.7" y="14.9425"/>
  </clipPath>
 </defs>
</svg>
